%TF.GenerationSoftware,KiCad,Pcbnew,(5.1.10)-1*%
%TF.CreationDate,2021-11-27T13:57:11+01:00*%
%TF.ProjectId,SplashQuad,53706c61-7368-4517-9561-642e6b696361,rev?*%
%TF.SameCoordinates,Original*%
%TF.FileFunction,Copper,L2,Inr*%
%TF.FilePolarity,Positive*%
%FSLAX46Y46*%
G04 Gerber Fmt 4.6, Leading zero omitted, Abs format (unit mm)*
G04 Created by KiCad (PCBNEW (5.1.10)-1) date 2021-11-27 13:57:11*
%MOMM*%
%LPD*%
G01*
G04 APERTURE LIST*
%TA.AperFunction,ComponentPad*%
%ADD10C,0.800000*%
%TD*%
%TA.AperFunction,ComponentPad*%
%ADD11C,6.400000*%
%TD*%
%TA.AperFunction,ComponentPad*%
%ADD12O,0.800000X1.300000*%
%TD*%
%TA.AperFunction,ComponentPad*%
%ADD13O,1.300000X0.800000*%
%TD*%
%TA.AperFunction,ComponentPad*%
%ADD14O,1.000000X1.000000*%
%TD*%
%TA.AperFunction,ComponentPad*%
%ADD15R,1.000000X1.000000*%
%TD*%
%TA.AperFunction,ComponentPad*%
%ADD16O,1.200000X1.900000*%
%TD*%
%TA.AperFunction,ComponentPad*%
%ADD17C,1.450000*%
%TD*%
%TA.AperFunction,ViaPad*%
%ADD18C,0.800000*%
%TD*%
%TA.AperFunction,Conductor*%
%ADD19C,0.254000*%
%TD*%
%TA.AperFunction,Conductor*%
%ADD20C,0.100000*%
%TD*%
G04 APERTURE END LIST*
D10*
%TO.N,GND*%
%TO.C,H4*%
X187247056Y-82852944D03*
X185550000Y-82150000D03*
X183852944Y-82852944D03*
X183150000Y-84550000D03*
X183852944Y-86247056D03*
X185550000Y-86950000D03*
X187247056Y-86247056D03*
X187950000Y-84550000D03*
D11*
X185550000Y-84550000D03*
%TD*%
D10*
%TO.N,GND*%
%TO.C,H3*%
X187247056Y-118852944D03*
X185550000Y-118150000D03*
X183852944Y-118852944D03*
X183150000Y-120550000D03*
X183852944Y-122247056D03*
X185550000Y-122950000D03*
X187247056Y-122247056D03*
X187950000Y-120550000D03*
D11*
X185550000Y-120550000D03*
%TD*%
D10*
%TO.N,GND*%
%TO.C,H2*%
X135847056Y-118852944D03*
X134150000Y-118150000D03*
X132452944Y-118852944D03*
X131750000Y-120550000D03*
X132452944Y-122247056D03*
X134150000Y-122950000D03*
X135847056Y-122247056D03*
X136550000Y-120550000D03*
D11*
X134150000Y-120550000D03*
%TD*%
D10*
%TO.N,GND*%
%TO.C,H1*%
X135847056Y-82852944D03*
X134150000Y-82150000D03*
X132452944Y-82852944D03*
X131750000Y-84550000D03*
X132452944Y-86247056D03*
X134150000Y-86950000D03*
X135847056Y-86247056D03*
X136550000Y-84550000D03*
D11*
X134150000Y-84550000D03*
%TD*%
D12*
%TO.N,+3V3*%
%TO.C,J7*%
X152750000Y-85900000D03*
%TO.N,UART3_RX*%
X154000000Y-85900000D03*
%TO.N,UART3_TX*%
X155250000Y-85900000D03*
%TO.N,GND*%
%TA.AperFunction,ComponentPad*%
G36*
G01*
X156900000Y-85450000D02*
X156900000Y-86350000D01*
G75*
G02*
X156700000Y-86550000I-200000J0D01*
G01*
X156300000Y-86550000D01*
G75*
G02*
X156100000Y-86350000I0J200000D01*
G01*
X156100000Y-85450000D01*
G75*
G02*
X156300000Y-85250000I200000J0D01*
G01*
X156700000Y-85250000D01*
G75*
G02*
X156900000Y-85450000I0J-200000D01*
G01*
G37*
%TD.AperFunction*%
%TD*%
%TO.N,+3V3*%
%TO.C,J6*%
X158750000Y-119175000D03*
%TO.N,I2C3_SCL*%
X157500000Y-119175000D03*
%TO.N,I2C3_SDA*%
X156250000Y-119175000D03*
%TO.N,GND*%
%TA.AperFunction,ComponentPad*%
G36*
G01*
X154600000Y-119625000D02*
X154600000Y-118725000D01*
G75*
G02*
X154800000Y-118525000I200000J0D01*
G01*
X155200000Y-118525000D01*
G75*
G02*
X155400000Y-118725000I0J-200000D01*
G01*
X155400000Y-119625000D01*
G75*
G02*
X155200000Y-119825000I-200000J0D01*
G01*
X154800000Y-119825000D01*
G75*
G02*
X154600000Y-119625000I0J200000D01*
G01*
G37*
%TD.AperFunction*%
%TD*%
%TO.N,+3V3*%
%TO.C,J5*%
X145825000Y-119150000D03*
%TO.N,GPIO2*%
X144575000Y-119150000D03*
%TO.N,GPIO1*%
X143325000Y-119150000D03*
%TO.N,GND*%
%TA.AperFunction,ComponentPad*%
G36*
G01*
X141675000Y-119600000D02*
X141675000Y-118700000D01*
G75*
G02*
X141875000Y-118500000I200000J0D01*
G01*
X142275000Y-118500000D01*
G75*
G02*
X142475000Y-118700000I0J-200000D01*
G01*
X142475000Y-119600000D01*
G75*
G02*
X142275000Y-119800000I-200000J0D01*
G01*
X141875000Y-119800000D01*
G75*
G02*
X141675000Y-119600000I0J200000D01*
G01*
G37*
%TD.AperFunction*%
%TD*%
D13*
%TO.N,+3V3*%
%TO.C,J4*%
X135500000Y-114550000D03*
%TO.N,TIM2_CH4*%
X135500000Y-113300000D03*
%TO.N,TIM2_CH3*%
X135500000Y-112050000D03*
%TO.N,TIM2_CH2*%
X135500000Y-110800000D03*
%TO.N,TIM2_CH1*%
X135500000Y-109550000D03*
%TO.N,GND*%
%TA.AperFunction,ComponentPad*%
G36*
G01*
X135050000Y-107900000D02*
X135950000Y-107900000D01*
G75*
G02*
X136150000Y-108100000I0J-200000D01*
G01*
X136150000Y-108500000D01*
G75*
G02*
X135950000Y-108700000I-200000J0D01*
G01*
X135050000Y-108700000D01*
G75*
G02*
X134850000Y-108500000I0J200000D01*
G01*
X134850000Y-108100000D01*
G75*
G02*
X135050000Y-107900000I200000J0D01*
G01*
G37*
%TD.AperFunction*%
%TD*%
%TO.N,VDD*%
%TO.C,J3*%
X135525000Y-92225000D03*
%TO.N,GND*%
%TA.AperFunction,ComponentPad*%
G36*
G01*
X135075000Y-90575000D02*
X135975000Y-90575000D01*
G75*
G02*
X136175000Y-90775000I0J-200000D01*
G01*
X136175000Y-91175000D01*
G75*
G02*
X135975000Y-91375000I-200000J0D01*
G01*
X135075000Y-91375000D01*
G75*
G02*
X134875000Y-91175000I0J200000D01*
G01*
X134875000Y-90775000D01*
G75*
G02*
X135075000Y-90575000I200000J0D01*
G01*
G37*
%TD.AperFunction*%
%TD*%
D14*
%TO.N,NRST*%
%TO.C,J2*%
X184930000Y-89820000D03*
%TO.N,GND*%
X186200000Y-89820000D03*
%TO.N,Net-(J2-Pad8)*%
X184930000Y-91090000D03*
%TO.N,Net-(J2-Pad7)*%
X186200000Y-91090000D03*
%TO.N,Net-(J2-Pad6)*%
X184930000Y-92360000D03*
%TO.N,GND*%
X186200000Y-92360000D03*
%TO.N,SWDIO*%
X184930000Y-93630000D03*
%TO.N,GND*%
X186200000Y-93630000D03*
%TO.N,SWCLK*%
X184930000Y-94900000D03*
D15*
%TO.N,+3V3*%
X186200000Y-94900000D03*
%TD*%
D16*
%TO.N,Net-(J1-Pad6)*%
%TO.C,J1*%
X160050000Y-82712500D03*
X167050000Y-82712500D03*
D17*
X161050000Y-85412500D03*
X166050000Y-85412500D03*
%TD*%
D18*
%TO.N,GND*%
X172625000Y-98900000D03*
X176150000Y-111075000D03*
X142521940Y-90954860D03*
X154325000Y-92800000D03*
X153350000Y-89125000D03*
X149825000Y-90250000D03*
X168800000Y-111700000D03*
X175375000Y-114000000D03*
X172925000Y-115700000D03*
X174550000Y-114875000D03*
X169375000Y-115700000D03*
X171900000Y-108400000D03*
X172900000Y-108400000D03*
X170900000Y-108400000D03*
X174550000Y-109400000D03*
X150300000Y-110075000D03*
X151300000Y-110075000D03*
X149050000Y-110500000D03*
X152300000Y-96725000D03*
X139950000Y-95600000D03*
X135575000Y-103550000D03*
X138825000Y-96725000D03*
X141675000Y-87650000D03*
X161625000Y-89500000D03*
X162250000Y-86850000D03*
X163575000Y-121825000D03*
X164875000Y-121825000D03*
X166125000Y-121825000D03*
X167425000Y-121825000D03*
X132850000Y-98950000D03*
X137250000Y-103000000D03*
X138350000Y-103000000D03*
X141750000Y-110500000D03*
X161150000Y-96650000D03*
X170400000Y-104300000D03*
X170400000Y-102100000D03*
X173100000Y-104300000D03*
X173000000Y-102100000D03*
X171700000Y-104300000D03*
X171700000Y-102100000D03*
X174050000Y-105250000D03*
X174000000Y-101100000D03*
%TO.N,+3V3*%
X143300000Y-93100000D03*
X147400000Y-94050000D03*
X152400000Y-93625000D03*
X154325000Y-90075000D03*
X150650000Y-89125000D03*
X168800000Y-114475000D03*
X167975000Y-114275000D03*
X164675000Y-114275000D03*
X162575000Y-114275000D03*
X173800000Y-116800000D03*
X170900000Y-116700000D03*
X151350000Y-96725000D03*
X139950000Y-96550000D03*
X150300000Y-107150000D03*
X151300000Y-107150000D03*
X140775000Y-97625000D03*
X141675000Y-86700000D03*
X142575000Y-85825000D03*
X141675000Y-85825000D03*
X132700000Y-104850000D03*
X142700000Y-110500000D03*
X160800000Y-103200000D03*
X160800000Y-102100000D03*
X160800000Y-101000000D03*
%TO.N,NRST*%
X149250000Y-106000000D03*
X158500000Y-107600000D03*
X174950000Y-93975000D03*
X174950000Y-90500000D03*
%TO.N,SWDIO*%
X162700000Y-92250000D03*
X165325000Y-92250000D03*
%TO.N,SWCLK*%
X158450000Y-93975000D03*
X151100000Y-95575000D03*
%TO.N,UART3_TX*%
X148900000Y-95125000D03*
%TO.N,UART3_RX*%
X147250000Y-95125000D03*
%TO.N,BOOT1*%
X165700000Y-113850000D03*
X147300000Y-110500000D03*
%TO.N,BOOT0*%
X166950000Y-113900000D03*
X148550000Y-111750000D03*
X146350000Y-111750000D03*
X143850000Y-100350000D03*
%TO.N,I2C1_SCL*%
X167300000Y-96600000D03*
X145100000Y-98350000D03*
X169850000Y-108400000D03*
%TO.N,I2C1_SDA*%
X144700000Y-99350000D03*
X166350000Y-97350000D03*
X168650000Y-109450000D03*
%TO.N,UART1_TX*%
X157250000Y-97050000D03*
X157250000Y-98650000D03*
%TO.N,GPS_nRST*%
X155600000Y-104100000D03*
X158300000Y-105650000D03*
%TO.N,GPS_INT*%
X153950000Y-103800000D03*
X157150000Y-100550000D03*
%TO.N,GPS_PPS*%
X153217638Y-103225001D03*
X156166942Y-100616942D03*
%TO.N,BNO_INT*%
X172250000Y-110900000D03*
X154150000Y-109350000D03*
%TO.N,BNO_nRST*%
X154350000Y-110650000D03*
X172250000Y-111950000D03*
%TD*%
D19*
%TO.N,GND*%
X183429330Y-81332445D02*
X183388912Y-81359452D01*
X183028724Y-81849119D01*
X185550000Y-84370395D01*
X185564143Y-84356253D01*
X185743748Y-84535858D01*
X185729605Y-84550000D01*
X188250881Y-87071276D01*
X188740548Y-86711088D01*
X188769000Y-86658656D01*
X188769001Y-98569000D01*
X179221168Y-98569000D01*
X179200000Y-98566915D01*
X179178832Y-98569000D01*
X179115509Y-98575237D01*
X179034266Y-98599882D01*
X178959391Y-98639903D01*
X178893763Y-98693763D01*
X178839903Y-98759391D01*
X178799882Y-98834266D01*
X178775237Y-98915509D01*
X178766915Y-99000000D01*
X178769000Y-99021168D01*
X178769001Y-107378821D01*
X178766915Y-107400000D01*
X178775237Y-107484491D01*
X178799882Y-107565734D01*
X178839903Y-107640609D01*
X178893763Y-107706237D01*
X178959391Y-107760097D01*
X179034266Y-107800118D01*
X179115509Y-107824763D01*
X179178832Y-107831000D01*
X179200000Y-107833085D01*
X179221168Y-107831000D01*
X188769000Y-107831000D01*
X188769001Y-118432077D01*
X188767555Y-118429330D01*
X188740548Y-118388912D01*
X188250881Y-118028724D01*
X185729605Y-120550000D01*
X185743748Y-120564143D01*
X185564143Y-120743748D01*
X185550000Y-120729605D01*
X183028724Y-123250881D01*
X183388912Y-123740548D01*
X183441344Y-123769000D01*
X136267925Y-123769000D01*
X136270670Y-123767555D01*
X136311088Y-123740548D01*
X136671276Y-123250881D01*
X134150000Y-120729605D01*
X134135858Y-120743748D01*
X133956253Y-120564143D01*
X133970395Y-120550000D01*
X134329605Y-120550000D01*
X136850881Y-123071276D01*
X137340548Y-122711088D01*
X137700849Y-122047118D01*
X137924694Y-121325615D01*
X138003480Y-120574305D01*
X137999002Y-120525695D01*
X181696520Y-120525695D01*
X181765822Y-121277938D01*
X181980548Y-122002208D01*
X182332445Y-122670670D01*
X182359452Y-122711088D01*
X182849119Y-123071276D01*
X185370395Y-120550000D01*
X182849119Y-118028724D01*
X182359452Y-118388912D01*
X181999151Y-119052882D01*
X181775306Y-119774385D01*
X181696520Y-120525695D01*
X137999002Y-120525695D01*
X137934178Y-119822062D01*
X137927638Y-119800000D01*
X141036928Y-119800000D01*
X141049188Y-119924482D01*
X141085498Y-120044180D01*
X141144463Y-120154494D01*
X141223815Y-120251185D01*
X141320506Y-120330537D01*
X141430820Y-120389502D01*
X141550518Y-120425812D01*
X141675000Y-120438072D01*
X141789250Y-120435000D01*
X141948000Y-120276250D01*
X141948000Y-119277000D01*
X141198750Y-119277000D01*
X141040000Y-119435750D01*
X141036928Y-119800000D01*
X137927638Y-119800000D01*
X137719452Y-119097792D01*
X137404758Y-118500000D01*
X141036928Y-118500000D01*
X141040000Y-118864250D01*
X141198750Y-119023000D01*
X141948000Y-119023000D01*
X141948000Y-118023750D01*
X142202000Y-118023750D01*
X142202000Y-119023000D01*
X142222000Y-119023000D01*
X142222000Y-119277000D01*
X142202000Y-119277000D01*
X142202000Y-120276250D01*
X142360750Y-120435000D01*
X142475000Y-120438072D01*
X142599482Y-120425812D01*
X142719180Y-120389502D01*
X142829494Y-120330537D01*
X142926185Y-120251185D01*
X143005537Y-120154494D01*
X143022036Y-120123627D01*
X143024679Y-120125040D01*
X143171898Y-120169699D01*
X143325000Y-120184778D01*
X143478103Y-120169699D01*
X143625322Y-120125040D01*
X143760999Y-120052519D01*
X143879922Y-119954922D01*
X143950000Y-119869531D01*
X144020079Y-119954922D01*
X144139002Y-120052519D01*
X144274679Y-120125040D01*
X144421898Y-120169699D01*
X144575000Y-120184778D01*
X144728103Y-120169699D01*
X144875322Y-120125040D01*
X145010999Y-120052519D01*
X145129922Y-119954922D01*
X145200000Y-119869531D01*
X145270079Y-119954922D01*
X145389002Y-120052519D01*
X145524679Y-120125040D01*
X145671898Y-120169699D01*
X145825000Y-120184778D01*
X145978103Y-120169699D01*
X146125322Y-120125040D01*
X146260999Y-120052519D01*
X146379922Y-119954922D01*
X146477519Y-119835999D01*
X146483398Y-119825000D01*
X153961928Y-119825000D01*
X153974188Y-119949482D01*
X154010498Y-120069180D01*
X154069463Y-120179494D01*
X154148815Y-120276185D01*
X154245506Y-120355537D01*
X154355820Y-120414502D01*
X154475518Y-120450812D01*
X154600000Y-120463072D01*
X154714250Y-120460000D01*
X154873000Y-120301250D01*
X154873000Y-119302000D01*
X154123750Y-119302000D01*
X153965000Y-119460750D01*
X153961928Y-119825000D01*
X146483398Y-119825000D01*
X146550040Y-119700322D01*
X146594699Y-119553103D01*
X146606000Y-119438360D01*
X146606000Y-118861640D01*
X146594699Y-118746897D01*
X146550040Y-118599678D01*
X146510124Y-118525000D01*
X153961928Y-118525000D01*
X153965000Y-118889250D01*
X154123750Y-119048000D01*
X154873000Y-119048000D01*
X154873000Y-118048750D01*
X155127000Y-118048750D01*
X155127000Y-119048000D01*
X155147000Y-119048000D01*
X155147000Y-119302000D01*
X155127000Y-119302000D01*
X155127000Y-120301250D01*
X155285750Y-120460000D01*
X155400000Y-120463072D01*
X155524482Y-120450812D01*
X155644180Y-120414502D01*
X155754494Y-120355537D01*
X155851185Y-120276185D01*
X155930537Y-120179494D01*
X155947036Y-120148627D01*
X155949679Y-120150040D01*
X156096898Y-120194699D01*
X156250000Y-120209778D01*
X156403103Y-120194699D01*
X156550322Y-120150040D01*
X156685999Y-120077519D01*
X156804922Y-119979922D01*
X156875000Y-119894531D01*
X156945079Y-119979922D01*
X157064002Y-120077519D01*
X157199679Y-120150040D01*
X157346898Y-120194699D01*
X157500000Y-120209778D01*
X157653103Y-120194699D01*
X157800322Y-120150040D01*
X157935999Y-120077519D01*
X158054922Y-119979922D01*
X158125000Y-119894531D01*
X158195079Y-119979922D01*
X158314002Y-120077519D01*
X158449679Y-120150040D01*
X158596898Y-120194699D01*
X158750000Y-120209778D01*
X158903103Y-120194699D01*
X159050322Y-120150040D01*
X159185999Y-120077519D01*
X159304922Y-119979922D01*
X159402519Y-119860999D01*
X159475040Y-119725322D01*
X159519699Y-119578103D01*
X159531000Y-119463360D01*
X159531000Y-118886640D01*
X159519699Y-118771897D01*
X159475040Y-118624678D01*
X159402519Y-118489001D01*
X159304922Y-118370078D01*
X159185998Y-118272481D01*
X159050321Y-118199960D01*
X158903102Y-118155301D01*
X158750000Y-118140222D01*
X158596897Y-118155301D01*
X158449678Y-118199960D01*
X158314001Y-118272481D01*
X158195078Y-118370078D01*
X158125000Y-118455469D01*
X158054922Y-118370078D01*
X157935998Y-118272481D01*
X157800321Y-118199960D01*
X157653102Y-118155301D01*
X157500000Y-118140222D01*
X157346897Y-118155301D01*
X157199678Y-118199960D01*
X157064001Y-118272481D01*
X156945078Y-118370078D01*
X156875000Y-118455469D01*
X156804922Y-118370078D01*
X156685998Y-118272481D01*
X156550321Y-118199960D01*
X156403102Y-118155301D01*
X156250000Y-118140222D01*
X156096897Y-118155301D01*
X155949678Y-118199960D01*
X155947036Y-118201372D01*
X155930537Y-118170506D01*
X155851185Y-118073815D01*
X155754494Y-117994463D01*
X155644180Y-117935498D01*
X155524482Y-117899188D01*
X155400000Y-117886928D01*
X155285750Y-117890000D01*
X155127000Y-118048750D01*
X154873000Y-118048750D01*
X154714250Y-117890000D01*
X154600000Y-117886928D01*
X154475518Y-117899188D01*
X154355820Y-117935498D01*
X154245506Y-117994463D01*
X154148815Y-118073815D01*
X154069463Y-118170506D01*
X154010498Y-118280820D01*
X153974188Y-118400518D01*
X153961928Y-118525000D01*
X146510124Y-118525000D01*
X146477519Y-118464001D01*
X146379922Y-118345078D01*
X146260998Y-118247481D01*
X146125321Y-118174960D01*
X145978102Y-118130301D01*
X145825000Y-118115222D01*
X145671897Y-118130301D01*
X145524678Y-118174960D01*
X145389001Y-118247481D01*
X145270078Y-118345078D01*
X145200000Y-118430469D01*
X145129922Y-118345078D01*
X145010998Y-118247481D01*
X144875321Y-118174960D01*
X144728102Y-118130301D01*
X144575000Y-118115222D01*
X144421897Y-118130301D01*
X144274678Y-118174960D01*
X144139001Y-118247481D01*
X144020078Y-118345078D01*
X143950000Y-118430469D01*
X143879922Y-118345078D01*
X143760998Y-118247481D01*
X143625321Y-118174960D01*
X143478102Y-118130301D01*
X143325000Y-118115222D01*
X143171897Y-118130301D01*
X143024678Y-118174960D01*
X143022036Y-118176372D01*
X143005537Y-118145506D01*
X142926185Y-118048815D01*
X142829494Y-117969463D01*
X142719180Y-117910498D01*
X142599482Y-117874188D01*
X142475000Y-117861928D01*
X142360750Y-117865000D01*
X142202000Y-118023750D01*
X141948000Y-118023750D01*
X141789250Y-117865000D01*
X141675000Y-117861928D01*
X141550518Y-117874188D01*
X141430820Y-117910498D01*
X141320506Y-117969463D01*
X141223815Y-118048815D01*
X141144463Y-118145506D01*
X141085498Y-118255820D01*
X141049188Y-118375518D01*
X141036928Y-118500000D01*
X137404758Y-118500000D01*
X137367555Y-118429330D01*
X137340548Y-118388912D01*
X136850881Y-118028724D01*
X134329605Y-120550000D01*
X133970395Y-120550000D01*
X131449119Y-118028724D01*
X130959452Y-118388912D01*
X130931000Y-118441344D01*
X130931000Y-117849119D01*
X131628724Y-117849119D01*
X134150000Y-120370395D01*
X136671276Y-117849119D01*
X183028724Y-117849119D01*
X185550000Y-120370395D01*
X188071276Y-117849119D01*
X187711088Y-117359452D01*
X187047118Y-116999151D01*
X186325615Y-116775306D01*
X185574305Y-116696520D01*
X184822062Y-116765822D01*
X184097792Y-116980548D01*
X183429330Y-117332445D01*
X183388912Y-117359452D01*
X183028724Y-117849119D01*
X136671276Y-117849119D01*
X136311088Y-117359452D01*
X135647118Y-116999151D01*
X134925615Y-116775306D01*
X134174305Y-116696520D01*
X133422062Y-116765822D01*
X132697792Y-116980548D01*
X132029330Y-117332445D01*
X131988912Y-117359452D01*
X131628724Y-117849119D01*
X130931000Y-117849119D01*
X130931000Y-116623078D01*
X170119000Y-116623078D01*
X170119000Y-116776922D01*
X170149013Y-116927809D01*
X170207887Y-117069942D01*
X170293358Y-117197859D01*
X170402141Y-117306642D01*
X170530058Y-117392113D01*
X170672191Y-117450987D01*
X170823078Y-117481000D01*
X170976922Y-117481000D01*
X171127809Y-117450987D01*
X171269942Y-117392113D01*
X171397859Y-117306642D01*
X171506642Y-117197859D01*
X171592113Y-117069942D01*
X171650987Y-116927809D01*
X171681000Y-116776922D01*
X171681000Y-116723078D01*
X173019000Y-116723078D01*
X173019000Y-116876922D01*
X173049013Y-117027809D01*
X173107887Y-117169942D01*
X173193358Y-117297859D01*
X173302141Y-117406642D01*
X173430058Y-117492113D01*
X173572191Y-117550987D01*
X173723078Y-117581000D01*
X173876922Y-117581000D01*
X174027809Y-117550987D01*
X174169942Y-117492113D01*
X174297859Y-117406642D01*
X174406642Y-117297859D01*
X174492113Y-117169942D01*
X174550987Y-117027809D01*
X174581000Y-116876922D01*
X174581000Y-116723078D01*
X174550987Y-116572191D01*
X174492113Y-116430058D01*
X174406642Y-116302141D01*
X174297859Y-116193358D01*
X174169942Y-116107887D01*
X174027809Y-116049013D01*
X173876922Y-116019000D01*
X173723078Y-116019000D01*
X173572191Y-116049013D01*
X173430058Y-116107887D01*
X173302141Y-116193358D01*
X173193358Y-116302141D01*
X173107887Y-116430058D01*
X173049013Y-116572191D01*
X173019000Y-116723078D01*
X171681000Y-116723078D01*
X171681000Y-116623078D01*
X171650987Y-116472191D01*
X171592113Y-116330058D01*
X171506642Y-116202141D01*
X171397859Y-116093358D01*
X171269942Y-116007887D01*
X171127809Y-115949013D01*
X170976922Y-115919000D01*
X170823078Y-115919000D01*
X170672191Y-115949013D01*
X170530058Y-116007887D01*
X170402141Y-116093358D01*
X170293358Y-116202141D01*
X170207887Y-116330058D01*
X170149013Y-116472191D01*
X170119000Y-116623078D01*
X130931000Y-116623078D01*
X130931000Y-108700000D01*
X134211928Y-108700000D01*
X134224188Y-108824482D01*
X134260498Y-108944180D01*
X134319463Y-109054494D01*
X134398815Y-109151185D01*
X134495506Y-109230537D01*
X134526372Y-109247036D01*
X134524960Y-109249678D01*
X134480301Y-109396897D01*
X134465222Y-109550000D01*
X134480301Y-109703103D01*
X134524960Y-109850322D01*
X134597481Y-109985999D01*
X134695078Y-110104922D01*
X134780469Y-110175000D01*
X134695078Y-110245078D01*
X134597481Y-110364001D01*
X134524960Y-110499678D01*
X134480301Y-110646897D01*
X134465222Y-110800000D01*
X134480301Y-110953103D01*
X134524960Y-111100322D01*
X134597481Y-111235999D01*
X134695078Y-111354922D01*
X134780469Y-111425000D01*
X134695078Y-111495078D01*
X134597481Y-111614001D01*
X134524960Y-111749678D01*
X134480301Y-111896897D01*
X134465222Y-112050000D01*
X134480301Y-112203103D01*
X134524960Y-112350322D01*
X134597481Y-112485999D01*
X134695078Y-112604922D01*
X134780469Y-112675000D01*
X134695078Y-112745078D01*
X134597481Y-112864001D01*
X134524960Y-112999678D01*
X134480301Y-113146897D01*
X134465222Y-113300000D01*
X134480301Y-113453103D01*
X134524960Y-113600322D01*
X134597481Y-113735999D01*
X134695078Y-113854922D01*
X134780469Y-113925000D01*
X134695078Y-113995078D01*
X134597481Y-114114001D01*
X134524960Y-114249678D01*
X134480301Y-114396897D01*
X134465222Y-114550000D01*
X134480301Y-114703103D01*
X134524960Y-114850322D01*
X134597481Y-114985999D01*
X134695078Y-115104922D01*
X134814001Y-115202519D01*
X134949678Y-115275040D01*
X135096897Y-115319699D01*
X135211640Y-115331000D01*
X135788360Y-115331000D01*
X135903103Y-115319699D01*
X136050322Y-115275040D01*
X136185999Y-115202519D01*
X136304922Y-115104922D01*
X136402519Y-114985999D01*
X136475040Y-114850322D01*
X136519699Y-114703103D01*
X136534778Y-114550000D01*
X136519699Y-114396897D01*
X136475040Y-114249678D01*
X136447460Y-114198078D01*
X161794000Y-114198078D01*
X161794000Y-114351922D01*
X161824013Y-114502809D01*
X161882887Y-114644942D01*
X161968358Y-114772859D01*
X162077141Y-114881642D01*
X162205058Y-114967113D01*
X162347191Y-115025987D01*
X162498078Y-115056000D01*
X162651922Y-115056000D01*
X162802809Y-115025987D01*
X162944942Y-114967113D01*
X163072859Y-114881642D01*
X163181642Y-114772859D01*
X163267113Y-114644942D01*
X163325987Y-114502809D01*
X163356000Y-114351922D01*
X163356000Y-114198078D01*
X163894000Y-114198078D01*
X163894000Y-114351922D01*
X163924013Y-114502809D01*
X163982887Y-114644942D01*
X164068358Y-114772859D01*
X164177141Y-114881642D01*
X164305058Y-114967113D01*
X164447191Y-115025987D01*
X164598078Y-115056000D01*
X164751922Y-115056000D01*
X164902809Y-115025987D01*
X165044942Y-114967113D01*
X165172859Y-114881642D01*
X165281642Y-114772859D01*
X165367113Y-114644942D01*
X165398042Y-114570273D01*
X165472191Y-114600987D01*
X165623078Y-114631000D01*
X165776922Y-114631000D01*
X165927809Y-114600987D01*
X166069942Y-114542113D01*
X166197859Y-114456642D01*
X166306642Y-114347859D01*
X166308296Y-114345384D01*
X166343358Y-114397859D01*
X166452141Y-114506642D01*
X166580058Y-114592113D01*
X166722191Y-114650987D01*
X166873078Y-114681000D01*
X167026922Y-114681000D01*
X167177809Y-114650987D01*
X167269636Y-114612951D01*
X167282887Y-114644942D01*
X167368358Y-114772859D01*
X167477141Y-114881642D01*
X167605058Y-114967113D01*
X167747191Y-115025987D01*
X167898078Y-115056000D01*
X168051922Y-115056000D01*
X168202809Y-115025987D01*
X168233693Y-115013194D01*
X168302141Y-115081642D01*
X168430058Y-115167113D01*
X168572191Y-115225987D01*
X168723078Y-115256000D01*
X168876922Y-115256000D01*
X169027809Y-115225987D01*
X169169942Y-115167113D01*
X169297859Y-115081642D01*
X169406642Y-114972859D01*
X169492113Y-114844942D01*
X169550987Y-114702809D01*
X169581000Y-114551922D01*
X169581000Y-114398078D01*
X169550987Y-114247191D01*
X169492113Y-114105058D01*
X169406642Y-113977141D01*
X169297859Y-113868358D01*
X169169942Y-113782887D01*
X169027809Y-113724013D01*
X168876922Y-113694000D01*
X168723078Y-113694000D01*
X168572191Y-113724013D01*
X168541307Y-113736806D01*
X168472859Y-113668358D01*
X168344942Y-113582887D01*
X168202809Y-113524013D01*
X168051922Y-113494000D01*
X167898078Y-113494000D01*
X167747191Y-113524013D01*
X167655364Y-113562049D01*
X167642113Y-113530058D01*
X167556642Y-113402141D01*
X167447859Y-113293358D01*
X167319942Y-113207887D01*
X167177809Y-113149013D01*
X167026922Y-113119000D01*
X166873078Y-113119000D01*
X166722191Y-113149013D01*
X166580058Y-113207887D01*
X166452141Y-113293358D01*
X166343358Y-113402141D01*
X166341704Y-113404616D01*
X166306642Y-113352141D01*
X166197859Y-113243358D01*
X166069942Y-113157887D01*
X165927809Y-113099013D01*
X165776922Y-113069000D01*
X165623078Y-113069000D01*
X165472191Y-113099013D01*
X165330058Y-113157887D01*
X165202141Y-113243358D01*
X165093358Y-113352141D01*
X165007887Y-113480058D01*
X164976958Y-113554727D01*
X164902809Y-113524013D01*
X164751922Y-113494000D01*
X164598078Y-113494000D01*
X164447191Y-113524013D01*
X164305058Y-113582887D01*
X164177141Y-113668358D01*
X164068358Y-113777141D01*
X163982887Y-113905058D01*
X163924013Y-114047191D01*
X163894000Y-114198078D01*
X163356000Y-114198078D01*
X163325987Y-114047191D01*
X163267113Y-113905058D01*
X163181642Y-113777141D01*
X163072859Y-113668358D01*
X162944942Y-113582887D01*
X162802809Y-113524013D01*
X162651922Y-113494000D01*
X162498078Y-113494000D01*
X162347191Y-113524013D01*
X162205058Y-113582887D01*
X162077141Y-113668358D01*
X161968358Y-113777141D01*
X161882887Y-113905058D01*
X161824013Y-114047191D01*
X161794000Y-114198078D01*
X136447460Y-114198078D01*
X136402519Y-114114001D01*
X136304922Y-113995078D01*
X136219531Y-113925000D01*
X136304922Y-113854922D01*
X136402519Y-113735999D01*
X136475040Y-113600322D01*
X136519699Y-113453103D01*
X136534778Y-113300000D01*
X136519699Y-113146897D01*
X136475040Y-112999678D01*
X136402519Y-112864001D01*
X136304922Y-112745078D01*
X136219531Y-112675000D01*
X136304922Y-112604922D01*
X136402519Y-112485999D01*
X136475040Y-112350322D01*
X136519699Y-112203103D01*
X136534778Y-112050000D01*
X136519699Y-111896897D01*
X136475040Y-111749678D01*
X136434097Y-111673078D01*
X145569000Y-111673078D01*
X145569000Y-111826922D01*
X145599013Y-111977809D01*
X145657887Y-112119942D01*
X145743358Y-112247859D01*
X145852141Y-112356642D01*
X145980058Y-112442113D01*
X146122191Y-112500987D01*
X146273078Y-112531000D01*
X146426922Y-112531000D01*
X146577809Y-112500987D01*
X146719942Y-112442113D01*
X146847859Y-112356642D01*
X146956642Y-112247859D01*
X147042113Y-112119942D01*
X147100987Y-111977809D01*
X147131000Y-111826922D01*
X147131000Y-111673078D01*
X147769000Y-111673078D01*
X147769000Y-111826922D01*
X147799013Y-111977809D01*
X147857887Y-112119942D01*
X147943358Y-112247859D01*
X148052141Y-112356642D01*
X148180058Y-112442113D01*
X148322191Y-112500987D01*
X148473078Y-112531000D01*
X148626922Y-112531000D01*
X148777809Y-112500987D01*
X148919942Y-112442113D01*
X149047859Y-112356642D01*
X149156642Y-112247859D01*
X149242113Y-112119942D01*
X149300987Y-111977809D01*
X149331000Y-111826922D01*
X149331000Y-111673078D01*
X149300987Y-111522191D01*
X149242113Y-111380058D01*
X149156642Y-111252141D01*
X149047859Y-111143358D01*
X148919942Y-111057887D01*
X148777809Y-110999013D01*
X148626922Y-110969000D01*
X148473078Y-110969000D01*
X148322191Y-110999013D01*
X148180058Y-111057887D01*
X148052141Y-111143358D01*
X147943358Y-111252141D01*
X147857887Y-111380058D01*
X147799013Y-111522191D01*
X147769000Y-111673078D01*
X147131000Y-111673078D01*
X147100987Y-111522191D01*
X147042113Y-111380058D01*
X146956642Y-111252141D01*
X146847859Y-111143358D01*
X146719942Y-111057887D01*
X146577809Y-110999013D01*
X146426922Y-110969000D01*
X146273078Y-110969000D01*
X146122191Y-110999013D01*
X145980058Y-111057887D01*
X145852141Y-111143358D01*
X145743358Y-111252141D01*
X145657887Y-111380058D01*
X145599013Y-111522191D01*
X145569000Y-111673078D01*
X136434097Y-111673078D01*
X136402519Y-111614001D01*
X136304922Y-111495078D01*
X136219531Y-111425000D01*
X136304922Y-111354922D01*
X136402519Y-111235999D01*
X136475040Y-111100322D01*
X136519699Y-110953103D01*
X136534778Y-110800000D01*
X136519699Y-110646897D01*
X136475040Y-110499678D01*
X136434097Y-110423078D01*
X141919000Y-110423078D01*
X141919000Y-110576922D01*
X141949013Y-110727809D01*
X142007887Y-110869942D01*
X142093358Y-110997859D01*
X142202141Y-111106642D01*
X142330058Y-111192113D01*
X142472191Y-111250987D01*
X142623078Y-111281000D01*
X142776922Y-111281000D01*
X142927809Y-111250987D01*
X143069942Y-111192113D01*
X143197859Y-111106642D01*
X143306642Y-110997859D01*
X143392113Y-110869942D01*
X143450987Y-110727809D01*
X143481000Y-110576922D01*
X143481000Y-110423078D01*
X146519000Y-110423078D01*
X146519000Y-110576922D01*
X146549013Y-110727809D01*
X146607887Y-110869942D01*
X146693358Y-110997859D01*
X146802141Y-111106642D01*
X146930058Y-111192113D01*
X147072191Y-111250987D01*
X147223078Y-111281000D01*
X147376922Y-111281000D01*
X147527809Y-111250987D01*
X147669942Y-111192113D01*
X147797859Y-111106642D01*
X147906642Y-110997859D01*
X147992113Y-110869942D01*
X148050987Y-110727809D01*
X148081000Y-110576922D01*
X148081000Y-110423078D01*
X148050987Y-110272191D01*
X147992113Y-110130058D01*
X147906642Y-110002141D01*
X147797859Y-109893358D01*
X147669942Y-109807887D01*
X147527809Y-109749013D01*
X147376922Y-109719000D01*
X147223078Y-109719000D01*
X147072191Y-109749013D01*
X146930058Y-109807887D01*
X146802141Y-109893358D01*
X146693358Y-110002141D01*
X146607887Y-110130058D01*
X146549013Y-110272191D01*
X146519000Y-110423078D01*
X143481000Y-110423078D01*
X143450987Y-110272191D01*
X143392113Y-110130058D01*
X143306642Y-110002141D01*
X143197859Y-109893358D01*
X143069942Y-109807887D01*
X142927809Y-109749013D01*
X142776922Y-109719000D01*
X142623078Y-109719000D01*
X142472191Y-109749013D01*
X142330058Y-109807887D01*
X142202141Y-109893358D01*
X142093358Y-110002141D01*
X142007887Y-110130058D01*
X141949013Y-110272191D01*
X141919000Y-110423078D01*
X136434097Y-110423078D01*
X136402519Y-110364001D01*
X136304922Y-110245078D01*
X136219531Y-110175000D01*
X136304922Y-110104922D01*
X136402519Y-109985999D01*
X136475040Y-109850322D01*
X136519699Y-109703103D01*
X136534778Y-109550000D01*
X136519699Y-109396897D01*
X136482139Y-109273078D01*
X153369000Y-109273078D01*
X153369000Y-109426922D01*
X153399013Y-109577809D01*
X153457887Y-109719942D01*
X153543358Y-109847859D01*
X153652141Y-109956642D01*
X153780058Y-110042113D01*
X153831909Y-110063590D01*
X153743358Y-110152141D01*
X153657887Y-110280058D01*
X153599013Y-110422191D01*
X153569000Y-110573078D01*
X153569000Y-110726922D01*
X153599013Y-110877809D01*
X153657887Y-111019942D01*
X153743358Y-111147859D01*
X153852141Y-111256642D01*
X153980058Y-111342113D01*
X154122191Y-111400987D01*
X154273078Y-111431000D01*
X154426922Y-111431000D01*
X154577809Y-111400987D01*
X154719942Y-111342113D01*
X154847859Y-111256642D01*
X154956642Y-111147859D01*
X155042113Y-111019942D01*
X155100987Y-110877809D01*
X155111873Y-110823078D01*
X171469000Y-110823078D01*
X171469000Y-110976922D01*
X171499013Y-111127809D01*
X171557887Y-111269942D01*
X171643358Y-111397859D01*
X171670499Y-111425000D01*
X171643358Y-111452141D01*
X171557887Y-111580058D01*
X171499013Y-111722191D01*
X171469000Y-111873078D01*
X171469000Y-112026922D01*
X171499013Y-112177809D01*
X171557887Y-112319942D01*
X171643358Y-112447859D01*
X171752141Y-112556642D01*
X171880058Y-112642113D01*
X172022191Y-112700987D01*
X172173078Y-112731000D01*
X172326922Y-112731000D01*
X172477809Y-112700987D01*
X172619942Y-112642113D01*
X172747859Y-112556642D01*
X172856642Y-112447859D01*
X172942113Y-112319942D01*
X173000987Y-112177809D01*
X173031000Y-112026922D01*
X173031000Y-111873078D01*
X173000987Y-111722191D01*
X172942113Y-111580058D01*
X172856642Y-111452141D01*
X172829501Y-111425000D01*
X172856642Y-111397859D01*
X172942113Y-111269942D01*
X173000987Y-111127809D01*
X173031000Y-110976922D01*
X173031000Y-110823078D01*
X173000987Y-110672191D01*
X172942113Y-110530058D01*
X172856642Y-110402141D01*
X172747859Y-110293358D01*
X172619942Y-110207887D01*
X172477809Y-110149013D01*
X172326922Y-110119000D01*
X172173078Y-110119000D01*
X172022191Y-110149013D01*
X171880058Y-110207887D01*
X171752141Y-110293358D01*
X171643358Y-110402141D01*
X171557887Y-110530058D01*
X171499013Y-110672191D01*
X171469000Y-110823078D01*
X155111873Y-110823078D01*
X155131000Y-110726922D01*
X155131000Y-110573078D01*
X155100987Y-110422191D01*
X155042113Y-110280058D01*
X154956642Y-110152141D01*
X154847859Y-110043358D01*
X154719942Y-109957887D01*
X154668091Y-109936410D01*
X154756642Y-109847859D01*
X154842113Y-109719942D01*
X154900987Y-109577809D01*
X154931000Y-109426922D01*
X154931000Y-109373078D01*
X167869000Y-109373078D01*
X167869000Y-109526922D01*
X167899013Y-109677809D01*
X167957887Y-109819942D01*
X168043358Y-109947859D01*
X168152141Y-110056642D01*
X168280058Y-110142113D01*
X168422191Y-110200987D01*
X168573078Y-110231000D01*
X168726922Y-110231000D01*
X168877809Y-110200987D01*
X169019942Y-110142113D01*
X169147859Y-110056642D01*
X169256642Y-109947859D01*
X169342113Y-109819942D01*
X169400987Y-109677809D01*
X169431000Y-109526922D01*
X169431000Y-109373078D01*
X169400987Y-109222191D01*
X169342113Y-109080058D01*
X169256642Y-108952141D01*
X169147859Y-108843358D01*
X169019942Y-108757887D01*
X168877809Y-108699013D01*
X168726922Y-108669000D01*
X168573078Y-108669000D01*
X168422191Y-108699013D01*
X168280058Y-108757887D01*
X168152141Y-108843358D01*
X168043358Y-108952141D01*
X167957887Y-109080058D01*
X167899013Y-109222191D01*
X167869000Y-109373078D01*
X154931000Y-109373078D01*
X154931000Y-109273078D01*
X154900987Y-109122191D01*
X154842113Y-108980058D01*
X154756642Y-108852141D01*
X154647859Y-108743358D01*
X154519942Y-108657887D01*
X154377809Y-108599013D01*
X154226922Y-108569000D01*
X154073078Y-108569000D01*
X153922191Y-108599013D01*
X153780058Y-108657887D01*
X153652141Y-108743358D01*
X153543358Y-108852141D01*
X153457887Y-108980058D01*
X153399013Y-109122191D01*
X153369000Y-109273078D01*
X136482139Y-109273078D01*
X136475040Y-109249678D01*
X136473628Y-109247036D01*
X136504494Y-109230537D01*
X136601185Y-109151185D01*
X136680537Y-109054494D01*
X136739502Y-108944180D01*
X136775812Y-108824482D01*
X136788072Y-108700000D01*
X136785000Y-108585750D01*
X136626250Y-108427000D01*
X135627000Y-108427000D01*
X135627000Y-108447000D01*
X135373000Y-108447000D01*
X135373000Y-108427000D01*
X134373750Y-108427000D01*
X134215000Y-108585750D01*
X134211928Y-108700000D01*
X130931000Y-108700000D01*
X130931000Y-107900000D01*
X134211928Y-107900000D01*
X134215000Y-108014250D01*
X134373750Y-108173000D01*
X135373000Y-108173000D01*
X135373000Y-107423750D01*
X135627000Y-107423750D01*
X135627000Y-108173000D01*
X136626250Y-108173000D01*
X136785000Y-108014250D01*
X136788072Y-107900000D01*
X136775812Y-107775518D01*
X136739502Y-107655820D01*
X136680537Y-107545506D01*
X136601185Y-107448815D01*
X136504494Y-107369463D01*
X136394180Y-107310498D01*
X136274482Y-107274188D01*
X136150000Y-107261928D01*
X135785750Y-107265000D01*
X135627000Y-107423750D01*
X135373000Y-107423750D01*
X135214250Y-107265000D01*
X134850000Y-107261928D01*
X134725518Y-107274188D01*
X134605820Y-107310498D01*
X134495506Y-107369463D01*
X134398815Y-107448815D01*
X134319463Y-107545506D01*
X134260498Y-107655820D01*
X134224188Y-107775518D01*
X134211928Y-107900000D01*
X130931000Y-107900000D01*
X130931000Y-105923078D01*
X148469000Y-105923078D01*
X148469000Y-106076922D01*
X148499013Y-106227809D01*
X148557887Y-106369942D01*
X148643358Y-106497859D01*
X148752141Y-106606642D01*
X148880058Y-106692113D01*
X149022191Y-106750987D01*
X149173078Y-106781000D01*
X149326922Y-106781000D01*
X149477809Y-106750987D01*
X149619942Y-106692113D01*
X149720730Y-106624769D01*
X149693358Y-106652141D01*
X149607887Y-106780058D01*
X149549013Y-106922191D01*
X149519000Y-107073078D01*
X149519000Y-107226922D01*
X149549013Y-107377809D01*
X149607887Y-107519942D01*
X149693358Y-107647859D01*
X149802141Y-107756642D01*
X149930058Y-107842113D01*
X150072191Y-107900987D01*
X150223078Y-107931000D01*
X150376922Y-107931000D01*
X150527809Y-107900987D01*
X150669942Y-107842113D01*
X150797859Y-107756642D01*
X150800000Y-107754501D01*
X150802141Y-107756642D01*
X150930058Y-107842113D01*
X151072191Y-107900987D01*
X151223078Y-107931000D01*
X151376922Y-107931000D01*
X151527809Y-107900987D01*
X151669942Y-107842113D01*
X151797859Y-107756642D01*
X151906642Y-107647859D01*
X151990017Y-107523078D01*
X157719000Y-107523078D01*
X157719000Y-107676922D01*
X157749013Y-107827809D01*
X157807887Y-107969942D01*
X157893358Y-108097859D01*
X158002141Y-108206642D01*
X158130058Y-108292113D01*
X158272191Y-108350987D01*
X158423078Y-108381000D01*
X158576922Y-108381000D01*
X158727809Y-108350987D01*
X158795186Y-108323078D01*
X169069000Y-108323078D01*
X169069000Y-108476922D01*
X169099013Y-108627809D01*
X169157887Y-108769942D01*
X169243358Y-108897859D01*
X169352141Y-109006642D01*
X169480058Y-109092113D01*
X169622191Y-109150987D01*
X169773078Y-109181000D01*
X169926922Y-109181000D01*
X170077809Y-109150987D01*
X170219942Y-109092113D01*
X170347859Y-109006642D01*
X170456642Y-108897859D01*
X170542113Y-108769942D01*
X170600987Y-108627809D01*
X170631000Y-108476922D01*
X170631000Y-108323078D01*
X170600987Y-108172191D01*
X170542113Y-108030058D01*
X170456642Y-107902141D01*
X170347859Y-107793358D01*
X170219942Y-107707887D01*
X170077809Y-107649013D01*
X169926922Y-107619000D01*
X169773078Y-107619000D01*
X169622191Y-107649013D01*
X169480058Y-107707887D01*
X169352141Y-107793358D01*
X169243358Y-107902141D01*
X169157887Y-108030058D01*
X169099013Y-108172191D01*
X169069000Y-108323078D01*
X158795186Y-108323078D01*
X158869942Y-108292113D01*
X158997859Y-108206642D01*
X159106642Y-108097859D01*
X159192113Y-107969942D01*
X159250987Y-107827809D01*
X159281000Y-107676922D01*
X159281000Y-107523078D01*
X159250987Y-107372191D01*
X159192113Y-107230058D01*
X159106642Y-107102141D01*
X158997859Y-106993358D01*
X158869942Y-106907887D01*
X158727809Y-106849013D01*
X158576922Y-106819000D01*
X158423078Y-106819000D01*
X158272191Y-106849013D01*
X158130058Y-106907887D01*
X158002141Y-106993358D01*
X157893358Y-107102141D01*
X157807887Y-107230058D01*
X157749013Y-107372191D01*
X157719000Y-107523078D01*
X151990017Y-107523078D01*
X151992113Y-107519942D01*
X152050987Y-107377809D01*
X152081000Y-107226922D01*
X152081000Y-107073078D01*
X152050987Y-106922191D01*
X151992113Y-106780058D01*
X151906642Y-106652141D01*
X151797859Y-106543358D01*
X151669942Y-106457887D01*
X151527809Y-106399013D01*
X151376922Y-106369000D01*
X151223078Y-106369000D01*
X151072191Y-106399013D01*
X150930058Y-106457887D01*
X150802141Y-106543358D01*
X150800000Y-106545499D01*
X150797859Y-106543358D01*
X150669942Y-106457887D01*
X150527809Y-106399013D01*
X150376922Y-106369000D01*
X150223078Y-106369000D01*
X150072191Y-106399013D01*
X149930058Y-106457887D01*
X149829270Y-106525231D01*
X149856642Y-106497859D01*
X149942113Y-106369942D01*
X150000987Y-106227809D01*
X150031000Y-106076922D01*
X150031000Y-105923078D01*
X150000987Y-105772191D01*
X149942113Y-105630058D01*
X149904041Y-105573078D01*
X157519000Y-105573078D01*
X157519000Y-105726922D01*
X157549013Y-105877809D01*
X157607887Y-106019942D01*
X157693358Y-106147859D01*
X157802141Y-106256642D01*
X157930058Y-106342113D01*
X158072191Y-106400987D01*
X158223078Y-106431000D01*
X158376922Y-106431000D01*
X158527809Y-106400987D01*
X158669942Y-106342113D01*
X158797859Y-106256642D01*
X158906642Y-106147859D01*
X158992113Y-106019942D01*
X159050987Y-105877809D01*
X159081000Y-105726922D01*
X159081000Y-105573078D01*
X159050987Y-105422191D01*
X158992113Y-105280058D01*
X158906642Y-105152141D01*
X158797859Y-105043358D01*
X158669942Y-104957887D01*
X158527809Y-104899013D01*
X158376922Y-104869000D01*
X158223078Y-104869000D01*
X158072191Y-104899013D01*
X157930058Y-104957887D01*
X157802141Y-105043358D01*
X157693358Y-105152141D01*
X157607887Y-105280058D01*
X157549013Y-105422191D01*
X157519000Y-105573078D01*
X149904041Y-105573078D01*
X149856642Y-105502141D01*
X149747859Y-105393358D01*
X149619942Y-105307887D01*
X149477809Y-105249013D01*
X149326922Y-105219000D01*
X149173078Y-105219000D01*
X149022191Y-105249013D01*
X148880058Y-105307887D01*
X148752141Y-105393358D01*
X148643358Y-105502141D01*
X148557887Y-105630058D01*
X148499013Y-105772191D01*
X148469000Y-105923078D01*
X130931000Y-105923078D01*
X130931000Y-104773078D01*
X131919000Y-104773078D01*
X131919000Y-104926922D01*
X131949013Y-105077809D01*
X132007887Y-105219942D01*
X132093358Y-105347859D01*
X132202141Y-105456642D01*
X132330058Y-105542113D01*
X132472191Y-105600987D01*
X132623078Y-105631000D01*
X132776922Y-105631000D01*
X132927809Y-105600987D01*
X133069942Y-105542113D01*
X133197859Y-105456642D01*
X133306642Y-105347859D01*
X133392113Y-105219942D01*
X133450987Y-105077809D01*
X133481000Y-104926922D01*
X133481000Y-104773078D01*
X133450987Y-104622191D01*
X133392113Y-104480058D01*
X133306642Y-104352141D01*
X133197859Y-104243358D01*
X133069942Y-104157887D01*
X132927809Y-104099013D01*
X132776922Y-104069000D01*
X132623078Y-104069000D01*
X132472191Y-104099013D01*
X132330058Y-104157887D01*
X132202141Y-104243358D01*
X132093358Y-104352141D01*
X132007887Y-104480058D01*
X131949013Y-104622191D01*
X131919000Y-104773078D01*
X130931000Y-104773078D01*
X130931000Y-103148079D01*
X152436638Y-103148079D01*
X152436638Y-103301923D01*
X152466651Y-103452810D01*
X152525525Y-103594943D01*
X152610996Y-103722860D01*
X152719779Y-103831643D01*
X152847696Y-103917114D01*
X152989829Y-103975988D01*
X153140716Y-104006001D01*
X153194675Y-104006001D01*
X153199013Y-104027809D01*
X153257887Y-104169942D01*
X153343358Y-104297859D01*
X153452141Y-104406642D01*
X153580058Y-104492113D01*
X153722191Y-104550987D01*
X153873078Y-104581000D01*
X154026922Y-104581000D01*
X154177809Y-104550987D01*
X154319942Y-104492113D01*
X154447859Y-104406642D01*
X154556642Y-104297859D01*
X154642113Y-104169942D01*
X154700987Y-104027809D01*
X154701928Y-104023078D01*
X154819000Y-104023078D01*
X154819000Y-104176922D01*
X154849013Y-104327809D01*
X154907887Y-104469942D01*
X154993358Y-104597859D01*
X155102141Y-104706642D01*
X155230058Y-104792113D01*
X155372191Y-104850987D01*
X155523078Y-104881000D01*
X155676922Y-104881000D01*
X155827809Y-104850987D01*
X155969942Y-104792113D01*
X156097859Y-104706642D01*
X156206642Y-104597859D01*
X156292113Y-104469942D01*
X156350987Y-104327809D01*
X156381000Y-104176922D01*
X156381000Y-104023078D01*
X156350987Y-103872191D01*
X156292113Y-103730058D01*
X156206642Y-103602141D01*
X156097859Y-103493358D01*
X155969942Y-103407887D01*
X155827809Y-103349013D01*
X155676922Y-103319000D01*
X155523078Y-103319000D01*
X155372191Y-103349013D01*
X155230058Y-103407887D01*
X155102141Y-103493358D01*
X154993358Y-103602141D01*
X154907887Y-103730058D01*
X154849013Y-103872191D01*
X154819000Y-104023078D01*
X154701928Y-104023078D01*
X154731000Y-103876922D01*
X154731000Y-103723078D01*
X154700987Y-103572191D01*
X154642113Y-103430058D01*
X154556642Y-103302141D01*
X154447859Y-103193358D01*
X154319942Y-103107887D01*
X154177809Y-103049013D01*
X154026922Y-103019000D01*
X153972963Y-103019000D01*
X153968625Y-102997192D01*
X153909751Y-102855059D01*
X153824280Y-102727142D01*
X153715497Y-102618359D01*
X153587580Y-102532888D01*
X153445447Y-102474014D01*
X153294560Y-102444001D01*
X153140716Y-102444001D01*
X152989829Y-102474014D01*
X152847696Y-102532888D01*
X152719779Y-102618359D01*
X152610996Y-102727142D01*
X152525525Y-102855059D01*
X152466651Y-102997192D01*
X152436638Y-103148079D01*
X130931000Y-103148079D01*
X130931000Y-100273078D01*
X143069000Y-100273078D01*
X143069000Y-100426922D01*
X143099013Y-100577809D01*
X143157887Y-100719942D01*
X143243358Y-100847859D01*
X143352141Y-100956642D01*
X143480058Y-101042113D01*
X143622191Y-101100987D01*
X143773078Y-101131000D01*
X143926922Y-101131000D01*
X144077809Y-101100987D01*
X144219942Y-101042113D01*
X144347859Y-100956642D01*
X144456642Y-100847859D01*
X144542113Y-100719942D01*
X144600987Y-100577809D01*
X144608503Y-100540020D01*
X155385942Y-100540020D01*
X155385942Y-100693864D01*
X155415955Y-100844751D01*
X155474829Y-100986884D01*
X155560300Y-101114801D01*
X155669083Y-101223584D01*
X155797000Y-101309055D01*
X155939133Y-101367929D01*
X156090020Y-101397942D01*
X156243864Y-101397942D01*
X156394751Y-101367929D01*
X156536884Y-101309055D01*
X156664801Y-101223584D01*
X156699859Y-101188526D01*
X156780058Y-101242113D01*
X156922191Y-101300987D01*
X157073078Y-101331000D01*
X157226922Y-101331000D01*
X157377809Y-101300987D01*
X157519942Y-101242113D01*
X157647859Y-101156642D01*
X157756642Y-101047859D01*
X157840017Y-100923078D01*
X160019000Y-100923078D01*
X160019000Y-101076922D01*
X160049013Y-101227809D01*
X160107887Y-101369942D01*
X160193358Y-101497859D01*
X160245499Y-101550000D01*
X160193358Y-101602141D01*
X160107887Y-101730058D01*
X160049013Y-101872191D01*
X160019000Y-102023078D01*
X160019000Y-102176922D01*
X160049013Y-102327809D01*
X160107887Y-102469942D01*
X160193358Y-102597859D01*
X160245499Y-102650000D01*
X160193358Y-102702141D01*
X160107887Y-102830058D01*
X160049013Y-102972191D01*
X160019000Y-103123078D01*
X160019000Y-103276922D01*
X160049013Y-103427809D01*
X160107887Y-103569942D01*
X160193358Y-103697859D01*
X160302141Y-103806642D01*
X160430058Y-103892113D01*
X160572191Y-103950987D01*
X160723078Y-103981000D01*
X160876922Y-103981000D01*
X161027809Y-103950987D01*
X161169942Y-103892113D01*
X161297859Y-103806642D01*
X161406642Y-103697859D01*
X161492113Y-103569942D01*
X161550987Y-103427809D01*
X161581000Y-103276922D01*
X161581000Y-103123078D01*
X161550987Y-102972191D01*
X161492113Y-102830058D01*
X161406642Y-102702141D01*
X161354501Y-102650000D01*
X161406642Y-102597859D01*
X161492113Y-102469942D01*
X161550987Y-102327809D01*
X161581000Y-102176922D01*
X161581000Y-102023078D01*
X161550987Y-101872191D01*
X161492113Y-101730058D01*
X161406642Y-101602141D01*
X161354501Y-101550000D01*
X161406642Y-101497859D01*
X161492113Y-101369942D01*
X161550987Y-101227809D01*
X161581000Y-101076922D01*
X161581000Y-100923078D01*
X161550987Y-100772191D01*
X161492113Y-100630058D01*
X161406642Y-100502141D01*
X161297859Y-100393358D01*
X161169942Y-100307887D01*
X161027809Y-100249013D01*
X160876922Y-100219000D01*
X160723078Y-100219000D01*
X160572191Y-100249013D01*
X160430058Y-100307887D01*
X160302141Y-100393358D01*
X160193358Y-100502141D01*
X160107887Y-100630058D01*
X160049013Y-100772191D01*
X160019000Y-100923078D01*
X157840017Y-100923078D01*
X157842113Y-100919942D01*
X157900987Y-100777809D01*
X157931000Y-100626922D01*
X157931000Y-100473078D01*
X157900987Y-100322191D01*
X157842113Y-100180058D01*
X157756642Y-100052141D01*
X157647859Y-99943358D01*
X157519942Y-99857887D01*
X157377809Y-99799013D01*
X157226922Y-99769000D01*
X157073078Y-99769000D01*
X156922191Y-99799013D01*
X156780058Y-99857887D01*
X156652141Y-99943358D01*
X156617083Y-99978416D01*
X156536884Y-99924829D01*
X156394751Y-99865955D01*
X156243864Y-99835942D01*
X156090020Y-99835942D01*
X155939133Y-99865955D01*
X155797000Y-99924829D01*
X155669083Y-100010300D01*
X155560300Y-100119083D01*
X155474829Y-100247000D01*
X155415955Y-100389133D01*
X155385942Y-100540020D01*
X144608503Y-100540020D01*
X144631000Y-100426922D01*
X144631000Y-100273078D01*
X144601901Y-100126788D01*
X144623078Y-100131000D01*
X144776922Y-100131000D01*
X144927809Y-100100987D01*
X145069942Y-100042113D01*
X145197859Y-99956642D01*
X145306642Y-99847859D01*
X145392113Y-99719942D01*
X145450987Y-99577809D01*
X145481000Y-99426922D01*
X145481000Y-99273078D01*
X145450987Y-99122191D01*
X145425451Y-99060542D01*
X145469942Y-99042113D01*
X145597859Y-98956642D01*
X145706642Y-98847859D01*
X145792113Y-98719942D01*
X145850987Y-98577809D01*
X145851928Y-98573078D01*
X156469000Y-98573078D01*
X156469000Y-98726922D01*
X156499013Y-98877809D01*
X156557887Y-99019942D01*
X156643358Y-99147859D01*
X156752141Y-99256642D01*
X156880058Y-99342113D01*
X157022191Y-99400987D01*
X157173078Y-99431000D01*
X157326922Y-99431000D01*
X157477809Y-99400987D01*
X157619942Y-99342113D01*
X157747859Y-99256642D01*
X157856642Y-99147859D01*
X157942113Y-99019942D01*
X158000987Y-98877809D01*
X158031000Y-98726922D01*
X158031000Y-98573078D01*
X158000987Y-98422191D01*
X157942113Y-98280058D01*
X157856642Y-98152141D01*
X157747859Y-98043358D01*
X157619942Y-97957887D01*
X157477809Y-97899013D01*
X157326922Y-97869000D01*
X157173078Y-97869000D01*
X157022191Y-97899013D01*
X156880058Y-97957887D01*
X156752141Y-98043358D01*
X156643358Y-98152141D01*
X156557887Y-98280058D01*
X156499013Y-98422191D01*
X156469000Y-98573078D01*
X145851928Y-98573078D01*
X145881000Y-98426922D01*
X145881000Y-98273078D01*
X145850987Y-98122191D01*
X145792113Y-97980058D01*
X145706642Y-97852141D01*
X145597859Y-97743358D01*
X145469942Y-97657887D01*
X145327809Y-97599013D01*
X145176922Y-97569000D01*
X145023078Y-97569000D01*
X144872191Y-97599013D01*
X144730058Y-97657887D01*
X144602141Y-97743358D01*
X144493358Y-97852141D01*
X144407887Y-97980058D01*
X144349013Y-98122191D01*
X144319000Y-98273078D01*
X144319000Y-98426922D01*
X144349013Y-98577809D01*
X144374549Y-98639458D01*
X144330058Y-98657887D01*
X144202141Y-98743358D01*
X144093358Y-98852141D01*
X144007887Y-98980058D01*
X143949013Y-99122191D01*
X143919000Y-99273078D01*
X143919000Y-99426922D01*
X143948099Y-99573212D01*
X143926922Y-99569000D01*
X143773078Y-99569000D01*
X143622191Y-99599013D01*
X143480058Y-99657887D01*
X143352141Y-99743358D01*
X143243358Y-99852141D01*
X143157887Y-99980058D01*
X143099013Y-100122191D01*
X143069000Y-100273078D01*
X130931000Y-100273078D01*
X130931000Y-96473078D01*
X139169000Y-96473078D01*
X139169000Y-96626922D01*
X139199013Y-96777809D01*
X139257887Y-96919942D01*
X139343358Y-97047859D01*
X139452141Y-97156642D01*
X139580058Y-97242113D01*
X139722191Y-97300987D01*
X139873078Y-97331000D01*
X140026922Y-97331000D01*
X140053631Y-97325687D01*
X140024013Y-97397191D01*
X139994000Y-97548078D01*
X139994000Y-97701922D01*
X140024013Y-97852809D01*
X140082887Y-97994942D01*
X140168358Y-98122859D01*
X140277141Y-98231642D01*
X140405058Y-98317113D01*
X140547191Y-98375987D01*
X140698078Y-98406000D01*
X140851922Y-98406000D01*
X141002809Y-98375987D01*
X141144942Y-98317113D01*
X141272859Y-98231642D01*
X141381642Y-98122859D01*
X141467113Y-97994942D01*
X141525987Y-97852809D01*
X141556000Y-97701922D01*
X141556000Y-97548078D01*
X141525987Y-97397191D01*
X141467113Y-97255058D01*
X141381642Y-97127141D01*
X141272859Y-97018358D01*
X141144942Y-96932887D01*
X141002809Y-96874013D01*
X140851922Y-96844000D01*
X140698078Y-96844000D01*
X140671369Y-96849313D01*
X140700987Y-96777809D01*
X140731000Y-96626922D01*
X140731000Y-96473078D01*
X140700987Y-96322191D01*
X140642113Y-96180058D01*
X140556642Y-96052141D01*
X140447859Y-95943358D01*
X140319942Y-95857887D01*
X140177809Y-95799013D01*
X140026922Y-95769000D01*
X139873078Y-95769000D01*
X139722191Y-95799013D01*
X139580058Y-95857887D01*
X139452141Y-95943358D01*
X139343358Y-96052141D01*
X139257887Y-96180058D01*
X139199013Y-96322191D01*
X139169000Y-96473078D01*
X130931000Y-96473078D01*
X130931000Y-95048078D01*
X146469000Y-95048078D01*
X146469000Y-95201922D01*
X146499013Y-95352809D01*
X146557887Y-95494942D01*
X146643358Y-95622859D01*
X146752141Y-95731642D01*
X146880058Y-95817113D01*
X147022191Y-95875987D01*
X147173078Y-95906000D01*
X147326922Y-95906000D01*
X147477809Y-95875987D01*
X147619942Y-95817113D01*
X147747859Y-95731642D01*
X147856642Y-95622859D01*
X147942113Y-95494942D01*
X148000987Y-95352809D01*
X148031000Y-95201922D01*
X148031000Y-95048078D01*
X148119000Y-95048078D01*
X148119000Y-95201922D01*
X148149013Y-95352809D01*
X148207887Y-95494942D01*
X148293358Y-95622859D01*
X148402141Y-95731642D01*
X148530058Y-95817113D01*
X148672191Y-95875987D01*
X148823078Y-95906000D01*
X148976922Y-95906000D01*
X149127809Y-95875987D01*
X149269942Y-95817113D01*
X149397859Y-95731642D01*
X149506642Y-95622859D01*
X149590017Y-95498078D01*
X150319000Y-95498078D01*
X150319000Y-95651922D01*
X150349013Y-95802809D01*
X150407887Y-95944942D01*
X150493358Y-96072859D01*
X150602141Y-96181642D01*
X150720788Y-96260919D01*
X150657887Y-96355058D01*
X150599013Y-96497191D01*
X150569000Y-96648078D01*
X150569000Y-96801922D01*
X150599013Y-96952809D01*
X150657887Y-97094942D01*
X150743358Y-97222859D01*
X150852141Y-97331642D01*
X150980058Y-97417113D01*
X151122191Y-97475987D01*
X151273078Y-97506000D01*
X151426922Y-97506000D01*
X151577809Y-97475987D01*
X151719942Y-97417113D01*
X151847859Y-97331642D01*
X151956642Y-97222859D01*
X152042113Y-97094942D01*
X152092591Y-96973078D01*
X156469000Y-96973078D01*
X156469000Y-97126922D01*
X156499013Y-97277809D01*
X156557887Y-97419942D01*
X156643358Y-97547859D01*
X156752141Y-97656642D01*
X156880058Y-97742113D01*
X157022191Y-97800987D01*
X157173078Y-97831000D01*
X157326922Y-97831000D01*
X157477809Y-97800987D01*
X157619942Y-97742113D01*
X157747859Y-97656642D01*
X157856642Y-97547859D01*
X157942113Y-97419942D01*
X158000987Y-97277809D01*
X158001928Y-97273078D01*
X165569000Y-97273078D01*
X165569000Y-97426922D01*
X165599013Y-97577809D01*
X165657887Y-97719942D01*
X165743358Y-97847859D01*
X165852141Y-97956642D01*
X165980058Y-98042113D01*
X166122191Y-98100987D01*
X166273078Y-98131000D01*
X166426922Y-98131000D01*
X166577809Y-98100987D01*
X166719942Y-98042113D01*
X166847859Y-97956642D01*
X166956642Y-97847859D01*
X167042113Y-97719942D01*
X167100987Y-97577809D01*
X167131000Y-97426922D01*
X167131000Y-97362685D01*
X167223078Y-97381000D01*
X167376922Y-97381000D01*
X167527809Y-97350987D01*
X167669942Y-97292113D01*
X167797859Y-97206642D01*
X167906642Y-97097859D01*
X167992113Y-96969942D01*
X168050987Y-96827809D01*
X168081000Y-96676922D01*
X168081000Y-96523078D01*
X168050987Y-96372191D01*
X167992113Y-96230058D01*
X167906642Y-96102141D01*
X167797859Y-95993358D01*
X167669942Y-95907887D01*
X167527809Y-95849013D01*
X167376922Y-95819000D01*
X167223078Y-95819000D01*
X167072191Y-95849013D01*
X166930058Y-95907887D01*
X166802141Y-95993358D01*
X166693358Y-96102141D01*
X166607887Y-96230058D01*
X166549013Y-96372191D01*
X166519000Y-96523078D01*
X166519000Y-96587315D01*
X166426922Y-96569000D01*
X166273078Y-96569000D01*
X166122191Y-96599013D01*
X165980058Y-96657887D01*
X165852141Y-96743358D01*
X165743358Y-96852141D01*
X165657887Y-96980058D01*
X165599013Y-97122191D01*
X165569000Y-97273078D01*
X158001928Y-97273078D01*
X158031000Y-97126922D01*
X158031000Y-96973078D01*
X158000987Y-96822191D01*
X157942113Y-96680058D01*
X157856642Y-96552141D01*
X157747859Y-96443358D01*
X157619942Y-96357887D01*
X157477809Y-96299013D01*
X157326922Y-96269000D01*
X157173078Y-96269000D01*
X157022191Y-96299013D01*
X156880058Y-96357887D01*
X156752141Y-96443358D01*
X156643358Y-96552141D01*
X156557887Y-96680058D01*
X156499013Y-96822191D01*
X156469000Y-96973078D01*
X152092591Y-96973078D01*
X152100987Y-96952809D01*
X152131000Y-96801922D01*
X152131000Y-96648078D01*
X152100987Y-96497191D01*
X152042113Y-96355058D01*
X151956642Y-96227141D01*
X151847859Y-96118358D01*
X151729212Y-96039081D01*
X151792113Y-95944942D01*
X151850987Y-95802809D01*
X151881000Y-95651922D01*
X151881000Y-95498078D01*
X151850987Y-95347191D01*
X151792113Y-95205058D01*
X151706642Y-95077141D01*
X151597859Y-94968358D01*
X151469942Y-94882887D01*
X151327809Y-94824013D01*
X151176922Y-94794000D01*
X151023078Y-94794000D01*
X150872191Y-94824013D01*
X150730058Y-94882887D01*
X150602141Y-94968358D01*
X150493358Y-95077141D01*
X150407887Y-95205058D01*
X150349013Y-95347191D01*
X150319000Y-95498078D01*
X149590017Y-95498078D01*
X149592113Y-95494942D01*
X149650987Y-95352809D01*
X149681000Y-95201922D01*
X149681000Y-95048078D01*
X149650987Y-94897191D01*
X149592113Y-94755058D01*
X149506642Y-94627141D01*
X149397859Y-94518358D01*
X149269942Y-94432887D01*
X149127809Y-94374013D01*
X148976922Y-94344000D01*
X148823078Y-94344000D01*
X148672191Y-94374013D01*
X148530058Y-94432887D01*
X148402141Y-94518358D01*
X148293358Y-94627141D01*
X148207887Y-94755058D01*
X148149013Y-94897191D01*
X148119000Y-95048078D01*
X148031000Y-95048078D01*
X148000987Y-94897191D01*
X147942113Y-94755058D01*
X147882992Y-94666576D01*
X147897859Y-94656642D01*
X148006642Y-94547859D01*
X148092113Y-94419942D01*
X148150987Y-94277809D01*
X148181000Y-94126922D01*
X148181000Y-93973078D01*
X148150987Y-93822191D01*
X148092113Y-93680058D01*
X148006642Y-93552141D01*
X148002579Y-93548078D01*
X151619000Y-93548078D01*
X151619000Y-93701922D01*
X151649013Y-93852809D01*
X151707887Y-93994942D01*
X151793358Y-94122859D01*
X151902141Y-94231642D01*
X152030058Y-94317113D01*
X152172191Y-94375987D01*
X152323078Y-94406000D01*
X152476922Y-94406000D01*
X152627809Y-94375987D01*
X152769942Y-94317113D01*
X152897859Y-94231642D01*
X153006642Y-94122859D01*
X153092113Y-93994942D01*
X153132235Y-93898078D01*
X157669000Y-93898078D01*
X157669000Y-94051922D01*
X157699013Y-94202809D01*
X157757887Y-94344942D01*
X157843358Y-94472859D01*
X157952141Y-94581642D01*
X158080058Y-94667113D01*
X158222191Y-94725987D01*
X158373078Y-94756000D01*
X158526922Y-94756000D01*
X158677809Y-94725987D01*
X158819942Y-94667113D01*
X158947859Y-94581642D01*
X159056642Y-94472859D01*
X159142113Y-94344942D01*
X159200987Y-94202809D01*
X159231000Y-94051922D01*
X159231000Y-93898078D01*
X174169000Y-93898078D01*
X174169000Y-94051922D01*
X174199013Y-94202809D01*
X174257887Y-94344942D01*
X174343358Y-94472859D01*
X174452141Y-94581642D01*
X174580058Y-94667113D01*
X174722191Y-94725987D01*
X174873078Y-94756000D01*
X175026922Y-94756000D01*
X175177809Y-94725987D01*
X175319942Y-94667113D01*
X175447859Y-94581642D01*
X175556642Y-94472859D01*
X175642113Y-94344942D01*
X175700987Y-94202809D01*
X175731000Y-94051922D01*
X175731000Y-93898078D01*
X175700987Y-93747191D01*
X175642113Y-93605058D01*
X175556642Y-93477141D01*
X175447859Y-93368358D01*
X175319942Y-93282887D01*
X175177809Y-93224013D01*
X175026922Y-93194000D01*
X174873078Y-93194000D01*
X174722191Y-93224013D01*
X174580058Y-93282887D01*
X174452141Y-93368358D01*
X174343358Y-93477141D01*
X174257887Y-93605058D01*
X174199013Y-93747191D01*
X174169000Y-93898078D01*
X159231000Y-93898078D01*
X159200987Y-93747191D01*
X159142113Y-93605058D01*
X159056642Y-93477141D01*
X158947859Y-93368358D01*
X158819942Y-93282887D01*
X158677809Y-93224013D01*
X158526922Y-93194000D01*
X158373078Y-93194000D01*
X158222191Y-93224013D01*
X158080058Y-93282887D01*
X157952141Y-93368358D01*
X157843358Y-93477141D01*
X157757887Y-93605058D01*
X157699013Y-93747191D01*
X157669000Y-93898078D01*
X153132235Y-93898078D01*
X153150987Y-93852809D01*
X153181000Y-93701922D01*
X153181000Y-93548078D01*
X153150987Y-93397191D01*
X153092113Y-93255058D01*
X153006642Y-93127141D01*
X152897859Y-93018358D01*
X152769942Y-92932887D01*
X152627809Y-92874013D01*
X152476922Y-92844000D01*
X152323078Y-92844000D01*
X152172191Y-92874013D01*
X152030058Y-92932887D01*
X151902141Y-93018358D01*
X151793358Y-93127141D01*
X151707887Y-93255058D01*
X151649013Y-93397191D01*
X151619000Y-93548078D01*
X148002579Y-93548078D01*
X147897859Y-93443358D01*
X147769942Y-93357887D01*
X147627809Y-93299013D01*
X147476922Y-93269000D01*
X147323078Y-93269000D01*
X147172191Y-93299013D01*
X147030058Y-93357887D01*
X146902141Y-93443358D01*
X146793358Y-93552141D01*
X146707887Y-93680058D01*
X146649013Y-93822191D01*
X146619000Y-93973078D01*
X146619000Y-94126922D01*
X146649013Y-94277809D01*
X146707887Y-94419942D01*
X146767008Y-94508424D01*
X146752141Y-94518358D01*
X146643358Y-94627141D01*
X146557887Y-94755058D01*
X146499013Y-94897191D01*
X146469000Y-95048078D01*
X130931000Y-95048078D01*
X130931000Y-93023078D01*
X142519000Y-93023078D01*
X142519000Y-93176922D01*
X142549013Y-93327809D01*
X142607887Y-93469942D01*
X142693358Y-93597859D01*
X142802141Y-93706642D01*
X142930058Y-93792113D01*
X143072191Y-93850987D01*
X143223078Y-93881000D01*
X143376922Y-93881000D01*
X143527809Y-93850987D01*
X143669942Y-93792113D01*
X143797859Y-93706642D01*
X143906642Y-93597859D01*
X143992113Y-93469942D01*
X144050987Y-93327809D01*
X144081000Y-93176922D01*
X144081000Y-93023078D01*
X144050987Y-92872191D01*
X143992113Y-92730058D01*
X143906642Y-92602141D01*
X143797859Y-92493358D01*
X143669942Y-92407887D01*
X143527809Y-92349013D01*
X143376922Y-92319000D01*
X143223078Y-92319000D01*
X143072191Y-92349013D01*
X142930058Y-92407887D01*
X142802141Y-92493358D01*
X142693358Y-92602141D01*
X142607887Y-92730058D01*
X142549013Y-92872191D01*
X142519000Y-93023078D01*
X130931000Y-93023078D01*
X130931000Y-91375000D01*
X134236928Y-91375000D01*
X134249188Y-91499482D01*
X134285498Y-91619180D01*
X134344463Y-91729494D01*
X134423815Y-91826185D01*
X134520506Y-91905537D01*
X134551372Y-91922036D01*
X134549960Y-91924678D01*
X134505301Y-92071897D01*
X134490222Y-92225000D01*
X134505301Y-92378103D01*
X134549960Y-92525322D01*
X134622481Y-92660999D01*
X134720078Y-92779922D01*
X134839001Y-92877519D01*
X134974678Y-92950040D01*
X135121897Y-92994699D01*
X135236640Y-93006000D01*
X135813360Y-93006000D01*
X135928103Y-92994699D01*
X136075322Y-92950040D01*
X136210999Y-92877519D01*
X136329922Y-92779922D01*
X136427519Y-92660999D01*
X136500040Y-92525322D01*
X136544699Y-92378103D01*
X136559778Y-92225000D01*
X136554665Y-92173078D01*
X161919000Y-92173078D01*
X161919000Y-92326922D01*
X161949013Y-92477809D01*
X162007887Y-92619942D01*
X162093358Y-92747859D01*
X162202141Y-92856642D01*
X162330058Y-92942113D01*
X162472191Y-93000987D01*
X162623078Y-93031000D01*
X162776922Y-93031000D01*
X162927809Y-93000987D01*
X163069942Y-92942113D01*
X163197859Y-92856642D01*
X163306642Y-92747859D01*
X163392113Y-92619942D01*
X163450987Y-92477809D01*
X163481000Y-92326922D01*
X163481000Y-92173078D01*
X164544000Y-92173078D01*
X164544000Y-92326922D01*
X164574013Y-92477809D01*
X164632887Y-92619942D01*
X164718358Y-92747859D01*
X164827141Y-92856642D01*
X164955058Y-92942113D01*
X165097191Y-93000987D01*
X165248078Y-93031000D01*
X165401922Y-93031000D01*
X165552809Y-93000987D01*
X165694942Y-92942113D01*
X165822859Y-92856642D01*
X165931642Y-92747859D01*
X166017113Y-92619942D01*
X166075987Y-92477809D01*
X166106000Y-92326922D01*
X166106000Y-92173078D01*
X166075987Y-92022191D01*
X166017113Y-91880058D01*
X165931642Y-91752141D01*
X165822859Y-91643358D01*
X165694942Y-91557887D01*
X165552809Y-91499013D01*
X165401922Y-91469000D01*
X165248078Y-91469000D01*
X165097191Y-91499013D01*
X164955058Y-91557887D01*
X164827141Y-91643358D01*
X164718358Y-91752141D01*
X164632887Y-91880058D01*
X164574013Y-92022191D01*
X164544000Y-92173078D01*
X163481000Y-92173078D01*
X163450987Y-92022191D01*
X163392113Y-91880058D01*
X163306642Y-91752141D01*
X163197859Y-91643358D01*
X163069942Y-91557887D01*
X162927809Y-91499013D01*
X162776922Y-91469000D01*
X162623078Y-91469000D01*
X162472191Y-91499013D01*
X162330058Y-91557887D01*
X162202141Y-91643358D01*
X162093358Y-91752141D01*
X162007887Y-91880058D01*
X161949013Y-92022191D01*
X161919000Y-92173078D01*
X136554665Y-92173078D01*
X136544699Y-92071897D01*
X136500040Y-91924678D01*
X136498628Y-91922036D01*
X136529494Y-91905537D01*
X136626185Y-91826185D01*
X136705537Y-91729494D01*
X136764502Y-91619180D01*
X136800812Y-91499482D01*
X136813072Y-91375000D01*
X136810000Y-91260750D01*
X136651250Y-91102000D01*
X135652000Y-91102000D01*
X135652000Y-91122000D01*
X135398000Y-91122000D01*
X135398000Y-91102000D01*
X134398750Y-91102000D01*
X134240000Y-91260750D01*
X134236928Y-91375000D01*
X130931000Y-91375000D01*
X130931000Y-90575000D01*
X134236928Y-90575000D01*
X134240000Y-90689250D01*
X134398750Y-90848000D01*
X135398000Y-90848000D01*
X135398000Y-90098750D01*
X135652000Y-90098750D01*
X135652000Y-90848000D01*
X136651250Y-90848000D01*
X136810000Y-90689250D01*
X136813072Y-90575000D01*
X136800812Y-90450518D01*
X136764502Y-90330820D01*
X136705537Y-90220506D01*
X136626185Y-90123815D01*
X136529494Y-90044463D01*
X136442716Y-89998078D01*
X153544000Y-89998078D01*
X153544000Y-90151922D01*
X153574013Y-90302809D01*
X153632887Y-90444942D01*
X153718358Y-90572859D01*
X153827141Y-90681642D01*
X153955058Y-90767113D01*
X154097191Y-90825987D01*
X154248078Y-90856000D01*
X154401922Y-90856000D01*
X154552809Y-90825987D01*
X154694942Y-90767113D01*
X154822859Y-90681642D01*
X154931642Y-90572859D01*
X155017113Y-90444942D01*
X155026169Y-90423078D01*
X174169000Y-90423078D01*
X174169000Y-90576922D01*
X174199013Y-90727809D01*
X174257887Y-90869942D01*
X174343358Y-90997859D01*
X174452141Y-91106642D01*
X174580058Y-91192113D01*
X174722191Y-91250987D01*
X174873078Y-91281000D01*
X175026922Y-91281000D01*
X175177809Y-91250987D01*
X175319942Y-91192113D01*
X175447859Y-91106642D01*
X175556642Y-90997859D01*
X175642113Y-90869942D01*
X175700987Y-90727809D01*
X175731000Y-90576922D01*
X175731000Y-90423078D01*
X175700987Y-90272191D01*
X175642113Y-90130058D01*
X175556642Y-90002141D01*
X175447859Y-89893358D01*
X175319942Y-89807887D01*
X175177809Y-89749013D01*
X175098457Y-89733229D01*
X184049000Y-89733229D01*
X184049000Y-89906771D01*
X184082856Y-90076978D01*
X184149268Y-90237310D01*
X184245682Y-90381605D01*
X184319077Y-90455000D01*
X184245682Y-90528395D01*
X184149268Y-90672690D01*
X184082856Y-90833022D01*
X184049000Y-91003229D01*
X184049000Y-91176771D01*
X184082856Y-91346978D01*
X184149268Y-91507310D01*
X184245682Y-91651605D01*
X184319077Y-91725000D01*
X184245682Y-91798395D01*
X184149268Y-91942690D01*
X184082856Y-92103022D01*
X184049000Y-92273229D01*
X184049000Y-92446771D01*
X184082856Y-92616978D01*
X184149268Y-92777310D01*
X184245682Y-92921605D01*
X184319077Y-92995000D01*
X184245682Y-93068395D01*
X184149268Y-93212690D01*
X184082856Y-93373022D01*
X184049000Y-93543229D01*
X184049000Y-93716771D01*
X184082856Y-93886978D01*
X184149268Y-94047310D01*
X184245682Y-94191605D01*
X184319077Y-94265000D01*
X184245682Y-94338395D01*
X184149268Y-94482690D01*
X184082856Y-94643022D01*
X184049000Y-94813229D01*
X184049000Y-94986771D01*
X184082856Y-95156978D01*
X184149268Y-95317310D01*
X184245682Y-95461605D01*
X184368395Y-95584318D01*
X184512690Y-95680732D01*
X184673022Y-95747144D01*
X184843229Y-95781000D01*
X185016771Y-95781000D01*
X185186978Y-95747144D01*
X185347310Y-95680732D01*
X185405568Y-95641806D01*
X185429289Y-95670711D01*
X185487304Y-95718322D01*
X185553492Y-95753701D01*
X185625311Y-95775487D01*
X185700000Y-95782843D01*
X186700000Y-95782843D01*
X186774689Y-95775487D01*
X186846508Y-95753701D01*
X186912696Y-95718322D01*
X186970711Y-95670711D01*
X187018322Y-95612696D01*
X187053701Y-95546508D01*
X187075487Y-95474689D01*
X187082843Y-95400000D01*
X187082843Y-94400000D01*
X187077487Y-94345622D01*
X187187123Y-94190206D01*
X187277446Y-93986864D01*
X187294119Y-93931874D01*
X187167954Y-93757000D01*
X186327000Y-93757000D01*
X186327000Y-93777000D01*
X186073000Y-93777000D01*
X186073000Y-93757000D01*
X186053000Y-93757000D01*
X186053000Y-93503000D01*
X186073000Y-93503000D01*
X186073000Y-92487000D01*
X186327000Y-92487000D01*
X186327000Y-93503000D01*
X187167954Y-93503000D01*
X187294119Y-93328126D01*
X187277446Y-93273136D01*
X187187123Y-93069794D01*
X187134361Y-92995000D01*
X187187123Y-92920206D01*
X187277446Y-92716864D01*
X187294119Y-92661874D01*
X187167954Y-92487000D01*
X186327000Y-92487000D01*
X186073000Y-92487000D01*
X186053000Y-92487000D01*
X186053000Y-92233000D01*
X186073000Y-92233000D01*
X186073000Y-92213000D01*
X186327000Y-92213000D01*
X186327000Y-92233000D01*
X187167954Y-92233000D01*
X187294119Y-92058126D01*
X187277446Y-92003136D01*
X187187123Y-91799794D01*
X187058865Y-91617980D01*
X186965859Y-91529569D01*
X186980732Y-91507310D01*
X187047144Y-91346978D01*
X187081000Y-91176771D01*
X187081000Y-91003229D01*
X187047144Y-90833022D01*
X186980732Y-90672690D01*
X186965859Y-90650431D01*
X187058865Y-90562020D01*
X187187123Y-90380206D01*
X187277446Y-90176864D01*
X187294119Y-90121874D01*
X187167954Y-89947000D01*
X186327000Y-89947000D01*
X186327000Y-89967000D01*
X186073000Y-89967000D01*
X186073000Y-89947000D01*
X186053000Y-89947000D01*
X186053000Y-89693000D01*
X186073000Y-89693000D01*
X186073000Y-88850871D01*
X186327000Y-88850871D01*
X186327000Y-89693000D01*
X187167954Y-89693000D01*
X187294119Y-89518126D01*
X187277446Y-89463136D01*
X187187123Y-89259794D01*
X187058865Y-89077980D01*
X186897601Y-88924682D01*
X186709529Y-88805790D01*
X186501876Y-88725874D01*
X186327000Y-88850871D01*
X186073000Y-88850871D01*
X185898124Y-88725874D01*
X185690471Y-88805790D01*
X185502399Y-88924682D01*
X185367598Y-89052824D01*
X185347310Y-89039268D01*
X185186978Y-88972856D01*
X185016771Y-88939000D01*
X184843229Y-88939000D01*
X184673022Y-88972856D01*
X184512690Y-89039268D01*
X184368395Y-89135682D01*
X184245682Y-89258395D01*
X184149268Y-89402690D01*
X184082856Y-89563022D01*
X184049000Y-89733229D01*
X175098457Y-89733229D01*
X175026922Y-89719000D01*
X174873078Y-89719000D01*
X174722191Y-89749013D01*
X174580058Y-89807887D01*
X174452141Y-89893358D01*
X174343358Y-90002141D01*
X174257887Y-90130058D01*
X174199013Y-90272191D01*
X174169000Y-90423078D01*
X155026169Y-90423078D01*
X155075987Y-90302809D01*
X155106000Y-90151922D01*
X155106000Y-89998078D01*
X155075987Y-89847191D01*
X155017113Y-89705058D01*
X154931642Y-89577141D01*
X154822859Y-89468358D01*
X154694942Y-89382887D01*
X154552809Y-89324013D01*
X154401922Y-89294000D01*
X154248078Y-89294000D01*
X154097191Y-89324013D01*
X153955058Y-89382887D01*
X153827141Y-89468358D01*
X153718358Y-89577141D01*
X153632887Y-89705058D01*
X153574013Y-89847191D01*
X153544000Y-89998078D01*
X136442716Y-89998078D01*
X136419180Y-89985498D01*
X136299482Y-89949188D01*
X136175000Y-89936928D01*
X135810750Y-89940000D01*
X135652000Y-90098750D01*
X135398000Y-90098750D01*
X135239250Y-89940000D01*
X134875000Y-89936928D01*
X134750518Y-89949188D01*
X134630820Y-89985498D01*
X134520506Y-90044463D01*
X134423815Y-90123815D01*
X134344463Y-90220506D01*
X134285498Y-90330820D01*
X134249188Y-90450518D01*
X134236928Y-90575000D01*
X130931000Y-90575000D01*
X130931000Y-89048078D01*
X149869000Y-89048078D01*
X149869000Y-89201922D01*
X149899013Y-89352809D01*
X149957887Y-89494942D01*
X150043358Y-89622859D01*
X150152141Y-89731642D01*
X150280058Y-89817113D01*
X150422191Y-89875987D01*
X150573078Y-89906000D01*
X150726922Y-89906000D01*
X150877809Y-89875987D01*
X151019942Y-89817113D01*
X151147859Y-89731642D01*
X151256642Y-89622859D01*
X151342113Y-89494942D01*
X151400987Y-89352809D01*
X151431000Y-89201922D01*
X151431000Y-89048078D01*
X151400987Y-88897191D01*
X151342113Y-88755058D01*
X151256642Y-88627141D01*
X151147859Y-88518358D01*
X151019942Y-88432887D01*
X150877809Y-88374013D01*
X150726922Y-88344000D01*
X150573078Y-88344000D01*
X150422191Y-88374013D01*
X150280058Y-88432887D01*
X150152141Y-88518358D01*
X150043358Y-88627141D01*
X149957887Y-88755058D01*
X149899013Y-88897191D01*
X149869000Y-89048078D01*
X130931000Y-89048078D01*
X130931000Y-87250881D01*
X131628724Y-87250881D01*
X131988912Y-87740548D01*
X132652882Y-88100849D01*
X133374385Y-88324694D01*
X134125695Y-88403480D01*
X134877938Y-88334178D01*
X135602208Y-88119452D01*
X136270670Y-87767555D01*
X136311088Y-87740548D01*
X136671276Y-87250881D01*
X134150000Y-84729605D01*
X131628724Y-87250881D01*
X130931000Y-87250881D01*
X130931000Y-86667925D01*
X130932445Y-86670670D01*
X130959452Y-86711088D01*
X131449119Y-87071276D01*
X133970395Y-84550000D01*
X134329605Y-84550000D01*
X136850881Y-87071276D01*
X137340548Y-86711088D01*
X137700849Y-86047118D01*
X137793625Y-85748078D01*
X140894000Y-85748078D01*
X140894000Y-85901922D01*
X140924013Y-86052809D01*
X140982887Y-86194942D01*
X141028028Y-86262500D01*
X140982887Y-86330058D01*
X140924013Y-86472191D01*
X140894000Y-86623078D01*
X140894000Y-86776922D01*
X140924013Y-86927809D01*
X140982887Y-87069942D01*
X141068358Y-87197859D01*
X141177141Y-87306642D01*
X141305058Y-87392113D01*
X141447191Y-87450987D01*
X141598078Y-87481000D01*
X141751922Y-87481000D01*
X141902809Y-87450987D01*
X142044942Y-87392113D01*
X142172859Y-87306642D01*
X142228620Y-87250881D01*
X183028724Y-87250881D01*
X183388912Y-87740548D01*
X184052882Y-88100849D01*
X184774385Y-88324694D01*
X185525695Y-88403480D01*
X186277938Y-88334178D01*
X187002208Y-88119452D01*
X187670670Y-87767555D01*
X187711088Y-87740548D01*
X188071276Y-87250881D01*
X185550000Y-84729605D01*
X183028724Y-87250881D01*
X142228620Y-87250881D01*
X142281642Y-87197859D01*
X142367113Y-87069942D01*
X142425987Y-86927809D01*
X142456000Y-86776922D01*
X142456000Y-86623078D01*
X142450730Y-86596582D01*
X142498078Y-86606000D01*
X142651922Y-86606000D01*
X142802809Y-86575987D01*
X142944942Y-86517113D01*
X143072859Y-86431642D01*
X143181642Y-86322859D01*
X143267113Y-86194942D01*
X143325987Y-86052809D01*
X143356000Y-85901922D01*
X143356000Y-85748078D01*
X143328862Y-85611640D01*
X151969000Y-85611640D01*
X151969000Y-86188359D01*
X151980301Y-86303102D01*
X152024960Y-86450321D01*
X152097481Y-86585998D01*
X152195078Y-86704922D01*
X152314001Y-86802519D01*
X152449678Y-86875040D01*
X152596897Y-86919699D01*
X152750000Y-86934778D01*
X152903102Y-86919699D01*
X153050321Y-86875040D01*
X153185998Y-86802519D01*
X153304922Y-86704922D01*
X153375000Y-86619531D01*
X153445078Y-86704922D01*
X153564001Y-86802519D01*
X153699678Y-86875040D01*
X153846897Y-86919699D01*
X154000000Y-86934778D01*
X154153102Y-86919699D01*
X154300321Y-86875040D01*
X154435998Y-86802519D01*
X154554922Y-86704922D01*
X154625000Y-86619531D01*
X154695078Y-86704922D01*
X154814001Y-86802519D01*
X154949678Y-86875040D01*
X155096897Y-86919699D01*
X155250000Y-86934778D01*
X155403102Y-86919699D01*
X155550321Y-86875040D01*
X155552964Y-86873627D01*
X155569463Y-86904494D01*
X155648815Y-87001185D01*
X155745506Y-87080537D01*
X155855820Y-87139502D01*
X155975518Y-87175812D01*
X156100000Y-87188072D01*
X156214250Y-87185000D01*
X156373000Y-87026250D01*
X156373000Y-86027000D01*
X156627000Y-86027000D01*
X156627000Y-87026250D01*
X156785750Y-87185000D01*
X156900000Y-87188072D01*
X157024482Y-87175812D01*
X157144180Y-87139502D01*
X157254494Y-87080537D01*
X157351185Y-87001185D01*
X157430537Y-86904494D01*
X157489502Y-86794180D01*
X157525812Y-86674482D01*
X157538072Y-86550000D01*
X157535000Y-86185750D01*
X157376250Y-86027000D01*
X156627000Y-86027000D01*
X156373000Y-86027000D01*
X156353000Y-86027000D01*
X156353000Y-85773000D01*
X156373000Y-85773000D01*
X156373000Y-84773750D01*
X156627000Y-84773750D01*
X156627000Y-85773000D01*
X157376250Y-85773000D01*
X157535000Y-85614250D01*
X157537620Y-85303569D01*
X159944000Y-85303569D01*
X159944000Y-85521431D01*
X159986503Y-85735108D01*
X160069876Y-85936387D01*
X160190914Y-86117534D01*
X160344966Y-86271586D01*
X160526113Y-86392624D01*
X160727392Y-86475997D01*
X160941069Y-86518500D01*
X161158931Y-86518500D01*
X161372608Y-86475997D01*
X161573887Y-86392624D01*
X161755034Y-86271586D01*
X161909086Y-86117534D01*
X162030124Y-85936387D01*
X162113497Y-85735108D01*
X162156000Y-85521431D01*
X162156000Y-85303569D01*
X164944000Y-85303569D01*
X164944000Y-85521431D01*
X164986503Y-85735108D01*
X165069876Y-85936387D01*
X165190914Y-86117534D01*
X165344966Y-86271586D01*
X165526113Y-86392624D01*
X165727392Y-86475997D01*
X165941069Y-86518500D01*
X166158931Y-86518500D01*
X166372608Y-86475997D01*
X166573887Y-86392624D01*
X166755034Y-86271586D01*
X166909086Y-86117534D01*
X167030124Y-85936387D01*
X167113497Y-85735108D01*
X167156000Y-85521431D01*
X167156000Y-85303569D01*
X167113497Y-85089892D01*
X167030124Y-84888613D01*
X166909086Y-84707466D01*
X166755034Y-84553414D01*
X166713550Y-84525695D01*
X181696520Y-84525695D01*
X181765822Y-85277938D01*
X181980548Y-86002208D01*
X182332445Y-86670670D01*
X182359452Y-86711088D01*
X182849119Y-87071276D01*
X185370395Y-84550000D01*
X182849119Y-82028724D01*
X182359452Y-82388912D01*
X181999151Y-83052882D01*
X181775306Y-83774385D01*
X181696520Y-84525695D01*
X166713550Y-84525695D01*
X166573887Y-84432376D01*
X166372608Y-84349003D01*
X166158931Y-84306500D01*
X165941069Y-84306500D01*
X165727392Y-84349003D01*
X165526113Y-84432376D01*
X165344966Y-84553414D01*
X165190914Y-84707466D01*
X165069876Y-84888613D01*
X164986503Y-85089892D01*
X164944000Y-85303569D01*
X162156000Y-85303569D01*
X162113497Y-85089892D01*
X162030124Y-84888613D01*
X161909086Y-84707466D01*
X161755034Y-84553414D01*
X161573887Y-84432376D01*
X161372608Y-84349003D01*
X161158931Y-84306500D01*
X160941069Y-84306500D01*
X160727392Y-84349003D01*
X160526113Y-84432376D01*
X160344966Y-84553414D01*
X160190914Y-84707466D01*
X160069876Y-84888613D01*
X159986503Y-85089892D01*
X159944000Y-85303569D01*
X157537620Y-85303569D01*
X157538072Y-85250000D01*
X157525812Y-85125518D01*
X157489502Y-85005820D01*
X157430537Y-84895506D01*
X157351185Y-84798815D01*
X157254494Y-84719463D01*
X157144180Y-84660498D01*
X157024482Y-84624188D01*
X156900000Y-84611928D01*
X156785750Y-84615000D01*
X156627000Y-84773750D01*
X156373000Y-84773750D01*
X156214250Y-84615000D01*
X156100000Y-84611928D01*
X155975518Y-84624188D01*
X155855820Y-84660498D01*
X155745506Y-84719463D01*
X155648815Y-84798815D01*
X155569463Y-84895506D01*
X155552964Y-84926372D01*
X155550322Y-84924960D01*
X155403103Y-84880301D01*
X155250000Y-84865222D01*
X155096898Y-84880301D01*
X154949679Y-84924960D01*
X154814002Y-84997481D01*
X154695079Y-85095078D01*
X154625000Y-85180469D01*
X154554922Y-85095078D01*
X154435999Y-84997481D01*
X154300322Y-84924960D01*
X154153103Y-84880301D01*
X154000000Y-84865222D01*
X153846898Y-84880301D01*
X153699679Y-84924960D01*
X153564002Y-84997481D01*
X153445079Y-85095078D01*
X153375000Y-85180469D01*
X153304922Y-85095078D01*
X153185999Y-84997481D01*
X153050322Y-84924960D01*
X152903103Y-84880301D01*
X152750000Y-84865222D01*
X152596898Y-84880301D01*
X152449679Y-84924960D01*
X152314002Y-84997481D01*
X152195079Y-85095078D01*
X152097481Y-85214001D01*
X152024960Y-85349678D01*
X151980301Y-85496897D01*
X151969000Y-85611640D01*
X143328862Y-85611640D01*
X143325987Y-85597191D01*
X143267113Y-85455058D01*
X143181642Y-85327141D01*
X143072859Y-85218358D01*
X142944942Y-85132887D01*
X142802809Y-85074013D01*
X142651922Y-85044000D01*
X142498078Y-85044000D01*
X142347191Y-85074013D01*
X142205058Y-85132887D01*
X142125000Y-85186380D01*
X142044942Y-85132887D01*
X141902809Y-85074013D01*
X141751922Y-85044000D01*
X141598078Y-85044000D01*
X141447191Y-85074013D01*
X141305058Y-85132887D01*
X141177141Y-85218358D01*
X141068358Y-85327141D01*
X140982887Y-85455058D01*
X140924013Y-85597191D01*
X140894000Y-85748078D01*
X137793625Y-85748078D01*
X137924694Y-85325615D01*
X138003480Y-84574305D01*
X137934178Y-83822062D01*
X137719452Y-83097792D01*
X137367555Y-82429330D01*
X137340548Y-82388912D01*
X137239133Y-82314313D01*
X159069000Y-82314313D01*
X159069000Y-83110686D01*
X159083195Y-83254809D01*
X159139289Y-83439728D01*
X159230382Y-83610151D01*
X159352972Y-83759528D01*
X159502349Y-83882118D01*
X159672771Y-83973211D01*
X159857690Y-84029305D01*
X160050000Y-84048246D01*
X160242309Y-84029305D01*
X160427228Y-83973211D01*
X160597651Y-83882118D01*
X160747028Y-83759528D01*
X160869618Y-83610151D01*
X160960711Y-83439729D01*
X161016805Y-83254810D01*
X161031000Y-83110687D01*
X161031000Y-82314314D01*
X166069000Y-82314314D01*
X166069000Y-83110687D01*
X166083195Y-83254810D01*
X166139290Y-83439729D01*
X166230383Y-83610151D01*
X166352973Y-83759528D01*
X166502350Y-83882118D01*
X166672772Y-83973211D01*
X166857691Y-84029305D01*
X167050000Y-84048246D01*
X167242310Y-84029305D01*
X167427229Y-83973211D01*
X167597651Y-83882118D01*
X167747028Y-83759528D01*
X167869618Y-83610151D01*
X167960711Y-83439729D01*
X168016805Y-83254809D01*
X168031000Y-83110686D01*
X168031000Y-82314313D01*
X168016805Y-82170190D01*
X167960711Y-81985271D01*
X167869618Y-81814849D01*
X167747028Y-81665472D01*
X167597651Y-81542882D01*
X167427228Y-81451789D01*
X167242309Y-81395695D01*
X167050000Y-81376754D01*
X166857690Y-81395695D01*
X166672771Y-81451789D01*
X166502349Y-81542882D01*
X166352972Y-81665472D01*
X166230382Y-81814849D01*
X166139289Y-81985272D01*
X166083195Y-82170191D01*
X166069000Y-82314314D01*
X161031000Y-82314314D01*
X161016805Y-82170191D01*
X160960711Y-81985271D01*
X160869618Y-81814849D01*
X160747028Y-81665472D01*
X160597651Y-81542882D01*
X160427229Y-81451789D01*
X160242310Y-81395695D01*
X160050000Y-81376754D01*
X159857691Y-81395695D01*
X159672772Y-81451789D01*
X159502350Y-81542882D01*
X159352973Y-81665472D01*
X159230383Y-81814849D01*
X159139290Y-81985271D01*
X159083195Y-82170190D01*
X159069000Y-82314313D01*
X137239133Y-82314313D01*
X136850881Y-82028724D01*
X134329605Y-84550000D01*
X133970395Y-84550000D01*
X133956253Y-84535858D01*
X134135858Y-84356253D01*
X134150000Y-84370395D01*
X136671276Y-81849119D01*
X136311088Y-81359452D01*
X136258656Y-81331000D01*
X183432075Y-81331000D01*
X183429330Y-81332445D01*
%TA.AperFunction,Conductor*%
D20*
G36*
X183429330Y-81332445D02*
G01*
X183388912Y-81359452D01*
X183028724Y-81849119D01*
X185550000Y-84370395D01*
X185564143Y-84356253D01*
X185743748Y-84535858D01*
X185729605Y-84550000D01*
X188250881Y-87071276D01*
X188740548Y-86711088D01*
X188769000Y-86658656D01*
X188769001Y-98569000D01*
X179221168Y-98569000D01*
X179200000Y-98566915D01*
X179178832Y-98569000D01*
X179115509Y-98575237D01*
X179034266Y-98599882D01*
X178959391Y-98639903D01*
X178893763Y-98693763D01*
X178839903Y-98759391D01*
X178799882Y-98834266D01*
X178775237Y-98915509D01*
X178766915Y-99000000D01*
X178769000Y-99021168D01*
X178769001Y-107378821D01*
X178766915Y-107400000D01*
X178775237Y-107484491D01*
X178799882Y-107565734D01*
X178839903Y-107640609D01*
X178893763Y-107706237D01*
X178959391Y-107760097D01*
X179034266Y-107800118D01*
X179115509Y-107824763D01*
X179178832Y-107831000D01*
X179200000Y-107833085D01*
X179221168Y-107831000D01*
X188769000Y-107831000D01*
X188769001Y-118432077D01*
X188767555Y-118429330D01*
X188740548Y-118388912D01*
X188250881Y-118028724D01*
X185729605Y-120550000D01*
X185743748Y-120564143D01*
X185564143Y-120743748D01*
X185550000Y-120729605D01*
X183028724Y-123250881D01*
X183388912Y-123740548D01*
X183441344Y-123769000D01*
X136267925Y-123769000D01*
X136270670Y-123767555D01*
X136311088Y-123740548D01*
X136671276Y-123250881D01*
X134150000Y-120729605D01*
X134135858Y-120743748D01*
X133956253Y-120564143D01*
X133970395Y-120550000D01*
X134329605Y-120550000D01*
X136850881Y-123071276D01*
X137340548Y-122711088D01*
X137700849Y-122047118D01*
X137924694Y-121325615D01*
X138003480Y-120574305D01*
X137999002Y-120525695D01*
X181696520Y-120525695D01*
X181765822Y-121277938D01*
X181980548Y-122002208D01*
X182332445Y-122670670D01*
X182359452Y-122711088D01*
X182849119Y-123071276D01*
X185370395Y-120550000D01*
X182849119Y-118028724D01*
X182359452Y-118388912D01*
X181999151Y-119052882D01*
X181775306Y-119774385D01*
X181696520Y-120525695D01*
X137999002Y-120525695D01*
X137934178Y-119822062D01*
X137927638Y-119800000D01*
X141036928Y-119800000D01*
X141049188Y-119924482D01*
X141085498Y-120044180D01*
X141144463Y-120154494D01*
X141223815Y-120251185D01*
X141320506Y-120330537D01*
X141430820Y-120389502D01*
X141550518Y-120425812D01*
X141675000Y-120438072D01*
X141789250Y-120435000D01*
X141948000Y-120276250D01*
X141948000Y-119277000D01*
X141198750Y-119277000D01*
X141040000Y-119435750D01*
X141036928Y-119800000D01*
X137927638Y-119800000D01*
X137719452Y-119097792D01*
X137404758Y-118500000D01*
X141036928Y-118500000D01*
X141040000Y-118864250D01*
X141198750Y-119023000D01*
X141948000Y-119023000D01*
X141948000Y-118023750D01*
X142202000Y-118023750D01*
X142202000Y-119023000D01*
X142222000Y-119023000D01*
X142222000Y-119277000D01*
X142202000Y-119277000D01*
X142202000Y-120276250D01*
X142360750Y-120435000D01*
X142475000Y-120438072D01*
X142599482Y-120425812D01*
X142719180Y-120389502D01*
X142829494Y-120330537D01*
X142926185Y-120251185D01*
X143005537Y-120154494D01*
X143022036Y-120123627D01*
X143024679Y-120125040D01*
X143171898Y-120169699D01*
X143325000Y-120184778D01*
X143478103Y-120169699D01*
X143625322Y-120125040D01*
X143760999Y-120052519D01*
X143879922Y-119954922D01*
X143950000Y-119869531D01*
X144020079Y-119954922D01*
X144139002Y-120052519D01*
X144274679Y-120125040D01*
X144421898Y-120169699D01*
X144575000Y-120184778D01*
X144728103Y-120169699D01*
X144875322Y-120125040D01*
X145010999Y-120052519D01*
X145129922Y-119954922D01*
X145200000Y-119869531D01*
X145270079Y-119954922D01*
X145389002Y-120052519D01*
X145524679Y-120125040D01*
X145671898Y-120169699D01*
X145825000Y-120184778D01*
X145978103Y-120169699D01*
X146125322Y-120125040D01*
X146260999Y-120052519D01*
X146379922Y-119954922D01*
X146477519Y-119835999D01*
X146483398Y-119825000D01*
X153961928Y-119825000D01*
X153974188Y-119949482D01*
X154010498Y-120069180D01*
X154069463Y-120179494D01*
X154148815Y-120276185D01*
X154245506Y-120355537D01*
X154355820Y-120414502D01*
X154475518Y-120450812D01*
X154600000Y-120463072D01*
X154714250Y-120460000D01*
X154873000Y-120301250D01*
X154873000Y-119302000D01*
X154123750Y-119302000D01*
X153965000Y-119460750D01*
X153961928Y-119825000D01*
X146483398Y-119825000D01*
X146550040Y-119700322D01*
X146594699Y-119553103D01*
X146606000Y-119438360D01*
X146606000Y-118861640D01*
X146594699Y-118746897D01*
X146550040Y-118599678D01*
X146510124Y-118525000D01*
X153961928Y-118525000D01*
X153965000Y-118889250D01*
X154123750Y-119048000D01*
X154873000Y-119048000D01*
X154873000Y-118048750D01*
X155127000Y-118048750D01*
X155127000Y-119048000D01*
X155147000Y-119048000D01*
X155147000Y-119302000D01*
X155127000Y-119302000D01*
X155127000Y-120301250D01*
X155285750Y-120460000D01*
X155400000Y-120463072D01*
X155524482Y-120450812D01*
X155644180Y-120414502D01*
X155754494Y-120355537D01*
X155851185Y-120276185D01*
X155930537Y-120179494D01*
X155947036Y-120148627D01*
X155949679Y-120150040D01*
X156096898Y-120194699D01*
X156250000Y-120209778D01*
X156403103Y-120194699D01*
X156550322Y-120150040D01*
X156685999Y-120077519D01*
X156804922Y-119979922D01*
X156875000Y-119894531D01*
X156945079Y-119979922D01*
X157064002Y-120077519D01*
X157199679Y-120150040D01*
X157346898Y-120194699D01*
X157500000Y-120209778D01*
X157653103Y-120194699D01*
X157800322Y-120150040D01*
X157935999Y-120077519D01*
X158054922Y-119979922D01*
X158125000Y-119894531D01*
X158195079Y-119979922D01*
X158314002Y-120077519D01*
X158449679Y-120150040D01*
X158596898Y-120194699D01*
X158750000Y-120209778D01*
X158903103Y-120194699D01*
X159050322Y-120150040D01*
X159185999Y-120077519D01*
X159304922Y-119979922D01*
X159402519Y-119860999D01*
X159475040Y-119725322D01*
X159519699Y-119578103D01*
X159531000Y-119463360D01*
X159531000Y-118886640D01*
X159519699Y-118771897D01*
X159475040Y-118624678D01*
X159402519Y-118489001D01*
X159304922Y-118370078D01*
X159185998Y-118272481D01*
X159050321Y-118199960D01*
X158903102Y-118155301D01*
X158750000Y-118140222D01*
X158596897Y-118155301D01*
X158449678Y-118199960D01*
X158314001Y-118272481D01*
X158195078Y-118370078D01*
X158125000Y-118455469D01*
X158054922Y-118370078D01*
X157935998Y-118272481D01*
X157800321Y-118199960D01*
X157653102Y-118155301D01*
X157500000Y-118140222D01*
X157346897Y-118155301D01*
X157199678Y-118199960D01*
X157064001Y-118272481D01*
X156945078Y-118370078D01*
X156875000Y-118455469D01*
X156804922Y-118370078D01*
X156685998Y-118272481D01*
X156550321Y-118199960D01*
X156403102Y-118155301D01*
X156250000Y-118140222D01*
X156096897Y-118155301D01*
X155949678Y-118199960D01*
X155947036Y-118201372D01*
X155930537Y-118170506D01*
X155851185Y-118073815D01*
X155754494Y-117994463D01*
X155644180Y-117935498D01*
X155524482Y-117899188D01*
X155400000Y-117886928D01*
X155285750Y-117890000D01*
X155127000Y-118048750D01*
X154873000Y-118048750D01*
X154714250Y-117890000D01*
X154600000Y-117886928D01*
X154475518Y-117899188D01*
X154355820Y-117935498D01*
X154245506Y-117994463D01*
X154148815Y-118073815D01*
X154069463Y-118170506D01*
X154010498Y-118280820D01*
X153974188Y-118400518D01*
X153961928Y-118525000D01*
X146510124Y-118525000D01*
X146477519Y-118464001D01*
X146379922Y-118345078D01*
X146260998Y-118247481D01*
X146125321Y-118174960D01*
X145978102Y-118130301D01*
X145825000Y-118115222D01*
X145671897Y-118130301D01*
X145524678Y-118174960D01*
X145389001Y-118247481D01*
X145270078Y-118345078D01*
X145200000Y-118430469D01*
X145129922Y-118345078D01*
X145010998Y-118247481D01*
X144875321Y-118174960D01*
X144728102Y-118130301D01*
X144575000Y-118115222D01*
X144421897Y-118130301D01*
X144274678Y-118174960D01*
X144139001Y-118247481D01*
X144020078Y-118345078D01*
X143950000Y-118430469D01*
X143879922Y-118345078D01*
X143760998Y-118247481D01*
X143625321Y-118174960D01*
X143478102Y-118130301D01*
X143325000Y-118115222D01*
X143171897Y-118130301D01*
X143024678Y-118174960D01*
X143022036Y-118176372D01*
X143005537Y-118145506D01*
X142926185Y-118048815D01*
X142829494Y-117969463D01*
X142719180Y-117910498D01*
X142599482Y-117874188D01*
X142475000Y-117861928D01*
X142360750Y-117865000D01*
X142202000Y-118023750D01*
X141948000Y-118023750D01*
X141789250Y-117865000D01*
X141675000Y-117861928D01*
X141550518Y-117874188D01*
X141430820Y-117910498D01*
X141320506Y-117969463D01*
X141223815Y-118048815D01*
X141144463Y-118145506D01*
X141085498Y-118255820D01*
X141049188Y-118375518D01*
X141036928Y-118500000D01*
X137404758Y-118500000D01*
X137367555Y-118429330D01*
X137340548Y-118388912D01*
X136850881Y-118028724D01*
X134329605Y-120550000D01*
X133970395Y-120550000D01*
X131449119Y-118028724D01*
X130959452Y-118388912D01*
X130931000Y-118441344D01*
X130931000Y-117849119D01*
X131628724Y-117849119D01*
X134150000Y-120370395D01*
X136671276Y-117849119D01*
X183028724Y-117849119D01*
X185550000Y-120370395D01*
X188071276Y-117849119D01*
X187711088Y-117359452D01*
X187047118Y-116999151D01*
X186325615Y-116775306D01*
X185574305Y-116696520D01*
X184822062Y-116765822D01*
X184097792Y-116980548D01*
X183429330Y-117332445D01*
X183388912Y-117359452D01*
X183028724Y-117849119D01*
X136671276Y-117849119D01*
X136311088Y-117359452D01*
X135647118Y-116999151D01*
X134925615Y-116775306D01*
X134174305Y-116696520D01*
X133422062Y-116765822D01*
X132697792Y-116980548D01*
X132029330Y-117332445D01*
X131988912Y-117359452D01*
X131628724Y-117849119D01*
X130931000Y-117849119D01*
X130931000Y-116623078D01*
X170119000Y-116623078D01*
X170119000Y-116776922D01*
X170149013Y-116927809D01*
X170207887Y-117069942D01*
X170293358Y-117197859D01*
X170402141Y-117306642D01*
X170530058Y-117392113D01*
X170672191Y-117450987D01*
X170823078Y-117481000D01*
X170976922Y-117481000D01*
X171127809Y-117450987D01*
X171269942Y-117392113D01*
X171397859Y-117306642D01*
X171506642Y-117197859D01*
X171592113Y-117069942D01*
X171650987Y-116927809D01*
X171681000Y-116776922D01*
X171681000Y-116723078D01*
X173019000Y-116723078D01*
X173019000Y-116876922D01*
X173049013Y-117027809D01*
X173107887Y-117169942D01*
X173193358Y-117297859D01*
X173302141Y-117406642D01*
X173430058Y-117492113D01*
X173572191Y-117550987D01*
X173723078Y-117581000D01*
X173876922Y-117581000D01*
X174027809Y-117550987D01*
X174169942Y-117492113D01*
X174297859Y-117406642D01*
X174406642Y-117297859D01*
X174492113Y-117169942D01*
X174550987Y-117027809D01*
X174581000Y-116876922D01*
X174581000Y-116723078D01*
X174550987Y-116572191D01*
X174492113Y-116430058D01*
X174406642Y-116302141D01*
X174297859Y-116193358D01*
X174169942Y-116107887D01*
X174027809Y-116049013D01*
X173876922Y-116019000D01*
X173723078Y-116019000D01*
X173572191Y-116049013D01*
X173430058Y-116107887D01*
X173302141Y-116193358D01*
X173193358Y-116302141D01*
X173107887Y-116430058D01*
X173049013Y-116572191D01*
X173019000Y-116723078D01*
X171681000Y-116723078D01*
X171681000Y-116623078D01*
X171650987Y-116472191D01*
X171592113Y-116330058D01*
X171506642Y-116202141D01*
X171397859Y-116093358D01*
X171269942Y-116007887D01*
X171127809Y-115949013D01*
X170976922Y-115919000D01*
X170823078Y-115919000D01*
X170672191Y-115949013D01*
X170530058Y-116007887D01*
X170402141Y-116093358D01*
X170293358Y-116202141D01*
X170207887Y-116330058D01*
X170149013Y-116472191D01*
X170119000Y-116623078D01*
X130931000Y-116623078D01*
X130931000Y-108700000D01*
X134211928Y-108700000D01*
X134224188Y-108824482D01*
X134260498Y-108944180D01*
X134319463Y-109054494D01*
X134398815Y-109151185D01*
X134495506Y-109230537D01*
X134526372Y-109247036D01*
X134524960Y-109249678D01*
X134480301Y-109396897D01*
X134465222Y-109550000D01*
X134480301Y-109703103D01*
X134524960Y-109850322D01*
X134597481Y-109985999D01*
X134695078Y-110104922D01*
X134780469Y-110175000D01*
X134695078Y-110245078D01*
X134597481Y-110364001D01*
X134524960Y-110499678D01*
X134480301Y-110646897D01*
X134465222Y-110800000D01*
X134480301Y-110953103D01*
X134524960Y-111100322D01*
X134597481Y-111235999D01*
X134695078Y-111354922D01*
X134780469Y-111425000D01*
X134695078Y-111495078D01*
X134597481Y-111614001D01*
X134524960Y-111749678D01*
X134480301Y-111896897D01*
X134465222Y-112050000D01*
X134480301Y-112203103D01*
X134524960Y-112350322D01*
X134597481Y-112485999D01*
X134695078Y-112604922D01*
X134780469Y-112675000D01*
X134695078Y-112745078D01*
X134597481Y-112864001D01*
X134524960Y-112999678D01*
X134480301Y-113146897D01*
X134465222Y-113300000D01*
X134480301Y-113453103D01*
X134524960Y-113600322D01*
X134597481Y-113735999D01*
X134695078Y-113854922D01*
X134780469Y-113925000D01*
X134695078Y-113995078D01*
X134597481Y-114114001D01*
X134524960Y-114249678D01*
X134480301Y-114396897D01*
X134465222Y-114550000D01*
X134480301Y-114703103D01*
X134524960Y-114850322D01*
X134597481Y-114985999D01*
X134695078Y-115104922D01*
X134814001Y-115202519D01*
X134949678Y-115275040D01*
X135096897Y-115319699D01*
X135211640Y-115331000D01*
X135788360Y-115331000D01*
X135903103Y-115319699D01*
X136050322Y-115275040D01*
X136185999Y-115202519D01*
X136304922Y-115104922D01*
X136402519Y-114985999D01*
X136475040Y-114850322D01*
X136519699Y-114703103D01*
X136534778Y-114550000D01*
X136519699Y-114396897D01*
X136475040Y-114249678D01*
X136447460Y-114198078D01*
X161794000Y-114198078D01*
X161794000Y-114351922D01*
X161824013Y-114502809D01*
X161882887Y-114644942D01*
X161968358Y-114772859D01*
X162077141Y-114881642D01*
X162205058Y-114967113D01*
X162347191Y-115025987D01*
X162498078Y-115056000D01*
X162651922Y-115056000D01*
X162802809Y-115025987D01*
X162944942Y-114967113D01*
X163072859Y-114881642D01*
X163181642Y-114772859D01*
X163267113Y-114644942D01*
X163325987Y-114502809D01*
X163356000Y-114351922D01*
X163356000Y-114198078D01*
X163894000Y-114198078D01*
X163894000Y-114351922D01*
X163924013Y-114502809D01*
X163982887Y-114644942D01*
X164068358Y-114772859D01*
X164177141Y-114881642D01*
X164305058Y-114967113D01*
X164447191Y-115025987D01*
X164598078Y-115056000D01*
X164751922Y-115056000D01*
X164902809Y-115025987D01*
X165044942Y-114967113D01*
X165172859Y-114881642D01*
X165281642Y-114772859D01*
X165367113Y-114644942D01*
X165398042Y-114570273D01*
X165472191Y-114600987D01*
X165623078Y-114631000D01*
X165776922Y-114631000D01*
X165927809Y-114600987D01*
X166069942Y-114542113D01*
X166197859Y-114456642D01*
X166306642Y-114347859D01*
X166308296Y-114345384D01*
X166343358Y-114397859D01*
X166452141Y-114506642D01*
X166580058Y-114592113D01*
X166722191Y-114650987D01*
X166873078Y-114681000D01*
X167026922Y-114681000D01*
X167177809Y-114650987D01*
X167269636Y-114612951D01*
X167282887Y-114644942D01*
X167368358Y-114772859D01*
X167477141Y-114881642D01*
X167605058Y-114967113D01*
X167747191Y-115025987D01*
X167898078Y-115056000D01*
X168051922Y-115056000D01*
X168202809Y-115025987D01*
X168233693Y-115013194D01*
X168302141Y-115081642D01*
X168430058Y-115167113D01*
X168572191Y-115225987D01*
X168723078Y-115256000D01*
X168876922Y-115256000D01*
X169027809Y-115225987D01*
X169169942Y-115167113D01*
X169297859Y-115081642D01*
X169406642Y-114972859D01*
X169492113Y-114844942D01*
X169550987Y-114702809D01*
X169581000Y-114551922D01*
X169581000Y-114398078D01*
X169550987Y-114247191D01*
X169492113Y-114105058D01*
X169406642Y-113977141D01*
X169297859Y-113868358D01*
X169169942Y-113782887D01*
X169027809Y-113724013D01*
X168876922Y-113694000D01*
X168723078Y-113694000D01*
X168572191Y-113724013D01*
X168541307Y-113736806D01*
X168472859Y-113668358D01*
X168344942Y-113582887D01*
X168202809Y-113524013D01*
X168051922Y-113494000D01*
X167898078Y-113494000D01*
X167747191Y-113524013D01*
X167655364Y-113562049D01*
X167642113Y-113530058D01*
X167556642Y-113402141D01*
X167447859Y-113293358D01*
X167319942Y-113207887D01*
X167177809Y-113149013D01*
X167026922Y-113119000D01*
X166873078Y-113119000D01*
X166722191Y-113149013D01*
X166580058Y-113207887D01*
X166452141Y-113293358D01*
X166343358Y-113402141D01*
X166341704Y-113404616D01*
X166306642Y-113352141D01*
X166197859Y-113243358D01*
X166069942Y-113157887D01*
X165927809Y-113099013D01*
X165776922Y-113069000D01*
X165623078Y-113069000D01*
X165472191Y-113099013D01*
X165330058Y-113157887D01*
X165202141Y-113243358D01*
X165093358Y-113352141D01*
X165007887Y-113480058D01*
X164976958Y-113554727D01*
X164902809Y-113524013D01*
X164751922Y-113494000D01*
X164598078Y-113494000D01*
X164447191Y-113524013D01*
X164305058Y-113582887D01*
X164177141Y-113668358D01*
X164068358Y-113777141D01*
X163982887Y-113905058D01*
X163924013Y-114047191D01*
X163894000Y-114198078D01*
X163356000Y-114198078D01*
X163325987Y-114047191D01*
X163267113Y-113905058D01*
X163181642Y-113777141D01*
X163072859Y-113668358D01*
X162944942Y-113582887D01*
X162802809Y-113524013D01*
X162651922Y-113494000D01*
X162498078Y-113494000D01*
X162347191Y-113524013D01*
X162205058Y-113582887D01*
X162077141Y-113668358D01*
X161968358Y-113777141D01*
X161882887Y-113905058D01*
X161824013Y-114047191D01*
X161794000Y-114198078D01*
X136447460Y-114198078D01*
X136402519Y-114114001D01*
X136304922Y-113995078D01*
X136219531Y-113925000D01*
X136304922Y-113854922D01*
X136402519Y-113735999D01*
X136475040Y-113600322D01*
X136519699Y-113453103D01*
X136534778Y-113300000D01*
X136519699Y-113146897D01*
X136475040Y-112999678D01*
X136402519Y-112864001D01*
X136304922Y-112745078D01*
X136219531Y-112675000D01*
X136304922Y-112604922D01*
X136402519Y-112485999D01*
X136475040Y-112350322D01*
X136519699Y-112203103D01*
X136534778Y-112050000D01*
X136519699Y-111896897D01*
X136475040Y-111749678D01*
X136434097Y-111673078D01*
X145569000Y-111673078D01*
X145569000Y-111826922D01*
X145599013Y-111977809D01*
X145657887Y-112119942D01*
X145743358Y-112247859D01*
X145852141Y-112356642D01*
X145980058Y-112442113D01*
X146122191Y-112500987D01*
X146273078Y-112531000D01*
X146426922Y-112531000D01*
X146577809Y-112500987D01*
X146719942Y-112442113D01*
X146847859Y-112356642D01*
X146956642Y-112247859D01*
X147042113Y-112119942D01*
X147100987Y-111977809D01*
X147131000Y-111826922D01*
X147131000Y-111673078D01*
X147769000Y-111673078D01*
X147769000Y-111826922D01*
X147799013Y-111977809D01*
X147857887Y-112119942D01*
X147943358Y-112247859D01*
X148052141Y-112356642D01*
X148180058Y-112442113D01*
X148322191Y-112500987D01*
X148473078Y-112531000D01*
X148626922Y-112531000D01*
X148777809Y-112500987D01*
X148919942Y-112442113D01*
X149047859Y-112356642D01*
X149156642Y-112247859D01*
X149242113Y-112119942D01*
X149300987Y-111977809D01*
X149331000Y-111826922D01*
X149331000Y-111673078D01*
X149300987Y-111522191D01*
X149242113Y-111380058D01*
X149156642Y-111252141D01*
X149047859Y-111143358D01*
X148919942Y-111057887D01*
X148777809Y-110999013D01*
X148626922Y-110969000D01*
X148473078Y-110969000D01*
X148322191Y-110999013D01*
X148180058Y-111057887D01*
X148052141Y-111143358D01*
X147943358Y-111252141D01*
X147857887Y-111380058D01*
X147799013Y-111522191D01*
X147769000Y-111673078D01*
X147131000Y-111673078D01*
X147100987Y-111522191D01*
X147042113Y-111380058D01*
X146956642Y-111252141D01*
X146847859Y-111143358D01*
X146719942Y-111057887D01*
X146577809Y-110999013D01*
X146426922Y-110969000D01*
X146273078Y-110969000D01*
X146122191Y-110999013D01*
X145980058Y-111057887D01*
X145852141Y-111143358D01*
X145743358Y-111252141D01*
X145657887Y-111380058D01*
X145599013Y-111522191D01*
X145569000Y-111673078D01*
X136434097Y-111673078D01*
X136402519Y-111614001D01*
X136304922Y-111495078D01*
X136219531Y-111425000D01*
X136304922Y-111354922D01*
X136402519Y-111235999D01*
X136475040Y-111100322D01*
X136519699Y-110953103D01*
X136534778Y-110800000D01*
X136519699Y-110646897D01*
X136475040Y-110499678D01*
X136434097Y-110423078D01*
X141919000Y-110423078D01*
X141919000Y-110576922D01*
X141949013Y-110727809D01*
X142007887Y-110869942D01*
X142093358Y-110997859D01*
X142202141Y-111106642D01*
X142330058Y-111192113D01*
X142472191Y-111250987D01*
X142623078Y-111281000D01*
X142776922Y-111281000D01*
X142927809Y-111250987D01*
X143069942Y-111192113D01*
X143197859Y-111106642D01*
X143306642Y-110997859D01*
X143392113Y-110869942D01*
X143450987Y-110727809D01*
X143481000Y-110576922D01*
X143481000Y-110423078D01*
X146519000Y-110423078D01*
X146519000Y-110576922D01*
X146549013Y-110727809D01*
X146607887Y-110869942D01*
X146693358Y-110997859D01*
X146802141Y-111106642D01*
X146930058Y-111192113D01*
X147072191Y-111250987D01*
X147223078Y-111281000D01*
X147376922Y-111281000D01*
X147527809Y-111250987D01*
X147669942Y-111192113D01*
X147797859Y-111106642D01*
X147906642Y-110997859D01*
X147992113Y-110869942D01*
X148050987Y-110727809D01*
X148081000Y-110576922D01*
X148081000Y-110423078D01*
X148050987Y-110272191D01*
X147992113Y-110130058D01*
X147906642Y-110002141D01*
X147797859Y-109893358D01*
X147669942Y-109807887D01*
X147527809Y-109749013D01*
X147376922Y-109719000D01*
X147223078Y-109719000D01*
X147072191Y-109749013D01*
X146930058Y-109807887D01*
X146802141Y-109893358D01*
X146693358Y-110002141D01*
X146607887Y-110130058D01*
X146549013Y-110272191D01*
X146519000Y-110423078D01*
X143481000Y-110423078D01*
X143450987Y-110272191D01*
X143392113Y-110130058D01*
X143306642Y-110002141D01*
X143197859Y-109893358D01*
X143069942Y-109807887D01*
X142927809Y-109749013D01*
X142776922Y-109719000D01*
X142623078Y-109719000D01*
X142472191Y-109749013D01*
X142330058Y-109807887D01*
X142202141Y-109893358D01*
X142093358Y-110002141D01*
X142007887Y-110130058D01*
X141949013Y-110272191D01*
X141919000Y-110423078D01*
X136434097Y-110423078D01*
X136402519Y-110364001D01*
X136304922Y-110245078D01*
X136219531Y-110175000D01*
X136304922Y-110104922D01*
X136402519Y-109985999D01*
X136475040Y-109850322D01*
X136519699Y-109703103D01*
X136534778Y-109550000D01*
X136519699Y-109396897D01*
X136482139Y-109273078D01*
X153369000Y-109273078D01*
X153369000Y-109426922D01*
X153399013Y-109577809D01*
X153457887Y-109719942D01*
X153543358Y-109847859D01*
X153652141Y-109956642D01*
X153780058Y-110042113D01*
X153831909Y-110063590D01*
X153743358Y-110152141D01*
X153657887Y-110280058D01*
X153599013Y-110422191D01*
X153569000Y-110573078D01*
X153569000Y-110726922D01*
X153599013Y-110877809D01*
X153657887Y-111019942D01*
X153743358Y-111147859D01*
X153852141Y-111256642D01*
X153980058Y-111342113D01*
X154122191Y-111400987D01*
X154273078Y-111431000D01*
X154426922Y-111431000D01*
X154577809Y-111400987D01*
X154719942Y-111342113D01*
X154847859Y-111256642D01*
X154956642Y-111147859D01*
X155042113Y-111019942D01*
X155100987Y-110877809D01*
X155111873Y-110823078D01*
X171469000Y-110823078D01*
X171469000Y-110976922D01*
X171499013Y-111127809D01*
X171557887Y-111269942D01*
X171643358Y-111397859D01*
X171670499Y-111425000D01*
X171643358Y-111452141D01*
X171557887Y-111580058D01*
X171499013Y-111722191D01*
X171469000Y-111873078D01*
X171469000Y-112026922D01*
X171499013Y-112177809D01*
X171557887Y-112319942D01*
X171643358Y-112447859D01*
X171752141Y-112556642D01*
X171880058Y-112642113D01*
X172022191Y-112700987D01*
X172173078Y-112731000D01*
X172326922Y-112731000D01*
X172477809Y-112700987D01*
X172619942Y-112642113D01*
X172747859Y-112556642D01*
X172856642Y-112447859D01*
X172942113Y-112319942D01*
X173000987Y-112177809D01*
X173031000Y-112026922D01*
X173031000Y-111873078D01*
X173000987Y-111722191D01*
X172942113Y-111580058D01*
X172856642Y-111452141D01*
X172829501Y-111425000D01*
X172856642Y-111397859D01*
X172942113Y-111269942D01*
X173000987Y-111127809D01*
X173031000Y-110976922D01*
X173031000Y-110823078D01*
X173000987Y-110672191D01*
X172942113Y-110530058D01*
X172856642Y-110402141D01*
X172747859Y-110293358D01*
X172619942Y-110207887D01*
X172477809Y-110149013D01*
X172326922Y-110119000D01*
X172173078Y-110119000D01*
X172022191Y-110149013D01*
X171880058Y-110207887D01*
X171752141Y-110293358D01*
X171643358Y-110402141D01*
X171557887Y-110530058D01*
X171499013Y-110672191D01*
X171469000Y-110823078D01*
X155111873Y-110823078D01*
X155131000Y-110726922D01*
X155131000Y-110573078D01*
X155100987Y-110422191D01*
X155042113Y-110280058D01*
X154956642Y-110152141D01*
X154847859Y-110043358D01*
X154719942Y-109957887D01*
X154668091Y-109936410D01*
X154756642Y-109847859D01*
X154842113Y-109719942D01*
X154900987Y-109577809D01*
X154931000Y-109426922D01*
X154931000Y-109373078D01*
X167869000Y-109373078D01*
X167869000Y-109526922D01*
X167899013Y-109677809D01*
X167957887Y-109819942D01*
X168043358Y-109947859D01*
X168152141Y-110056642D01*
X168280058Y-110142113D01*
X168422191Y-110200987D01*
X168573078Y-110231000D01*
X168726922Y-110231000D01*
X168877809Y-110200987D01*
X169019942Y-110142113D01*
X169147859Y-110056642D01*
X169256642Y-109947859D01*
X169342113Y-109819942D01*
X169400987Y-109677809D01*
X169431000Y-109526922D01*
X169431000Y-109373078D01*
X169400987Y-109222191D01*
X169342113Y-109080058D01*
X169256642Y-108952141D01*
X169147859Y-108843358D01*
X169019942Y-108757887D01*
X168877809Y-108699013D01*
X168726922Y-108669000D01*
X168573078Y-108669000D01*
X168422191Y-108699013D01*
X168280058Y-108757887D01*
X168152141Y-108843358D01*
X168043358Y-108952141D01*
X167957887Y-109080058D01*
X167899013Y-109222191D01*
X167869000Y-109373078D01*
X154931000Y-109373078D01*
X154931000Y-109273078D01*
X154900987Y-109122191D01*
X154842113Y-108980058D01*
X154756642Y-108852141D01*
X154647859Y-108743358D01*
X154519942Y-108657887D01*
X154377809Y-108599013D01*
X154226922Y-108569000D01*
X154073078Y-108569000D01*
X153922191Y-108599013D01*
X153780058Y-108657887D01*
X153652141Y-108743358D01*
X153543358Y-108852141D01*
X153457887Y-108980058D01*
X153399013Y-109122191D01*
X153369000Y-109273078D01*
X136482139Y-109273078D01*
X136475040Y-109249678D01*
X136473628Y-109247036D01*
X136504494Y-109230537D01*
X136601185Y-109151185D01*
X136680537Y-109054494D01*
X136739502Y-108944180D01*
X136775812Y-108824482D01*
X136788072Y-108700000D01*
X136785000Y-108585750D01*
X136626250Y-108427000D01*
X135627000Y-108427000D01*
X135627000Y-108447000D01*
X135373000Y-108447000D01*
X135373000Y-108427000D01*
X134373750Y-108427000D01*
X134215000Y-108585750D01*
X134211928Y-108700000D01*
X130931000Y-108700000D01*
X130931000Y-107900000D01*
X134211928Y-107900000D01*
X134215000Y-108014250D01*
X134373750Y-108173000D01*
X135373000Y-108173000D01*
X135373000Y-107423750D01*
X135627000Y-107423750D01*
X135627000Y-108173000D01*
X136626250Y-108173000D01*
X136785000Y-108014250D01*
X136788072Y-107900000D01*
X136775812Y-107775518D01*
X136739502Y-107655820D01*
X136680537Y-107545506D01*
X136601185Y-107448815D01*
X136504494Y-107369463D01*
X136394180Y-107310498D01*
X136274482Y-107274188D01*
X136150000Y-107261928D01*
X135785750Y-107265000D01*
X135627000Y-107423750D01*
X135373000Y-107423750D01*
X135214250Y-107265000D01*
X134850000Y-107261928D01*
X134725518Y-107274188D01*
X134605820Y-107310498D01*
X134495506Y-107369463D01*
X134398815Y-107448815D01*
X134319463Y-107545506D01*
X134260498Y-107655820D01*
X134224188Y-107775518D01*
X134211928Y-107900000D01*
X130931000Y-107900000D01*
X130931000Y-105923078D01*
X148469000Y-105923078D01*
X148469000Y-106076922D01*
X148499013Y-106227809D01*
X148557887Y-106369942D01*
X148643358Y-106497859D01*
X148752141Y-106606642D01*
X148880058Y-106692113D01*
X149022191Y-106750987D01*
X149173078Y-106781000D01*
X149326922Y-106781000D01*
X149477809Y-106750987D01*
X149619942Y-106692113D01*
X149720730Y-106624769D01*
X149693358Y-106652141D01*
X149607887Y-106780058D01*
X149549013Y-106922191D01*
X149519000Y-107073078D01*
X149519000Y-107226922D01*
X149549013Y-107377809D01*
X149607887Y-107519942D01*
X149693358Y-107647859D01*
X149802141Y-107756642D01*
X149930058Y-107842113D01*
X150072191Y-107900987D01*
X150223078Y-107931000D01*
X150376922Y-107931000D01*
X150527809Y-107900987D01*
X150669942Y-107842113D01*
X150797859Y-107756642D01*
X150800000Y-107754501D01*
X150802141Y-107756642D01*
X150930058Y-107842113D01*
X151072191Y-107900987D01*
X151223078Y-107931000D01*
X151376922Y-107931000D01*
X151527809Y-107900987D01*
X151669942Y-107842113D01*
X151797859Y-107756642D01*
X151906642Y-107647859D01*
X151990017Y-107523078D01*
X157719000Y-107523078D01*
X157719000Y-107676922D01*
X157749013Y-107827809D01*
X157807887Y-107969942D01*
X157893358Y-108097859D01*
X158002141Y-108206642D01*
X158130058Y-108292113D01*
X158272191Y-108350987D01*
X158423078Y-108381000D01*
X158576922Y-108381000D01*
X158727809Y-108350987D01*
X158795186Y-108323078D01*
X169069000Y-108323078D01*
X169069000Y-108476922D01*
X169099013Y-108627809D01*
X169157887Y-108769942D01*
X169243358Y-108897859D01*
X169352141Y-109006642D01*
X169480058Y-109092113D01*
X169622191Y-109150987D01*
X169773078Y-109181000D01*
X169926922Y-109181000D01*
X170077809Y-109150987D01*
X170219942Y-109092113D01*
X170347859Y-109006642D01*
X170456642Y-108897859D01*
X170542113Y-108769942D01*
X170600987Y-108627809D01*
X170631000Y-108476922D01*
X170631000Y-108323078D01*
X170600987Y-108172191D01*
X170542113Y-108030058D01*
X170456642Y-107902141D01*
X170347859Y-107793358D01*
X170219942Y-107707887D01*
X170077809Y-107649013D01*
X169926922Y-107619000D01*
X169773078Y-107619000D01*
X169622191Y-107649013D01*
X169480058Y-107707887D01*
X169352141Y-107793358D01*
X169243358Y-107902141D01*
X169157887Y-108030058D01*
X169099013Y-108172191D01*
X169069000Y-108323078D01*
X158795186Y-108323078D01*
X158869942Y-108292113D01*
X158997859Y-108206642D01*
X159106642Y-108097859D01*
X159192113Y-107969942D01*
X159250987Y-107827809D01*
X159281000Y-107676922D01*
X159281000Y-107523078D01*
X159250987Y-107372191D01*
X159192113Y-107230058D01*
X159106642Y-107102141D01*
X158997859Y-106993358D01*
X158869942Y-106907887D01*
X158727809Y-106849013D01*
X158576922Y-106819000D01*
X158423078Y-106819000D01*
X158272191Y-106849013D01*
X158130058Y-106907887D01*
X158002141Y-106993358D01*
X157893358Y-107102141D01*
X157807887Y-107230058D01*
X157749013Y-107372191D01*
X157719000Y-107523078D01*
X151990017Y-107523078D01*
X151992113Y-107519942D01*
X152050987Y-107377809D01*
X152081000Y-107226922D01*
X152081000Y-107073078D01*
X152050987Y-106922191D01*
X151992113Y-106780058D01*
X151906642Y-106652141D01*
X151797859Y-106543358D01*
X151669942Y-106457887D01*
X151527809Y-106399013D01*
X151376922Y-106369000D01*
X151223078Y-106369000D01*
X151072191Y-106399013D01*
X150930058Y-106457887D01*
X150802141Y-106543358D01*
X150800000Y-106545499D01*
X150797859Y-106543358D01*
X150669942Y-106457887D01*
X150527809Y-106399013D01*
X150376922Y-106369000D01*
X150223078Y-106369000D01*
X150072191Y-106399013D01*
X149930058Y-106457887D01*
X149829270Y-106525231D01*
X149856642Y-106497859D01*
X149942113Y-106369942D01*
X150000987Y-106227809D01*
X150031000Y-106076922D01*
X150031000Y-105923078D01*
X150000987Y-105772191D01*
X149942113Y-105630058D01*
X149904041Y-105573078D01*
X157519000Y-105573078D01*
X157519000Y-105726922D01*
X157549013Y-105877809D01*
X157607887Y-106019942D01*
X157693358Y-106147859D01*
X157802141Y-106256642D01*
X157930058Y-106342113D01*
X158072191Y-106400987D01*
X158223078Y-106431000D01*
X158376922Y-106431000D01*
X158527809Y-106400987D01*
X158669942Y-106342113D01*
X158797859Y-106256642D01*
X158906642Y-106147859D01*
X158992113Y-106019942D01*
X159050987Y-105877809D01*
X159081000Y-105726922D01*
X159081000Y-105573078D01*
X159050987Y-105422191D01*
X158992113Y-105280058D01*
X158906642Y-105152141D01*
X158797859Y-105043358D01*
X158669942Y-104957887D01*
X158527809Y-104899013D01*
X158376922Y-104869000D01*
X158223078Y-104869000D01*
X158072191Y-104899013D01*
X157930058Y-104957887D01*
X157802141Y-105043358D01*
X157693358Y-105152141D01*
X157607887Y-105280058D01*
X157549013Y-105422191D01*
X157519000Y-105573078D01*
X149904041Y-105573078D01*
X149856642Y-105502141D01*
X149747859Y-105393358D01*
X149619942Y-105307887D01*
X149477809Y-105249013D01*
X149326922Y-105219000D01*
X149173078Y-105219000D01*
X149022191Y-105249013D01*
X148880058Y-105307887D01*
X148752141Y-105393358D01*
X148643358Y-105502141D01*
X148557887Y-105630058D01*
X148499013Y-105772191D01*
X148469000Y-105923078D01*
X130931000Y-105923078D01*
X130931000Y-104773078D01*
X131919000Y-104773078D01*
X131919000Y-104926922D01*
X131949013Y-105077809D01*
X132007887Y-105219942D01*
X132093358Y-105347859D01*
X132202141Y-105456642D01*
X132330058Y-105542113D01*
X132472191Y-105600987D01*
X132623078Y-105631000D01*
X132776922Y-105631000D01*
X132927809Y-105600987D01*
X133069942Y-105542113D01*
X133197859Y-105456642D01*
X133306642Y-105347859D01*
X133392113Y-105219942D01*
X133450987Y-105077809D01*
X133481000Y-104926922D01*
X133481000Y-104773078D01*
X133450987Y-104622191D01*
X133392113Y-104480058D01*
X133306642Y-104352141D01*
X133197859Y-104243358D01*
X133069942Y-104157887D01*
X132927809Y-104099013D01*
X132776922Y-104069000D01*
X132623078Y-104069000D01*
X132472191Y-104099013D01*
X132330058Y-104157887D01*
X132202141Y-104243358D01*
X132093358Y-104352141D01*
X132007887Y-104480058D01*
X131949013Y-104622191D01*
X131919000Y-104773078D01*
X130931000Y-104773078D01*
X130931000Y-103148079D01*
X152436638Y-103148079D01*
X152436638Y-103301923D01*
X152466651Y-103452810D01*
X152525525Y-103594943D01*
X152610996Y-103722860D01*
X152719779Y-103831643D01*
X152847696Y-103917114D01*
X152989829Y-103975988D01*
X153140716Y-104006001D01*
X153194675Y-104006001D01*
X153199013Y-104027809D01*
X153257887Y-104169942D01*
X153343358Y-104297859D01*
X153452141Y-104406642D01*
X153580058Y-104492113D01*
X153722191Y-104550987D01*
X153873078Y-104581000D01*
X154026922Y-104581000D01*
X154177809Y-104550987D01*
X154319942Y-104492113D01*
X154447859Y-104406642D01*
X154556642Y-104297859D01*
X154642113Y-104169942D01*
X154700987Y-104027809D01*
X154701928Y-104023078D01*
X154819000Y-104023078D01*
X154819000Y-104176922D01*
X154849013Y-104327809D01*
X154907887Y-104469942D01*
X154993358Y-104597859D01*
X155102141Y-104706642D01*
X155230058Y-104792113D01*
X155372191Y-104850987D01*
X155523078Y-104881000D01*
X155676922Y-104881000D01*
X155827809Y-104850987D01*
X155969942Y-104792113D01*
X156097859Y-104706642D01*
X156206642Y-104597859D01*
X156292113Y-104469942D01*
X156350987Y-104327809D01*
X156381000Y-104176922D01*
X156381000Y-104023078D01*
X156350987Y-103872191D01*
X156292113Y-103730058D01*
X156206642Y-103602141D01*
X156097859Y-103493358D01*
X155969942Y-103407887D01*
X155827809Y-103349013D01*
X155676922Y-103319000D01*
X155523078Y-103319000D01*
X155372191Y-103349013D01*
X155230058Y-103407887D01*
X155102141Y-103493358D01*
X154993358Y-103602141D01*
X154907887Y-103730058D01*
X154849013Y-103872191D01*
X154819000Y-104023078D01*
X154701928Y-104023078D01*
X154731000Y-103876922D01*
X154731000Y-103723078D01*
X154700987Y-103572191D01*
X154642113Y-103430058D01*
X154556642Y-103302141D01*
X154447859Y-103193358D01*
X154319942Y-103107887D01*
X154177809Y-103049013D01*
X154026922Y-103019000D01*
X153972963Y-103019000D01*
X153968625Y-102997192D01*
X153909751Y-102855059D01*
X153824280Y-102727142D01*
X153715497Y-102618359D01*
X153587580Y-102532888D01*
X153445447Y-102474014D01*
X153294560Y-102444001D01*
X153140716Y-102444001D01*
X152989829Y-102474014D01*
X152847696Y-102532888D01*
X152719779Y-102618359D01*
X152610996Y-102727142D01*
X152525525Y-102855059D01*
X152466651Y-102997192D01*
X152436638Y-103148079D01*
X130931000Y-103148079D01*
X130931000Y-100273078D01*
X143069000Y-100273078D01*
X143069000Y-100426922D01*
X143099013Y-100577809D01*
X143157887Y-100719942D01*
X143243358Y-100847859D01*
X143352141Y-100956642D01*
X143480058Y-101042113D01*
X143622191Y-101100987D01*
X143773078Y-101131000D01*
X143926922Y-101131000D01*
X144077809Y-101100987D01*
X144219942Y-101042113D01*
X144347859Y-100956642D01*
X144456642Y-100847859D01*
X144542113Y-100719942D01*
X144600987Y-100577809D01*
X144608503Y-100540020D01*
X155385942Y-100540020D01*
X155385942Y-100693864D01*
X155415955Y-100844751D01*
X155474829Y-100986884D01*
X155560300Y-101114801D01*
X155669083Y-101223584D01*
X155797000Y-101309055D01*
X155939133Y-101367929D01*
X156090020Y-101397942D01*
X156243864Y-101397942D01*
X156394751Y-101367929D01*
X156536884Y-101309055D01*
X156664801Y-101223584D01*
X156699859Y-101188526D01*
X156780058Y-101242113D01*
X156922191Y-101300987D01*
X157073078Y-101331000D01*
X157226922Y-101331000D01*
X157377809Y-101300987D01*
X157519942Y-101242113D01*
X157647859Y-101156642D01*
X157756642Y-101047859D01*
X157840017Y-100923078D01*
X160019000Y-100923078D01*
X160019000Y-101076922D01*
X160049013Y-101227809D01*
X160107887Y-101369942D01*
X160193358Y-101497859D01*
X160245499Y-101550000D01*
X160193358Y-101602141D01*
X160107887Y-101730058D01*
X160049013Y-101872191D01*
X160019000Y-102023078D01*
X160019000Y-102176922D01*
X160049013Y-102327809D01*
X160107887Y-102469942D01*
X160193358Y-102597859D01*
X160245499Y-102650000D01*
X160193358Y-102702141D01*
X160107887Y-102830058D01*
X160049013Y-102972191D01*
X160019000Y-103123078D01*
X160019000Y-103276922D01*
X160049013Y-103427809D01*
X160107887Y-103569942D01*
X160193358Y-103697859D01*
X160302141Y-103806642D01*
X160430058Y-103892113D01*
X160572191Y-103950987D01*
X160723078Y-103981000D01*
X160876922Y-103981000D01*
X161027809Y-103950987D01*
X161169942Y-103892113D01*
X161297859Y-103806642D01*
X161406642Y-103697859D01*
X161492113Y-103569942D01*
X161550987Y-103427809D01*
X161581000Y-103276922D01*
X161581000Y-103123078D01*
X161550987Y-102972191D01*
X161492113Y-102830058D01*
X161406642Y-102702141D01*
X161354501Y-102650000D01*
X161406642Y-102597859D01*
X161492113Y-102469942D01*
X161550987Y-102327809D01*
X161581000Y-102176922D01*
X161581000Y-102023078D01*
X161550987Y-101872191D01*
X161492113Y-101730058D01*
X161406642Y-101602141D01*
X161354501Y-101550000D01*
X161406642Y-101497859D01*
X161492113Y-101369942D01*
X161550987Y-101227809D01*
X161581000Y-101076922D01*
X161581000Y-100923078D01*
X161550987Y-100772191D01*
X161492113Y-100630058D01*
X161406642Y-100502141D01*
X161297859Y-100393358D01*
X161169942Y-100307887D01*
X161027809Y-100249013D01*
X160876922Y-100219000D01*
X160723078Y-100219000D01*
X160572191Y-100249013D01*
X160430058Y-100307887D01*
X160302141Y-100393358D01*
X160193358Y-100502141D01*
X160107887Y-100630058D01*
X160049013Y-100772191D01*
X160019000Y-100923078D01*
X157840017Y-100923078D01*
X157842113Y-100919942D01*
X157900987Y-100777809D01*
X157931000Y-100626922D01*
X157931000Y-100473078D01*
X157900987Y-100322191D01*
X157842113Y-100180058D01*
X157756642Y-100052141D01*
X157647859Y-99943358D01*
X157519942Y-99857887D01*
X157377809Y-99799013D01*
X157226922Y-99769000D01*
X157073078Y-99769000D01*
X156922191Y-99799013D01*
X156780058Y-99857887D01*
X156652141Y-99943358D01*
X156617083Y-99978416D01*
X156536884Y-99924829D01*
X156394751Y-99865955D01*
X156243864Y-99835942D01*
X156090020Y-99835942D01*
X155939133Y-99865955D01*
X155797000Y-99924829D01*
X155669083Y-100010300D01*
X155560300Y-100119083D01*
X155474829Y-100247000D01*
X155415955Y-100389133D01*
X155385942Y-100540020D01*
X144608503Y-100540020D01*
X144631000Y-100426922D01*
X144631000Y-100273078D01*
X144601901Y-100126788D01*
X144623078Y-100131000D01*
X144776922Y-100131000D01*
X144927809Y-100100987D01*
X145069942Y-100042113D01*
X145197859Y-99956642D01*
X145306642Y-99847859D01*
X145392113Y-99719942D01*
X145450987Y-99577809D01*
X145481000Y-99426922D01*
X145481000Y-99273078D01*
X145450987Y-99122191D01*
X145425451Y-99060542D01*
X145469942Y-99042113D01*
X145597859Y-98956642D01*
X145706642Y-98847859D01*
X145792113Y-98719942D01*
X145850987Y-98577809D01*
X145851928Y-98573078D01*
X156469000Y-98573078D01*
X156469000Y-98726922D01*
X156499013Y-98877809D01*
X156557887Y-99019942D01*
X156643358Y-99147859D01*
X156752141Y-99256642D01*
X156880058Y-99342113D01*
X157022191Y-99400987D01*
X157173078Y-99431000D01*
X157326922Y-99431000D01*
X157477809Y-99400987D01*
X157619942Y-99342113D01*
X157747859Y-99256642D01*
X157856642Y-99147859D01*
X157942113Y-99019942D01*
X158000987Y-98877809D01*
X158031000Y-98726922D01*
X158031000Y-98573078D01*
X158000987Y-98422191D01*
X157942113Y-98280058D01*
X157856642Y-98152141D01*
X157747859Y-98043358D01*
X157619942Y-97957887D01*
X157477809Y-97899013D01*
X157326922Y-97869000D01*
X157173078Y-97869000D01*
X157022191Y-97899013D01*
X156880058Y-97957887D01*
X156752141Y-98043358D01*
X156643358Y-98152141D01*
X156557887Y-98280058D01*
X156499013Y-98422191D01*
X156469000Y-98573078D01*
X145851928Y-98573078D01*
X145881000Y-98426922D01*
X145881000Y-98273078D01*
X145850987Y-98122191D01*
X145792113Y-97980058D01*
X145706642Y-97852141D01*
X145597859Y-97743358D01*
X145469942Y-97657887D01*
X145327809Y-97599013D01*
X145176922Y-97569000D01*
X145023078Y-97569000D01*
X144872191Y-97599013D01*
X144730058Y-97657887D01*
X144602141Y-97743358D01*
X144493358Y-97852141D01*
X144407887Y-97980058D01*
X144349013Y-98122191D01*
X144319000Y-98273078D01*
X144319000Y-98426922D01*
X144349013Y-98577809D01*
X144374549Y-98639458D01*
X144330058Y-98657887D01*
X144202141Y-98743358D01*
X144093358Y-98852141D01*
X144007887Y-98980058D01*
X143949013Y-99122191D01*
X143919000Y-99273078D01*
X143919000Y-99426922D01*
X143948099Y-99573212D01*
X143926922Y-99569000D01*
X143773078Y-99569000D01*
X143622191Y-99599013D01*
X143480058Y-99657887D01*
X143352141Y-99743358D01*
X143243358Y-99852141D01*
X143157887Y-99980058D01*
X143099013Y-100122191D01*
X143069000Y-100273078D01*
X130931000Y-100273078D01*
X130931000Y-96473078D01*
X139169000Y-96473078D01*
X139169000Y-96626922D01*
X139199013Y-96777809D01*
X139257887Y-96919942D01*
X139343358Y-97047859D01*
X139452141Y-97156642D01*
X139580058Y-97242113D01*
X139722191Y-97300987D01*
X139873078Y-97331000D01*
X140026922Y-97331000D01*
X140053631Y-97325687D01*
X140024013Y-97397191D01*
X139994000Y-97548078D01*
X139994000Y-97701922D01*
X140024013Y-97852809D01*
X140082887Y-97994942D01*
X140168358Y-98122859D01*
X140277141Y-98231642D01*
X140405058Y-98317113D01*
X140547191Y-98375987D01*
X140698078Y-98406000D01*
X140851922Y-98406000D01*
X141002809Y-98375987D01*
X141144942Y-98317113D01*
X141272859Y-98231642D01*
X141381642Y-98122859D01*
X141467113Y-97994942D01*
X141525987Y-97852809D01*
X141556000Y-97701922D01*
X141556000Y-97548078D01*
X141525987Y-97397191D01*
X141467113Y-97255058D01*
X141381642Y-97127141D01*
X141272859Y-97018358D01*
X141144942Y-96932887D01*
X141002809Y-96874013D01*
X140851922Y-96844000D01*
X140698078Y-96844000D01*
X140671369Y-96849313D01*
X140700987Y-96777809D01*
X140731000Y-96626922D01*
X140731000Y-96473078D01*
X140700987Y-96322191D01*
X140642113Y-96180058D01*
X140556642Y-96052141D01*
X140447859Y-95943358D01*
X140319942Y-95857887D01*
X140177809Y-95799013D01*
X140026922Y-95769000D01*
X139873078Y-95769000D01*
X139722191Y-95799013D01*
X139580058Y-95857887D01*
X139452141Y-95943358D01*
X139343358Y-96052141D01*
X139257887Y-96180058D01*
X139199013Y-96322191D01*
X139169000Y-96473078D01*
X130931000Y-96473078D01*
X130931000Y-95048078D01*
X146469000Y-95048078D01*
X146469000Y-95201922D01*
X146499013Y-95352809D01*
X146557887Y-95494942D01*
X146643358Y-95622859D01*
X146752141Y-95731642D01*
X146880058Y-95817113D01*
X147022191Y-95875987D01*
X147173078Y-95906000D01*
X147326922Y-95906000D01*
X147477809Y-95875987D01*
X147619942Y-95817113D01*
X147747859Y-95731642D01*
X147856642Y-95622859D01*
X147942113Y-95494942D01*
X148000987Y-95352809D01*
X148031000Y-95201922D01*
X148031000Y-95048078D01*
X148119000Y-95048078D01*
X148119000Y-95201922D01*
X148149013Y-95352809D01*
X148207887Y-95494942D01*
X148293358Y-95622859D01*
X148402141Y-95731642D01*
X148530058Y-95817113D01*
X148672191Y-95875987D01*
X148823078Y-95906000D01*
X148976922Y-95906000D01*
X149127809Y-95875987D01*
X149269942Y-95817113D01*
X149397859Y-95731642D01*
X149506642Y-95622859D01*
X149590017Y-95498078D01*
X150319000Y-95498078D01*
X150319000Y-95651922D01*
X150349013Y-95802809D01*
X150407887Y-95944942D01*
X150493358Y-96072859D01*
X150602141Y-96181642D01*
X150720788Y-96260919D01*
X150657887Y-96355058D01*
X150599013Y-96497191D01*
X150569000Y-96648078D01*
X150569000Y-96801922D01*
X150599013Y-96952809D01*
X150657887Y-97094942D01*
X150743358Y-97222859D01*
X150852141Y-97331642D01*
X150980058Y-97417113D01*
X151122191Y-97475987D01*
X151273078Y-97506000D01*
X151426922Y-97506000D01*
X151577809Y-97475987D01*
X151719942Y-97417113D01*
X151847859Y-97331642D01*
X151956642Y-97222859D01*
X152042113Y-97094942D01*
X152092591Y-96973078D01*
X156469000Y-96973078D01*
X156469000Y-97126922D01*
X156499013Y-97277809D01*
X156557887Y-97419942D01*
X156643358Y-97547859D01*
X156752141Y-97656642D01*
X156880058Y-97742113D01*
X157022191Y-97800987D01*
X157173078Y-97831000D01*
X157326922Y-97831000D01*
X157477809Y-97800987D01*
X157619942Y-97742113D01*
X157747859Y-97656642D01*
X157856642Y-97547859D01*
X157942113Y-97419942D01*
X158000987Y-97277809D01*
X158001928Y-97273078D01*
X165569000Y-97273078D01*
X165569000Y-97426922D01*
X165599013Y-97577809D01*
X165657887Y-97719942D01*
X165743358Y-97847859D01*
X165852141Y-97956642D01*
X165980058Y-98042113D01*
X166122191Y-98100987D01*
X166273078Y-98131000D01*
X166426922Y-98131000D01*
X166577809Y-98100987D01*
X166719942Y-98042113D01*
X166847859Y-97956642D01*
X166956642Y-97847859D01*
X167042113Y-97719942D01*
X167100987Y-97577809D01*
X167131000Y-97426922D01*
X167131000Y-97362685D01*
X167223078Y-97381000D01*
X167376922Y-97381000D01*
X167527809Y-97350987D01*
X167669942Y-97292113D01*
X167797859Y-97206642D01*
X167906642Y-97097859D01*
X167992113Y-96969942D01*
X168050987Y-96827809D01*
X168081000Y-96676922D01*
X168081000Y-96523078D01*
X168050987Y-96372191D01*
X167992113Y-96230058D01*
X167906642Y-96102141D01*
X167797859Y-95993358D01*
X167669942Y-95907887D01*
X167527809Y-95849013D01*
X167376922Y-95819000D01*
X167223078Y-95819000D01*
X167072191Y-95849013D01*
X166930058Y-95907887D01*
X166802141Y-95993358D01*
X166693358Y-96102141D01*
X166607887Y-96230058D01*
X166549013Y-96372191D01*
X166519000Y-96523078D01*
X166519000Y-96587315D01*
X166426922Y-96569000D01*
X166273078Y-96569000D01*
X166122191Y-96599013D01*
X165980058Y-96657887D01*
X165852141Y-96743358D01*
X165743358Y-96852141D01*
X165657887Y-96980058D01*
X165599013Y-97122191D01*
X165569000Y-97273078D01*
X158001928Y-97273078D01*
X158031000Y-97126922D01*
X158031000Y-96973078D01*
X158000987Y-96822191D01*
X157942113Y-96680058D01*
X157856642Y-96552141D01*
X157747859Y-96443358D01*
X157619942Y-96357887D01*
X157477809Y-96299013D01*
X157326922Y-96269000D01*
X157173078Y-96269000D01*
X157022191Y-96299013D01*
X156880058Y-96357887D01*
X156752141Y-96443358D01*
X156643358Y-96552141D01*
X156557887Y-96680058D01*
X156499013Y-96822191D01*
X156469000Y-96973078D01*
X152092591Y-96973078D01*
X152100987Y-96952809D01*
X152131000Y-96801922D01*
X152131000Y-96648078D01*
X152100987Y-96497191D01*
X152042113Y-96355058D01*
X151956642Y-96227141D01*
X151847859Y-96118358D01*
X151729212Y-96039081D01*
X151792113Y-95944942D01*
X151850987Y-95802809D01*
X151881000Y-95651922D01*
X151881000Y-95498078D01*
X151850987Y-95347191D01*
X151792113Y-95205058D01*
X151706642Y-95077141D01*
X151597859Y-94968358D01*
X151469942Y-94882887D01*
X151327809Y-94824013D01*
X151176922Y-94794000D01*
X151023078Y-94794000D01*
X150872191Y-94824013D01*
X150730058Y-94882887D01*
X150602141Y-94968358D01*
X150493358Y-95077141D01*
X150407887Y-95205058D01*
X150349013Y-95347191D01*
X150319000Y-95498078D01*
X149590017Y-95498078D01*
X149592113Y-95494942D01*
X149650987Y-95352809D01*
X149681000Y-95201922D01*
X149681000Y-95048078D01*
X149650987Y-94897191D01*
X149592113Y-94755058D01*
X149506642Y-94627141D01*
X149397859Y-94518358D01*
X149269942Y-94432887D01*
X149127809Y-94374013D01*
X148976922Y-94344000D01*
X148823078Y-94344000D01*
X148672191Y-94374013D01*
X148530058Y-94432887D01*
X148402141Y-94518358D01*
X148293358Y-94627141D01*
X148207887Y-94755058D01*
X148149013Y-94897191D01*
X148119000Y-95048078D01*
X148031000Y-95048078D01*
X148000987Y-94897191D01*
X147942113Y-94755058D01*
X147882992Y-94666576D01*
X147897859Y-94656642D01*
X148006642Y-94547859D01*
X148092113Y-94419942D01*
X148150987Y-94277809D01*
X148181000Y-94126922D01*
X148181000Y-93973078D01*
X148150987Y-93822191D01*
X148092113Y-93680058D01*
X148006642Y-93552141D01*
X148002579Y-93548078D01*
X151619000Y-93548078D01*
X151619000Y-93701922D01*
X151649013Y-93852809D01*
X151707887Y-93994942D01*
X151793358Y-94122859D01*
X151902141Y-94231642D01*
X152030058Y-94317113D01*
X152172191Y-94375987D01*
X152323078Y-94406000D01*
X152476922Y-94406000D01*
X152627809Y-94375987D01*
X152769942Y-94317113D01*
X152897859Y-94231642D01*
X153006642Y-94122859D01*
X153092113Y-93994942D01*
X153132235Y-93898078D01*
X157669000Y-93898078D01*
X157669000Y-94051922D01*
X157699013Y-94202809D01*
X157757887Y-94344942D01*
X157843358Y-94472859D01*
X157952141Y-94581642D01*
X158080058Y-94667113D01*
X158222191Y-94725987D01*
X158373078Y-94756000D01*
X158526922Y-94756000D01*
X158677809Y-94725987D01*
X158819942Y-94667113D01*
X158947859Y-94581642D01*
X159056642Y-94472859D01*
X159142113Y-94344942D01*
X159200987Y-94202809D01*
X159231000Y-94051922D01*
X159231000Y-93898078D01*
X174169000Y-93898078D01*
X174169000Y-94051922D01*
X174199013Y-94202809D01*
X174257887Y-94344942D01*
X174343358Y-94472859D01*
X174452141Y-94581642D01*
X174580058Y-94667113D01*
X174722191Y-94725987D01*
X174873078Y-94756000D01*
X175026922Y-94756000D01*
X175177809Y-94725987D01*
X175319942Y-94667113D01*
X175447859Y-94581642D01*
X175556642Y-94472859D01*
X175642113Y-94344942D01*
X175700987Y-94202809D01*
X175731000Y-94051922D01*
X175731000Y-93898078D01*
X175700987Y-93747191D01*
X175642113Y-93605058D01*
X175556642Y-93477141D01*
X175447859Y-93368358D01*
X175319942Y-93282887D01*
X175177809Y-93224013D01*
X175026922Y-93194000D01*
X174873078Y-93194000D01*
X174722191Y-93224013D01*
X174580058Y-93282887D01*
X174452141Y-93368358D01*
X174343358Y-93477141D01*
X174257887Y-93605058D01*
X174199013Y-93747191D01*
X174169000Y-93898078D01*
X159231000Y-93898078D01*
X159200987Y-93747191D01*
X159142113Y-93605058D01*
X159056642Y-93477141D01*
X158947859Y-93368358D01*
X158819942Y-93282887D01*
X158677809Y-93224013D01*
X158526922Y-93194000D01*
X158373078Y-93194000D01*
X158222191Y-93224013D01*
X158080058Y-93282887D01*
X157952141Y-93368358D01*
X157843358Y-93477141D01*
X157757887Y-93605058D01*
X157699013Y-93747191D01*
X157669000Y-93898078D01*
X153132235Y-93898078D01*
X153150987Y-93852809D01*
X153181000Y-93701922D01*
X153181000Y-93548078D01*
X153150987Y-93397191D01*
X153092113Y-93255058D01*
X153006642Y-93127141D01*
X152897859Y-93018358D01*
X152769942Y-92932887D01*
X152627809Y-92874013D01*
X152476922Y-92844000D01*
X152323078Y-92844000D01*
X152172191Y-92874013D01*
X152030058Y-92932887D01*
X151902141Y-93018358D01*
X151793358Y-93127141D01*
X151707887Y-93255058D01*
X151649013Y-93397191D01*
X151619000Y-93548078D01*
X148002579Y-93548078D01*
X147897859Y-93443358D01*
X147769942Y-93357887D01*
X147627809Y-93299013D01*
X147476922Y-93269000D01*
X147323078Y-93269000D01*
X147172191Y-93299013D01*
X147030058Y-93357887D01*
X146902141Y-93443358D01*
X146793358Y-93552141D01*
X146707887Y-93680058D01*
X146649013Y-93822191D01*
X146619000Y-93973078D01*
X146619000Y-94126922D01*
X146649013Y-94277809D01*
X146707887Y-94419942D01*
X146767008Y-94508424D01*
X146752141Y-94518358D01*
X146643358Y-94627141D01*
X146557887Y-94755058D01*
X146499013Y-94897191D01*
X146469000Y-95048078D01*
X130931000Y-95048078D01*
X130931000Y-93023078D01*
X142519000Y-93023078D01*
X142519000Y-93176922D01*
X142549013Y-93327809D01*
X142607887Y-93469942D01*
X142693358Y-93597859D01*
X142802141Y-93706642D01*
X142930058Y-93792113D01*
X143072191Y-93850987D01*
X143223078Y-93881000D01*
X143376922Y-93881000D01*
X143527809Y-93850987D01*
X143669942Y-93792113D01*
X143797859Y-93706642D01*
X143906642Y-93597859D01*
X143992113Y-93469942D01*
X144050987Y-93327809D01*
X144081000Y-93176922D01*
X144081000Y-93023078D01*
X144050987Y-92872191D01*
X143992113Y-92730058D01*
X143906642Y-92602141D01*
X143797859Y-92493358D01*
X143669942Y-92407887D01*
X143527809Y-92349013D01*
X143376922Y-92319000D01*
X143223078Y-92319000D01*
X143072191Y-92349013D01*
X142930058Y-92407887D01*
X142802141Y-92493358D01*
X142693358Y-92602141D01*
X142607887Y-92730058D01*
X142549013Y-92872191D01*
X142519000Y-93023078D01*
X130931000Y-93023078D01*
X130931000Y-91375000D01*
X134236928Y-91375000D01*
X134249188Y-91499482D01*
X134285498Y-91619180D01*
X134344463Y-91729494D01*
X134423815Y-91826185D01*
X134520506Y-91905537D01*
X134551372Y-91922036D01*
X134549960Y-91924678D01*
X134505301Y-92071897D01*
X134490222Y-92225000D01*
X134505301Y-92378103D01*
X134549960Y-92525322D01*
X134622481Y-92660999D01*
X134720078Y-92779922D01*
X134839001Y-92877519D01*
X134974678Y-92950040D01*
X135121897Y-92994699D01*
X135236640Y-93006000D01*
X135813360Y-93006000D01*
X135928103Y-92994699D01*
X136075322Y-92950040D01*
X136210999Y-92877519D01*
X136329922Y-92779922D01*
X136427519Y-92660999D01*
X136500040Y-92525322D01*
X136544699Y-92378103D01*
X136559778Y-92225000D01*
X136554665Y-92173078D01*
X161919000Y-92173078D01*
X161919000Y-92326922D01*
X161949013Y-92477809D01*
X162007887Y-92619942D01*
X162093358Y-92747859D01*
X162202141Y-92856642D01*
X162330058Y-92942113D01*
X162472191Y-93000987D01*
X162623078Y-93031000D01*
X162776922Y-93031000D01*
X162927809Y-93000987D01*
X163069942Y-92942113D01*
X163197859Y-92856642D01*
X163306642Y-92747859D01*
X163392113Y-92619942D01*
X163450987Y-92477809D01*
X163481000Y-92326922D01*
X163481000Y-92173078D01*
X164544000Y-92173078D01*
X164544000Y-92326922D01*
X164574013Y-92477809D01*
X164632887Y-92619942D01*
X164718358Y-92747859D01*
X164827141Y-92856642D01*
X164955058Y-92942113D01*
X165097191Y-93000987D01*
X165248078Y-93031000D01*
X165401922Y-93031000D01*
X165552809Y-93000987D01*
X165694942Y-92942113D01*
X165822859Y-92856642D01*
X165931642Y-92747859D01*
X166017113Y-92619942D01*
X166075987Y-92477809D01*
X166106000Y-92326922D01*
X166106000Y-92173078D01*
X166075987Y-92022191D01*
X166017113Y-91880058D01*
X165931642Y-91752141D01*
X165822859Y-91643358D01*
X165694942Y-91557887D01*
X165552809Y-91499013D01*
X165401922Y-91469000D01*
X165248078Y-91469000D01*
X165097191Y-91499013D01*
X164955058Y-91557887D01*
X164827141Y-91643358D01*
X164718358Y-91752141D01*
X164632887Y-91880058D01*
X164574013Y-92022191D01*
X164544000Y-92173078D01*
X163481000Y-92173078D01*
X163450987Y-92022191D01*
X163392113Y-91880058D01*
X163306642Y-91752141D01*
X163197859Y-91643358D01*
X163069942Y-91557887D01*
X162927809Y-91499013D01*
X162776922Y-91469000D01*
X162623078Y-91469000D01*
X162472191Y-91499013D01*
X162330058Y-91557887D01*
X162202141Y-91643358D01*
X162093358Y-91752141D01*
X162007887Y-91880058D01*
X161949013Y-92022191D01*
X161919000Y-92173078D01*
X136554665Y-92173078D01*
X136544699Y-92071897D01*
X136500040Y-91924678D01*
X136498628Y-91922036D01*
X136529494Y-91905537D01*
X136626185Y-91826185D01*
X136705537Y-91729494D01*
X136764502Y-91619180D01*
X136800812Y-91499482D01*
X136813072Y-91375000D01*
X136810000Y-91260750D01*
X136651250Y-91102000D01*
X135652000Y-91102000D01*
X135652000Y-91122000D01*
X135398000Y-91122000D01*
X135398000Y-91102000D01*
X134398750Y-91102000D01*
X134240000Y-91260750D01*
X134236928Y-91375000D01*
X130931000Y-91375000D01*
X130931000Y-90575000D01*
X134236928Y-90575000D01*
X134240000Y-90689250D01*
X134398750Y-90848000D01*
X135398000Y-90848000D01*
X135398000Y-90098750D01*
X135652000Y-90098750D01*
X135652000Y-90848000D01*
X136651250Y-90848000D01*
X136810000Y-90689250D01*
X136813072Y-90575000D01*
X136800812Y-90450518D01*
X136764502Y-90330820D01*
X136705537Y-90220506D01*
X136626185Y-90123815D01*
X136529494Y-90044463D01*
X136442716Y-89998078D01*
X153544000Y-89998078D01*
X153544000Y-90151922D01*
X153574013Y-90302809D01*
X153632887Y-90444942D01*
X153718358Y-90572859D01*
X153827141Y-90681642D01*
X153955058Y-90767113D01*
X154097191Y-90825987D01*
X154248078Y-90856000D01*
X154401922Y-90856000D01*
X154552809Y-90825987D01*
X154694942Y-90767113D01*
X154822859Y-90681642D01*
X154931642Y-90572859D01*
X155017113Y-90444942D01*
X155026169Y-90423078D01*
X174169000Y-90423078D01*
X174169000Y-90576922D01*
X174199013Y-90727809D01*
X174257887Y-90869942D01*
X174343358Y-90997859D01*
X174452141Y-91106642D01*
X174580058Y-91192113D01*
X174722191Y-91250987D01*
X174873078Y-91281000D01*
X175026922Y-91281000D01*
X175177809Y-91250987D01*
X175319942Y-91192113D01*
X175447859Y-91106642D01*
X175556642Y-90997859D01*
X175642113Y-90869942D01*
X175700987Y-90727809D01*
X175731000Y-90576922D01*
X175731000Y-90423078D01*
X175700987Y-90272191D01*
X175642113Y-90130058D01*
X175556642Y-90002141D01*
X175447859Y-89893358D01*
X175319942Y-89807887D01*
X175177809Y-89749013D01*
X175098457Y-89733229D01*
X184049000Y-89733229D01*
X184049000Y-89906771D01*
X184082856Y-90076978D01*
X184149268Y-90237310D01*
X184245682Y-90381605D01*
X184319077Y-90455000D01*
X184245682Y-90528395D01*
X184149268Y-90672690D01*
X184082856Y-90833022D01*
X184049000Y-91003229D01*
X184049000Y-91176771D01*
X184082856Y-91346978D01*
X184149268Y-91507310D01*
X184245682Y-91651605D01*
X184319077Y-91725000D01*
X184245682Y-91798395D01*
X184149268Y-91942690D01*
X184082856Y-92103022D01*
X184049000Y-92273229D01*
X184049000Y-92446771D01*
X184082856Y-92616978D01*
X184149268Y-92777310D01*
X184245682Y-92921605D01*
X184319077Y-92995000D01*
X184245682Y-93068395D01*
X184149268Y-93212690D01*
X184082856Y-93373022D01*
X184049000Y-93543229D01*
X184049000Y-93716771D01*
X184082856Y-93886978D01*
X184149268Y-94047310D01*
X184245682Y-94191605D01*
X184319077Y-94265000D01*
X184245682Y-94338395D01*
X184149268Y-94482690D01*
X184082856Y-94643022D01*
X184049000Y-94813229D01*
X184049000Y-94986771D01*
X184082856Y-95156978D01*
X184149268Y-95317310D01*
X184245682Y-95461605D01*
X184368395Y-95584318D01*
X184512690Y-95680732D01*
X184673022Y-95747144D01*
X184843229Y-95781000D01*
X185016771Y-95781000D01*
X185186978Y-95747144D01*
X185347310Y-95680732D01*
X185405568Y-95641806D01*
X185429289Y-95670711D01*
X185487304Y-95718322D01*
X185553492Y-95753701D01*
X185625311Y-95775487D01*
X185700000Y-95782843D01*
X186700000Y-95782843D01*
X186774689Y-95775487D01*
X186846508Y-95753701D01*
X186912696Y-95718322D01*
X186970711Y-95670711D01*
X187018322Y-95612696D01*
X187053701Y-95546508D01*
X187075487Y-95474689D01*
X187082843Y-95400000D01*
X187082843Y-94400000D01*
X187077487Y-94345622D01*
X187187123Y-94190206D01*
X187277446Y-93986864D01*
X187294119Y-93931874D01*
X187167954Y-93757000D01*
X186327000Y-93757000D01*
X186327000Y-93777000D01*
X186073000Y-93777000D01*
X186073000Y-93757000D01*
X186053000Y-93757000D01*
X186053000Y-93503000D01*
X186073000Y-93503000D01*
X186073000Y-92487000D01*
X186327000Y-92487000D01*
X186327000Y-93503000D01*
X187167954Y-93503000D01*
X187294119Y-93328126D01*
X187277446Y-93273136D01*
X187187123Y-93069794D01*
X187134361Y-92995000D01*
X187187123Y-92920206D01*
X187277446Y-92716864D01*
X187294119Y-92661874D01*
X187167954Y-92487000D01*
X186327000Y-92487000D01*
X186073000Y-92487000D01*
X186053000Y-92487000D01*
X186053000Y-92233000D01*
X186073000Y-92233000D01*
X186073000Y-92213000D01*
X186327000Y-92213000D01*
X186327000Y-92233000D01*
X187167954Y-92233000D01*
X187294119Y-92058126D01*
X187277446Y-92003136D01*
X187187123Y-91799794D01*
X187058865Y-91617980D01*
X186965859Y-91529569D01*
X186980732Y-91507310D01*
X187047144Y-91346978D01*
X187081000Y-91176771D01*
X187081000Y-91003229D01*
X187047144Y-90833022D01*
X186980732Y-90672690D01*
X186965859Y-90650431D01*
X187058865Y-90562020D01*
X187187123Y-90380206D01*
X187277446Y-90176864D01*
X187294119Y-90121874D01*
X187167954Y-89947000D01*
X186327000Y-89947000D01*
X186327000Y-89967000D01*
X186073000Y-89967000D01*
X186073000Y-89947000D01*
X186053000Y-89947000D01*
X186053000Y-89693000D01*
X186073000Y-89693000D01*
X186073000Y-88850871D01*
X186327000Y-88850871D01*
X186327000Y-89693000D01*
X187167954Y-89693000D01*
X187294119Y-89518126D01*
X187277446Y-89463136D01*
X187187123Y-89259794D01*
X187058865Y-89077980D01*
X186897601Y-88924682D01*
X186709529Y-88805790D01*
X186501876Y-88725874D01*
X186327000Y-88850871D01*
X186073000Y-88850871D01*
X185898124Y-88725874D01*
X185690471Y-88805790D01*
X185502399Y-88924682D01*
X185367598Y-89052824D01*
X185347310Y-89039268D01*
X185186978Y-88972856D01*
X185016771Y-88939000D01*
X184843229Y-88939000D01*
X184673022Y-88972856D01*
X184512690Y-89039268D01*
X184368395Y-89135682D01*
X184245682Y-89258395D01*
X184149268Y-89402690D01*
X184082856Y-89563022D01*
X184049000Y-89733229D01*
X175098457Y-89733229D01*
X175026922Y-89719000D01*
X174873078Y-89719000D01*
X174722191Y-89749013D01*
X174580058Y-89807887D01*
X174452141Y-89893358D01*
X174343358Y-90002141D01*
X174257887Y-90130058D01*
X174199013Y-90272191D01*
X174169000Y-90423078D01*
X155026169Y-90423078D01*
X155075987Y-90302809D01*
X155106000Y-90151922D01*
X155106000Y-89998078D01*
X155075987Y-89847191D01*
X155017113Y-89705058D01*
X154931642Y-89577141D01*
X154822859Y-89468358D01*
X154694942Y-89382887D01*
X154552809Y-89324013D01*
X154401922Y-89294000D01*
X154248078Y-89294000D01*
X154097191Y-89324013D01*
X153955058Y-89382887D01*
X153827141Y-89468358D01*
X153718358Y-89577141D01*
X153632887Y-89705058D01*
X153574013Y-89847191D01*
X153544000Y-89998078D01*
X136442716Y-89998078D01*
X136419180Y-89985498D01*
X136299482Y-89949188D01*
X136175000Y-89936928D01*
X135810750Y-89940000D01*
X135652000Y-90098750D01*
X135398000Y-90098750D01*
X135239250Y-89940000D01*
X134875000Y-89936928D01*
X134750518Y-89949188D01*
X134630820Y-89985498D01*
X134520506Y-90044463D01*
X134423815Y-90123815D01*
X134344463Y-90220506D01*
X134285498Y-90330820D01*
X134249188Y-90450518D01*
X134236928Y-90575000D01*
X130931000Y-90575000D01*
X130931000Y-89048078D01*
X149869000Y-89048078D01*
X149869000Y-89201922D01*
X149899013Y-89352809D01*
X149957887Y-89494942D01*
X150043358Y-89622859D01*
X150152141Y-89731642D01*
X150280058Y-89817113D01*
X150422191Y-89875987D01*
X150573078Y-89906000D01*
X150726922Y-89906000D01*
X150877809Y-89875987D01*
X151019942Y-89817113D01*
X151147859Y-89731642D01*
X151256642Y-89622859D01*
X151342113Y-89494942D01*
X151400987Y-89352809D01*
X151431000Y-89201922D01*
X151431000Y-89048078D01*
X151400987Y-88897191D01*
X151342113Y-88755058D01*
X151256642Y-88627141D01*
X151147859Y-88518358D01*
X151019942Y-88432887D01*
X150877809Y-88374013D01*
X150726922Y-88344000D01*
X150573078Y-88344000D01*
X150422191Y-88374013D01*
X150280058Y-88432887D01*
X150152141Y-88518358D01*
X150043358Y-88627141D01*
X149957887Y-88755058D01*
X149899013Y-88897191D01*
X149869000Y-89048078D01*
X130931000Y-89048078D01*
X130931000Y-87250881D01*
X131628724Y-87250881D01*
X131988912Y-87740548D01*
X132652882Y-88100849D01*
X133374385Y-88324694D01*
X134125695Y-88403480D01*
X134877938Y-88334178D01*
X135602208Y-88119452D01*
X136270670Y-87767555D01*
X136311088Y-87740548D01*
X136671276Y-87250881D01*
X134150000Y-84729605D01*
X131628724Y-87250881D01*
X130931000Y-87250881D01*
X130931000Y-86667925D01*
X130932445Y-86670670D01*
X130959452Y-86711088D01*
X131449119Y-87071276D01*
X133970395Y-84550000D01*
X134329605Y-84550000D01*
X136850881Y-87071276D01*
X137340548Y-86711088D01*
X137700849Y-86047118D01*
X137793625Y-85748078D01*
X140894000Y-85748078D01*
X140894000Y-85901922D01*
X140924013Y-86052809D01*
X140982887Y-86194942D01*
X141028028Y-86262500D01*
X140982887Y-86330058D01*
X140924013Y-86472191D01*
X140894000Y-86623078D01*
X140894000Y-86776922D01*
X140924013Y-86927809D01*
X140982887Y-87069942D01*
X141068358Y-87197859D01*
X141177141Y-87306642D01*
X141305058Y-87392113D01*
X141447191Y-87450987D01*
X141598078Y-87481000D01*
X141751922Y-87481000D01*
X141902809Y-87450987D01*
X142044942Y-87392113D01*
X142172859Y-87306642D01*
X142228620Y-87250881D01*
X183028724Y-87250881D01*
X183388912Y-87740548D01*
X184052882Y-88100849D01*
X184774385Y-88324694D01*
X185525695Y-88403480D01*
X186277938Y-88334178D01*
X187002208Y-88119452D01*
X187670670Y-87767555D01*
X187711088Y-87740548D01*
X188071276Y-87250881D01*
X185550000Y-84729605D01*
X183028724Y-87250881D01*
X142228620Y-87250881D01*
X142281642Y-87197859D01*
X142367113Y-87069942D01*
X142425987Y-86927809D01*
X142456000Y-86776922D01*
X142456000Y-86623078D01*
X142450730Y-86596582D01*
X142498078Y-86606000D01*
X142651922Y-86606000D01*
X142802809Y-86575987D01*
X142944942Y-86517113D01*
X143072859Y-86431642D01*
X143181642Y-86322859D01*
X143267113Y-86194942D01*
X143325987Y-86052809D01*
X143356000Y-85901922D01*
X143356000Y-85748078D01*
X143328862Y-85611640D01*
X151969000Y-85611640D01*
X151969000Y-86188359D01*
X151980301Y-86303102D01*
X152024960Y-86450321D01*
X152097481Y-86585998D01*
X152195078Y-86704922D01*
X152314001Y-86802519D01*
X152449678Y-86875040D01*
X152596897Y-86919699D01*
X152750000Y-86934778D01*
X152903102Y-86919699D01*
X153050321Y-86875040D01*
X153185998Y-86802519D01*
X153304922Y-86704922D01*
X153375000Y-86619531D01*
X153445078Y-86704922D01*
X153564001Y-86802519D01*
X153699678Y-86875040D01*
X153846897Y-86919699D01*
X154000000Y-86934778D01*
X154153102Y-86919699D01*
X154300321Y-86875040D01*
X154435998Y-86802519D01*
X154554922Y-86704922D01*
X154625000Y-86619531D01*
X154695078Y-86704922D01*
X154814001Y-86802519D01*
X154949678Y-86875040D01*
X155096897Y-86919699D01*
X155250000Y-86934778D01*
X155403102Y-86919699D01*
X155550321Y-86875040D01*
X155552964Y-86873627D01*
X155569463Y-86904494D01*
X155648815Y-87001185D01*
X155745506Y-87080537D01*
X155855820Y-87139502D01*
X155975518Y-87175812D01*
X156100000Y-87188072D01*
X156214250Y-87185000D01*
X156373000Y-87026250D01*
X156373000Y-86027000D01*
X156627000Y-86027000D01*
X156627000Y-87026250D01*
X156785750Y-87185000D01*
X156900000Y-87188072D01*
X157024482Y-87175812D01*
X157144180Y-87139502D01*
X157254494Y-87080537D01*
X157351185Y-87001185D01*
X157430537Y-86904494D01*
X157489502Y-86794180D01*
X157525812Y-86674482D01*
X157538072Y-86550000D01*
X157535000Y-86185750D01*
X157376250Y-86027000D01*
X156627000Y-86027000D01*
X156373000Y-86027000D01*
X156353000Y-86027000D01*
X156353000Y-85773000D01*
X156373000Y-85773000D01*
X156373000Y-84773750D01*
X156627000Y-84773750D01*
X156627000Y-85773000D01*
X157376250Y-85773000D01*
X157535000Y-85614250D01*
X157537620Y-85303569D01*
X159944000Y-85303569D01*
X159944000Y-85521431D01*
X159986503Y-85735108D01*
X160069876Y-85936387D01*
X160190914Y-86117534D01*
X160344966Y-86271586D01*
X160526113Y-86392624D01*
X160727392Y-86475997D01*
X160941069Y-86518500D01*
X161158931Y-86518500D01*
X161372608Y-86475997D01*
X161573887Y-86392624D01*
X161755034Y-86271586D01*
X161909086Y-86117534D01*
X162030124Y-85936387D01*
X162113497Y-85735108D01*
X162156000Y-85521431D01*
X162156000Y-85303569D01*
X164944000Y-85303569D01*
X164944000Y-85521431D01*
X164986503Y-85735108D01*
X165069876Y-85936387D01*
X165190914Y-86117534D01*
X165344966Y-86271586D01*
X165526113Y-86392624D01*
X165727392Y-86475997D01*
X165941069Y-86518500D01*
X166158931Y-86518500D01*
X166372608Y-86475997D01*
X166573887Y-86392624D01*
X166755034Y-86271586D01*
X166909086Y-86117534D01*
X167030124Y-85936387D01*
X167113497Y-85735108D01*
X167156000Y-85521431D01*
X167156000Y-85303569D01*
X167113497Y-85089892D01*
X167030124Y-84888613D01*
X166909086Y-84707466D01*
X166755034Y-84553414D01*
X166713550Y-84525695D01*
X181696520Y-84525695D01*
X181765822Y-85277938D01*
X181980548Y-86002208D01*
X182332445Y-86670670D01*
X182359452Y-86711088D01*
X182849119Y-87071276D01*
X185370395Y-84550000D01*
X182849119Y-82028724D01*
X182359452Y-82388912D01*
X181999151Y-83052882D01*
X181775306Y-83774385D01*
X181696520Y-84525695D01*
X166713550Y-84525695D01*
X166573887Y-84432376D01*
X166372608Y-84349003D01*
X166158931Y-84306500D01*
X165941069Y-84306500D01*
X165727392Y-84349003D01*
X165526113Y-84432376D01*
X165344966Y-84553414D01*
X165190914Y-84707466D01*
X165069876Y-84888613D01*
X164986503Y-85089892D01*
X164944000Y-85303569D01*
X162156000Y-85303569D01*
X162113497Y-85089892D01*
X162030124Y-84888613D01*
X161909086Y-84707466D01*
X161755034Y-84553414D01*
X161573887Y-84432376D01*
X161372608Y-84349003D01*
X161158931Y-84306500D01*
X160941069Y-84306500D01*
X160727392Y-84349003D01*
X160526113Y-84432376D01*
X160344966Y-84553414D01*
X160190914Y-84707466D01*
X160069876Y-84888613D01*
X159986503Y-85089892D01*
X159944000Y-85303569D01*
X157537620Y-85303569D01*
X157538072Y-85250000D01*
X157525812Y-85125518D01*
X157489502Y-85005820D01*
X157430537Y-84895506D01*
X157351185Y-84798815D01*
X157254494Y-84719463D01*
X157144180Y-84660498D01*
X157024482Y-84624188D01*
X156900000Y-84611928D01*
X156785750Y-84615000D01*
X156627000Y-84773750D01*
X156373000Y-84773750D01*
X156214250Y-84615000D01*
X156100000Y-84611928D01*
X155975518Y-84624188D01*
X155855820Y-84660498D01*
X155745506Y-84719463D01*
X155648815Y-84798815D01*
X155569463Y-84895506D01*
X155552964Y-84926372D01*
X155550322Y-84924960D01*
X155403103Y-84880301D01*
X155250000Y-84865222D01*
X155096898Y-84880301D01*
X154949679Y-84924960D01*
X154814002Y-84997481D01*
X154695079Y-85095078D01*
X154625000Y-85180469D01*
X154554922Y-85095078D01*
X154435999Y-84997481D01*
X154300322Y-84924960D01*
X154153103Y-84880301D01*
X154000000Y-84865222D01*
X153846898Y-84880301D01*
X153699679Y-84924960D01*
X153564002Y-84997481D01*
X153445079Y-85095078D01*
X153375000Y-85180469D01*
X153304922Y-85095078D01*
X153185999Y-84997481D01*
X153050322Y-84924960D01*
X152903103Y-84880301D01*
X152750000Y-84865222D01*
X152596898Y-84880301D01*
X152449679Y-84924960D01*
X152314002Y-84997481D01*
X152195079Y-85095078D01*
X152097481Y-85214001D01*
X152024960Y-85349678D01*
X151980301Y-85496897D01*
X151969000Y-85611640D01*
X143328862Y-85611640D01*
X143325987Y-85597191D01*
X143267113Y-85455058D01*
X143181642Y-85327141D01*
X143072859Y-85218358D01*
X142944942Y-85132887D01*
X142802809Y-85074013D01*
X142651922Y-85044000D01*
X142498078Y-85044000D01*
X142347191Y-85074013D01*
X142205058Y-85132887D01*
X142125000Y-85186380D01*
X142044942Y-85132887D01*
X141902809Y-85074013D01*
X141751922Y-85044000D01*
X141598078Y-85044000D01*
X141447191Y-85074013D01*
X141305058Y-85132887D01*
X141177141Y-85218358D01*
X141068358Y-85327141D01*
X140982887Y-85455058D01*
X140924013Y-85597191D01*
X140894000Y-85748078D01*
X137793625Y-85748078D01*
X137924694Y-85325615D01*
X138003480Y-84574305D01*
X137934178Y-83822062D01*
X137719452Y-83097792D01*
X137367555Y-82429330D01*
X137340548Y-82388912D01*
X137239133Y-82314313D01*
X159069000Y-82314313D01*
X159069000Y-83110686D01*
X159083195Y-83254809D01*
X159139289Y-83439728D01*
X159230382Y-83610151D01*
X159352972Y-83759528D01*
X159502349Y-83882118D01*
X159672771Y-83973211D01*
X159857690Y-84029305D01*
X160050000Y-84048246D01*
X160242309Y-84029305D01*
X160427228Y-83973211D01*
X160597651Y-83882118D01*
X160747028Y-83759528D01*
X160869618Y-83610151D01*
X160960711Y-83439729D01*
X161016805Y-83254810D01*
X161031000Y-83110687D01*
X161031000Y-82314314D01*
X166069000Y-82314314D01*
X166069000Y-83110687D01*
X166083195Y-83254810D01*
X166139290Y-83439729D01*
X166230383Y-83610151D01*
X166352973Y-83759528D01*
X166502350Y-83882118D01*
X166672772Y-83973211D01*
X166857691Y-84029305D01*
X167050000Y-84048246D01*
X167242310Y-84029305D01*
X167427229Y-83973211D01*
X167597651Y-83882118D01*
X167747028Y-83759528D01*
X167869618Y-83610151D01*
X167960711Y-83439729D01*
X168016805Y-83254809D01*
X168031000Y-83110686D01*
X168031000Y-82314313D01*
X168016805Y-82170190D01*
X167960711Y-81985271D01*
X167869618Y-81814849D01*
X167747028Y-81665472D01*
X167597651Y-81542882D01*
X167427228Y-81451789D01*
X167242309Y-81395695D01*
X167050000Y-81376754D01*
X166857690Y-81395695D01*
X166672771Y-81451789D01*
X166502349Y-81542882D01*
X166352972Y-81665472D01*
X166230382Y-81814849D01*
X166139289Y-81985272D01*
X166083195Y-82170191D01*
X166069000Y-82314314D01*
X161031000Y-82314314D01*
X161016805Y-82170191D01*
X160960711Y-81985271D01*
X160869618Y-81814849D01*
X160747028Y-81665472D01*
X160597651Y-81542882D01*
X160427229Y-81451789D01*
X160242310Y-81395695D01*
X160050000Y-81376754D01*
X159857691Y-81395695D01*
X159672772Y-81451789D01*
X159502350Y-81542882D01*
X159352973Y-81665472D01*
X159230383Y-81814849D01*
X159139290Y-81985271D01*
X159083195Y-82170190D01*
X159069000Y-82314313D01*
X137239133Y-82314313D01*
X136850881Y-82028724D01*
X134329605Y-84550000D01*
X133970395Y-84550000D01*
X133956253Y-84535858D01*
X134135858Y-84356253D01*
X134150000Y-84370395D01*
X136671276Y-81849119D01*
X136311088Y-81359452D01*
X136258656Y-81331000D01*
X183432075Y-81331000D01*
X183429330Y-81332445D01*
G37*
%TD.AperFunction*%
%TD*%
M02*
