%TF.GenerationSoftware,KiCad,Pcbnew,(5.1.10)-1*%
%TF.CreationDate,2021-11-27T13:57:11+01:00*%
%TF.ProjectId,SplashQuad,53706c61-7368-4517-9561-642e6b696361,rev?*%
%TF.SameCoordinates,Original*%
%TF.FileFunction,Paste,Top*%
%TF.FilePolarity,Positive*%
%FSLAX46Y46*%
G04 Gerber Fmt 4.6, Leading zero omitted, Abs format (unit mm)*
G04 Created by KiCad (PCBNEW (5.1.10)-1) date 2021-11-27 13:57:11*
%MOMM*%
%LPD*%
G01*
G04 APERTURE LIST*
%ADD10R,1.400000X1.200000*%
%ADD11R,0.254000X0.675000*%
%ADD12R,0.675000X0.254000*%
%ADD13R,0.650000X1.060000*%
%ADD14R,0.760000X1.250000*%
%ADD15R,3.600000X1.270000*%
%ADD16R,4.200000X1.350000*%
%ADD17R,1.500000X1.900000*%
%ADD18R,0.400000X1.350000*%
%ADD19R,0.900000X1.200000*%
G04 APERTURE END LIST*
%TO.C,U6*%
G36*
G01*
X167950000Y-95675000D02*
X167950000Y-95325000D01*
G75*
G02*
X168125000Y-95150000I175000J0D01*
G01*
X169575000Y-95150000D01*
G75*
G02*
X169750000Y-95325000I0J-175000D01*
G01*
X169750000Y-95675000D01*
G75*
G02*
X169575000Y-95850000I-175000J0D01*
G01*
X168125000Y-95850000D01*
G75*
G02*
X167950000Y-95675000I0J175000D01*
G01*
G37*
G36*
G01*
X167950000Y-96800000D02*
X167950000Y-96400000D01*
G75*
G02*
X168150000Y-96200000I200000J0D01*
G01*
X169550000Y-96200000D01*
G75*
G02*
X169750000Y-96400000I0J-200000D01*
G01*
X169750000Y-96800000D01*
G75*
G02*
X169550000Y-97000000I-200000J0D01*
G01*
X168150000Y-97000000D01*
G75*
G02*
X167950000Y-96800000I0J200000D01*
G01*
G37*
G36*
G01*
X167950000Y-97900000D02*
X167950000Y-97500000D01*
G75*
G02*
X168150000Y-97300000I200000J0D01*
G01*
X169550000Y-97300000D01*
G75*
G02*
X169750000Y-97500000I0J-200000D01*
G01*
X169750000Y-97900000D01*
G75*
G02*
X169550000Y-98100000I-200000J0D01*
G01*
X168150000Y-98100000D01*
G75*
G02*
X167950000Y-97900000I0J200000D01*
G01*
G37*
G36*
G01*
X167950000Y-99000000D02*
X167950000Y-98600000D01*
G75*
G02*
X168150000Y-98400000I200000J0D01*
G01*
X169550000Y-98400000D01*
G75*
G02*
X169750000Y-98600000I0J-200000D01*
G01*
X169750000Y-99000000D01*
G75*
G02*
X169550000Y-99200000I-200000J0D01*
G01*
X168150000Y-99200000D01*
G75*
G02*
X167950000Y-99000000I0J200000D01*
G01*
G37*
G36*
G01*
X167950000Y-100100000D02*
X167950000Y-99700000D01*
G75*
G02*
X168150000Y-99500000I200000J0D01*
G01*
X169550000Y-99500000D01*
G75*
G02*
X169750000Y-99700000I0J-200000D01*
G01*
X169750000Y-100100000D01*
G75*
G02*
X169550000Y-100300000I-200000J0D01*
G01*
X168150000Y-100300000D01*
G75*
G02*
X167950000Y-100100000I0J200000D01*
G01*
G37*
G36*
G01*
X167950000Y-101200000D02*
X167950000Y-100800000D01*
G75*
G02*
X168150000Y-100600000I200000J0D01*
G01*
X169550000Y-100600000D01*
G75*
G02*
X169750000Y-100800000I0J-200000D01*
G01*
X169750000Y-101200000D01*
G75*
G02*
X169550000Y-101400000I-200000J0D01*
G01*
X168150000Y-101400000D01*
G75*
G02*
X167950000Y-101200000I0J200000D01*
G01*
G37*
G36*
G01*
X167950000Y-102300000D02*
X167950000Y-101900000D01*
G75*
G02*
X168150000Y-101700000I200000J0D01*
G01*
X169550000Y-101700000D01*
G75*
G02*
X169750000Y-101900000I0J-200000D01*
G01*
X169750000Y-102300000D01*
G75*
G02*
X169550000Y-102500000I-200000J0D01*
G01*
X168150000Y-102500000D01*
G75*
G02*
X167950000Y-102300000I0J200000D01*
G01*
G37*
G36*
G01*
X167950000Y-103400000D02*
X167950000Y-103000000D01*
G75*
G02*
X168150000Y-102800000I200000J0D01*
G01*
X169550000Y-102800000D01*
G75*
G02*
X169750000Y-103000000I0J-200000D01*
G01*
X169750000Y-103400000D01*
G75*
G02*
X169550000Y-103600000I-200000J0D01*
G01*
X168150000Y-103600000D01*
G75*
G02*
X167950000Y-103400000I0J200000D01*
G01*
G37*
G36*
G01*
X167950000Y-104475000D02*
X167950000Y-104125000D01*
G75*
G02*
X168125000Y-103950000I175000J0D01*
G01*
X169575000Y-103950000D01*
G75*
G02*
X169750000Y-104125000I0J-175000D01*
G01*
X169750000Y-104475000D01*
G75*
G02*
X169575000Y-104650000I-175000J0D01*
G01*
X168125000Y-104650000D01*
G75*
G02*
X167950000Y-104475000I0J175000D01*
G01*
G37*
G36*
G01*
X158450000Y-104475000D02*
X158450000Y-104125000D01*
G75*
G02*
X158625000Y-103950000I175000J0D01*
G01*
X160075000Y-103950000D01*
G75*
G02*
X160250000Y-104125000I0J-175000D01*
G01*
X160250000Y-104475000D01*
G75*
G02*
X160075000Y-104650000I-175000J0D01*
G01*
X158625000Y-104650000D01*
G75*
G02*
X158450000Y-104475000I0J175000D01*
G01*
G37*
G36*
G01*
X158450000Y-103400000D02*
X158450000Y-103000000D01*
G75*
G02*
X158650000Y-102800000I200000J0D01*
G01*
X160050000Y-102800000D01*
G75*
G02*
X160250000Y-103000000I0J-200000D01*
G01*
X160250000Y-103400000D01*
G75*
G02*
X160050000Y-103600000I-200000J0D01*
G01*
X158650000Y-103600000D01*
G75*
G02*
X158450000Y-103400000I0J200000D01*
G01*
G37*
G36*
G01*
X158450000Y-102300000D02*
X158450000Y-101900000D01*
G75*
G02*
X158650000Y-101700000I200000J0D01*
G01*
X160050000Y-101700000D01*
G75*
G02*
X160250000Y-101900000I0J-200000D01*
G01*
X160250000Y-102300000D01*
G75*
G02*
X160050000Y-102500000I-200000J0D01*
G01*
X158650000Y-102500000D01*
G75*
G02*
X158450000Y-102300000I0J200000D01*
G01*
G37*
G36*
G01*
X158450000Y-101200000D02*
X158450000Y-100800000D01*
G75*
G02*
X158650000Y-100600000I200000J0D01*
G01*
X160050000Y-100600000D01*
G75*
G02*
X160250000Y-100800000I0J-200000D01*
G01*
X160250000Y-101200000D01*
G75*
G02*
X160050000Y-101400000I-200000J0D01*
G01*
X158650000Y-101400000D01*
G75*
G02*
X158450000Y-101200000I0J200000D01*
G01*
G37*
G36*
G01*
X158450000Y-100100000D02*
X158450000Y-99700000D01*
G75*
G02*
X158650000Y-99500000I200000J0D01*
G01*
X160050000Y-99500000D01*
G75*
G02*
X160250000Y-99700000I0J-200000D01*
G01*
X160250000Y-100100000D01*
G75*
G02*
X160050000Y-100300000I-200000J0D01*
G01*
X158650000Y-100300000D01*
G75*
G02*
X158450000Y-100100000I0J200000D01*
G01*
G37*
G36*
G01*
X158450000Y-99000000D02*
X158450000Y-98600000D01*
G75*
G02*
X158650000Y-98400000I200000J0D01*
G01*
X160050000Y-98400000D01*
G75*
G02*
X160250000Y-98600000I0J-200000D01*
G01*
X160250000Y-99000000D01*
G75*
G02*
X160050000Y-99200000I-200000J0D01*
G01*
X158650000Y-99200000D01*
G75*
G02*
X158450000Y-99000000I0J200000D01*
G01*
G37*
G36*
G01*
X158450000Y-97900000D02*
X158450000Y-97500000D01*
G75*
G02*
X158650000Y-97300000I200000J0D01*
G01*
X160050000Y-97300000D01*
G75*
G02*
X160250000Y-97500000I0J-200000D01*
G01*
X160250000Y-97900000D01*
G75*
G02*
X160050000Y-98100000I-200000J0D01*
G01*
X158650000Y-98100000D01*
G75*
G02*
X158450000Y-97900000I0J200000D01*
G01*
G37*
G36*
G01*
X158450000Y-96800000D02*
X158450000Y-96400000D01*
G75*
G02*
X158650000Y-96200000I200000J0D01*
G01*
X160050000Y-96200000D01*
G75*
G02*
X160250000Y-96400000I0J-200000D01*
G01*
X160250000Y-96800000D01*
G75*
G02*
X160050000Y-97000000I-200000J0D01*
G01*
X158650000Y-97000000D01*
G75*
G02*
X158450000Y-96800000I0J200000D01*
G01*
G37*
G36*
G01*
X158450000Y-95675000D02*
X158450000Y-95325000D01*
G75*
G02*
X158625000Y-95150000I175000J0D01*
G01*
X160075000Y-95150000D01*
G75*
G02*
X160250000Y-95325000I0J-175000D01*
G01*
X160250000Y-95675000D01*
G75*
G02*
X160075000Y-95850000I-175000J0D01*
G01*
X158625000Y-95850000D01*
G75*
G02*
X158450000Y-95675000I0J175000D01*
G01*
G37*
%TD*%
%TO.C,C19*%
G36*
G01*
X154155000Y-91625000D02*
X154495000Y-91625000D01*
G75*
G02*
X154635000Y-91765000I0J-140000D01*
G01*
X154635000Y-92045000D01*
G75*
G02*
X154495000Y-92185000I-140000J0D01*
G01*
X154155000Y-92185000D01*
G75*
G02*
X154015000Y-92045000I0J140000D01*
G01*
X154015000Y-91765000D01*
G75*
G02*
X154155000Y-91625000I140000J0D01*
G01*
G37*
G36*
G01*
X154155000Y-90665000D02*
X154495000Y-90665000D01*
G75*
G02*
X154635000Y-90805000I0J-140000D01*
G01*
X154635000Y-91085000D01*
G75*
G02*
X154495000Y-91225000I-140000J0D01*
G01*
X154155000Y-91225000D01*
G75*
G02*
X154015000Y-91085000I0J140000D01*
G01*
X154015000Y-90805000D01*
G75*
G02*
X154155000Y-90665000I140000J0D01*
G01*
G37*
%TD*%
D10*
%TO.C,Y1*%
X133125000Y-100400000D03*
X135325000Y-100400000D03*
X135325000Y-102100000D03*
X133125000Y-102100000D03*
%TD*%
D11*
%TO.C,U5*%
X172400000Y-109737500D03*
X171900000Y-109737500D03*
X171400000Y-109737500D03*
D12*
X173312500Y-109875000D03*
X173312500Y-110375000D03*
X173312500Y-110875000D03*
X173312500Y-111375000D03*
X173312500Y-111875000D03*
X173312500Y-112375000D03*
X173312500Y-112875000D03*
X173312500Y-113375000D03*
X173312500Y-113875000D03*
X169987500Y-109875000D03*
X169987500Y-110375000D03*
X169987500Y-110875000D03*
X169987500Y-111375000D03*
X169987500Y-111875000D03*
X169987500Y-112375000D03*
X169987500Y-112875000D03*
X169987500Y-113375000D03*
X169987500Y-113875000D03*
D11*
X172400000Y-114512500D03*
X171900000Y-114512500D03*
X171400000Y-114512500D03*
D12*
X169987500Y-114375000D03*
D11*
X170900000Y-114512500D03*
D12*
X173312500Y-114375000D03*
D11*
X170900000Y-109737500D03*
%TD*%
%TO.C,U4*%
G36*
G01*
X153450000Y-90100000D02*
X153450000Y-90375000D01*
G75*
G02*
X153325000Y-90500000I-125000J0D01*
G01*
X153075000Y-90500000D01*
G75*
G02*
X152950000Y-90375000I0J125000D01*
G01*
X152950000Y-90100000D01*
G75*
G02*
X153075000Y-89975000I125000J0D01*
G01*
X153325000Y-89975000D01*
G75*
G02*
X153450000Y-90100000I0J-125000D01*
G01*
G37*
G36*
G01*
X152650000Y-90100000D02*
X152650000Y-90375000D01*
G75*
G02*
X152525000Y-90500000I-125000J0D01*
G01*
X152275000Y-90500000D01*
G75*
G02*
X152150000Y-90375000I0J125000D01*
G01*
X152150000Y-90100000D01*
G75*
G02*
X152275000Y-89975000I125000J0D01*
G01*
X152525000Y-89975000D01*
G75*
G02*
X152650000Y-90100000I0J-125000D01*
G01*
G37*
G36*
G01*
X151850000Y-90100000D02*
X151850000Y-90375000D01*
G75*
G02*
X151725000Y-90500000I-125000J0D01*
G01*
X151475000Y-90500000D01*
G75*
G02*
X151350000Y-90375000I0J125000D01*
G01*
X151350000Y-90100000D01*
G75*
G02*
X151475000Y-89975000I125000J0D01*
G01*
X151725000Y-89975000D01*
G75*
G02*
X151850000Y-90100000I0J-125000D01*
G01*
G37*
G36*
G01*
X151050000Y-90100000D02*
X151050000Y-90375000D01*
G75*
G02*
X150925000Y-90500000I-125000J0D01*
G01*
X150675000Y-90500000D01*
G75*
G02*
X150550000Y-90375000I0J125000D01*
G01*
X150550000Y-90100000D01*
G75*
G02*
X150675000Y-89975000I125000J0D01*
G01*
X150925000Y-89975000D01*
G75*
G02*
X151050000Y-90100000I0J-125000D01*
G01*
G37*
G36*
G01*
X151050000Y-92475000D02*
X151050000Y-92750000D01*
G75*
G02*
X150925000Y-92875000I-125000J0D01*
G01*
X150675000Y-92875000D01*
G75*
G02*
X150550000Y-92750000I0J125000D01*
G01*
X150550000Y-92475000D01*
G75*
G02*
X150675000Y-92350000I125000J0D01*
G01*
X150925000Y-92350000D01*
G75*
G02*
X151050000Y-92475000I0J-125000D01*
G01*
G37*
G36*
G01*
X151850000Y-92475000D02*
X151850000Y-92750000D01*
G75*
G02*
X151725000Y-92875000I-125000J0D01*
G01*
X151475000Y-92875000D01*
G75*
G02*
X151350000Y-92750000I0J125000D01*
G01*
X151350000Y-92475000D01*
G75*
G02*
X151475000Y-92350000I125000J0D01*
G01*
X151725000Y-92350000D01*
G75*
G02*
X151850000Y-92475000I0J-125000D01*
G01*
G37*
G36*
G01*
X152650000Y-92475000D02*
X152650000Y-92750000D01*
G75*
G02*
X152525000Y-92875000I-125000J0D01*
G01*
X152275000Y-92875000D01*
G75*
G02*
X152150000Y-92750000I0J125000D01*
G01*
X152150000Y-92475000D01*
G75*
G02*
X152275000Y-92350000I125000J0D01*
G01*
X152525000Y-92350000D01*
G75*
G02*
X152650000Y-92475000I0J-125000D01*
G01*
G37*
G36*
G01*
X153450000Y-92475000D02*
X153450000Y-92750000D01*
G75*
G02*
X153325000Y-92875000I-125000J0D01*
G01*
X153075000Y-92875000D01*
G75*
G02*
X152950000Y-92750000I0J125000D01*
G01*
X152950000Y-92475000D01*
G75*
G02*
X153075000Y-92350000I125000J0D01*
G01*
X153325000Y-92350000D01*
G75*
G02*
X153450000Y-92475000I0J-125000D01*
G01*
G37*
%TD*%
%TO.C,U3*%
G36*
G01*
X141675000Y-97375000D02*
X141675000Y-95975000D01*
G75*
G02*
X141750000Y-95900000I75000J0D01*
G01*
X141900000Y-95900000D01*
G75*
G02*
X141975000Y-95975000I0J-75000D01*
G01*
X141975000Y-97375000D01*
G75*
G02*
X141900000Y-97450000I-75000J0D01*
G01*
X141750000Y-97450000D01*
G75*
G02*
X141675000Y-97375000I0J75000D01*
G01*
G37*
G36*
G01*
X142175000Y-97375000D02*
X142175000Y-95975000D01*
G75*
G02*
X142250000Y-95900000I75000J0D01*
G01*
X142400000Y-95900000D01*
G75*
G02*
X142475000Y-95975000I0J-75000D01*
G01*
X142475000Y-97375000D01*
G75*
G02*
X142400000Y-97450000I-75000J0D01*
G01*
X142250000Y-97450000D01*
G75*
G02*
X142175000Y-97375000I0J75000D01*
G01*
G37*
G36*
G01*
X142675000Y-97375000D02*
X142675000Y-95975000D01*
G75*
G02*
X142750000Y-95900000I75000J0D01*
G01*
X142900000Y-95900000D01*
G75*
G02*
X142975000Y-95975000I0J-75000D01*
G01*
X142975000Y-97375000D01*
G75*
G02*
X142900000Y-97450000I-75000J0D01*
G01*
X142750000Y-97450000D01*
G75*
G02*
X142675000Y-97375000I0J75000D01*
G01*
G37*
G36*
G01*
X143175000Y-97375000D02*
X143175000Y-95975000D01*
G75*
G02*
X143250000Y-95900000I75000J0D01*
G01*
X143400000Y-95900000D01*
G75*
G02*
X143475000Y-95975000I0J-75000D01*
G01*
X143475000Y-97375000D01*
G75*
G02*
X143400000Y-97450000I-75000J0D01*
G01*
X143250000Y-97450000D01*
G75*
G02*
X143175000Y-97375000I0J75000D01*
G01*
G37*
G36*
G01*
X143675000Y-97375000D02*
X143675000Y-95975000D01*
G75*
G02*
X143750000Y-95900000I75000J0D01*
G01*
X143900000Y-95900000D01*
G75*
G02*
X143975000Y-95975000I0J-75000D01*
G01*
X143975000Y-97375000D01*
G75*
G02*
X143900000Y-97450000I-75000J0D01*
G01*
X143750000Y-97450000D01*
G75*
G02*
X143675000Y-97375000I0J75000D01*
G01*
G37*
G36*
G01*
X144175000Y-97375000D02*
X144175000Y-95975000D01*
G75*
G02*
X144250000Y-95900000I75000J0D01*
G01*
X144400000Y-95900000D01*
G75*
G02*
X144475000Y-95975000I0J-75000D01*
G01*
X144475000Y-97375000D01*
G75*
G02*
X144400000Y-97450000I-75000J0D01*
G01*
X144250000Y-97450000D01*
G75*
G02*
X144175000Y-97375000I0J75000D01*
G01*
G37*
G36*
G01*
X144675000Y-97375000D02*
X144675000Y-95975000D01*
G75*
G02*
X144750000Y-95900000I75000J0D01*
G01*
X144900000Y-95900000D01*
G75*
G02*
X144975000Y-95975000I0J-75000D01*
G01*
X144975000Y-97375000D01*
G75*
G02*
X144900000Y-97450000I-75000J0D01*
G01*
X144750000Y-97450000D01*
G75*
G02*
X144675000Y-97375000I0J75000D01*
G01*
G37*
G36*
G01*
X145175000Y-97375000D02*
X145175000Y-95975000D01*
G75*
G02*
X145250000Y-95900000I75000J0D01*
G01*
X145400000Y-95900000D01*
G75*
G02*
X145475000Y-95975000I0J-75000D01*
G01*
X145475000Y-97375000D01*
G75*
G02*
X145400000Y-97450000I-75000J0D01*
G01*
X145250000Y-97450000D01*
G75*
G02*
X145175000Y-97375000I0J75000D01*
G01*
G37*
G36*
G01*
X145675000Y-97375000D02*
X145675000Y-95975000D01*
G75*
G02*
X145750000Y-95900000I75000J0D01*
G01*
X145900000Y-95900000D01*
G75*
G02*
X145975000Y-95975000I0J-75000D01*
G01*
X145975000Y-97375000D01*
G75*
G02*
X145900000Y-97450000I-75000J0D01*
G01*
X145750000Y-97450000D01*
G75*
G02*
X145675000Y-97375000I0J75000D01*
G01*
G37*
G36*
G01*
X146175000Y-97375000D02*
X146175000Y-95975000D01*
G75*
G02*
X146250000Y-95900000I75000J0D01*
G01*
X146400000Y-95900000D01*
G75*
G02*
X146475000Y-95975000I0J-75000D01*
G01*
X146475000Y-97375000D01*
G75*
G02*
X146400000Y-97450000I-75000J0D01*
G01*
X146250000Y-97450000D01*
G75*
G02*
X146175000Y-97375000I0J75000D01*
G01*
G37*
G36*
G01*
X146675000Y-97375000D02*
X146675000Y-95975000D01*
G75*
G02*
X146750000Y-95900000I75000J0D01*
G01*
X146900000Y-95900000D01*
G75*
G02*
X146975000Y-95975000I0J-75000D01*
G01*
X146975000Y-97375000D01*
G75*
G02*
X146900000Y-97450000I-75000J0D01*
G01*
X146750000Y-97450000D01*
G75*
G02*
X146675000Y-97375000I0J75000D01*
G01*
G37*
G36*
G01*
X147175000Y-97375000D02*
X147175000Y-95975000D01*
G75*
G02*
X147250000Y-95900000I75000J0D01*
G01*
X147400000Y-95900000D01*
G75*
G02*
X147475000Y-95975000I0J-75000D01*
G01*
X147475000Y-97375000D01*
G75*
G02*
X147400000Y-97450000I-75000J0D01*
G01*
X147250000Y-97450000D01*
G75*
G02*
X147175000Y-97375000I0J75000D01*
G01*
G37*
G36*
G01*
X147675000Y-97375000D02*
X147675000Y-95975000D01*
G75*
G02*
X147750000Y-95900000I75000J0D01*
G01*
X147900000Y-95900000D01*
G75*
G02*
X147975000Y-95975000I0J-75000D01*
G01*
X147975000Y-97375000D01*
G75*
G02*
X147900000Y-97450000I-75000J0D01*
G01*
X147750000Y-97450000D01*
G75*
G02*
X147675000Y-97375000I0J75000D01*
G01*
G37*
G36*
G01*
X148175000Y-97375000D02*
X148175000Y-95975000D01*
G75*
G02*
X148250000Y-95900000I75000J0D01*
G01*
X148400000Y-95900000D01*
G75*
G02*
X148475000Y-95975000I0J-75000D01*
G01*
X148475000Y-97375000D01*
G75*
G02*
X148400000Y-97450000I-75000J0D01*
G01*
X148250000Y-97450000D01*
G75*
G02*
X148175000Y-97375000I0J75000D01*
G01*
G37*
G36*
G01*
X148675000Y-97375000D02*
X148675000Y-95975000D01*
G75*
G02*
X148750000Y-95900000I75000J0D01*
G01*
X148900000Y-95900000D01*
G75*
G02*
X148975000Y-95975000I0J-75000D01*
G01*
X148975000Y-97375000D01*
G75*
G02*
X148900000Y-97450000I-75000J0D01*
G01*
X148750000Y-97450000D01*
G75*
G02*
X148675000Y-97375000I0J75000D01*
G01*
G37*
G36*
G01*
X149175000Y-97375000D02*
X149175000Y-95975000D01*
G75*
G02*
X149250000Y-95900000I75000J0D01*
G01*
X149400000Y-95900000D01*
G75*
G02*
X149475000Y-95975000I0J-75000D01*
G01*
X149475000Y-97375000D01*
G75*
G02*
X149400000Y-97450000I-75000J0D01*
G01*
X149250000Y-97450000D01*
G75*
G02*
X149175000Y-97375000I0J75000D01*
G01*
G37*
G36*
G01*
X150475000Y-98675000D02*
X150475000Y-98525000D01*
G75*
G02*
X150550000Y-98450000I75000J0D01*
G01*
X151950000Y-98450000D01*
G75*
G02*
X152025000Y-98525000I0J-75000D01*
G01*
X152025000Y-98675000D01*
G75*
G02*
X151950000Y-98750000I-75000J0D01*
G01*
X150550000Y-98750000D01*
G75*
G02*
X150475000Y-98675000I0J75000D01*
G01*
G37*
G36*
G01*
X150475000Y-99175000D02*
X150475000Y-99025000D01*
G75*
G02*
X150550000Y-98950000I75000J0D01*
G01*
X151950000Y-98950000D01*
G75*
G02*
X152025000Y-99025000I0J-75000D01*
G01*
X152025000Y-99175000D01*
G75*
G02*
X151950000Y-99250000I-75000J0D01*
G01*
X150550000Y-99250000D01*
G75*
G02*
X150475000Y-99175000I0J75000D01*
G01*
G37*
G36*
G01*
X150475000Y-99675000D02*
X150475000Y-99525000D01*
G75*
G02*
X150550000Y-99450000I75000J0D01*
G01*
X151950000Y-99450000D01*
G75*
G02*
X152025000Y-99525000I0J-75000D01*
G01*
X152025000Y-99675000D01*
G75*
G02*
X151950000Y-99750000I-75000J0D01*
G01*
X150550000Y-99750000D01*
G75*
G02*
X150475000Y-99675000I0J75000D01*
G01*
G37*
G36*
G01*
X150475000Y-100175000D02*
X150475000Y-100025000D01*
G75*
G02*
X150550000Y-99950000I75000J0D01*
G01*
X151950000Y-99950000D01*
G75*
G02*
X152025000Y-100025000I0J-75000D01*
G01*
X152025000Y-100175000D01*
G75*
G02*
X151950000Y-100250000I-75000J0D01*
G01*
X150550000Y-100250000D01*
G75*
G02*
X150475000Y-100175000I0J75000D01*
G01*
G37*
G36*
G01*
X150475000Y-100675000D02*
X150475000Y-100525000D01*
G75*
G02*
X150550000Y-100450000I75000J0D01*
G01*
X151950000Y-100450000D01*
G75*
G02*
X152025000Y-100525000I0J-75000D01*
G01*
X152025000Y-100675000D01*
G75*
G02*
X151950000Y-100750000I-75000J0D01*
G01*
X150550000Y-100750000D01*
G75*
G02*
X150475000Y-100675000I0J75000D01*
G01*
G37*
G36*
G01*
X150475000Y-101175000D02*
X150475000Y-101025000D01*
G75*
G02*
X150550000Y-100950000I75000J0D01*
G01*
X151950000Y-100950000D01*
G75*
G02*
X152025000Y-101025000I0J-75000D01*
G01*
X152025000Y-101175000D01*
G75*
G02*
X151950000Y-101250000I-75000J0D01*
G01*
X150550000Y-101250000D01*
G75*
G02*
X150475000Y-101175000I0J75000D01*
G01*
G37*
G36*
G01*
X150475000Y-101675000D02*
X150475000Y-101525000D01*
G75*
G02*
X150550000Y-101450000I75000J0D01*
G01*
X151950000Y-101450000D01*
G75*
G02*
X152025000Y-101525000I0J-75000D01*
G01*
X152025000Y-101675000D01*
G75*
G02*
X151950000Y-101750000I-75000J0D01*
G01*
X150550000Y-101750000D01*
G75*
G02*
X150475000Y-101675000I0J75000D01*
G01*
G37*
G36*
G01*
X150475000Y-102175000D02*
X150475000Y-102025000D01*
G75*
G02*
X150550000Y-101950000I75000J0D01*
G01*
X151950000Y-101950000D01*
G75*
G02*
X152025000Y-102025000I0J-75000D01*
G01*
X152025000Y-102175000D01*
G75*
G02*
X151950000Y-102250000I-75000J0D01*
G01*
X150550000Y-102250000D01*
G75*
G02*
X150475000Y-102175000I0J75000D01*
G01*
G37*
G36*
G01*
X150475000Y-102675000D02*
X150475000Y-102525000D01*
G75*
G02*
X150550000Y-102450000I75000J0D01*
G01*
X151950000Y-102450000D01*
G75*
G02*
X152025000Y-102525000I0J-75000D01*
G01*
X152025000Y-102675000D01*
G75*
G02*
X151950000Y-102750000I-75000J0D01*
G01*
X150550000Y-102750000D01*
G75*
G02*
X150475000Y-102675000I0J75000D01*
G01*
G37*
G36*
G01*
X150475000Y-103175000D02*
X150475000Y-103025000D01*
G75*
G02*
X150550000Y-102950000I75000J0D01*
G01*
X151950000Y-102950000D01*
G75*
G02*
X152025000Y-103025000I0J-75000D01*
G01*
X152025000Y-103175000D01*
G75*
G02*
X151950000Y-103250000I-75000J0D01*
G01*
X150550000Y-103250000D01*
G75*
G02*
X150475000Y-103175000I0J75000D01*
G01*
G37*
G36*
G01*
X150475000Y-103675000D02*
X150475000Y-103525000D01*
G75*
G02*
X150550000Y-103450000I75000J0D01*
G01*
X151950000Y-103450000D01*
G75*
G02*
X152025000Y-103525000I0J-75000D01*
G01*
X152025000Y-103675000D01*
G75*
G02*
X151950000Y-103750000I-75000J0D01*
G01*
X150550000Y-103750000D01*
G75*
G02*
X150475000Y-103675000I0J75000D01*
G01*
G37*
G36*
G01*
X150475000Y-104175000D02*
X150475000Y-104025000D01*
G75*
G02*
X150550000Y-103950000I75000J0D01*
G01*
X151950000Y-103950000D01*
G75*
G02*
X152025000Y-104025000I0J-75000D01*
G01*
X152025000Y-104175000D01*
G75*
G02*
X151950000Y-104250000I-75000J0D01*
G01*
X150550000Y-104250000D01*
G75*
G02*
X150475000Y-104175000I0J75000D01*
G01*
G37*
G36*
G01*
X150475000Y-104675000D02*
X150475000Y-104525000D01*
G75*
G02*
X150550000Y-104450000I75000J0D01*
G01*
X151950000Y-104450000D01*
G75*
G02*
X152025000Y-104525000I0J-75000D01*
G01*
X152025000Y-104675000D01*
G75*
G02*
X151950000Y-104750000I-75000J0D01*
G01*
X150550000Y-104750000D01*
G75*
G02*
X150475000Y-104675000I0J75000D01*
G01*
G37*
G36*
G01*
X150475000Y-105175000D02*
X150475000Y-105025000D01*
G75*
G02*
X150550000Y-104950000I75000J0D01*
G01*
X151950000Y-104950000D01*
G75*
G02*
X152025000Y-105025000I0J-75000D01*
G01*
X152025000Y-105175000D01*
G75*
G02*
X151950000Y-105250000I-75000J0D01*
G01*
X150550000Y-105250000D01*
G75*
G02*
X150475000Y-105175000I0J75000D01*
G01*
G37*
G36*
G01*
X150475000Y-105675000D02*
X150475000Y-105525000D01*
G75*
G02*
X150550000Y-105450000I75000J0D01*
G01*
X151950000Y-105450000D01*
G75*
G02*
X152025000Y-105525000I0J-75000D01*
G01*
X152025000Y-105675000D01*
G75*
G02*
X151950000Y-105750000I-75000J0D01*
G01*
X150550000Y-105750000D01*
G75*
G02*
X150475000Y-105675000I0J75000D01*
G01*
G37*
G36*
G01*
X150475000Y-106175000D02*
X150475000Y-106025000D01*
G75*
G02*
X150550000Y-105950000I75000J0D01*
G01*
X151950000Y-105950000D01*
G75*
G02*
X152025000Y-106025000I0J-75000D01*
G01*
X152025000Y-106175000D01*
G75*
G02*
X151950000Y-106250000I-75000J0D01*
G01*
X150550000Y-106250000D01*
G75*
G02*
X150475000Y-106175000I0J75000D01*
G01*
G37*
G36*
G01*
X149175000Y-108725000D02*
X149175000Y-107325000D01*
G75*
G02*
X149250000Y-107250000I75000J0D01*
G01*
X149400000Y-107250000D01*
G75*
G02*
X149475000Y-107325000I0J-75000D01*
G01*
X149475000Y-108725000D01*
G75*
G02*
X149400000Y-108800000I-75000J0D01*
G01*
X149250000Y-108800000D01*
G75*
G02*
X149175000Y-108725000I0J75000D01*
G01*
G37*
G36*
G01*
X148675000Y-108725000D02*
X148675000Y-107325000D01*
G75*
G02*
X148750000Y-107250000I75000J0D01*
G01*
X148900000Y-107250000D01*
G75*
G02*
X148975000Y-107325000I0J-75000D01*
G01*
X148975000Y-108725000D01*
G75*
G02*
X148900000Y-108800000I-75000J0D01*
G01*
X148750000Y-108800000D01*
G75*
G02*
X148675000Y-108725000I0J75000D01*
G01*
G37*
G36*
G01*
X148175000Y-108725000D02*
X148175000Y-107325000D01*
G75*
G02*
X148250000Y-107250000I75000J0D01*
G01*
X148400000Y-107250000D01*
G75*
G02*
X148475000Y-107325000I0J-75000D01*
G01*
X148475000Y-108725000D01*
G75*
G02*
X148400000Y-108800000I-75000J0D01*
G01*
X148250000Y-108800000D01*
G75*
G02*
X148175000Y-108725000I0J75000D01*
G01*
G37*
G36*
G01*
X147675000Y-108725000D02*
X147675000Y-107325000D01*
G75*
G02*
X147750000Y-107250000I75000J0D01*
G01*
X147900000Y-107250000D01*
G75*
G02*
X147975000Y-107325000I0J-75000D01*
G01*
X147975000Y-108725000D01*
G75*
G02*
X147900000Y-108800000I-75000J0D01*
G01*
X147750000Y-108800000D01*
G75*
G02*
X147675000Y-108725000I0J75000D01*
G01*
G37*
G36*
G01*
X147175000Y-108725000D02*
X147175000Y-107325000D01*
G75*
G02*
X147250000Y-107250000I75000J0D01*
G01*
X147400000Y-107250000D01*
G75*
G02*
X147475000Y-107325000I0J-75000D01*
G01*
X147475000Y-108725000D01*
G75*
G02*
X147400000Y-108800000I-75000J0D01*
G01*
X147250000Y-108800000D01*
G75*
G02*
X147175000Y-108725000I0J75000D01*
G01*
G37*
G36*
G01*
X146675000Y-108725000D02*
X146675000Y-107325000D01*
G75*
G02*
X146750000Y-107250000I75000J0D01*
G01*
X146900000Y-107250000D01*
G75*
G02*
X146975000Y-107325000I0J-75000D01*
G01*
X146975000Y-108725000D01*
G75*
G02*
X146900000Y-108800000I-75000J0D01*
G01*
X146750000Y-108800000D01*
G75*
G02*
X146675000Y-108725000I0J75000D01*
G01*
G37*
G36*
G01*
X146175000Y-108725000D02*
X146175000Y-107325000D01*
G75*
G02*
X146250000Y-107250000I75000J0D01*
G01*
X146400000Y-107250000D01*
G75*
G02*
X146475000Y-107325000I0J-75000D01*
G01*
X146475000Y-108725000D01*
G75*
G02*
X146400000Y-108800000I-75000J0D01*
G01*
X146250000Y-108800000D01*
G75*
G02*
X146175000Y-108725000I0J75000D01*
G01*
G37*
G36*
G01*
X145675000Y-108725000D02*
X145675000Y-107325000D01*
G75*
G02*
X145750000Y-107250000I75000J0D01*
G01*
X145900000Y-107250000D01*
G75*
G02*
X145975000Y-107325000I0J-75000D01*
G01*
X145975000Y-108725000D01*
G75*
G02*
X145900000Y-108800000I-75000J0D01*
G01*
X145750000Y-108800000D01*
G75*
G02*
X145675000Y-108725000I0J75000D01*
G01*
G37*
G36*
G01*
X145175000Y-108725000D02*
X145175000Y-107325000D01*
G75*
G02*
X145250000Y-107250000I75000J0D01*
G01*
X145400000Y-107250000D01*
G75*
G02*
X145475000Y-107325000I0J-75000D01*
G01*
X145475000Y-108725000D01*
G75*
G02*
X145400000Y-108800000I-75000J0D01*
G01*
X145250000Y-108800000D01*
G75*
G02*
X145175000Y-108725000I0J75000D01*
G01*
G37*
G36*
G01*
X144675000Y-108725000D02*
X144675000Y-107325000D01*
G75*
G02*
X144750000Y-107250000I75000J0D01*
G01*
X144900000Y-107250000D01*
G75*
G02*
X144975000Y-107325000I0J-75000D01*
G01*
X144975000Y-108725000D01*
G75*
G02*
X144900000Y-108800000I-75000J0D01*
G01*
X144750000Y-108800000D01*
G75*
G02*
X144675000Y-108725000I0J75000D01*
G01*
G37*
G36*
G01*
X144175000Y-108725000D02*
X144175000Y-107325000D01*
G75*
G02*
X144250000Y-107250000I75000J0D01*
G01*
X144400000Y-107250000D01*
G75*
G02*
X144475000Y-107325000I0J-75000D01*
G01*
X144475000Y-108725000D01*
G75*
G02*
X144400000Y-108800000I-75000J0D01*
G01*
X144250000Y-108800000D01*
G75*
G02*
X144175000Y-108725000I0J75000D01*
G01*
G37*
G36*
G01*
X143675000Y-108725000D02*
X143675000Y-107325000D01*
G75*
G02*
X143750000Y-107250000I75000J0D01*
G01*
X143900000Y-107250000D01*
G75*
G02*
X143975000Y-107325000I0J-75000D01*
G01*
X143975000Y-108725000D01*
G75*
G02*
X143900000Y-108800000I-75000J0D01*
G01*
X143750000Y-108800000D01*
G75*
G02*
X143675000Y-108725000I0J75000D01*
G01*
G37*
G36*
G01*
X143175000Y-108725000D02*
X143175000Y-107325000D01*
G75*
G02*
X143250000Y-107250000I75000J0D01*
G01*
X143400000Y-107250000D01*
G75*
G02*
X143475000Y-107325000I0J-75000D01*
G01*
X143475000Y-108725000D01*
G75*
G02*
X143400000Y-108800000I-75000J0D01*
G01*
X143250000Y-108800000D01*
G75*
G02*
X143175000Y-108725000I0J75000D01*
G01*
G37*
G36*
G01*
X142675000Y-108725000D02*
X142675000Y-107325000D01*
G75*
G02*
X142750000Y-107250000I75000J0D01*
G01*
X142900000Y-107250000D01*
G75*
G02*
X142975000Y-107325000I0J-75000D01*
G01*
X142975000Y-108725000D01*
G75*
G02*
X142900000Y-108800000I-75000J0D01*
G01*
X142750000Y-108800000D01*
G75*
G02*
X142675000Y-108725000I0J75000D01*
G01*
G37*
G36*
G01*
X142175000Y-108725000D02*
X142175000Y-107325000D01*
G75*
G02*
X142250000Y-107250000I75000J0D01*
G01*
X142400000Y-107250000D01*
G75*
G02*
X142475000Y-107325000I0J-75000D01*
G01*
X142475000Y-108725000D01*
G75*
G02*
X142400000Y-108800000I-75000J0D01*
G01*
X142250000Y-108800000D01*
G75*
G02*
X142175000Y-108725000I0J75000D01*
G01*
G37*
G36*
G01*
X141675000Y-108725000D02*
X141675000Y-107325000D01*
G75*
G02*
X141750000Y-107250000I75000J0D01*
G01*
X141900000Y-107250000D01*
G75*
G02*
X141975000Y-107325000I0J-75000D01*
G01*
X141975000Y-108725000D01*
G75*
G02*
X141900000Y-108800000I-75000J0D01*
G01*
X141750000Y-108800000D01*
G75*
G02*
X141675000Y-108725000I0J75000D01*
G01*
G37*
G36*
G01*
X139125000Y-106175000D02*
X139125000Y-106025000D01*
G75*
G02*
X139200000Y-105950000I75000J0D01*
G01*
X140600000Y-105950000D01*
G75*
G02*
X140675000Y-106025000I0J-75000D01*
G01*
X140675000Y-106175000D01*
G75*
G02*
X140600000Y-106250000I-75000J0D01*
G01*
X139200000Y-106250000D01*
G75*
G02*
X139125000Y-106175000I0J75000D01*
G01*
G37*
G36*
G01*
X139125000Y-105675000D02*
X139125000Y-105525000D01*
G75*
G02*
X139200000Y-105450000I75000J0D01*
G01*
X140600000Y-105450000D01*
G75*
G02*
X140675000Y-105525000I0J-75000D01*
G01*
X140675000Y-105675000D01*
G75*
G02*
X140600000Y-105750000I-75000J0D01*
G01*
X139200000Y-105750000D01*
G75*
G02*
X139125000Y-105675000I0J75000D01*
G01*
G37*
G36*
G01*
X139125000Y-105175000D02*
X139125000Y-105025000D01*
G75*
G02*
X139200000Y-104950000I75000J0D01*
G01*
X140600000Y-104950000D01*
G75*
G02*
X140675000Y-105025000I0J-75000D01*
G01*
X140675000Y-105175000D01*
G75*
G02*
X140600000Y-105250000I-75000J0D01*
G01*
X139200000Y-105250000D01*
G75*
G02*
X139125000Y-105175000I0J75000D01*
G01*
G37*
G36*
G01*
X139125000Y-104675000D02*
X139125000Y-104525000D01*
G75*
G02*
X139200000Y-104450000I75000J0D01*
G01*
X140600000Y-104450000D01*
G75*
G02*
X140675000Y-104525000I0J-75000D01*
G01*
X140675000Y-104675000D01*
G75*
G02*
X140600000Y-104750000I-75000J0D01*
G01*
X139200000Y-104750000D01*
G75*
G02*
X139125000Y-104675000I0J75000D01*
G01*
G37*
G36*
G01*
X139125000Y-104175000D02*
X139125000Y-104025000D01*
G75*
G02*
X139200000Y-103950000I75000J0D01*
G01*
X140600000Y-103950000D01*
G75*
G02*
X140675000Y-104025000I0J-75000D01*
G01*
X140675000Y-104175000D01*
G75*
G02*
X140600000Y-104250000I-75000J0D01*
G01*
X139200000Y-104250000D01*
G75*
G02*
X139125000Y-104175000I0J75000D01*
G01*
G37*
G36*
G01*
X139125000Y-103675000D02*
X139125000Y-103525000D01*
G75*
G02*
X139200000Y-103450000I75000J0D01*
G01*
X140600000Y-103450000D01*
G75*
G02*
X140675000Y-103525000I0J-75000D01*
G01*
X140675000Y-103675000D01*
G75*
G02*
X140600000Y-103750000I-75000J0D01*
G01*
X139200000Y-103750000D01*
G75*
G02*
X139125000Y-103675000I0J75000D01*
G01*
G37*
G36*
G01*
X139125000Y-103175000D02*
X139125000Y-103025000D01*
G75*
G02*
X139200000Y-102950000I75000J0D01*
G01*
X140600000Y-102950000D01*
G75*
G02*
X140675000Y-103025000I0J-75000D01*
G01*
X140675000Y-103175000D01*
G75*
G02*
X140600000Y-103250000I-75000J0D01*
G01*
X139200000Y-103250000D01*
G75*
G02*
X139125000Y-103175000I0J75000D01*
G01*
G37*
G36*
G01*
X139125000Y-102675000D02*
X139125000Y-102525000D01*
G75*
G02*
X139200000Y-102450000I75000J0D01*
G01*
X140600000Y-102450000D01*
G75*
G02*
X140675000Y-102525000I0J-75000D01*
G01*
X140675000Y-102675000D01*
G75*
G02*
X140600000Y-102750000I-75000J0D01*
G01*
X139200000Y-102750000D01*
G75*
G02*
X139125000Y-102675000I0J75000D01*
G01*
G37*
G36*
G01*
X139125000Y-102175000D02*
X139125000Y-102025000D01*
G75*
G02*
X139200000Y-101950000I75000J0D01*
G01*
X140600000Y-101950000D01*
G75*
G02*
X140675000Y-102025000I0J-75000D01*
G01*
X140675000Y-102175000D01*
G75*
G02*
X140600000Y-102250000I-75000J0D01*
G01*
X139200000Y-102250000D01*
G75*
G02*
X139125000Y-102175000I0J75000D01*
G01*
G37*
G36*
G01*
X139125000Y-101675000D02*
X139125000Y-101525000D01*
G75*
G02*
X139200000Y-101450000I75000J0D01*
G01*
X140600000Y-101450000D01*
G75*
G02*
X140675000Y-101525000I0J-75000D01*
G01*
X140675000Y-101675000D01*
G75*
G02*
X140600000Y-101750000I-75000J0D01*
G01*
X139200000Y-101750000D01*
G75*
G02*
X139125000Y-101675000I0J75000D01*
G01*
G37*
G36*
G01*
X139125000Y-101175000D02*
X139125000Y-101025000D01*
G75*
G02*
X139200000Y-100950000I75000J0D01*
G01*
X140600000Y-100950000D01*
G75*
G02*
X140675000Y-101025000I0J-75000D01*
G01*
X140675000Y-101175000D01*
G75*
G02*
X140600000Y-101250000I-75000J0D01*
G01*
X139200000Y-101250000D01*
G75*
G02*
X139125000Y-101175000I0J75000D01*
G01*
G37*
G36*
G01*
X139125000Y-100675000D02*
X139125000Y-100525000D01*
G75*
G02*
X139200000Y-100450000I75000J0D01*
G01*
X140600000Y-100450000D01*
G75*
G02*
X140675000Y-100525000I0J-75000D01*
G01*
X140675000Y-100675000D01*
G75*
G02*
X140600000Y-100750000I-75000J0D01*
G01*
X139200000Y-100750000D01*
G75*
G02*
X139125000Y-100675000I0J75000D01*
G01*
G37*
G36*
G01*
X139125000Y-100175000D02*
X139125000Y-100025000D01*
G75*
G02*
X139200000Y-99950000I75000J0D01*
G01*
X140600000Y-99950000D01*
G75*
G02*
X140675000Y-100025000I0J-75000D01*
G01*
X140675000Y-100175000D01*
G75*
G02*
X140600000Y-100250000I-75000J0D01*
G01*
X139200000Y-100250000D01*
G75*
G02*
X139125000Y-100175000I0J75000D01*
G01*
G37*
G36*
G01*
X139125000Y-99675000D02*
X139125000Y-99525000D01*
G75*
G02*
X139200000Y-99450000I75000J0D01*
G01*
X140600000Y-99450000D01*
G75*
G02*
X140675000Y-99525000I0J-75000D01*
G01*
X140675000Y-99675000D01*
G75*
G02*
X140600000Y-99750000I-75000J0D01*
G01*
X139200000Y-99750000D01*
G75*
G02*
X139125000Y-99675000I0J75000D01*
G01*
G37*
G36*
G01*
X139125000Y-99175000D02*
X139125000Y-99025000D01*
G75*
G02*
X139200000Y-98950000I75000J0D01*
G01*
X140600000Y-98950000D01*
G75*
G02*
X140675000Y-99025000I0J-75000D01*
G01*
X140675000Y-99175000D01*
G75*
G02*
X140600000Y-99250000I-75000J0D01*
G01*
X139200000Y-99250000D01*
G75*
G02*
X139125000Y-99175000I0J75000D01*
G01*
G37*
G36*
G01*
X139125000Y-98675000D02*
X139125000Y-98525000D01*
G75*
G02*
X139200000Y-98450000I75000J0D01*
G01*
X140600000Y-98450000D01*
G75*
G02*
X140675000Y-98525000I0J-75000D01*
G01*
X140675000Y-98675000D01*
G75*
G02*
X140600000Y-98750000I-75000J0D01*
G01*
X139200000Y-98750000D01*
G75*
G02*
X139125000Y-98675000I0J75000D01*
G01*
G37*
%TD*%
D13*
%TO.C,U2*%
X163875000Y-90925000D03*
X164825000Y-90925000D03*
X162925000Y-90925000D03*
X162925000Y-88725000D03*
X163875000Y-88725000D03*
X164825000Y-88725000D03*
%TD*%
%TO.C,U1*%
X143950000Y-86700000D03*
X145850000Y-86700000D03*
X145850000Y-88900000D03*
X144900000Y-88900000D03*
X143950000Y-88900000D03*
%TD*%
D14*
%TO.C,SW1*%
X167405000Y-122975000D03*
X163595000Y-116825000D03*
X166135000Y-122975000D03*
X164865000Y-116825000D03*
X164865000Y-122975000D03*
X166135000Y-116825000D03*
X163595000Y-122975000D03*
X167405000Y-116825000D03*
%TD*%
%TO.C,R9*%
G36*
G01*
X170415000Y-99590000D02*
X170785000Y-99590000D01*
G75*
G02*
X170920000Y-99725000I0J-135000D01*
G01*
X170920000Y-99995000D01*
G75*
G02*
X170785000Y-100130000I-135000J0D01*
G01*
X170415000Y-100130000D01*
G75*
G02*
X170280000Y-99995000I0J135000D01*
G01*
X170280000Y-99725000D01*
G75*
G02*
X170415000Y-99590000I135000J0D01*
G01*
G37*
G36*
G01*
X170415000Y-98570000D02*
X170785000Y-98570000D01*
G75*
G02*
X170920000Y-98705000I0J-135000D01*
G01*
X170920000Y-98975000D01*
G75*
G02*
X170785000Y-99110000I-135000J0D01*
G01*
X170415000Y-99110000D01*
G75*
G02*
X170280000Y-98975000I0J135000D01*
G01*
X170280000Y-98705000D01*
G75*
G02*
X170415000Y-98570000I135000J0D01*
G01*
G37*
%TD*%
%TO.C,R8*%
G36*
G01*
X144055000Y-94235000D02*
X144055000Y-93865000D01*
G75*
G02*
X144190000Y-93730000I135000J0D01*
G01*
X144460000Y-93730000D01*
G75*
G02*
X144595000Y-93865000I0J-135000D01*
G01*
X144595000Y-94235000D01*
G75*
G02*
X144460000Y-94370000I-135000J0D01*
G01*
X144190000Y-94370000D01*
G75*
G02*
X144055000Y-94235000I0J135000D01*
G01*
G37*
G36*
G01*
X143035000Y-94235000D02*
X143035000Y-93865000D01*
G75*
G02*
X143170000Y-93730000I135000J0D01*
G01*
X143440000Y-93730000D01*
G75*
G02*
X143575000Y-93865000I0J-135000D01*
G01*
X143575000Y-94235000D01*
G75*
G02*
X143440000Y-94370000I-135000J0D01*
G01*
X143170000Y-94370000D01*
G75*
G02*
X143035000Y-94235000I0J135000D01*
G01*
G37*
%TD*%
%TO.C,R7*%
G36*
G01*
X145770000Y-93865000D02*
X145770000Y-94235000D01*
G75*
G02*
X145635000Y-94370000I-135000J0D01*
G01*
X145365000Y-94370000D01*
G75*
G02*
X145230000Y-94235000I0J135000D01*
G01*
X145230000Y-93865000D01*
G75*
G02*
X145365000Y-93730000I135000J0D01*
G01*
X145635000Y-93730000D01*
G75*
G02*
X145770000Y-93865000I0J-135000D01*
G01*
G37*
G36*
G01*
X146790000Y-93865000D02*
X146790000Y-94235000D01*
G75*
G02*
X146655000Y-94370000I-135000J0D01*
G01*
X146385000Y-94370000D01*
G75*
G02*
X146250000Y-94235000I0J135000D01*
G01*
X146250000Y-93865000D01*
G75*
G02*
X146385000Y-93730000I135000J0D01*
G01*
X146655000Y-93730000D01*
G75*
G02*
X146790000Y-93865000I0J-135000D01*
G01*
G37*
%TD*%
%TO.C,R6*%
G36*
G01*
X177310000Y-110890000D02*
X177310000Y-111260000D01*
G75*
G02*
X177175000Y-111395000I-135000J0D01*
G01*
X176905000Y-111395000D01*
G75*
G02*
X176770000Y-111260000I0J135000D01*
G01*
X176770000Y-110890000D01*
G75*
G02*
X176905000Y-110755000I135000J0D01*
G01*
X177175000Y-110755000D01*
G75*
G02*
X177310000Y-110890000I0J-135000D01*
G01*
G37*
G36*
G01*
X178330000Y-110890000D02*
X178330000Y-111260000D01*
G75*
G02*
X178195000Y-111395000I-135000J0D01*
G01*
X177925000Y-111395000D01*
G75*
G02*
X177790000Y-111260000I0J135000D01*
G01*
X177790000Y-110890000D01*
G75*
G02*
X177925000Y-110755000I135000J0D01*
G01*
X178195000Y-110755000D01*
G75*
G02*
X178330000Y-110890000I0J-135000D01*
G01*
G37*
%TD*%
%TO.C,R5*%
G36*
G01*
X137385000Y-101065000D02*
X137385000Y-101435000D01*
G75*
G02*
X137250000Y-101570000I-135000J0D01*
G01*
X136980000Y-101570000D01*
G75*
G02*
X136845000Y-101435000I0J135000D01*
G01*
X136845000Y-101065000D01*
G75*
G02*
X136980000Y-100930000I135000J0D01*
G01*
X137250000Y-100930000D01*
G75*
G02*
X137385000Y-101065000I0J-135000D01*
G01*
G37*
G36*
G01*
X138405000Y-101065000D02*
X138405000Y-101435000D01*
G75*
G02*
X138270000Y-101570000I-135000J0D01*
G01*
X138000000Y-101570000D01*
G75*
G02*
X137865000Y-101435000I0J135000D01*
G01*
X137865000Y-101065000D01*
G75*
G02*
X138000000Y-100930000I135000J0D01*
G01*
X138270000Y-100930000D01*
G75*
G02*
X138405000Y-101065000I0J-135000D01*
G01*
G37*
%TD*%
%TO.C,R4*%
G36*
G01*
X167245000Y-114990000D02*
X167245000Y-115360000D01*
G75*
G02*
X167110000Y-115495000I-135000J0D01*
G01*
X166840000Y-115495000D01*
G75*
G02*
X166705000Y-115360000I0J135000D01*
G01*
X166705000Y-114990000D01*
G75*
G02*
X166840000Y-114855000I135000J0D01*
G01*
X167110000Y-114855000D01*
G75*
G02*
X167245000Y-114990000I0J-135000D01*
G01*
G37*
G36*
G01*
X168265000Y-114990000D02*
X168265000Y-115360000D01*
G75*
G02*
X168130000Y-115495000I-135000J0D01*
G01*
X167860000Y-115495000D01*
G75*
G02*
X167725000Y-115360000I0J135000D01*
G01*
X167725000Y-114990000D01*
G75*
G02*
X167860000Y-114855000I135000J0D01*
G01*
X168130000Y-114855000D01*
G75*
G02*
X168265000Y-114990000I0J-135000D01*
G01*
G37*
%TD*%
%TO.C,R3*%
G36*
G01*
X165430000Y-115360000D02*
X165430000Y-114990000D01*
G75*
G02*
X165565000Y-114855000I135000J0D01*
G01*
X165835000Y-114855000D01*
G75*
G02*
X165970000Y-114990000I0J-135000D01*
G01*
X165970000Y-115360000D01*
G75*
G02*
X165835000Y-115495000I-135000J0D01*
G01*
X165565000Y-115495000D01*
G75*
G02*
X165430000Y-115360000I0J135000D01*
G01*
G37*
G36*
G01*
X164410000Y-115360000D02*
X164410000Y-114990000D01*
G75*
G02*
X164545000Y-114855000I135000J0D01*
G01*
X164815000Y-114855000D01*
G75*
G02*
X164950000Y-114990000I0J-135000D01*
G01*
X164950000Y-115360000D01*
G75*
G02*
X164815000Y-115495000I-135000J0D01*
G01*
X164545000Y-115495000D01*
G75*
G02*
X164410000Y-115360000I0J135000D01*
G01*
G37*
%TD*%
%TO.C,R2*%
G36*
G01*
X172170000Y-116615000D02*
X172170000Y-116985000D01*
G75*
G02*
X172035000Y-117120000I-135000J0D01*
G01*
X171765000Y-117120000D01*
G75*
G02*
X171630000Y-116985000I0J135000D01*
G01*
X171630000Y-116615000D01*
G75*
G02*
X171765000Y-116480000I135000J0D01*
G01*
X172035000Y-116480000D01*
G75*
G02*
X172170000Y-116615000I0J-135000D01*
G01*
G37*
G36*
G01*
X173190000Y-116615000D02*
X173190000Y-116985000D01*
G75*
G02*
X173055000Y-117120000I-135000J0D01*
G01*
X172785000Y-117120000D01*
G75*
G02*
X172650000Y-116985000I0J135000D01*
G01*
X172650000Y-116615000D01*
G75*
G02*
X172785000Y-116480000I135000J0D01*
G01*
X173055000Y-116480000D01*
G75*
G02*
X173190000Y-116615000I0J-135000D01*
G01*
G37*
%TD*%
%TO.C,R1*%
G36*
G01*
X163330000Y-115360000D02*
X163330000Y-114990000D01*
G75*
G02*
X163465000Y-114855000I135000J0D01*
G01*
X163735000Y-114855000D01*
G75*
G02*
X163870000Y-114990000I0J-135000D01*
G01*
X163870000Y-115360000D01*
G75*
G02*
X163735000Y-115495000I-135000J0D01*
G01*
X163465000Y-115495000D01*
G75*
G02*
X163330000Y-115360000I0J135000D01*
G01*
G37*
G36*
G01*
X162310000Y-115360000D02*
X162310000Y-114990000D01*
G75*
G02*
X162445000Y-114855000I135000J0D01*
G01*
X162715000Y-114855000D01*
G75*
G02*
X162850000Y-114990000I0J-135000D01*
G01*
X162850000Y-115360000D01*
G75*
G02*
X162715000Y-115495000I-135000J0D01*
G01*
X162445000Y-115495000D01*
G75*
G02*
X162310000Y-115360000I0J135000D01*
G01*
G37*
%TD*%
D15*
%TO.C,J8*%
X177300000Y-103200000D03*
D16*
X177100000Y-100375000D03*
X177100000Y-106025000D03*
%TD*%
D17*
%TO.C,J1*%
X164550000Y-82712500D03*
D18*
X163550000Y-85412500D03*
X162900000Y-85412500D03*
X162250000Y-85412500D03*
X164850000Y-85412500D03*
X164200000Y-85412500D03*
D17*
X162550000Y-82712500D03*
%TD*%
%TO.C,FB2*%
G36*
G01*
X139256250Y-87950000D02*
X138743750Y-87950000D01*
G75*
G02*
X138525000Y-87731250I0J218750D01*
G01*
X138525000Y-87293750D01*
G75*
G02*
X138743750Y-87075000I218750J0D01*
G01*
X139256250Y-87075000D01*
G75*
G02*
X139475000Y-87293750I0J-218750D01*
G01*
X139475000Y-87731250D01*
G75*
G02*
X139256250Y-87950000I-218750J0D01*
G01*
G37*
G36*
G01*
X139256250Y-89525000D02*
X138743750Y-89525000D01*
G75*
G02*
X138525000Y-89306250I0J218750D01*
G01*
X138525000Y-88868750D01*
G75*
G02*
X138743750Y-88650000I218750J0D01*
G01*
X139256250Y-88650000D01*
G75*
G02*
X139475000Y-88868750I0J-218750D01*
G01*
X139475000Y-89306250D01*
G75*
G02*
X139256250Y-89525000I-218750J0D01*
G01*
G37*
%TD*%
%TO.C,FB1*%
G36*
G01*
X134300000Y-104593750D02*
X134300000Y-105106250D01*
G75*
G02*
X134081250Y-105325000I-218750J0D01*
G01*
X133643750Y-105325000D01*
G75*
G02*
X133425000Y-105106250I0J218750D01*
G01*
X133425000Y-104593750D01*
G75*
G02*
X133643750Y-104375000I218750J0D01*
G01*
X134081250Y-104375000D01*
G75*
G02*
X134300000Y-104593750I0J-218750D01*
G01*
G37*
G36*
G01*
X135875000Y-104593750D02*
X135875000Y-105106250D01*
G75*
G02*
X135656250Y-105325000I-218750J0D01*
G01*
X135218750Y-105325000D01*
G75*
G02*
X135000000Y-105106250I0J218750D01*
G01*
X135000000Y-104593750D01*
G75*
G02*
X135218750Y-104375000I218750J0D01*
G01*
X135656250Y-104375000D01*
G75*
G02*
X135875000Y-104593750I0J-218750D01*
G01*
G37*
%TD*%
%TO.C,D2*%
G36*
G01*
X177200000Y-112118750D02*
X177200000Y-112631250D01*
G75*
G02*
X176981250Y-112850000I-218750J0D01*
G01*
X176543750Y-112850000D01*
G75*
G02*
X176325000Y-112631250I0J218750D01*
G01*
X176325000Y-112118750D01*
G75*
G02*
X176543750Y-111900000I218750J0D01*
G01*
X176981250Y-111900000D01*
G75*
G02*
X177200000Y-112118750I0J-218750D01*
G01*
G37*
G36*
G01*
X178775000Y-112118750D02*
X178775000Y-112631250D01*
G75*
G02*
X178556250Y-112850000I-218750J0D01*
G01*
X178118750Y-112850000D01*
G75*
G02*
X177900000Y-112631250I0J218750D01*
G01*
X177900000Y-112118750D01*
G75*
G02*
X178118750Y-111900000I218750J0D01*
G01*
X178556250Y-111900000D01*
G75*
G02*
X178775000Y-112118750I0J-218750D01*
G01*
G37*
%TD*%
D19*
%TO.C,D1*%
X147250000Y-84200000D03*
X143950000Y-84200000D03*
%TD*%
%TO.C,C18*%
G36*
G01*
X171870000Y-99175000D02*
X171530000Y-99175000D01*
G75*
G02*
X171390000Y-99035000I0J140000D01*
G01*
X171390000Y-98755000D01*
G75*
G02*
X171530000Y-98615000I140000J0D01*
G01*
X171870000Y-98615000D01*
G75*
G02*
X172010000Y-98755000I0J-140000D01*
G01*
X172010000Y-99035000D01*
G75*
G02*
X171870000Y-99175000I-140000J0D01*
G01*
G37*
G36*
G01*
X171870000Y-100135000D02*
X171530000Y-100135000D01*
G75*
G02*
X171390000Y-99995000I0J140000D01*
G01*
X171390000Y-99715000D01*
G75*
G02*
X171530000Y-99575000I140000J0D01*
G01*
X171870000Y-99575000D01*
G75*
G02*
X172010000Y-99715000I0J-140000D01*
G01*
X172010000Y-99995000D01*
G75*
G02*
X171870000Y-100135000I-140000J0D01*
G01*
G37*
%TD*%
%TO.C,C17*%
G36*
G01*
X142025000Y-109430000D02*
X142025000Y-109770000D01*
G75*
G02*
X141885000Y-109910000I-140000J0D01*
G01*
X141605000Y-109910000D01*
G75*
G02*
X141465000Y-109770000I0J140000D01*
G01*
X141465000Y-109430000D01*
G75*
G02*
X141605000Y-109290000I140000J0D01*
G01*
X141885000Y-109290000D01*
G75*
G02*
X142025000Y-109430000I0J-140000D01*
G01*
G37*
G36*
G01*
X142985000Y-109430000D02*
X142985000Y-109770000D01*
G75*
G02*
X142845000Y-109910000I-140000J0D01*
G01*
X142565000Y-109910000D01*
G75*
G02*
X142425000Y-109770000I0J140000D01*
G01*
X142425000Y-109430000D01*
G75*
G02*
X142565000Y-109290000I140000J0D01*
G01*
X142845000Y-109290000D01*
G75*
G02*
X142985000Y-109430000I0J-140000D01*
G01*
G37*
%TD*%
%TO.C,C16*%
G36*
G01*
X139100000Y-97455000D02*
X139100000Y-97795000D01*
G75*
G02*
X138960000Y-97935000I-140000J0D01*
G01*
X138680000Y-97935000D01*
G75*
G02*
X138540000Y-97795000I0J140000D01*
G01*
X138540000Y-97455000D01*
G75*
G02*
X138680000Y-97315000I140000J0D01*
G01*
X138960000Y-97315000D01*
G75*
G02*
X139100000Y-97455000I0J-140000D01*
G01*
G37*
G36*
G01*
X140060000Y-97455000D02*
X140060000Y-97795000D01*
G75*
G02*
X139920000Y-97935000I-140000J0D01*
G01*
X139640000Y-97935000D01*
G75*
G02*
X139500000Y-97795000I0J140000D01*
G01*
X139500000Y-97455000D01*
G75*
G02*
X139640000Y-97315000I140000J0D01*
G01*
X139920000Y-97315000D01*
G75*
G02*
X140060000Y-97455000I0J-140000D01*
G01*
G37*
%TD*%
%TO.C,C15*%
G36*
G01*
X141020000Y-95870000D02*
X140680000Y-95870000D01*
G75*
G02*
X140540000Y-95730000I0J140000D01*
G01*
X140540000Y-95450000D01*
G75*
G02*
X140680000Y-95310000I140000J0D01*
G01*
X141020000Y-95310000D01*
G75*
G02*
X141160000Y-95450000I0J-140000D01*
G01*
X141160000Y-95730000D01*
G75*
G02*
X141020000Y-95870000I-140000J0D01*
G01*
G37*
G36*
G01*
X141020000Y-96830000D02*
X140680000Y-96830000D01*
G75*
G02*
X140540000Y-96690000I0J140000D01*
G01*
X140540000Y-96410000D01*
G75*
G02*
X140680000Y-96270000I140000J0D01*
G01*
X141020000Y-96270000D01*
G75*
G02*
X141160000Y-96410000I0J-140000D01*
G01*
X141160000Y-96690000D01*
G75*
G02*
X141020000Y-96830000I-140000J0D01*
G01*
G37*
%TD*%
%TO.C,C14*%
G36*
G01*
X152025000Y-97795000D02*
X152025000Y-97455000D01*
G75*
G02*
X152165000Y-97315000I140000J0D01*
G01*
X152445000Y-97315000D01*
G75*
G02*
X152585000Y-97455000I0J-140000D01*
G01*
X152585000Y-97795000D01*
G75*
G02*
X152445000Y-97935000I-140000J0D01*
G01*
X152165000Y-97935000D01*
G75*
G02*
X152025000Y-97795000I0J140000D01*
G01*
G37*
G36*
G01*
X151065000Y-97795000D02*
X151065000Y-97455000D01*
G75*
G02*
X151205000Y-97315000I140000J0D01*
G01*
X151485000Y-97315000D01*
G75*
G02*
X151625000Y-97455000I0J-140000D01*
G01*
X151625000Y-97795000D01*
G75*
G02*
X151485000Y-97935000I-140000J0D01*
G01*
X151205000Y-97935000D01*
G75*
G02*
X151065000Y-97795000I0J140000D01*
G01*
G37*
%TD*%
%TO.C,C13*%
G36*
G01*
X150130000Y-108825000D02*
X150470000Y-108825000D01*
G75*
G02*
X150610000Y-108965000I0J-140000D01*
G01*
X150610000Y-109245000D01*
G75*
G02*
X150470000Y-109385000I-140000J0D01*
G01*
X150130000Y-109385000D01*
G75*
G02*
X149990000Y-109245000I0J140000D01*
G01*
X149990000Y-108965000D01*
G75*
G02*
X150130000Y-108825000I140000J0D01*
G01*
G37*
G36*
G01*
X150130000Y-107865000D02*
X150470000Y-107865000D01*
G75*
G02*
X150610000Y-108005000I0J-140000D01*
G01*
X150610000Y-108285000D01*
G75*
G02*
X150470000Y-108425000I-140000J0D01*
G01*
X150130000Y-108425000D01*
G75*
G02*
X149990000Y-108285000I0J140000D01*
G01*
X149990000Y-108005000D01*
G75*
G02*
X150130000Y-107865000I140000J0D01*
G01*
G37*
%TD*%
%TO.C,C12*%
G36*
G01*
X151130000Y-108825000D02*
X151470000Y-108825000D01*
G75*
G02*
X151610000Y-108965000I0J-140000D01*
G01*
X151610000Y-109245000D01*
G75*
G02*
X151470000Y-109385000I-140000J0D01*
G01*
X151130000Y-109385000D01*
G75*
G02*
X150990000Y-109245000I0J140000D01*
G01*
X150990000Y-108965000D01*
G75*
G02*
X151130000Y-108825000I140000J0D01*
G01*
G37*
G36*
G01*
X151130000Y-107865000D02*
X151470000Y-107865000D01*
G75*
G02*
X151610000Y-108005000I0J-140000D01*
G01*
X151610000Y-108285000D01*
G75*
G02*
X151470000Y-108425000I-140000J0D01*
G01*
X151130000Y-108425000D01*
G75*
G02*
X150990000Y-108285000I0J140000D01*
G01*
X150990000Y-108005000D01*
G75*
G02*
X151130000Y-107865000I140000J0D01*
G01*
G37*
%TD*%
%TO.C,C11*%
G36*
G01*
X175100000Y-113295000D02*
X175100000Y-112955000D01*
G75*
G02*
X175240000Y-112815000I140000J0D01*
G01*
X175520000Y-112815000D01*
G75*
G02*
X175660000Y-112955000I0J-140000D01*
G01*
X175660000Y-113295000D01*
G75*
G02*
X175520000Y-113435000I-140000J0D01*
G01*
X175240000Y-113435000D01*
G75*
G02*
X175100000Y-113295000I0J140000D01*
G01*
G37*
G36*
G01*
X174140000Y-113295000D02*
X174140000Y-112955000D01*
G75*
G02*
X174280000Y-112815000I140000J0D01*
G01*
X174560000Y-112815000D01*
G75*
G02*
X174700000Y-112955000I0J-140000D01*
G01*
X174700000Y-113295000D01*
G75*
G02*
X174560000Y-113435000I-140000J0D01*
G01*
X174280000Y-113435000D01*
G75*
G02*
X174140000Y-113295000I0J140000D01*
G01*
G37*
%TD*%
%TO.C,C10*%
G36*
G01*
X152200000Y-89295000D02*
X152200000Y-88955000D01*
G75*
G02*
X152340000Y-88815000I140000J0D01*
G01*
X152620000Y-88815000D01*
G75*
G02*
X152760000Y-88955000I0J-140000D01*
G01*
X152760000Y-89295000D01*
G75*
G02*
X152620000Y-89435000I-140000J0D01*
G01*
X152340000Y-89435000D01*
G75*
G02*
X152200000Y-89295000I0J140000D01*
G01*
G37*
G36*
G01*
X151240000Y-89295000D02*
X151240000Y-88955000D01*
G75*
G02*
X151380000Y-88815000I140000J0D01*
G01*
X151660000Y-88815000D01*
G75*
G02*
X151800000Y-88955000I0J-140000D01*
G01*
X151800000Y-89295000D01*
G75*
G02*
X151660000Y-89435000I-140000J0D01*
G01*
X151380000Y-89435000D01*
G75*
G02*
X151240000Y-89295000I0J140000D01*
G01*
G37*
%TD*%
%TO.C,C9*%
G36*
G01*
X170550000Y-115530000D02*
X170550000Y-115870000D01*
G75*
G02*
X170410000Y-116010000I-140000J0D01*
G01*
X170130000Y-116010000D01*
G75*
G02*
X169990000Y-115870000I0J140000D01*
G01*
X169990000Y-115530000D01*
G75*
G02*
X170130000Y-115390000I140000J0D01*
G01*
X170410000Y-115390000D01*
G75*
G02*
X170550000Y-115530000I0J-140000D01*
G01*
G37*
G36*
G01*
X171510000Y-115530000D02*
X171510000Y-115870000D01*
G75*
G02*
X171370000Y-116010000I-140000J0D01*
G01*
X171090000Y-116010000D01*
G75*
G02*
X170950000Y-115870000I0J140000D01*
G01*
X170950000Y-115530000D01*
G75*
G02*
X171090000Y-115390000I140000J0D01*
G01*
X171370000Y-115390000D01*
G75*
G02*
X171510000Y-115530000I0J-140000D01*
G01*
G37*
%TD*%
%TO.C,C8*%
G36*
G01*
X168970000Y-112925000D02*
X168630000Y-112925000D01*
G75*
G02*
X168490000Y-112785000I0J140000D01*
G01*
X168490000Y-112505000D01*
G75*
G02*
X168630000Y-112365000I140000J0D01*
G01*
X168970000Y-112365000D01*
G75*
G02*
X169110000Y-112505000I0J-140000D01*
G01*
X169110000Y-112785000D01*
G75*
G02*
X168970000Y-112925000I-140000J0D01*
G01*
G37*
G36*
G01*
X168970000Y-113885000D02*
X168630000Y-113885000D01*
G75*
G02*
X168490000Y-113745000I0J140000D01*
G01*
X168490000Y-113465000D01*
G75*
G02*
X168630000Y-113325000I140000J0D01*
G01*
X168970000Y-113325000D01*
G75*
G02*
X169110000Y-113465000I0J-140000D01*
G01*
X169110000Y-113745000D01*
G75*
G02*
X168970000Y-113885000I-140000J0D01*
G01*
G37*
%TD*%
%TO.C,C7*%
G36*
G01*
X134025000Y-98780000D02*
X134025000Y-99120000D01*
G75*
G02*
X133885000Y-99260000I-140000J0D01*
G01*
X133605000Y-99260000D01*
G75*
G02*
X133465000Y-99120000I0J140000D01*
G01*
X133465000Y-98780000D01*
G75*
G02*
X133605000Y-98640000I140000J0D01*
G01*
X133885000Y-98640000D01*
G75*
G02*
X134025000Y-98780000I0J-140000D01*
G01*
G37*
G36*
G01*
X134985000Y-98780000D02*
X134985000Y-99120000D01*
G75*
G02*
X134845000Y-99260000I-140000J0D01*
G01*
X134565000Y-99260000D01*
G75*
G02*
X134425000Y-99120000I0J140000D01*
G01*
X134425000Y-98780000D01*
G75*
G02*
X134565000Y-98640000I140000J0D01*
G01*
X134845000Y-98640000D01*
G75*
G02*
X134985000Y-98780000I0J-140000D01*
G01*
G37*
%TD*%
%TO.C,C6*%
G36*
G01*
X134425000Y-103720000D02*
X134425000Y-103380000D01*
G75*
G02*
X134565000Y-103240000I140000J0D01*
G01*
X134845000Y-103240000D01*
G75*
G02*
X134985000Y-103380000I0J-140000D01*
G01*
X134985000Y-103720000D01*
G75*
G02*
X134845000Y-103860000I-140000J0D01*
G01*
X134565000Y-103860000D01*
G75*
G02*
X134425000Y-103720000I0J140000D01*
G01*
G37*
G36*
G01*
X133465000Y-103720000D02*
X133465000Y-103380000D01*
G75*
G02*
X133605000Y-103240000I140000J0D01*
G01*
X133885000Y-103240000D01*
G75*
G02*
X134025000Y-103380000I0J-140000D01*
G01*
X134025000Y-103720000D01*
G75*
G02*
X133885000Y-103860000I-140000J0D01*
G01*
X133605000Y-103860000D01*
G75*
G02*
X133465000Y-103720000I0J140000D01*
G01*
G37*
%TD*%
%TO.C,C5*%
G36*
G01*
X148775000Y-109770000D02*
X148775000Y-109430000D01*
G75*
G02*
X148915000Y-109290000I140000J0D01*
G01*
X149195000Y-109290000D01*
G75*
G02*
X149335000Y-109430000I0J-140000D01*
G01*
X149335000Y-109770000D01*
G75*
G02*
X149195000Y-109910000I-140000J0D01*
G01*
X148915000Y-109910000D01*
G75*
G02*
X148775000Y-109770000I0J140000D01*
G01*
G37*
G36*
G01*
X147815000Y-109770000D02*
X147815000Y-109430000D01*
G75*
G02*
X147955000Y-109290000I140000J0D01*
G01*
X148235000Y-109290000D01*
G75*
G02*
X148375000Y-109430000I0J-140000D01*
G01*
X148375000Y-109770000D01*
G75*
G02*
X148235000Y-109910000I-140000J0D01*
G01*
X147955000Y-109910000D01*
G75*
G02*
X147815000Y-109770000I0J140000D01*
G01*
G37*
%TD*%
%TO.C,C4*%
G36*
G01*
X142405000Y-87375000D02*
X142745000Y-87375000D01*
G75*
G02*
X142885000Y-87515000I0J-140000D01*
G01*
X142885000Y-87795000D01*
G75*
G02*
X142745000Y-87935000I-140000J0D01*
G01*
X142405000Y-87935000D01*
G75*
G02*
X142265000Y-87795000I0J140000D01*
G01*
X142265000Y-87515000D01*
G75*
G02*
X142405000Y-87375000I140000J0D01*
G01*
G37*
G36*
G01*
X142405000Y-86415000D02*
X142745000Y-86415000D01*
G75*
G02*
X142885000Y-86555000I0J-140000D01*
G01*
X142885000Y-86835000D01*
G75*
G02*
X142745000Y-86975000I-140000J0D01*
G01*
X142405000Y-86975000D01*
G75*
G02*
X142265000Y-86835000I0J140000D01*
G01*
X142265000Y-86555000D01*
G75*
G02*
X142405000Y-86415000I140000J0D01*
G01*
G37*
%TD*%
%TO.C,C3*%
G36*
G01*
X142357020Y-89770000D02*
X142697020Y-89770000D01*
G75*
G02*
X142837020Y-89910000I0J-140000D01*
G01*
X142837020Y-90190000D01*
G75*
G02*
X142697020Y-90330000I-140000J0D01*
G01*
X142357020Y-90330000D01*
G75*
G02*
X142217020Y-90190000I0J140000D01*
G01*
X142217020Y-89910000D01*
G75*
G02*
X142357020Y-89770000I140000J0D01*
G01*
G37*
G36*
G01*
X142357020Y-88810000D02*
X142697020Y-88810000D01*
G75*
G02*
X142837020Y-88950000I0J-140000D01*
G01*
X142837020Y-89230000D01*
G75*
G02*
X142697020Y-89370000I-140000J0D01*
G01*
X142357020Y-89370000D01*
G75*
G02*
X142217020Y-89230000I0J140000D01*
G01*
X142217020Y-88950000D01*
G75*
G02*
X142357020Y-88810000I140000J0D01*
G01*
G37*
%TD*%
%TO.C,C2*%
G36*
G01*
X137445000Y-104150000D02*
X137105000Y-104150000D01*
G75*
G02*
X136965000Y-104010000I0J140000D01*
G01*
X136965000Y-103730000D01*
G75*
G02*
X137105000Y-103590000I140000J0D01*
G01*
X137445000Y-103590000D01*
G75*
G02*
X137585000Y-103730000I0J-140000D01*
G01*
X137585000Y-104010000D01*
G75*
G02*
X137445000Y-104150000I-140000J0D01*
G01*
G37*
G36*
G01*
X137445000Y-105110000D02*
X137105000Y-105110000D01*
G75*
G02*
X136965000Y-104970000I0J140000D01*
G01*
X136965000Y-104690000D01*
G75*
G02*
X137105000Y-104550000I140000J0D01*
G01*
X137445000Y-104550000D01*
G75*
G02*
X137585000Y-104690000I0J-140000D01*
G01*
X137585000Y-104970000D01*
G75*
G02*
X137445000Y-105110000I-140000J0D01*
G01*
G37*
%TD*%
%TO.C,C1*%
G36*
G01*
X138495000Y-104150000D02*
X138155000Y-104150000D01*
G75*
G02*
X138015000Y-104010000I0J140000D01*
G01*
X138015000Y-103730000D01*
G75*
G02*
X138155000Y-103590000I140000J0D01*
G01*
X138495000Y-103590000D01*
G75*
G02*
X138635000Y-103730000I0J-140000D01*
G01*
X138635000Y-104010000D01*
G75*
G02*
X138495000Y-104150000I-140000J0D01*
G01*
G37*
G36*
G01*
X138495000Y-105110000D02*
X138155000Y-105110000D01*
G75*
G02*
X138015000Y-104970000I0J140000D01*
G01*
X138015000Y-104690000D01*
G75*
G02*
X138155000Y-104550000I140000J0D01*
G01*
X138495000Y-104550000D01*
G75*
G02*
X138635000Y-104690000I0J-140000D01*
G01*
X138635000Y-104970000D01*
G75*
G02*
X138495000Y-105110000I-140000J0D01*
G01*
G37*
%TD*%
M02*
