%TF.GenerationSoftware,KiCad,Pcbnew,(5.1.10)-1*%
%TF.CreationDate,2021-11-27T13:57:11+01:00*%
%TF.ProjectId,SplashQuad,53706c61-7368-4517-9561-642e6b696361,rev?*%
%TF.SameCoordinates,Original*%
%TF.FileFunction,Copper,L3,Inr*%
%TF.FilePolarity,Positive*%
%FSLAX46Y46*%
G04 Gerber Fmt 4.6, Leading zero omitted, Abs format (unit mm)*
G04 Created by KiCad (PCBNEW (5.1.10)-1) date 2021-11-27 13:57:11*
%MOMM*%
%LPD*%
G01*
G04 APERTURE LIST*
%TA.AperFunction,ComponentPad*%
%ADD10C,0.800000*%
%TD*%
%TA.AperFunction,ComponentPad*%
%ADD11C,6.400000*%
%TD*%
%TA.AperFunction,ComponentPad*%
%ADD12O,0.800000X1.300000*%
%TD*%
%TA.AperFunction,ComponentPad*%
%ADD13O,1.300000X0.800000*%
%TD*%
%TA.AperFunction,ComponentPad*%
%ADD14O,1.000000X1.000000*%
%TD*%
%TA.AperFunction,ComponentPad*%
%ADD15R,1.000000X1.000000*%
%TD*%
%TA.AperFunction,ComponentPad*%
%ADD16O,1.200000X1.900000*%
%TD*%
%TA.AperFunction,ComponentPad*%
%ADD17C,1.450000*%
%TD*%
%TA.AperFunction,ViaPad*%
%ADD18C,0.800000*%
%TD*%
%TA.AperFunction,Conductor*%
%ADD19C,0.254000*%
%TD*%
%TA.AperFunction,Conductor*%
%ADD20C,0.100000*%
%TD*%
G04 APERTURE END LIST*
D10*
%TO.N,GND*%
%TO.C,H4*%
X187247056Y-82852944D03*
X185550000Y-82150000D03*
X183852944Y-82852944D03*
X183150000Y-84550000D03*
X183852944Y-86247056D03*
X185550000Y-86950000D03*
X187247056Y-86247056D03*
X187950000Y-84550000D03*
D11*
X185550000Y-84550000D03*
%TD*%
D10*
%TO.N,GND*%
%TO.C,H3*%
X187247056Y-118852944D03*
X185550000Y-118150000D03*
X183852944Y-118852944D03*
X183150000Y-120550000D03*
X183852944Y-122247056D03*
X185550000Y-122950000D03*
X187247056Y-122247056D03*
X187950000Y-120550000D03*
D11*
X185550000Y-120550000D03*
%TD*%
D10*
%TO.N,GND*%
%TO.C,H2*%
X135847056Y-118852944D03*
X134150000Y-118150000D03*
X132452944Y-118852944D03*
X131750000Y-120550000D03*
X132452944Y-122247056D03*
X134150000Y-122950000D03*
X135847056Y-122247056D03*
X136550000Y-120550000D03*
D11*
X134150000Y-120550000D03*
%TD*%
D10*
%TO.N,GND*%
%TO.C,H1*%
X135847056Y-82852944D03*
X134150000Y-82150000D03*
X132452944Y-82852944D03*
X131750000Y-84550000D03*
X132452944Y-86247056D03*
X134150000Y-86950000D03*
X135847056Y-86247056D03*
X136550000Y-84550000D03*
D11*
X134150000Y-84550000D03*
%TD*%
D12*
%TO.N,+3V3*%
%TO.C,J7*%
X152750000Y-85900000D03*
%TO.N,UART3_RX*%
X154000000Y-85900000D03*
%TO.N,UART3_TX*%
X155250000Y-85900000D03*
%TO.N,GND*%
%TA.AperFunction,ComponentPad*%
G36*
G01*
X156900000Y-85450000D02*
X156900000Y-86350000D01*
G75*
G02*
X156700000Y-86550000I-200000J0D01*
G01*
X156300000Y-86550000D01*
G75*
G02*
X156100000Y-86350000I0J200000D01*
G01*
X156100000Y-85450000D01*
G75*
G02*
X156300000Y-85250000I200000J0D01*
G01*
X156700000Y-85250000D01*
G75*
G02*
X156900000Y-85450000I0J-200000D01*
G01*
G37*
%TD.AperFunction*%
%TD*%
%TO.N,+3V3*%
%TO.C,J6*%
X158750000Y-119175000D03*
%TO.N,I2C3_SCL*%
X157500000Y-119175000D03*
%TO.N,I2C3_SDA*%
X156250000Y-119175000D03*
%TO.N,GND*%
%TA.AperFunction,ComponentPad*%
G36*
G01*
X154600000Y-119625000D02*
X154600000Y-118725000D01*
G75*
G02*
X154800000Y-118525000I200000J0D01*
G01*
X155200000Y-118525000D01*
G75*
G02*
X155400000Y-118725000I0J-200000D01*
G01*
X155400000Y-119625000D01*
G75*
G02*
X155200000Y-119825000I-200000J0D01*
G01*
X154800000Y-119825000D01*
G75*
G02*
X154600000Y-119625000I0J200000D01*
G01*
G37*
%TD.AperFunction*%
%TD*%
%TO.N,+3V3*%
%TO.C,J5*%
X145825000Y-119150000D03*
%TO.N,GPIO2*%
X144575000Y-119150000D03*
%TO.N,GPIO1*%
X143325000Y-119150000D03*
%TO.N,GND*%
%TA.AperFunction,ComponentPad*%
G36*
G01*
X141675000Y-119600000D02*
X141675000Y-118700000D01*
G75*
G02*
X141875000Y-118500000I200000J0D01*
G01*
X142275000Y-118500000D01*
G75*
G02*
X142475000Y-118700000I0J-200000D01*
G01*
X142475000Y-119600000D01*
G75*
G02*
X142275000Y-119800000I-200000J0D01*
G01*
X141875000Y-119800000D01*
G75*
G02*
X141675000Y-119600000I0J200000D01*
G01*
G37*
%TD.AperFunction*%
%TD*%
D13*
%TO.N,+3V3*%
%TO.C,J4*%
X135500000Y-114550000D03*
%TO.N,TIM2_CH4*%
X135500000Y-113300000D03*
%TO.N,TIM2_CH3*%
X135500000Y-112050000D03*
%TO.N,TIM2_CH2*%
X135500000Y-110800000D03*
%TO.N,TIM2_CH1*%
X135500000Y-109550000D03*
%TO.N,GND*%
%TA.AperFunction,ComponentPad*%
G36*
G01*
X135050000Y-107900000D02*
X135950000Y-107900000D01*
G75*
G02*
X136150000Y-108100000I0J-200000D01*
G01*
X136150000Y-108500000D01*
G75*
G02*
X135950000Y-108700000I-200000J0D01*
G01*
X135050000Y-108700000D01*
G75*
G02*
X134850000Y-108500000I0J200000D01*
G01*
X134850000Y-108100000D01*
G75*
G02*
X135050000Y-107900000I200000J0D01*
G01*
G37*
%TD.AperFunction*%
%TD*%
%TO.N,VDD*%
%TO.C,J3*%
X135525000Y-92225000D03*
%TO.N,GND*%
%TA.AperFunction,ComponentPad*%
G36*
G01*
X135075000Y-90575000D02*
X135975000Y-90575000D01*
G75*
G02*
X136175000Y-90775000I0J-200000D01*
G01*
X136175000Y-91175000D01*
G75*
G02*
X135975000Y-91375000I-200000J0D01*
G01*
X135075000Y-91375000D01*
G75*
G02*
X134875000Y-91175000I0J200000D01*
G01*
X134875000Y-90775000D01*
G75*
G02*
X135075000Y-90575000I200000J0D01*
G01*
G37*
%TD.AperFunction*%
%TD*%
D14*
%TO.N,NRST*%
%TO.C,J2*%
X184930000Y-89820000D03*
%TO.N,GND*%
X186200000Y-89820000D03*
%TO.N,Net-(J2-Pad8)*%
X184930000Y-91090000D03*
%TO.N,Net-(J2-Pad7)*%
X186200000Y-91090000D03*
%TO.N,Net-(J2-Pad6)*%
X184930000Y-92360000D03*
%TO.N,GND*%
X186200000Y-92360000D03*
%TO.N,SWDIO*%
X184930000Y-93630000D03*
%TO.N,GND*%
X186200000Y-93630000D03*
%TO.N,SWCLK*%
X184930000Y-94900000D03*
D15*
%TO.N,+3V3*%
X186200000Y-94900000D03*
%TD*%
D16*
%TO.N,Net-(J1-Pad6)*%
%TO.C,J1*%
X160050000Y-82712500D03*
X167050000Y-82712500D03*
D17*
X161050000Y-85412500D03*
X166050000Y-85412500D03*
%TD*%
D18*
%TO.N,GND*%
X172625000Y-98900000D03*
X176150000Y-111075000D03*
X142521940Y-90954860D03*
X154325000Y-92800000D03*
X153350000Y-89125000D03*
X149825000Y-90250000D03*
X168800000Y-111700000D03*
X175375000Y-114000000D03*
X172925000Y-115700000D03*
X174550000Y-114875000D03*
X169375000Y-115700000D03*
X171900000Y-108400000D03*
X172900000Y-108400000D03*
X170900000Y-108400000D03*
X174550000Y-109400000D03*
X150300000Y-110075000D03*
X151300000Y-110075000D03*
X149050000Y-110500000D03*
X152300000Y-96725000D03*
X139950000Y-95600000D03*
X135575000Y-103550000D03*
X138825000Y-96725000D03*
X141675000Y-87650000D03*
X161625000Y-89500000D03*
X162250000Y-86850000D03*
X163575000Y-121825000D03*
X164875000Y-121825000D03*
X166125000Y-121825000D03*
X167425000Y-121825000D03*
X132850000Y-98950000D03*
X137250000Y-103000000D03*
X138350000Y-103000000D03*
X141750000Y-110500000D03*
X161150000Y-96650000D03*
X170400000Y-104300000D03*
X170400000Y-102100000D03*
X173100000Y-104300000D03*
X173000000Y-102100000D03*
X171700000Y-104300000D03*
X171700000Y-102100000D03*
X174050000Y-105250000D03*
X174000000Y-101100000D03*
%TO.N,+3V3*%
X143300000Y-93100000D03*
X147400000Y-94050000D03*
X152400000Y-93625000D03*
X154325000Y-90075000D03*
X150650000Y-89125000D03*
X168800000Y-114475000D03*
X167975000Y-114275000D03*
X164675000Y-114275000D03*
X162575000Y-114275000D03*
X173800000Y-116800000D03*
X170900000Y-116700000D03*
X151350000Y-96725000D03*
X139950000Y-96550000D03*
X150300000Y-107150000D03*
X151300000Y-107150000D03*
X140775000Y-97625000D03*
X141675000Y-86700000D03*
X142575000Y-85825000D03*
X141675000Y-85825000D03*
X132700000Y-104850000D03*
X142700000Y-110500000D03*
X160800000Y-103200000D03*
X160800000Y-102100000D03*
X160800000Y-101000000D03*
%TO.N,NRST*%
X149250000Y-106000000D03*
X158500000Y-107600000D03*
X174950000Y-93975000D03*
X174950000Y-90500000D03*
%TO.N,SWDIO*%
X162700000Y-92250000D03*
X165325000Y-92250000D03*
%TO.N,SWCLK*%
X158450000Y-93975000D03*
X151100000Y-95575000D03*
%TO.N,UART3_TX*%
X148900000Y-95125000D03*
%TO.N,UART3_RX*%
X147250000Y-95125000D03*
%TO.N,BOOT1*%
X165700000Y-113850000D03*
X147300000Y-110500000D03*
%TO.N,BOOT0*%
X166950000Y-113900000D03*
X148550000Y-111750000D03*
X146350000Y-111750000D03*
X143850000Y-100350000D03*
%TO.N,I2C1_SCL*%
X167300000Y-96600000D03*
X145100000Y-98350000D03*
X169850000Y-108400000D03*
%TO.N,I2C1_SDA*%
X144700000Y-99350000D03*
X166350000Y-97350000D03*
X168650000Y-109450000D03*
%TO.N,UART1_TX*%
X157250000Y-97050000D03*
X157250000Y-98650000D03*
%TO.N,GPS_nRST*%
X155600000Y-104100000D03*
X158300000Y-105650000D03*
%TO.N,GPS_INT*%
X153950000Y-103800000D03*
X157150000Y-100550000D03*
%TO.N,GPS_PPS*%
X153217638Y-103225001D03*
X156166942Y-100616942D03*
%TO.N,BNO_INT*%
X172250000Y-110900000D03*
X154150000Y-109350000D03*
%TO.N,BNO_nRST*%
X154350000Y-110650000D03*
X172250000Y-111950000D03*
%TD*%
D19*
%TO.N,+3V3*%
X183853760Y-81376559D02*
X183267246Y-81768456D01*
X182768456Y-82267246D01*
X182376559Y-82853760D01*
X182106616Y-83505461D01*
X181969000Y-84197302D01*
X181969000Y-84902698D01*
X182106616Y-85594539D01*
X182376559Y-86246240D01*
X182768456Y-86832754D01*
X183267246Y-87331544D01*
X183853760Y-87723441D01*
X184505461Y-87993384D01*
X185197302Y-88131000D01*
X185902698Y-88131000D01*
X186594539Y-87993384D01*
X187246240Y-87723441D01*
X187832754Y-87331544D01*
X188331544Y-86832754D01*
X188723441Y-86246240D01*
X188769000Y-86136251D01*
X188769001Y-98569000D01*
X179221168Y-98569000D01*
X179200000Y-98566915D01*
X179178832Y-98569000D01*
X179115509Y-98575237D01*
X179034266Y-98599882D01*
X178959391Y-98639903D01*
X178893763Y-98693763D01*
X178839903Y-98759391D01*
X178799882Y-98834266D01*
X178775237Y-98915509D01*
X178766915Y-99000000D01*
X178769000Y-99021168D01*
X178769001Y-107378821D01*
X178766915Y-107400000D01*
X178775237Y-107484491D01*
X178799882Y-107565734D01*
X178839903Y-107640609D01*
X178893763Y-107706237D01*
X178959391Y-107760097D01*
X179034266Y-107800118D01*
X179115509Y-107824763D01*
X179178832Y-107831000D01*
X179200000Y-107833085D01*
X179221168Y-107831000D01*
X188769000Y-107831000D01*
X188769001Y-118963751D01*
X188723441Y-118853760D01*
X188331544Y-118267246D01*
X187832754Y-117768456D01*
X187246240Y-117376559D01*
X186594539Y-117106616D01*
X185902698Y-116969000D01*
X185197302Y-116969000D01*
X184505461Y-117106616D01*
X183853760Y-117376559D01*
X183267246Y-117768456D01*
X182768456Y-118267246D01*
X182376559Y-118853760D01*
X182106616Y-119505461D01*
X181969000Y-120197302D01*
X181969000Y-120902698D01*
X182106616Y-121594539D01*
X182376559Y-122246240D01*
X182768456Y-122832754D01*
X183267246Y-123331544D01*
X183853760Y-123723441D01*
X183963749Y-123769000D01*
X135736251Y-123769000D01*
X135846240Y-123723441D01*
X136432754Y-123331544D01*
X136931544Y-122832754D01*
X137323441Y-122246240D01*
X137529786Y-121748078D01*
X162794000Y-121748078D01*
X162794000Y-121901922D01*
X162824013Y-122052809D01*
X162882887Y-122194942D01*
X162968358Y-122322859D01*
X163077141Y-122431642D01*
X163205058Y-122517113D01*
X163347191Y-122575987D01*
X163498078Y-122606000D01*
X163651922Y-122606000D01*
X163802809Y-122575987D01*
X163944942Y-122517113D01*
X164072859Y-122431642D01*
X164181642Y-122322859D01*
X164225000Y-122257969D01*
X164268358Y-122322859D01*
X164377141Y-122431642D01*
X164505058Y-122517113D01*
X164647191Y-122575987D01*
X164798078Y-122606000D01*
X164951922Y-122606000D01*
X165102809Y-122575987D01*
X165244942Y-122517113D01*
X165372859Y-122431642D01*
X165481642Y-122322859D01*
X165500000Y-122295384D01*
X165518358Y-122322859D01*
X165627141Y-122431642D01*
X165755058Y-122517113D01*
X165897191Y-122575987D01*
X166048078Y-122606000D01*
X166201922Y-122606000D01*
X166352809Y-122575987D01*
X166494942Y-122517113D01*
X166622859Y-122431642D01*
X166731642Y-122322859D01*
X166775000Y-122257969D01*
X166818358Y-122322859D01*
X166927141Y-122431642D01*
X167055058Y-122517113D01*
X167197191Y-122575987D01*
X167348078Y-122606000D01*
X167501922Y-122606000D01*
X167652809Y-122575987D01*
X167794942Y-122517113D01*
X167922859Y-122431642D01*
X168031642Y-122322859D01*
X168117113Y-122194942D01*
X168175987Y-122052809D01*
X168206000Y-121901922D01*
X168206000Y-121748078D01*
X168175987Y-121597191D01*
X168117113Y-121455058D01*
X168031642Y-121327141D01*
X167922859Y-121218358D01*
X167794942Y-121132887D01*
X167652809Y-121074013D01*
X167501922Y-121044000D01*
X167348078Y-121044000D01*
X167197191Y-121074013D01*
X167055058Y-121132887D01*
X166927141Y-121218358D01*
X166818358Y-121327141D01*
X166775000Y-121392031D01*
X166731642Y-121327141D01*
X166622859Y-121218358D01*
X166494942Y-121132887D01*
X166352809Y-121074013D01*
X166201922Y-121044000D01*
X166048078Y-121044000D01*
X165897191Y-121074013D01*
X165755058Y-121132887D01*
X165627141Y-121218358D01*
X165518358Y-121327141D01*
X165500000Y-121354616D01*
X165481642Y-121327141D01*
X165372859Y-121218358D01*
X165244942Y-121132887D01*
X165102809Y-121074013D01*
X164951922Y-121044000D01*
X164798078Y-121044000D01*
X164647191Y-121074013D01*
X164505058Y-121132887D01*
X164377141Y-121218358D01*
X164268358Y-121327141D01*
X164225000Y-121392031D01*
X164181642Y-121327141D01*
X164072859Y-121218358D01*
X163944942Y-121132887D01*
X163802809Y-121074013D01*
X163651922Y-121044000D01*
X163498078Y-121044000D01*
X163347191Y-121074013D01*
X163205058Y-121132887D01*
X163077141Y-121218358D01*
X162968358Y-121327141D01*
X162882887Y-121455058D01*
X162824013Y-121597191D01*
X162794000Y-121748078D01*
X137529786Y-121748078D01*
X137593384Y-121594539D01*
X137731000Y-120902698D01*
X137731000Y-120197302D01*
X137593384Y-119505461D01*
X137323441Y-118853760D01*
X137220702Y-118700000D01*
X141292157Y-118700000D01*
X141292157Y-119600000D01*
X141303356Y-119713707D01*
X141336523Y-119823044D01*
X141390384Y-119923810D01*
X141462868Y-120012132D01*
X141551190Y-120084616D01*
X141651956Y-120138477D01*
X141761293Y-120171644D01*
X141875000Y-120182843D01*
X142275000Y-120182843D01*
X142388707Y-120171644D01*
X142498044Y-120138477D01*
X142598810Y-120084616D01*
X142687132Y-120012132D01*
X142752081Y-119932991D01*
X142770079Y-119954922D01*
X142889002Y-120052519D01*
X143024679Y-120125040D01*
X143171898Y-120169699D01*
X143325000Y-120184778D01*
X143478103Y-120169699D01*
X143625322Y-120125040D01*
X143760999Y-120052519D01*
X143879922Y-119954922D01*
X143950000Y-119869531D01*
X144020079Y-119954922D01*
X144139002Y-120052519D01*
X144274679Y-120125040D01*
X144421898Y-120169699D01*
X144575000Y-120184778D01*
X144728103Y-120169699D01*
X144875322Y-120125040D01*
X145008461Y-120053876D01*
X145112717Y-120171112D01*
X145276840Y-120295255D01*
X145462028Y-120384994D01*
X145538877Y-120394666D01*
X145698000Y-120266998D01*
X145698000Y-119277000D01*
X145952000Y-119277000D01*
X145952000Y-120266998D01*
X146111123Y-120394666D01*
X146187972Y-120384994D01*
X146373160Y-120295255D01*
X146537283Y-120171112D01*
X146674033Y-120017336D01*
X146778155Y-119839836D01*
X146845648Y-119645433D01*
X146873918Y-119441599D01*
X146708762Y-119277000D01*
X145952000Y-119277000D01*
X145698000Y-119277000D01*
X145678000Y-119277000D01*
X145678000Y-119023000D01*
X145698000Y-119023000D01*
X145698000Y-118033002D01*
X145952000Y-118033002D01*
X145952000Y-119023000D01*
X146708762Y-119023000D01*
X146873918Y-118858401D01*
X146855417Y-118725000D01*
X154217157Y-118725000D01*
X154217157Y-119625000D01*
X154228356Y-119738707D01*
X154261523Y-119848044D01*
X154315384Y-119948810D01*
X154387868Y-120037132D01*
X154476190Y-120109616D01*
X154576956Y-120163477D01*
X154686293Y-120196644D01*
X154800000Y-120207843D01*
X155200000Y-120207843D01*
X155313707Y-120196644D01*
X155423044Y-120163477D01*
X155523810Y-120109616D01*
X155612132Y-120037132D01*
X155677081Y-119957991D01*
X155695079Y-119979922D01*
X155814002Y-120077519D01*
X155949679Y-120150040D01*
X156096898Y-120194699D01*
X156250000Y-120209778D01*
X156403103Y-120194699D01*
X156550322Y-120150040D01*
X156685999Y-120077519D01*
X156804922Y-119979922D01*
X156875000Y-119894531D01*
X156945079Y-119979922D01*
X157064002Y-120077519D01*
X157199679Y-120150040D01*
X157346898Y-120194699D01*
X157500000Y-120209778D01*
X157653103Y-120194699D01*
X157800322Y-120150040D01*
X157933461Y-120078876D01*
X158037717Y-120196112D01*
X158201840Y-120320255D01*
X158387028Y-120409994D01*
X158463877Y-120419666D01*
X158623000Y-120291998D01*
X158623000Y-119302000D01*
X158877000Y-119302000D01*
X158877000Y-120291998D01*
X159036123Y-120419666D01*
X159112972Y-120409994D01*
X159298160Y-120320255D01*
X159462283Y-120196112D01*
X159599033Y-120042336D01*
X159703155Y-119864836D01*
X159770648Y-119670433D01*
X159798918Y-119466599D01*
X159633762Y-119302000D01*
X158877000Y-119302000D01*
X158623000Y-119302000D01*
X158603000Y-119302000D01*
X158603000Y-119048000D01*
X158623000Y-119048000D01*
X158623000Y-118058002D01*
X158877000Y-118058002D01*
X158877000Y-119048000D01*
X159633762Y-119048000D01*
X159798918Y-118883401D01*
X159770648Y-118679567D01*
X159703155Y-118485164D01*
X159599033Y-118307664D01*
X159462283Y-118153888D01*
X159298160Y-118029745D01*
X159112972Y-117940006D01*
X159036123Y-117930334D01*
X158877000Y-118058002D01*
X158623000Y-118058002D01*
X158463877Y-117930334D01*
X158387028Y-117940006D01*
X158201840Y-118029745D01*
X158037717Y-118153888D01*
X157933461Y-118271125D01*
X157800321Y-118199960D01*
X157653102Y-118155301D01*
X157500000Y-118140222D01*
X157346897Y-118155301D01*
X157199678Y-118199960D01*
X157064001Y-118272481D01*
X156945078Y-118370078D01*
X156875000Y-118455469D01*
X156804922Y-118370078D01*
X156685998Y-118272481D01*
X156550321Y-118199960D01*
X156403102Y-118155301D01*
X156250000Y-118140222D01*
X156096897Y-118155301D01*
X155949678Y-118199960D01*
X155814001Y-118272481D01*
X155695078Y-118370078D01*
X155677081Y-118392008D01*
X155612132Y-118312868D01*
X155523810Y-118240384D01*
X155423044Y-118186523D01*
X155313707Y-118153356D01*
X155200000Y-118142157D01*
X154800000Y-118142157D01*
X154686293Y-118153356D01*
X154576956Y-118186523D01*
X154476190Y-118240384D01*
X154387868Y-118312868D01*
X154315384Y-118401190D01*
X154261523Y-118501956D01*
X154228356Y-118611293D01*
X154217157Y-118725000D01*
X146855417Y-118725000D01*
X146845648Y-118654567D01*
X146778155Y-118460164D01*
X146674033Y-118282664D01*
X146537283Y-118128888D01*
X146373160Y-118004745D01*
X146187972Y-117915006D01*
X146111123Y-117905334D01*
X145952000Y-118033002D01*
X145698000Y-118033002D01*
X145538877Y-117905334D01*
X145462028Y-117915006D01*
X145276840Y-118004745D01*
X145112717Y-118128888D01*
X145008461Y-118246125D01*
X144875321Y-118174960D01*
X144728102Y-118130301D01*
X144575000Y-118115222D01*
X144421897Y-118130301D01*
X144274678Y-118174960D01*
X144139001Y-118247481D01*
X144020078Y-118345078D01*
X143950000Y-118430469D01*
X143879922Y-118345078D01*
X143760998Y-118247481D01*
X143625321Y-118174960D01*
X143478102Y-118130301D01*
X143325000Y-118115222D01*
X143171897Y-118130301D01*
X143024678Y-118174960D01*
X142889001Y-118247481D01*
X142770078Y-118345078D01*
X142752081Y-118367008D01*
X142687132Y-118287868D01*
X142598810Y-118215384D01*
X142498044Y-118161523D01*
X142388707Y-118128356D01*
X142275000Y-118117157D01*
X141875000Y-118117157D01*
X141761293Y-118128356D01*
X141651956Y-118161523D01*
X141551190Y-118215384D01*
X141462868Y-118287868D01*
X141390384Y-118376190D01*
X141336523Y-118476956D01*
X141303356Y-118586293D01*
X141292157Y-118700000D01*
X137220702Y-118700000D01*
X136931544Y-118267246D01*
X136432754Y-117768456D01*
X135846240Y-117376559D01*
X135194539Y-117106616D01*
X134502698Y-116969000D01*
X133797302Y-116969000D01*
X133105461Y-117106616D01*
X132453760Y-117376559D01*
X131867246Y-117768456D01*
X131368456Y-118267246D01*
X130976559Y-118853760D01*
X130931000Y-118963749D01*
X130931000Y-115623078D01*
X168594000Y-115623078D01*
X168594000Y-115776922D01*
X168624013Y-115927809D01*
X168682887Y-116069942D01*
X168768358Y-116197859D01*
X168877141Y-116306642D01*
X169005058Y-116392113D01*
X169147191Y-116450987D01*
X169298078Y-116481000D01*
X169451922Y-116481000D01*
X169602809Y-116450987D01*
X169744942Y-116392113D01*
X169872859Y-116306642D01*
X169981642Y-116197859D01*
X170067113Y-116069942D01*
X170125987Y-115927809D01*
X170156000Y-115776922D01*
X170156000Y-115623078D01*
X172144000Y-115623078D01*
X172144000Y-115776922D01*
X172174013Y-115927809D01*
X172232887Y-116069942D01*
X172318358Y-116197859D01*
X172427141Y-116306642D01*
X172555058Y-116392113D01*
X172697191Y-116450987D01*
X172848078Y-116481000D01*
X173001922Y-116481000D01*
X173152809Y-116450987D01*
X173294942Y-116392113D01*
X173422859Y-116306642D01*
X173531642Y-116197859D01*
X173617113Y-116069942D01*
X173675987Y-115927809D01*
X173706000Y-115776922D01*
X173706000Y-115623078D01*
X173675987Y-115472191D01*
X173617113Y-115330058D01*
X173531642Y-115202141D01*
X173422859Y-115093358D01*
X173294942Y-115007887D01*
X173152809Y-114949013D01*
X173001922Y-114919000D01*
X172848078Y-114919000D01*
X172697191Y-114949013D01*
X172555058Y-115007887D01*
X172427141Y-115093358D01*
X172318358Y-115202141D01*
X172232887Y-115330058D01*
X172174013Y-115472191D01*
X172144000Y-115623078D01*
X170156000Y-115623078D01*
X170125987Y-115472191D01*
X170067113Y-115330058D01*
X169981642Y-115202141D01*
X169872859Y-115093358D01*
X169744942Y-115007887D01*
X169602809Y-114949013D01*
X169451922Y-114919000D01*
X169298078Y-114919000D01*
X169147191Y-114949013D01*
X169005058Y-115007887D01*
X168877141Y-115093358D01*
X168768358Y-115202141D01*
X168682887Y-115330058D01*
X168624013Y-115472191D01*
X168594000Y-115623078D01*
X130931000Y-115623078D01*
X130931000Y-114836123D01*
X134255334Y-114836123D01*
X134265006Y-114912972D01*
X134354745Y-115098160D01*
X134478888Y-115262283D01*
X134632664Y-115399033D01*
X134810164Y-115503155D01*
X135004567Y-115570648D01*
X135208401Y-115598918D01*
X135373000Y-115433762D01*
X135373000Y-114677000D01*
X135627000Y-114677000D01*
X135627000Y-115433762D01*
X135791599Y-115598918D01*
X135995433Y-115570648D01*
X136189836Y-115503155D01*
X136367336Y-115399033D01*
X136521112Y-115262283D01*
X136645255Y-115098160D01*
X136734994Y-114912972D01*
X136744666Y-114836123D01*
X136714142Y-114798078D01*
X173769000Y-114798078D01*
X173769000Y-114951922D01*
X173799013Y-115102809D01*
X173857887Y-115244942D01*
X173943358Y-115372859D01*
X174052141Y-115481642D01*
X174180058Y-115567113D01*
X174322191Y-115625987D01*
X174473078Y-115656000D01*
X174626922Y-115656000D01*
X174777809Y-115625987D01*
X174919942Y-115567113D01*
X175047859Y-115481642D01*
X175156642Y-115372859D01*
X175242113Y-115244942D01*
X175300987Y-115102809D01*
X175331000Y-114951922D01*
X175331000Y-114798078D01*
X175327603Y-114781000D01*
X175451922Y-114781000D01*
X175602809Y-114750987D01*
X175744942Y-114692113D01*
X175872859Y-114606642D01*
X175981642Y-114497859D01*
X176067113Y-114369942D01*
X176125987Y-114227809D01*
X176156000Y-114076922D01*
X176156000Y-113923078D01*
X176125987Y-113772191D01*
X176067113Y-113630058D01*
X175981642Y-113502141D01*
X175872859Y-113393358D01*
X175744942Y-113307887D01*
X175602809Y-113249013D01*
X175451922Y-113219000D01*
X175298078Y-113219000D01*
X175147191Y-113249013D01*
X175005058Y-113307887D01*
X174877141Y-113393358D01*
X174768358Y-113502141D01*
X174682887Y-113630058D01*
X174624013Y-113772191D01*
X174594000Y-113923078D01*
X174594000Y-114076922D01*
X174597397Y-114094000D01*
X174473078Y-114094000D01*
X174322191Y-114124013D01*
X174180058Y-114182887D01*
X174052141Y-114268358D01*
X173943358Y-114377141D01*
X173857887Y-114505058D01*
X173799013Y-114647191D01*
X173769000Y-114798078D01*
X136714142Y-114798078D01*
X136616998Y-114677000D01*
X135627000Y-114677000D01*
X135373000Y-114677000D01*
X134383002Y-114677000D01*
X134255334Y-114836123D01*
X130931000Y-114836123D01*
X130931000Y-114263877D01*
X134255334Y-114263877D01*
X134383002Y-114423000D01*
X135373000Y-114423000D01*
X135373000Y-114403000D01*
X135627000Y-114403000D01*
X135627000Y-114423000D01*
X136616998Y-114423000D01*
X136744666Y-114263877D01*
X136734994Y-114187028D01*
X136645255Y-114001840D01*
X136521112Y-113837717D01*
X136448426Y-113773078D01*
X164919000Y-113773078D01*
X164919000Y-113926922D01*
X164949013Y-114077809D01*
X165007887Y-114219942D01*
X165093358Y-114347859D01*
X165202141Y-114456642D01*
X165330058Y-114542113D01*
X165472191Y-114600987D01*
X165623078Y-114631000D01*
X165776922Y-114631000D01*
X165927809Y-114600987D01*
X166069942Y-114542113D01*
X166197859Y-114456642D01*
X166306642Y-114347859D01*
X166308296Y-114345384D01*
X166343358Y-114397859D01*
X166452141Y-114506642D01*
X166580058Y-114592113D01*
X166722191Y-114650987D01*
X166873078Y-114681000D01*
X167026922Y-114681000D01*
X167177809Y-114650987D01*
X167319942Y-114592113D01*
X167447859Y-114506642D01*
X167556642Y-114397859D01*
X167642113Y-114269942D01*
X167700987Y-114127809D01*
X167731000Y-113976922D01*
X167731000Y-113823078D01*
X167700987Y-113672191D01*
X167642113Y-113530058D01*
X167556642Y-113402141D01*
X167447859Y-113293358D01*
X167319942Y-113207887D01*
X167177809Y-113149013D01*
X167026922Y-113119000D01*
X166873078Y-113119000D01*
X166722191Y-113149013D01*
X166580058Y-113207887D01*
X166452141Y-113293358D01*
X166343358Y-113402141D01*
X166341704Y-113404616D01*
X166306642Y-113352141D01*
X166197859Y-113243358D01*
X166069942Y-113157887D01*
X165927809Y-113099013D01*
X165776922Y-113069000D01*
X165623078Y-113069000D01*
X165472191Y-113099013D01*
X165330058Y-113157887D01*
X165202141Y-113243358D01*
X165093358Y-113352141D01*
X165007887Y-113480058D01*
X164949013Y-113622191D01*
X164919000Y-113773078D01*
X136448426Y-113773078D01*
X136403876Y-113733461D01*
X136475040Y-113600322D01*
X136519699Y-113453103D01*
X136534778Y-113300000D01*
X136519699Y-113146897D01*
X136475040Y-112999678D01*
X136402519Y-112864001D01*
X136304922Y-112745078D01*
X136219531Y-112675000D01*
X136304922Y-112604922D01*
X136402519Y-112485999D01*
X136475040Y-112350322D01*
X136519699Y-112203103D01*
X136534778Y-112050000D01*
X136519699Y-111896897D01*
X136475040Y-111749678D01*
X136434097Y-111673078D01*
X145569000Y-111673078D01*
X145569000Y-111826922D01*
X145599013Y-111977809D01*
X145657887Y-112119942D01*
X145743358Y-112247859D01*
X145852141Y-112356642D01*
X145980058Y-112442113D01*
X146122191Y-112500987D01*
X146273078Y-112531000D01*
X146426922Y-112531000D01*
X146577809Y-112500987D01*
X146719942Y-112442113D01*
X146847859Y-112356642D01*
X146956642Y-112247859D01*
X147042113Y-112119942D01*
X147100987Y-111977809D01*
X147131000Y-111826922D01*
X147131000Y-111673078D01*
X147769000Y-111673078D01*
X147769000Y-111826922D01*
X147799013Y-111977809D01*
X147857887Y-112119942D01*
X147943358Y-112247859D01*
X148052141Y-112356642D01*
X148180058Y-112442113D01*
X148322191Y-112500987D01*
X148473078Y-112531000D01*
X148626922Y-112531000D01*
X148777809Y-112500987D01*
X148919942Y-112442113D01*
X149047859Y-112356642D01*
X149156642Y-112247859D01*
X149242113Y-112119942D01*
X149300987Y-111977809D01*
X149331000Y-111826922D01*
X149331000Y-111673078D01*
X149321055Y-111623078D01*
X168019000Y-111623078D01*
X168019000Y-111776922D01*
X168049013Y-111927809D01*
X168107887Y-112069942D01*
X168193358Y-112197859D01*
X168302141Y-112306642D01*
X168430058Y-112392113D01*
X168572191Y-112450987D01*
X168723078Y-112481000D01*
X168876922Y-112481000D01*
X169027809Y-112450987D01*
X169169942Y-112392113D01*
X169297859Y-112306642D01*
X169406642Y-112197859D01*
X169492113Y-112069942D01*
X169550987Y-111927809D01*
X169581000Y-111776922D01*
X169581000Y-111623078D01*
X169550987Y-111472191D01*
X169492113Y-111330058D01*
X169406642Y-111202141D01*
X169297859Y-111093358D01*
X169169942Y-111007887D01*
X169027809Y-110949013D01*
X168876922Y-110919000D01*
X168723078Y-110919000D01*
X168572191Y-110949013D01*
X168430058Y-111007887D01*
X168302141Y-111093358D01*
X168193358Y-111202141D01*
X168107887Y-111330058D01*
X168049013Y-111472191D01*
X168019000Y-111623078D01*
X149321055Y-111623078D01*
X149300987Y-111522191D01*
X149242113Y-111380058D01*
X149170176Y-111272396D01*
X149277809Y-111250987D01*
X149419942Y-111192113D01*
X149547859Y-111106642D01*
X149656642Y-110997859D01*
X149742113Y-110869942D01*
X149800987Y-110727809D01*
X149809228Y-110686377D01*
X149930058Y-110767113D01*
X150072191Y-110825987D01*
X150223078Y-110856000D01*
X150376922Y-110856000D01*
X150527809Y-110825987D01*
X150669942Y-110767113D01*
X150797859Y-110681642D01*
X150800000Y-110679501D01*
X150802141Y-110681642D01*
X150930058Y-110767113D01*
X151072191Y-110825987D01*
X151223078Y-110856000D01*
X151376922Y-110856000D01*
X151527809Y-110825987D01*
X151669942Y-110767113D01*
X151797859Y-110681642D01*
X151906642Y-110572859D01*
X151992113Y-110444942D01*
X152050987Y-110302809D01*
X152081000Y-110151922D01*
X152081000Y-109998078D01*
X152050987Y-109847191D01*
X151992113Y-109705058D01*
X151906642Y-109577141D01*
X151797859Y-109468358D01*
X151669942Y-109382887D01*
X151527809Y-109324013D01*
X151376922Y-109294000D01*
X151223078Y-109294000D01*
X151072191Y-109324013D01*
X150930058Y-109382887D01*
X150802141Y-109468358D01*
X150800000Y-109470499D01*
X150797859Y-109468358D01*
X150669942Y-109382887D01*
X150527809Y-109324013D01*
X150376922Y-109294000D01*
X150223078Y-109294000D01*
X150072191Y-109324013D01*
X149930058Y-109382887D01*
X149802141Y-109468358D01*
X149693358Y-109577141D01*
X149607887Y-109705058D01*
X149549013Y-109847191D01*
X149540772Y-109888623D01*
X149419942Y-109807887D01*
X149277809Y-109749013D01*
X149126922Y-109719000D01*
X148973078Y-109719000D01*
X148822191Y-109749013D01*
X148680058Y-109807887D01*
X148552141Y-109893358D01*
X148443358Y-110002141D01*
X148357887Y-110130058D01*
X148299013Y-110272191D01*
X148269000Y-110423078D01*
X148269000Y-110576922D01*
X148299013Y-110727809D01*
X148357887Y-110869942D01*
X148429824Y-110977604D01*
X148322191Y-110999013D01*
X148180058Y-111057887D01*
X148052141Y-111143358D01*
X147943358Y-111252141D01*
X147857887Y-111380058D01*
X147799013Y-111522191D01*
X147769000Y-111673078D01*
X147131000Y-111673078D01*
X147100987Y-111522191D01*
X147042113Y-111380058D01*
X146956642Y-111252141D01*
X146847859Y-111143358D01*
X146719942Y-111057887D01*
X146577809Y-110999013D01*
X146426922Y-110969000D01*
X146273078Y-110969000D01*
X146122191Y-110999013D01*
X145980058Y-111057887D01*
X145852141Y-111143358D01*
X145743358Y-111252141D01*
X145657887Y-111380058D01*
X145599013Y-111522191D01*
X145569000Y-111673078D01*
X136434097Y-111673078D01*
X136402519Y-111614001D01*
X136304922Y-111495078D01*
X136219531Y-111425000D01*
X136304922Y-111354922D01*
X136402519Y-111235999D01*
X136475040Y-111100322D01*
X136519699Y-110953103D01*
X136534778Y-110800000D01*
X136519699Y-110646897D01*
X136475040Y-110499678D01*
X136434097Y-110423078D01*
X140969000Y-110423078D01*
X140969000Y-110576922D01*
X140999013Y-110727809D01*
X141057887Y-110869942D01*
X141143358Y-110997859D01*
X141252141Y-111106642D01*
X141380058Y-111192113D01*
X141522191Y-111250987D01*
X141673078Y-111281000D01*
X141826922Y-111281000D01*
X141977809Y-111250987D01*
X142119942Y-111192113D01*
X142247859Y-111106642D01*
X142356642Y-110997859D01*
X142442113Y-110869942D01*
X142500987Y-110727809D01*
X142531000Y-110576922D01*
X142531000Y-110423078D01*
X146519000Y-110423078D01*
X146519000Y-110576922D01*
X146549013Y-110727809D01*
X146607887Y-110869942D01*
X146693358Y-110997859D01*
X146802141Y-111106642D01*
X146930058Y-111192113D01*
X147072191Y-111250987D01*
X147223078Y-111281000D01*
X147376922Y-111281000D01*
X147527809Y-111250987D01*
X147669942Y-111192113D01*
X147797859Y-111106642D01*
X147906642Y-110997859D01*
X147992113Y-110869942D01*
X148050987Y-110727809D01*
X148081000Y-110576922D01*
X148081000Y-110423078D01*
X148050987Y-110272191D01*
X147992113Y-110130058D01*
X147906642Y-110002141D01*
X147797859Y-109893358D01*
X147669942Y-109807887D01*
X147527809Y-109749013D01*
X147376922Y-109719000D01*
X147223078Y-109719000D01*
X147072191Y-109749013D01*
X146930058Y-109807887D01*
X146802141Y-109893358D01*
X146693358Y-110002141D01*
X146607887Y-110130058D01*
X146549013Y-110272191D01*
X146519000Y-110423078D01*
X142531000Y-110423078D01*
X142500987Y-110272191D01*
X142442113Y-110130058D01*
X142356642Y-110002141D01*
X142247859Y-109893358D01*
X142119942Y-109807887D01*
X141977809Y-109749013D01*
X141826922Y-109719000D01*
X141673078Y-109719000D01*
X141522191Y-109749013D01*
X141380058Y-109807887D01*
X141252141Y-109893358D01*
X141143358Y-110002141D01*
X141057887Y-110130058D01*
X140999013Y-110272191D01*
X140969000Y-110423078D01*
X136434097Y-110423078D01*
X136402519Y-110364001D01*
X136304922Y-110245078D01*
X136219531Y-110175000D01*
X136304922Y-110104922D01*
X136402519Y-109985999D01*
X136475040Y-109850322D01*
X136519699Y-109703103D01*
X136534778Y-109550000D01*
X136519699Y-109396897D01*
X136482139Y-109273078D01*
X153369000Y-109273078D01*
X153369000Y-109426922D01*
X153399013Y-109577809D01*
X153457887Y-109719942D01*
X153543358Y-109847859D01*
X153652141Y-109956642D01*
X153780058Y-110042113D01*
X153831909Y-110063590D01*
X153743358Y-110152141D01*
X153657887Y-110280058D01*
X153599013Y-110422191D01*
X153569000Y-110573078D01*
X153569000Y-110726922D01*
X153599013Y-110877809D01*
X153657887Y-111019942D01*
X153743358Y-111147859D01*
X153852141Y-111256642D01*
X153980058Y-111342113D01*
X154122191Y-111400987D01*
X154273078Y-111431000D01*
X154426922Y-111431000D01*
X154577809Y-111400987D01*
X154719942Y-111342113D01*
X154847859Y-111256642D01*
X154956642Y-111147859D01*
X155042113Y-111019942D01*
X155100987Y-110877809D01*
X155111873Y-110823078D01*
X171469000Y-110823078D01*
X171469000Y-110976922D01*
X171499013Y-111127809D01*
X171557887Y-111269942D01*
X171643358Y-111397859D01*
X171670499Y-111425000D01*
X171643358Y-111452141D01*
X171557887Y-111580058D01*
X171499013Y-111722191D01*
X171469000Y-111873078D01*
X171469000Y-112026922D01*
X171499013Y-112177809D01*
X171557887Y-112319942D01*
X171643358Y-112447859D01*
X171752141Y-112556642D01*
X171880058Y-112642113D01*
X172022191Y-112700987D01*
X172173078Y-112731000D01*
X172326922Y-112731000D01*
X172477809Y-112700987D01*
X172619942Y-112642113D01*
X172747859Y-112556642D01*
X172856642Y-112447859D01*
X172942113Y-112319942D01*
X173000987Y-112177809D01*
X173031000Y-112026922D01*
X173031000Y-111873078D01*
X173000987Y-111722191D01*
X172942113Y-111580058D01*
X172856642Y-111452141D01*
X172829501Y-111425000D01*
X172856642Y-111397859D01*
X172942113Y-111269942D01*
X173000987Y-111127809D01*
X173026791Y-110998078D01*
X175369000Y-110998078D01*
X175369000Y-111151922D01*
X175399013Y-111302809D01*
X175457887Y-111444942D01*
X175543358Y-111572859D01*
X175652141Y-111681642D01*
X175780058Y-111767113D01*
X175922191Y-111825987D01*
X176073078Y-111856000D01*
X176226922Y-111856000D01*
X176377809Y-111825987D01*
X176519942Y-111767113D01*
X176647859Y-111681642D01*
X176756642Y-111572859D01*
X176842113Y-111444942D01*
X176900987Y-111302809D01*
X176931000Y-111151922D01*
X176931000Y-110998078D01*
X176900987Y-110847191D01*
X176842113Y-110705058D01*
X176756642Y-110577141D01*
X176647859Y-110468358D01*
X176519942Y-110382887D01*
X176377809Y-110324013D01*
X176226922Y-110294000D01*
X176073078Y-110294000D01*
X175922191Y-110324013D01*
X175780058Y-110382887D01*
X175652141Y-110468358D01*
X175543358Y-110577141D01*
X175457887Y-110705058D01*
X175399013Y-110847191D01*
X175369000Y-110998078D01*
X173026791Y-110998078D01*
X173031000Y-110976922D01*
X173031000Y-110823078D01*
X173000987Y-110672191D01*
X172942113Y-110530058D01*
X172856642Y-110402141D01*
X172747859Y-110293358D01*
X172619942Y-110207887D01*
X172477809Y-110149013D01*
X172326922Y-110119000D01*
X172173078Y-110119000D01*
X172022191Y-110149013D01*
X171880058Y-110207887D01*
X171752141Y-110293358D01*
X171643358Y-110402141D01*
X171557887Y-110530058D01*
X171499013Y-110672191D01*
X171469000Y-110823078D01*
X155111873Y-110823078D01*
X155131000Y-110726922D01*
X155131000Y-110573078D01*
X155100987Y-110422191D01*
X155042113Y-110280058D01*
X154956642Y-110152141D01*
X154847859Y-110043358D01*
X154719942Y-109957887D01*
X154668091Y-109936410D01*
X154756642Y-109847859D01*
X154842113Y-109719942D01*
X154900987Y-109577809D01*
X154931000Y-109426922D01*
X154931000Y-109373078D01*
X167869000Y-109373078D01*
X167869000Y-109526922D01*
X167899013Y-109677809D01*
X167957887Y-109819942D01*
X168043358Y-109947859D01*
X168152141Y-110056642D01*
X168280058Y-110142113D01*
X168422191Y-110200987D01*
X168573078Y-110231000D01*
X168726922Y-110231000D01*
X168877809Y-110200987D01*
X169019942Y-110142113D01*
X169147859Y-110056642D01*
X169256642Y-109947859D01*
X169342113Y-109819942D01*
X169400987Y-109677809D01*
X169431000Y-109526922D01*
X169431000Y-109373078D01*
X169421055Y-109323078D01*
X173769000Y-109323078D01*
X173769000Y-109476922D01*
X173799013Y-109627809D01*
X173857887Y-109769942D01*
X173943358Y-109897859D01*
X174052141Y-110006642D01*
X174180058Y-110092113D01*
X174322191Y-110150987D01*
X174473078Y-110181000D01*
X174626922Y-110181000D01*
X174777809Y-110150987D01*
X174919942Y-110092113D01*
X175047859Y-110006642D01*
X175156642Y-109897859D01*
X175242113Y-109769942D01*
X175300987Y-109627809D01*
X175331000Y-109476922D01*
X175331000Y-109323078D01*
X175300987Y-109172191D01*
X175242113Y-109030058D01*
X175156642Y-108902141D01*
X175047859Y-108793358D01*
X174919942Y-108707887D01*
X174777809Y-108649013D01*
X174626922Y-108619000D01*
X174473078Y-108619000D01*
X174322191Y-108649013D01*
X174180058Y-108707887D01*
X174052141Y-108793358D01*
X173943358Y-108902141D01*
X173857887Y-109030058D01*
X173799013Y-109172191D01*
X173769000Y-109323078D01*
X169421055Y-109323078D01*
X169400987Y-109222191D01*
X169342113Y-109080058D01*
X169256642Y-108952141D01*
X169147859Y-108843358D01*
X169019942Y-108757887D01*
X168877809Y-108699013D01*
X168726922Y-108669000D01*
X168573078Y-108669000D01*
X168422191Y-108699013D01*
X168280058Y-108757887D01*
X168152141Y-108843358D01*
X168043358Y-108952141D01*
X167957887Y-109080058D01*
X167899013Y-109222191D01*
X167869000Y-109373078D01*
X154931000Y-109373078D01*
X154931000Y-109273078D01*
X154900987Y-109122191D01*
X154842113Y-108980058D01*
X154756642Y-108852141D01*
X154647859Y-108743358D01*
X154519942Y-108657887D01*
X154377809Y-108599013D01*
X154226922Y-108569000D01*
X154073078Y-108569000D01*
X153922191Y-108599013D01*
X153780058Y-108657887D01*
X153652141Y-108743358D01*
X153543358Y-108852141D01*
X153457887Y-108980058D01*
X153399013Y-109122191D01*
X153369000Y-109273078D01*
X136482139Y-109273078D01*
X136475040Y-109249678D01*
X136402519Y-109114001D01*
X136304922Y-108995078D01*
X136282992Y-108977081D01*
X136362132Y-108912132D01*
X136434616Y-108823810D01*
X136488477Y-108723044D01*
X136521644Y-108613707D01*
X136532843Y-108500000D01*
X136532843Y-108100000D01*
X136521644Y-107986293D01*
X136488477Y-107876956D01*
X136434616Y-107776190D01*
X136362132Y-107687868D01*
X136273810Y-107615384D01*
X136173044Y-107561523D01*
X136063707Y-107528356D01*
X136010118Y-107523078D01*
X157719000Y-107523078D01*
X157719000Y-107676922D01*
X157749013Y-107827809D01*
X157807887Y-107969942D01*
X157893358Y-108097859D01*
X158002141Y-108206642D01*
X158130058Y-108292113D01*
X158272191Y-108350987D01*
X158423078Y-108381000D01*
X158576922Y-108381000D01*
X158727809Y-108350987D01*
X158795186Y-108323078D01*
X169069000Y-108323078D01*
X169069000Y-108476922D01*
X169099013Y-108627809D01*
X169157887Y-108769942D01*
X169243358Y-108897859D01*
X169352141Y-109006642D01*
X169480058Y-109092113D01*
X169622191Y-109150987D01*
X169773078Y-109181000D01*
X169926922Y-109181000D01*
X170077809Y-109150987D01*
X170219942Y-109092113D01*
X170347859Y-109006642D01*
X170375000Y-108979501D01*
X170402141Y-109006642D01*
X170530058Y-109092113D01*
X170672191Y-109150987D01*
X170823078Y-109181000D01*
X170976922Y-109181000D01*
X171127809Y-109150987D01*
X171269942Y-109092113D01*
X171397859Y-109006642D01*
X171400000Y-109004501D01*
X171402141Y-109006642D01*
X171530058Y-109092113D01*
X171672191Y-109150987D01*
X171823078Y-109181000D01*
X171976922Y-109181000D01*
X172127809Y-109150987D01*
X172269942Y-109092113D01*
X172397859Y-109006642D01*
X172400000Y-109004501D01*
X172402141Y-109006642D01*
X172530058Y-109092113D01*
X172672191Y-109150987D01*
X172823078Y-109181000D01*
X172976922Y-109181000D01*
X173127809Y-109150987D01*
X173269942Y-109092113D01*
X173397859Y-109006642D01*
X173506642Y-108897859D01*
X173592113Y-108769942D01*
X173650987Y-108627809D01*
X173681000Y-108476922D01*
X173681000Y-108323078D01*
X173650987Y-108172191D01*
X173592113Y-108030058D01*
X173506642Y-107902141D01*
X173397859Y-107793358D01*
X173269942Y-107707887D01*
X173127809Y-107649013D01*
X172976922Y-107619000D01*
X172823078Y-107619000D01*
X172672191Y-107649013D01*
X172530058Y-107707887D01*
X172402141Y-107793358D01*
X172400000Y-107795499D01*
X172397859Y-107793358D01*
X172269942Y-107707887D01*
X172127809Y-107649013D01*
X171976922Y-107619000D01*
X171823078Y-107619000D01*
X171672191Y-107649013D01*
X171530058Y-107707887D01*
X171402141Y-107793358D01*
X171400000Y-107795499D01*
X171397859Y-107793358D01*
X171269942Y-107707887D01*
X171127809Y-107649013D01*
X170976922Y-107619000D01*
X170823078Y-107619000D01*
X170672191Y-107649013D01*
X170530058Y-107707887D01*
X170402141Y-107793358D01*
X170375000Y-107820499D01*
X170347859Y-107793358D01*
X170219942Y-107707887D01*
X170077809Y-107649013D01*
X169926922Y-107619000D01*
X169773078Y-107619000D01*
X169622191Y-107649013D01*
X169480058Y-107707887D01*
X169352141Y-107793358D01*
X169243358Y-107902141D01*
X169157887Y-108030058D01*
X169099013Y-108172191D01*
X169069000Y-108323078D01*
X158795186Y-108323078D01*
X158869942Y-108292113D01*
X158997859Y-108206642D01*
X159106642Y-108097859D01*
X159192113Y-107969942D01*
X159250987Y-107827809D01*
X159281000Y-107676922D01*
X159281000Y-107523078D01*
X159250987Y-107372191D01*
X159192113Y-107230058D01*
X159106642Y-107102141D01*
X158997859Y-106993358D01*
X158869942Y-106907887D01*
X158727809Y-106849013D01*
X158576922Y-106819000D01*
X158423078Y-106819000D01*
X158272191Y-106849013D01*
X158130058Y-106907887D01*
X158002141Y-106993358D01*
X157893358Y-107102141D01*
X157807887Y-107230058D01*
X157749013Y-107372191D01*
X157719000Y-107523078D01*
X136010118Y-107523078D01*
X135950000Y-107517157D01*
X135050000Y-107517157D01*
X134936293Y-107528356D01*
X134826956Y-107561523D01*
X134726190Y-107615384D01*
X134637868Y-107687868D01*
X134565384Y-107776190D01*
X134511523Y-107876956D01*
X134478356Y-107986293D01*
X134467157Y-108100000D01*
X134467157Y-108500000D01*
X134478356Y-108613707D01*
X134511523Y-108723044D01*
X134565384Y-108823810D01*
X134637868Y-108912132D01*
X134717008Y-108977081D01*
X134695078Y-108995078D01*
X134597481Y-109114001D01*
X134524960Y-109249678D01*
X134480301Y-109396897D01*
X134465222Y-109550000D01*
X134480301Y-109703103D01*
X134524960Y-109850322D01*
X134597481Y-109985999D01*
X134695078Y-110104922D01*
X134780469Y-110175000D01*
X134695078Y-110245078D01*
X134597481Y-110364001D01*
X134524960Y-110499678D01*
X134480301Y-110646897D01*
X134465222Y-110800000D01*
X134480301Y-110953103D01*
X134524960Y-111100322D01*
X134597481Y-111235999D01*
X134695078Y-111354922D01*
X134780469Y-111425000D01*
X134695078Y-111495078D01*
X134597481Y-111614001D01*
X134524960Y-111749678D01*
X134480301Y-111896897D01*
X134465222Y-112050000D01*
X134480301Y-112203103D01*
X134524960Y-112350322D01*
X134597481Y-112485999D01*
X134695078Y-112604922D01*
X134780469Y-112675000D01*
X134695078Y-112745078D01*
X134597481Y-112864001D01*
X134524960Y-112999678D01*
X134480301Y-113146897D01*
X134465222Y-113300000D01*
X134480301Y-113453103D01*
X134524960Y-113600322D01*
X134596124Y-113733461D01*
X134478888Y-113837717D01*
X134354745Y-114001840D01*
X134265006Y-114187028D01*
X134255334Y-114263877D01*
X130931000Y-114263877D01*
X130931000Y-105923078D01*
X148469000Y-105923078D01*
X148469000Y-106076922D01*
X148499013Y-106227809D01*
X148557887Y-106369942D01*
X148643358Y-106497859D01*
X148752141Y-106606642D01*
X148880058Y-106692113D01*
X149022191Y-106750987D01*
X149173078Y-106781000D01*
X149326922Y-106781000D01*
X149477809Y-106750987D01*
X149619942Y-106692113D01*
X149747859Y-106606642D01*
X149856642Y-106497859D01*
X149942113Y-106369942D01*
X150000987Y-106227809D01*
X150031000Y-106076922D01*
X150031000Y-105923078D01*
X150000987Y-105772191D01*
X149942113Y-105630058D01*
X149904041Y-105573078D01*
X157519000Y-105573078D01*
X157519000Y-105726922D01*
X157549013Y-105877809D01*
X157607887Y-106019942D01*
X157693358Y-106147859D01*
X157802141Y-106256642D01*
X157930058Y-106342113D01*
X158072191Y-106400987D01*
X158223078Y-106431000D01*
X158376922Y-106431000D01*
X158527809Y-106400987D01*
X158669942Y-106342113D01*
X158797859Y-106256642D01*
X158906642Y-106147859D01*
X158992113Y-106019942D01*
X159050987Y-105877809D01*
X159081000Y-105726922D01*
X159081000Y-105573078D01*
X159050987Y-105422191D01*
X158992113Y-105280058D01*
X158906642Y-105152141D01*
X158797859Y-105043358D01*
X158669942Y-104957887D01*
X158527809Y-104899013D01*
X158376922Y-104869000D01*
X158223078Y-104869000D01*
X158072191Y-104899013D01*
X157930058Y-104957887D01*
X157802141Y-105043358D01*
X157693358Y-105152141D01*
X157607887Y-105280058D01*
X157549013Y-105422191D01*
X157519000Y-105573078D01*
X149904041Y-105573078D01*
X149856642Y-105502141D01*
X149747859Y-105393358D01*
X149619942Y-105307887D01*
X149477809Y-105249013D01*
X149326922Y-105219000D01*
X149173078Y-105219000D01*
X149022191Y-105249013D01*
X148880058Y-105307887D01*
X148752141Y-105393358D01*
X148643358Y-105502141D01*
X148557887Y-105630058D01*
X148499013Y-105772191D01*
X148469000Y-105923078D01*
X130931000Y-105923078D01*
X130931000Y-103473078D01*
X134794000Y-103473078D01*
X134794000Y-103626922D01*
X134824013Y-103777809D01*
X134882887Y-103919942D01*
X134968358Y-104047859D01*
X135077141Y-104156642D01*
X135205058Y-104242113D01*
X135347191Y-104300987D01*
X135498078Y-104331000D01*
X135651922Y-104331000D01*
X135802809Y-104300987D01*
X135944942Y-104242113D01*
X136072859Y-104156642D01*
X136181642Y-104047859D01*
X136267113Y-103919942D01*
X136325987Y-103777809D01*
X136356000Y-103626922D01*
X136356000Y-103473078D01*
X136325987Y-103322191D01*
X136267113Y-103180058D01*
X136181642Y-103052141D01*
X136072859Y-102943358D01*
X136042508Y-102923078D01*
X136469000Y-102923078D01*
X136469000Y-103076922D01*
X136499013Y-103227809D01*
X136557887Y-103369942D01*
X136643358Y-103497859D01*
X136752141Y-103606642D01*
X136880058Y-103692113D01*
X137022191Y-103750987D01*
X137173078Y-103781000D01*
X137326922Y-103781000D01*
X137477809Y-103750987D01*
X137619942Y-103692113D01*
X137747859Y-103606642D01*
X137800000Y-103554501D01*
X137852141Y-103606642D01*
X137980058Y-103692113D01*
X138122191Y-103750987D01*
X138273078Y-103781000D01*
X138426922Y-103781000D01*
X138577809Y-103750987D01*
X138719942Y-103692113D01*
X138847859Y-103606642D01*
X138956642Y-103497859D01*
X139042113Y-103369942D01*
X139100987Y-103227809D01*
X139116846Y-103148079D01*
X152436638Y-103148079D01*
X152436638Y-103301923D01*
X152466651Y-103452810D01*
X152525525Y-103594943D01*
X152610996Y-103722860D01*
X152719779Y-103831643D01*
X152847696Y-103917114D01*
X152989829Y-103975988D01*
X153140716Y-104006001D01*
X153194675Y-104006001D01*
X153199013Y-104027809D01*
X153257887Y-104169942D01*
X153343358Y-104297859D01*
X153452141Y-104406642D01*
X153580058Y-104492113D01*
X153722191Y-104550987D01*
X153873078Y-104581000D01*
X154026922Y-104581000D01*
X154177809Y-104550987D01*
X154319942Y-104492113D01*
X154447859Y-104406642D01*
X154556642Y-104297859D01*
X154642113Y-104169942D01*
X154700987Y-104027809D01*
X154701928Y-104023078D01*
X154819000Y-104023078D01*
X154819000Y-104176922D01*
X154849013Y-104327809D01*
X154907887Y-104469942D01*
X154993358Y-104597859D01*
X155102141Y-104706642D01*
X155230058Y-104792113D01*
X155372191Y-104850987D01*
X155523078Y-104881000D01*
X155676922Y-104881000D01*
X155827809Y-104850987D01*
X155969942Y-104792113D01*
X156097859Y-104706642D01*
X156206642Y-104597859D01*
X156292113Y-104469942D01*
X156350987Y-104327809D01*
X156371819Y-104223078D01*
X169619000Y-104223078D01*
X169619000Y-104376922D01*
X169649013Y-104527809D01*
X169707887Y-104669942D01*
X169793358Y-104797859D01*
X169902141Y-104906642D01*
X170030058Y-104992113D01*
X170172191Y-105050987D01*
X170323078Y-105081000D01*
X170476922Y-105081000D01*
X170627809Y-105050987D01*
X170769942Y-104992113D01*
X170897859Y-104906642D01*
X171006642Y-104797859D01*
X171050000Y-104732969D01*
X171093358Y-104797859D01*
X171202141Y-104906642D01*
X171330058Y-104992113D01*
X171472191Y-105050987D01*
X171623078Y-105081000D01*
X171776922Y-105081000D01*
X171927809Y-105050987D01*
X172069942Y-104992113D01*
X172197859Y-104906642D01*
X172306642Y-104797859D01*
X172392113Y-104669942D01*
X172400000Y-104650901D01*
X172407887Y-104669942D01*
X172493358Y-104797859D01*
X172602141Y-104906642D01*
X172730058Y-104992113D01*
X172872191Y-105050987D01*
X173023078Y-105081000D01*
X173176922Y-105081000D01*
X173291863Y-105058137D01*
X173269000Y-105173078D01*
X173269000Y-105326922D01*
X173299013Y-105477809D01*
X173357887Y-105619942D01*
X173443358Y-105747859D01*
X173552141Y-105856642D01*
X173680058Y-105942113D01*
X173822191Y-106000987D01*
X173973078Y-106031000D01*
X174126922Y-106031000D01*
X174277809Y-106000987D01*
X174419942Y-105942113D01*
X174547859Y-105856642D01*
X174656642Y-105747859D01*
X174742113Y-105619942D01*
X174800987Y-105477809D01*
X174831000Y-105326922D01*
X174831000Y-105173078D01*
X174800987Y-105022191D01*
X174742113Y-104880058D01*
X174656642Y-104752141D01*
X174547859Y-104643358D01*
X174419942Y-104557887D01*
X174277809Y-104499013D01*
X174126922Y-104469000D01*
X173973078Y-104469000D01*
X173858137Y-104491863D01*
X173881000Y-104376922D01*
X173881000Y-104223078D01*
X173850987Y-104072191D01*
X173792113Y-103930058D01*
X173706642Y-103802141D01*
X173597859Y-103693358D01*
X173469942Y-103607887D01*
X173327809Y-103549013D01*
X173176922Y-103519000D01*
X173023078Y-103519000D01*
X172872191Y-103549013D01*
X172730058Y-103607887D01*
X172602141Y-103693358D01*
X172493358Y-103802141D01*
X172407887Y-103930058D01*
X172400000Y-103949099D01*
X172392113Y-103930058D01*
X172306642Y-103802141D01*
X172197859Y-103693358D01*
X172069942Y-103607887D01*
X171927809Y-103549013D01*
X171776922Y-103519000D01*
X171623078Y-103519000D01*
X171472191Y-103549013D01*
X171330058Y-103607887D01*
X171202141Y-103693358D01*
X171093358Y-103802141D01*
X171050000Y-103867031D01*
X171006642Y-103802141D01*
X170897859Y-103693358D01*
X170769942Y-103607887D01*
X170627809Y-103549013D01*
X170476922Y-103519000D01*
X170323078Y-103519000D01*
X170172191Y-103549013D01*
X170030058Y-103607887D01*
X169902141Y-103693358D01*
X169793358Y-103802141D01*
X169707887Y-103930058D01*
X169649013Y-104072191D01*
X169619000Y-104223078D01*
X156371819Y-104223078D01*
X156381000Y-104176922D01*
X156381000Y-104023078D01*
X156350987Y-103872191D01*
X156292113Y-103730058D01*
X156206642Y-103602141D01*
X156097859Y-103493358D01*
X155969942Y-103407887D01*
X155827809Y-103349013D01*
X155676922Y-103319000D01*
X155523078Y-103319000D01*
X155372191Y-103349013D01*
X155230058Y-103407887D01*
X155102141Y-103493358D01*
X154993358Y-103602141D01*
X154907887Y-103730058D01*
X154849013Y-103872191D01*
X154819000Y-104023078D01*
X154701928Y-104023078D01*
X154731000Y-103876922D01*
X154731000Y-103723078D01*
X154700987Y-103572191D01*
X154642113Y-103430058D01*
X154556642Y-103302141D01*
X154447859Y-103193358D01*
X154319942Y-103107887D01*
X154177809Y-103049013D01*
X154026922Y-103019000D01*
X153972963Y-103019000D01*
X153968625Y-102997192D01*
X153909751Y-102855059D01*
X153824280Y-102727142D01*
X153715497Y-102618359D01*
X153587580Y-102532888D01*
X153445447Y-102474014D01*
X153294560Y-102444001D01*
X153140716Y-102444001D01*
X152989829Y-102474014D01*
X152847696Y-102532888D01*
X152719779Y-102618359D01*
X152610996Y-102727142D01*
X152525525Y-102855059D01*
X152466651Y-102997192D01*
X152436638Y-103148079D01*
X139116846Y-103148079D01*
X139131000Y-103076922D01*
X139131000Y-102923078D01*
X139100987Y-102772191D01*
X139042113Y-102630058D01*
X138956642Y-102502141D01*
X138847859Y-102393358D01*
X138719942Y-102307887D01*
X138577809Y-102249013D01*
X138426922Y-102219000D01*
X138273078Y-102219000D01*
X138122191Y-102249013D01*
X137980058Y-102307887D01*
X137852141Y-102393358D01*
X137800000Y-102445499D01*
X137747859Y-102393358D01*
X137619942Y-102307887D01*
X137477809Y-102249013D01*
X137326922Y-102219000D01*
X137173078Y-102219000D01*
X137022191Y-102249013D01*
X136880058Y-102307887D01*
X136752141Y-102393358D01*
X136643358Y-102502141D01*
X136557887Y-102630058D01*
X136499013Y-102772191D01*
X136469000Y-102923078D01*
X136042508Y-102923078D01*
X135944942Y-102857887D01*
X135802809Y-102799013D01*
X135651922Y-102769000D01*
X135498078Y-102769000D01*
X135347191Y-102799013D01*
X135205058Y-102857887D01*
X135077141Y-102943358D01*
X134968358Y-103052141D01*
X134882887Y-103180058D01*
X134824013Y-103322191D01*
X134794000Y-103473078D01*
X130931000Y-103473078D01*
X130931000Y-102023078D01*
X169619000Y-102023078D01*
X169619000Y-102176922D01*
X169649013Y-102327809D01*
X169707887Y-102469942D01*
X169793358Y-102597859D01*
X169902141Y-102706642D01*
X170030058Y-102792113D01*
X170172191Y-102850987D01*
X170323078Y-102881000D01*
X170476922Y-102881000D01*
X170627809Y-102850987D01*
X170769942Y-102792113D01*
X170897859Y-102706642D01*
X171006642Y-102597859D01*
X171050000Y-102532969D01*
X171093358Y-102597859D01*
X171202141Y-102706642D01*
X171330058Y-102792113D01*
X171472191Y-102850987D01*
X171623078Y-102881000D01*
X171776922Y-102881000D01*
X171927809Y-102850987D01*
X172069942Y-102792113D01*
X172197859Y-102706642D01*
X172306642Y-102597859D01*
X172350000Y-102532969D01*
X172393358Y-102597859D01*
X172502141Y-102706642D01*
X172630058Y-102792113D01*
X172772191Y-102850987D01*
X172923078Y-102881000D01*
X173076922Y-102881000D01*
X173227809Y-102850987D01*
X173369942Y-102792113D01*
X173497859Y-102706642D01*
X173606642Y-102597859D01*
X173692113Y-102469942D01*
X173750987Y-102327809D01*
X173781000Y-102176922D01*
X173781000Y-102023078D01*
X173750987Y-101872191D01*
X173735993Y-101835993D01*
X173772191Y-101850987D01*
X173923078Y-101881000D01*
X174076922Y-101881000D01*
X174227809Y-101850987D01*
X174369942Y-101792113D01*
X174497859Y-101706642D01*
X174606642Y-101597859D01*
X174692113Y-101469942D01*
X174750987Y-101327809D01*
X174781000Y-101176922D01*
X174781000Y-101023078D01*
X174750987Y-100872191D01*
X174692113Y-100730058D01*
X174606642Y-100602141D01*
X174497859Y-100493358D01*
X174369942Y-100407887D01*
X174227809Y-100349013D01*
X174076922Y-100319000D01*
X173923078Y-100319000D01*
X173772191Y-100349013D01*
X173630058Y-100407887D01*
X173502141Y-100493358D01*
X173393358Y-100602141D01*
X173307887Y-100730058D01*
X173249013Y-100872191D01*
X173219000Y-101023078D01*
X173219000Y-101176922D01*
X173249013Y-101327809D01*
X173264007Y-101364007D01*
X173227809Y-101349013D01*
X173076922Y-101319000D01*
X172923078Y-101319000D01*
X172772191Y-101349013D01*
X172630058Y-101407887D01*
X172502141Y-101493358D01*
X172393358Y-101602141D01*
X172350000Y-101667031D01*
X172306642Y-101602141D01*
X172197859Y-101493358D01*
X172069942Y-101407887D01*
X171927809Y-101349013D01*
X171776922Y-101319000D01*
X171623078Y-101319000D01*
X171472191Y-101349013D01*
X171330058Y-101407887D01*
X171202141Y-101493358D01*
X171093358Y-101602141D01*
X171050000Y-101667031D01*
X171006642Y-101602141D01*
X170897859Y-101493358D01*
X170769942Y-101407887D01*
X170627809Y-101349013D01*
X170476922Y-101319000D01*
X170323078Y-101319000D01*
X170172191Y-101349013D01*
X170030058Y-101407887D01*
X169902141Y-101493358D01*
X169793358Y-101602141D01*
X169707887Y-101730058D01*
X169649013Y-101872191D01*
X169619000Y-102023078D01*
X130931000Y-102023078D01*
X130931000Y-100273078D01*
X143069000Y-100273078D01*
X143069000Y-100426922D01*
X143099013Y-100577809D01*
X143157887Y-100719942D01*
X143243358Y-100847859D01*
X143352141Y-100956642D01*
X143480058Y-101042113D01*
X143622191Y-101100987D01*
X143773078Y-101131000D01*
X143926922Y-101131000D01*
X144077809Y-101100987D01*
X144219942Y-101042113D01*
X144347859Y-100956642D01*
X144456642Y-100847859D01*
X144542113Y-100719942D01*
X144600987Y-100577809D01*
X144608503Y-100540020D01*
X155385942Y-100540020D01*
X155385942Y-100693864D01*
X155415955Y-100844751D01*
X155474829Y-100986884D01*
X155560300Y-101114801D01*
X155669083Y-101223584D01*
X155797000Y-101309055D01*
X155939133Y-101367929D01*
X156090020Y-101397942D01*
X156243864Y-101397942D01*
X156394751Y-101367929D01*
X156536884Y-101309055D01*
X156664801Y-101223584D01*
X156699859Y-101188526D01*
X156780058Y-101242113D01*
X156922191Y-101300987D01*
X157073078Y-101331000D01*
X157226922Y-101331000D01*
X157377809Y-101300987D01*
X157519942Y-101242113D01*
X157647859Y-101156642D01*
X157756642Y-101047859D01*
X157842113Y-100919942D01*
X157900987Y-100777809D01*
X157931000Y-100626922D01*
X157931000Y-100473078D01*
X157900987Y-100322191D01*
X157842113Y-100180058D01*
X157756642Y-100052141D01*
X157647859Y-99943358D01*
X157519942Y-99857887D01*
X157377809Y-99799013D01*
X157226922Y-99769000D01*
X157073078Y-99769000D01*
X156922191Y-99799013D01*
X156780058Y-99857887D01*
X156652141Y-99943358D01*
X156617083Y-99978416D01*
X156536884Y-99924829D01*
X156394751Y-99865955D01*
X156243864Y-99835942D01*
X156090020Y-99835942D01*
X155939133Y-99865955D01*
X155797000Y-99924829D01*
X155669083Y-100010300D01*
X155560300Y-100119083D01*
X155474829Y-100247000D01*
X155415955Y-100389133D01*
X155385942Y-100540020D01*
X144608503Y-100540020D01*
X144631000Y-100426922D01*
X144631000Y-100273078D01*
X144601901Y-100126788D01*
X144623078Y-100131000D01*
X144776922Y-100131000D01*
X144927809Y-100100987D01*
X145069942Y-100042113D01*
X145197859Y-99956642D01*
X145306642Y-99847859D01*
X145392113Y-99719942D01*
X145450987Y-99577809D01*
X145481000Y-99426922D01*
X145481000Y-99273078D01*
X145450987Y-99122191D01*
X145425451Y-99060542D01*
X145469942Y-99042113D01*
X145597859Y-98956642D01*
X145706642Y-98847859D01*
X145792113Y-98719942D01*
X145850987Y-98577809D01*
X145851928Y-98573078D01*
X156469000Y-98573078D01*
X156469000Y-98726922D01*
X156499013Y-98877809D01*
X156557887Y-99019942D01*
X156643358Y-99147859D01*
X156752141Y-99256642D01*
X156880058Y-99342113D01*
X157022191Y-99400987D01*
X157173078Y-99431000D01*
X157326922Y-99431000D01*
X157477809Y-99400987D01*
X157619942Y-99342113D01*
X157747859Y-99256642D01*
X157856642Y-99147859D01*
X157942113Y-99019942D01*
X158000987Y-98877809D01*
X158011873Y-98823078D01*
X171844000Y-98823078D01*
X171844000Y-98976922D01*
X171874013Y-99127809D01*
X171932887Y-99269942D01*
X172018358Y-99397859D01*
X172127141Y-99506642D01*
X172255058Y-99592113D01*
X172397191Y-99650987D01*
X172548078Y-99681000D01*
X172701922Y-99681000D01*
X172852809Y-99650987D01*
X172994942Y-99592113D01*
X173122859Y-99506642D01*
X173231642Y-99397859D01*
X173317113Y-99269942D01*
X173375987Y-99127809D01*
X173406000Y-98976922D01*
X173406000Y-98823078D01*
X173375987Y-98672191D01*
X173317113Y-98530058D01*
X173231642Y-98402141D01*
X173122859Y-98293358D01*
X172994942Y-98207887D01*
X172852809Y-98149013D01*
X172701922Y-98119000D01*
X172548078Y-98119000D01*
X172397191Y-98149013D01*
X172255058Y-98207887D01*
X172127141Y-98293358D01*
X172018358Y-98402141D01*
X171932887Y-98530058D01*
X171874013Y-98672191D01*
X171844000Y-98823078D01*
X158011873Y-98823078D01*
X158031000Y-98726922D01*
X158031000Y-98573078D01*
X158000987Y-98422191D01*
X157942113Y-98280058D01*
X157856642Y-98152141D01*
X157747859Y-98043358D01*
X157619942Y-97957887D01*
X157477809Y-97899013D01*
X157326922Y-97869000D01*
X157173078Y-97869000D01*
X157022191Y-97899013D01*
X156880058Y-97957887D01*
X156752141Y-98043358D01*
X156643358Y-98152141D01*
X156557887Y-98280058D01*
X156499013Y-98422191D01*
X156469000Y-98573078D01*
X145851928Y-98573078D01*
X145881000Y-98426922D01*
X145881000Y-98273078D01*
X145850987Y-98122191D01*
X145792113Y-97980058D01*
X145706642Y-97852141D01*
X145597859Y-97743358D01*
X145469942Y-97657887D01*
X145327809Y-97599013D01*
X145176922Y-97569000D01*
X145023078Y-97569000D01*
X144872191Y-97599013D01*
X144730058Y-97657887D01*
X144602141Y-97743358D01*
X144493358Y-97852141D01*
X144407887Y-97980058D01*
X144349013Y-98122191D01*
X144319000Y-98273078D01*
X144319000Y-98426922D01*
X144349013Y-98577809D01*
X144374549Y-98639458D01*
X144330058Y-98657887D01*
X144202141Y-98743358D01*
X144093358Y-98852141D01*
X144007887Y-98980058D01*
X143949013Y-99122191D01*
X143919000Y-99273078D01*
X143919000Y-99426922D01*
X143948099Y-99573212D01*
X143926922Y-99569000D01*
X143773078Y-99569000D01*
X143622191Y-99599013D01*
X143480058Y-99657887D01*
X143352141Y-99743358D01*
X143243358Y-99852141D01*
X143157887Y-99980058D01*
X143099013Y-100122191D01*
X143069000Y-100273078D01*
X130931000Y-100273078D01*
X130931000Y-98873078D01*
X132069000Y-98873078D01*
X132069000Y-99026922D01*
X132099013Y-99177809D01*
X132157887Y-99319942D01*
X132243358Y-99447859D01*
X132352141Y-99556642D01*
X132480058Y-99642113D01*
X132622191Y-99700987D01*
X132773078Y-99731000D01*
X132926922Y-99731000D01*
X133077809Y-99700987D01*
X133219942Y-99642113D01*
X133347859Y-99556642D01*
X133456642Y-99447859D01*
X133542113Y-99319942D01*
X133600987Y-99177809D01*
X133631000Y-99026922D01*
X133631000Y-98873078D01*
X133600987Y-98722191D01*
X133542113Y-98580058D01*
X133456642Y-98452141D01*
X133347859Y-98343358D01*
X133219942Y-98257887D01*
X133077809Y-98199013D01*
X132926922Y-98169000D01*
X132773078Y-98169000D01*
X132622191Y-98199013D01*
X132480058Y-98257887D01*
X132352141Y-98343358D01*
X132243358Y-98452141D01*
X132157887Y-98580058D01*
X132099013Y-98722191D01*
X132069000Y-98873078D01*
X130931000Y-98873078D01*
X130931000Y-96648078D01*
X138044000Y-96648078D01*
X138044000Y-96801922D01*
X138074013Y-96952809D01*
X138132887Y-97094942D01*
X138218358Y-97222859D01*
X138327141Y-97331642D01*
X138455058Y-97417113D01*
X138597191Y-97475987D01*
X138748078Y-97506000D01*
X138901922Y-97506000D01*
X139052809Y-97475987D01*
X139194942Y-97417113D01*
X139322859Y-97331642D01*
X139431642Y-97222859D01*
X139517113Y-97094942D01*
X139575987Y-96952809D01*
X139606000Y-96801922D01*
X139606000Y-96648078D01*
X151519000Y-96648078D01*
X151519000Y-96801922D01*
X151549013Y-96952809D01*
X151607887Y-97094942D01*
X151693358Y-97222859D01*
X151802141Y-97331642D01*
X151930058Y-97417113D01*
X152072191Y-97475987D01*
X152223078Y-97506000D01*
X152376922Y-97506000D01*
X152527809Y-97475987D01*
X152669942Y-97417113D01*
X152797859Y-97331642D01*
X152906642Y-97222859D01*
X152992113Y-97094942D01*
X153042591Y-96973078D01*
X156469000Y-96973078D01*
X156469000Y-97126922D01*
X156499013Y-97277809D01*
X156557887Y-97419942D01*
X156643358Y-97547859D01*
X156752141Y-97656642D01*
X156880058Y-97742113D01*
X157022191Y-97800987D01*
X157173078Y-97831000D01*
X157326922Y-97831000D01*
X157477809Y-97800987D01*
X157619942Y-97742113D01*
X157747859Y-97656642D01*
X157856642Y-97547859D01*
X157942113Y-97419942D01*
X158000987Y-97277809D01*
X158031000Y-97126922D01*
X158031000Y-96973078D01*
X158000987Y-96822191D01*
X157942113Y-96680058D01*
X157870632Y-96573078D01*
X160369000Y-96573078D01*
X160369000Y-96726922D01*
X160399013Y-96877809D01*
X160457887Y-97019942D01*
X160543358Y-97147859D01*
X160652141Y-97256642D01*
X160780058Y-97342113D01*
X160922191Y-97400987D01*
X161073078Y-97431000D01*
X161226922Y-97431000D01*
X161377809Y-97400987D01*
X161519942Y-97342113D01*
X161623260Y-97273078D01*
X165569000Y-97273078D01*
X165569000Y-97426922D01*
X165599013Y-97577809D01*
X165657887Y-97719942D01*
X165743358Y-97847859D01*
X165852141Y-97956642D01*
X165980058Y-98042113D01*
X166122191Y-98100987D01*
X166273078Y-98131000D01*
X166426922Y-98131000D01*
X166577809Y-98100987D01*
X166719942Y-98042113D01*
X166847859Y-97956642D01*
X166956642Y-97847859D01*
X167042113Y-97719942D01*
X167100987Y-97577809D01*
X167131000Y-97426922D01*
X167131000Y-97362685D01*
X167223078Y-97381000D01*
X167376922Y-97381000D01*
X167527809Y-97350987D01*
X167669942Y-97292113D01*
X167797859Y-97206642D01*
X167906642Y-97097859D01*
X167992113Y-96969942D01*
X168050987Y-96827809D01*
X168081000Y-96676922D01*
X168081000Y-96523078D01*
X168050987Y-96372191D01*
X167992113Y-96230058D01*
X167906642Y-96102141D01*
X167797859Y-95993358D01*
X167669942Y-95907887D01*
X167527809Y-95849013D01*
X167376922Y-95819000D01*
X167223078Y-95819000D01*
X167072191Y-95849013D01*
X166930058Y-95907887D01*
X166802141Y-95993358D01*
X166693358Y-96102141D01*
X166607887Y-96230058D01*
X166549013Y-96372191D01*
X166519000Y-96523078D01*
X166519000Y-96587315D01*
X166426922Y-96569000D01*
X166273078Y-96569000D01*
X166122191Y-96599013D01*
X165980058Y-96657887D01*
X165852141Y-96743358D01*
X165743358Y-96852141D01*
X165657887Y-96980058D01*
X165599013Y-97122191D01*
X165569000Y-97273078D01*
X161623260Y-97273078D01*
X161647859Y-97256642D01*
X161756642Y-97147859D01*
X161842113Y-97019942D01*
X161900987Y-96877809D01*
X161931000Y-96726922D01*
X161931000Y-96573078D01*
X161900987Y-96422191D01*
X161842113Y-96280058D01*
X161756642Y-96152141D01*
X161647859Y-96043358D01*
X161519942Y-95957887D01*
X161377809Y-95899013D01*
X161226922Y-95869000D01*
X161073078Y-95869000D01*
X160922191Y-95899013D01*
X160780058Y-95957887D01*
X160652141Y-96043358D01*
X160543358Y-96152141D01*
X160457887Y-96280058D01*
X160399013Y-96422191D01*
X160369000Y-96573078D01*
X157870632Y-96573078D01*
X157856642Y-96552141D01*
X157747859Y-96443358D01*
X157619942Y-96357887D01*
X157477809Y-96299013D01*
X157326922Y-96269000D01*
X157173078Y-96269000D01*
X157022191Y-96299013D01*
X156880058Y-96357887D01*
X156752141Y-96443358D01*
X156643358Y-96552141D01*
X156557887Y-96680058D01*
X156499013Y-96822191D01*
X156469000Y-96973078D01*
X153042591Y-96973078D01*
X153050987Y-96952809D01*
X153081000Y-96801922D01*
X153081000Y-96648078D01*
X153050987Y-96497191D01*
X152992113Y-96355058D01*
X152906642Y-96227141D01*
X152797859Y-96118358D01*
X152669942Y-96032887D01*
X152527809Y-95974013D01*
X152376922Y-95944000D01*
X152223078Y-95944000D01*
X152072191Y-95974013D01*
X151930058Y-96032887D01*
X151802141Y-96118358D01*
X151693358Y-96227141D01*
X151607887Y-96355058D01*
X151549013Y-96497191D01*
X151519000Y-96648078D01*
X139606000Y-96648078D01*
X139575987Y-96497191D01*
X139517113Y-96355058D01*
X139431642Y-96227141D01*
X139322859Y-96118358D01*
X139194942Y-96032887D01*
X139052809Y-95974013D01*
X138901922Y-95944000D01*
X138748078Y-95944000D01*
X138597191Y-95974013D01*
X138455058Y-96032887D01*
X138327141Y-96118358D01*
X138218358Y-96227141D01*
X138132887Y-96355058D01*
X138074013Y-96497191D01*
X138044000Y-96648078D01*
X130931000Y-96648078D01*
X130931000Y-95523078D01*
X139169000Y-95523078D01*
X139169000Y-95676922D01*
X139199013Y-95827809D01*
X139257887Y-95969942D01*
X139343358Y-96097859D01*
X139452141Y-96206642D01*
X139580058Y-96292113D01*
X139722191Y-96350987D01*
X139873078Y-96381000D01*
X140026922Y-96381000D01*
X140177809Y-96350987D01*
X140319942Y-96292113D01*
X140447859Y-96206642D01*
X140556642Y-96097859D01*
X140642113Y-95969942D01*
X140700987Y-95827809D01*
X140731000Y-95676922D01*
X140731000Y-95523078D01*
X140700987Y-95372191D01*
X140642113Y-95230058D01*
X140556642Y-95102141D01*
X140502579Y-95048078D01*
X146469000Y-95048078D01*
X146469000Y-95201922D01*
X146499013Y-95352809D01*
X146557887Y-95494942D01*
X146643358Y-95622859D01*
X146752141Y-95731642D01*
X146880058Y-95817113D01*
X147022191Y-95875987D01*
X147173078Y-95906000D01*
X147326922Y-95906000D01*
X147477809Y-95875987D01*
X147619942Y-95817113D01*
X147747859Y-95731642D01*
X147856642Y-95622859D01*
X147942113Y-95494942D01*
X148000987Y-95352809D01*
X148031000Y-95201922D01*
X148031000Y-95048078D01*
X148119000Y-95048078D01*
X148119000Y-95201922D01*
X148149013Y-95352809D01*
X148207887Y-95494942D01*
X148293358Y-95622859D01*
X148402141Y-95731642D01*
X148530058Y-95817113D01*
X148672191Y-95875987D01*
X148823078Y-95906000D01*
X148976922Y-95906000D01*
X149127809Y-95875987D01*
X149269942Y-95817113D01*
X149397859Y-95731642D01*
X149506642Y-95622859D01*
X149590017Y-95498078D01*
X150319000Y-95498078D01*
X150319000Y-95651922D01*
X150349013Y-95802809D01*
X150407887Y-95944942D01*
X150493358Y-96072859D01*
X150602141Y-96181642D01*
X150730058Y-96267113D01*
X150872191Y-96325987D01*
X151023078Y-96356000D01*
X151176922Y-96356000D01*
X151327809Y-96325987D01*
X151469942Y-96267113D01*
X151597859Y-96181642D01*
X151706642Y-96072859D01*
X151792113Y-95944942D01*
X151850987Y-95802809D01*
X151881000Y-95651922D01*
X151881000Y-95498078D01*
X151850987Y-95347191D01*
X151792113Y-95205058D01*
X151706642Y-95077141D01*
X151597859Y-94968358D01*
X151469942Y-94882887D01*
X151327809Y-94824013D01*
X151176922Y-94794000D01*
X151023078Y-94794000D01*
X150872191Y-94824013D01*
X150730058Y-94882887D01*
X150602141Y-94968358D01*
X150493358Y-95077141D01*
X150407887Y-95205058D01*
X150349013Y-95347191D01*
X150319000Y-95498078D01*
X149590017Y-95498078D01*
X149592113Y-95494942D01*
X149650987Y-95352809D01*
X149681000Y-95201922D01*
X149681000Y-95048078D01*
X149650987Y-94897191D01*
X149592113Y-94755058D01*
X149506642Y-94627141D01*
X149397859Y-94518358D01*
X149269942Y-94432887D01*
X149127809Y-94374013D01*
X148976922Y-94344000D01*
X148823078Y-94344000D01*
X148672191Y-94374013D01*
X148530058Y-94432887D01*
X148402141Y-94518358D01*
X148293358Y-94627141D01*
X148207887Y-94755058D01*
X148149013Y-94897191D01*
X148119000Y-95048078D01*
X148031000Y-95048078D01*
X148000987Y-94897191D01*
X147942113Y-94755058D01*
X147856642Y-94627141D01*
X147747859Y-94518358D01*
X147619942Y-94432887D01*
X147477809Y-94374013D01*
X147326922Y-94344000D01*
X147173078Y-94344000D01*
X147022191Y-94374013D01*
X146880058Y-94432887D01*
X146752141Y-94518358D01*
X146643358Y-94627141D01*
X146557887Y-94755058D01*
X146499013Y-94897191D01*
X146469000Y-95048078D01*
X140502579Y-95048078D01*
X140447859Y-94993358D01*
X140319942Y-94907887D01*
X140177809Y-94849013D01*
X140026922Y-94819000D01*
X139873078Y-94819000D01*
X139722191Y-94849013D01*
X139580058Y-94907887D01*
X139452141Y-94993358D01*
X139343358Y-95102141D01*
X139257887Y-95230058D01*
X139199013Y-95372191D01*
X139169000Y-95523078D01*
X130931000Y-95523078D01*
X130931000Y-93898078D01*
X157669000Y-93898078D01*
X157669000Y-94051922D01*
X157699013Y-94202809D01*
X157757887Y-94344942D01*
X157843358Y-94472859D01*
X157952141Y-94581642D01*
X158080058Y-94667113D01*
X158222191Y-94725987D01*
X158373078Y-94756000D01*
X158526922Y-94756000D01*
X158677809Y-94725987D01*
X158819942Y-94667113D01*
X158947859Y-94581642D01*
X159056642Y-94472859D01*
X159142113Y-94344942D01*
X159200987Y-94202809D01*
X159231000Y-94051922D01*
X159231000Y-93898078D01*
X174169000Y-93898078D01*
X174169000Y-94051922D01*
X174199013Y-94202809D01*
X174257887Y-94344942D01*
X174343358Y-94472859D01*
X174452141Y-94581642D01*
X174580058Y-94667113D01*
X174722191Y-94725987D01*
X174873078Y-94756000D01*
X175026922Y-94756000D01*
X175177809Y-94725987D01*
X175319942Y-94667113D01*
X175447859Y-94581642D01*
X175556642Y-94472859D01*
X175642113Y-94344942D01*
X175700987Y-94202809D01*
X175731000Y-94051922D01*
X175731000Y-93898078D01*
X175700987Y-93747191D01*
X175642113Y-93605058D01*
X175556642Y-93477141D01*
X175447859Y-93368358D01*
X175319942Y-93282887D01*
X175177809Y-93224013D01*
X175026922Y-93194000D01*
X174873078Y-93194000D01*
X174722191Y-93224013D01*
X174580058Y-93282887D01*
X174452141Y-93368358D01*
X174343358Y-93477141D01*
X174257887Y-93605058D01*
X174199013Y-93747191D01*
X174169000Y-93898078D01*
X159231000Y-93898078D01*
X159200987Y-93747191D01*
X159142113Y-93605058D01*
X159056642Y-93477141D01*
X158947859Y-93368358D01*
X158819942Y-93282887D01*
X158677809Y-93224013D01*
X158526922Y-93194000D01*
X158373078Y-93194000D01*
X158222191Y-93224013D01*
X158080058Y-93282887D01*
X157952141Y-93368358D01*
X157843358Y-93477141D01*
X157757887Y-93605058D01*
X157699013Y-93747191D01*
X157669000Y-93898078D01*
X130931000Y-93898078D01*
X130931000Y-92225000D01*
X134490222Y-92225000D01*
X134505301Y-92378103D01*
X134549960Y-92525322D01*
X134622481Y-92660999D01*
X134720078Y-92779922D01*
X134839001Y-92877519D01*
X134974678Y-92950040D01*
X135121897Y-92994699D01*
X135236640Y-93006000D01*
X135813360Y-93006000D01*
X135928103Y-92994699D01*
X136075322Y-92950040D01*
X136210999Y-92877519D01*
X136329922Y-92779922D01*
X136376572Y-92723078D01*
X153544000Y-92723078D01*
X153544000Y-92876922D01*
X153574013Y-93027809D01*
X153632887Y-93169942D01*
X153718358Y-93297859D01*
X153827141Y-93406642D01*
X153955058Y-93492113D01*
X154097191Y-93550987D01*
X154248078Y-93581000D01*
X154401922Y-93581000D01*
X154552809Y-93550987D01*
X154694942Y-93492113D01*
X154822859Y-93406642D01*
X154931642Y-93297859D01*
X155017113Y-93169942D01*
X155075987Y-93027809D01*
X155106000Y-92876922D01*
X155106000Y-92723078D01*
X155075987Y-92572191D01*
X155017113Y-92430058D01*
X154931642Y-92302141D01*
X154822859Y-92193358D01*
X154792508Y-92173078D01*
X161919000Y-92173078D01*
X161919000Y-92326922D01*
X161949013Y-92477809D01*
X162007887Y-92619942D01*
X162093358Y-92747859D01*
X162202141Y-92856642D01*
X162330058Y-92942113D01*
X162472191Y-93000987D01*
X162623078Y-93031000D01*
X162776922Y-93031000D01*
X162927809Y-93000987D01*
X163069942Y-92942113D01*
X163197859Y-92856642D01*
X163306642Y-92747859D01*
X163392113Y-92619942D01*
X163450987Y-92477809D01*
X163481000Y-92326922D01*
X163481000Y-92173078D01*
X164544000Y-92173078D01*
X164544000Y-92326922D01*
X164574013Y-92477809D01*
X164632887Y-92619942D01*
X164718358Y-92747859D01*
X164827141Y-92856642D01*
X164955058Y-92942113D01*
X165097191Y-93000987D01*
X165248078Y-93031000D01*
X165401922Y-93031000D01*
X165552809Y-93000987D01*
X165694942Y-92942113D01*
X165822859Y-92856642D01*
X165931642Y-92747859D01*
X166017113Y-92619942D01*
X166075987Y-92477809D01*
X166106000Y-92326922D01*
X166106000Y-92173078D01*
X166075987Y-92022191D01*
X166017113Y-91880058D01*
X165931642Y-91752141D01*
X165822859Y-91643358D01*
X165694942Y-91557887D01*
X165552809Y-91499013D01*
X165401922Y-91469000D01*
X165248078Y-91469000D01*
X165097191Y-91499013D01*
X164955058Y-91557887D01*
X164827141Y-91643358D01*
X164718358Y-91752141D01*
X164632887Y-91880058D01*
X164574013Y-92022191D01*
X164544000Y-92173078D01*
X163481000Y-92173078D01*
X163450987Y-92022191D01*
X163392113Y-91880058D01*
X163306642Y-91752141D01*
X163197859Y-91643358D01*
X163069942Y-91557887D01*
X162927809Y-91499013D01*
X162776922Y-91469000D01*
X162623078Y-91469000D01*
X162472191Y-91499013D01*
X162330058Y-91557887D01*
X162202141Y-91643358D01*
X162093358Y-91752141D01*
X162007887Y-91880058D01*
X161949013Y-92022191D01*
X161919000Y-92173078D01*
X154792508Y-92173078D01*
X154694942Y-92107887D01*
X154552809Y-92049013D01*
X154401922Y-92019000D01*
X154248078Y-92019000D01*
X154097191Y-92049013D01*
X153955058Y-92107887D01*
X153827141Y-92193358D01*
X153718358Y-92302141D01*
X153632887Y-92430058D01*
X153574013Y-92572191D01*
X153544000Y-92723078D01*
X136376572Y-92723078D01*
X136427519Y-92660999D01*
X136500040Y-92525322D01*
X136544699Y-92378103D01*
X136559778Y-92225000D01*
X136544699Y-92071897D01*
X136500040Y-91924678D01*
X136427519Y-91789001D01*
X136329922Y-91670078D01*
X136307992Y-91652081D01*
X136387132Y-91587132D01*
X136459616Y-91498810D01*
X136513477Y-91398044D01*
X136546644Y-91288707D01*
X136557843Y-91175000D01*
X136557843Y-90877938D01*
X141740940Y-90877938D01*
X141740940Y-91031782D01*
X141770953Y-91182669D01*
X141829827Y-91324802D01*
X141915298Y-91452719D01*
X142024081Y-91561502D01*
X142151998Y-91646973D01*
X142294131Y-91705847D01*
X142445018Y-91735860D01*
X142598862Y-91735860D01*
X142749749Y-91705847D01*
X142891882Y-91646973D01*
X143019799Y-91561502D01*
X143128582Y-91452719D01*
X143214053Y-91324802D01*
X143272927Y-91182669D01*
X143302940Y-91031782D01*
X143302940Y-90877938D01*
X143272927Y-90727051D01*
X143214053Y-90584918D01*
X143128582Y-90457001D01*
X143019799Y-90348218D01*
X142891882Y-90262747D01*
X142749749Y-90203873D01*
X142598862Y-90173860D01*
X142445018Y-90173860D01*
X142294131Y-90203873D01*
X142151998Y-90262747D01*
X142024081Y-90348218D01*
X141915298Y-90457001D01*
X141829827Y-90584918D01*
X141770953Y-90727051D01*
X141740940Y-90877938D01*
X136557843Y-90877938D01*
X136557843Y-90775000D01*
X136546644Y-90661293D01*
X136513477Y-90551956D01*
X136459616Y-90451190D01*
X136387132Y-90362868D01*
X136298810Y-90290384D01*
X136198044Y-90236523D01*
X136088707Y-90203356D01*
X135975000Y-90192157D01*
X135075000Y-90192157D01*
X134961293Y-90203356D01*
X134851956Y-90236523D01*
X134751190Y-90290384D01*
X134662868Y-90362868D01*
X134590384Y-90451190D01*
X134536523Y-90551956D01*
X134503356Y-90661293D01*
X134492157Y-90775000D01*
X134492157Y-91175000D01*
X134503356Y-91288707D01*
X134536523Y-91398044D01*
X134590384Y-91498810D01*
X134662868Y-91587132D01*
X134742008Y-91652081D01*
X134720078Y-91670078D01*
X134622481Y-91789001D01*
X134549960Y-91924678D01*
X134505301Y-92071897D01*
X134490222Y-92225000D01*
X130931000Y-92225000D01*
X130931000Y-90173078D01*
X149044000Y-90173078D01*
X149044000Y-90326922D01*
X149074013Y-90477809D01*
X149132887Y-90619942D01*
X149218358Y-90747859D01*
X149327141Y-90856642D01*
X149455058Y-90942113D01*
X149597191Y-91000987D01*
X149748078Y-91031000D01*
X149901922Y-91031000D01*
X150052809Y-91000987D01*
X150194942Y-90942113D01*
X150322859Y-90856642D01*
X150431642Y-90747859D01*
X150517113Y-90619942D01*
X150575987Y-90477809D01*
X150586873Y-90423078D01*
X174169000Y-90423078D01*
X174169000Y-90576922D01*
X174199013Y-90727809D01*
X174257887Y-90869942D01*
X174343358Y-90997859D01*
X174452141Y-91106642D01*
X174580058Y-91192113D01*
X174722191Y-91250987D01*
X174873078Y-91281000D01*
X175026922Y-91281000D01*
X175177809Y-91250987D01*
X175319942Y-91192113D01*
X175447859Y-91106642D01*
X175556642Y-90997859D01*
X175642113Y-90869942D01*
X175700987Y-90727809D01*
X175731000Y-90576922D01*
X175731000Y-90423078D01*
X175700987Y-90272191D01*
X175642113Y-90130058D01*
X175556642Y-90002141D01*
X175447859Y-89893358D01*
X175319942Y-89807887D01*
X175177809Y-89749013D01*
X175098457Y-89733229D01*
X184049000Y-89733229D01*
X184049000Y-89906771D01*
X184082856Y-90076978D01*
X184149268Y-90237310D01*
X184245682Y-90381605D01*
X184319077Y-90455000D01*
X184245682Y-90528395D01*
X184149268Y-90672690D01*
X184082856Y-90833022D01*
X184049000Y-91003229D01*
X184049000Y-91176771D01*
X184082856Y-91346978D01*
X184149268Y-91507310D01*
X184245682Y-91651605D01*
X184319077Y-91725000D01*
X184245682Y-91798395D01*
X184149268Y-91942690D01*
X184082856Y-92103022D01*
X184049000Y-92273229D01*
X184049000Y-92446771D01*
X184082856Y-92616978D01*
X184149268Y-92777310D01*
X184245682Y-92921605D01*
X184319077Y-92995000D01*
X184245682Y-93068395D01*
X184149268Y-93212690D01*
X184082856Y-93373022D01*
X184049000Y-93543229D01*
X184049000Y-93716771D01*
X184082856Y-93886978D01*
X184149268Y-94047310D01*
X184245682Y-94191605D01*
X184319077Y-94265000D01*
X184245682Y-94338395D01*
X184149268Y-94482690D01*
X184082856Y-94643022D01*
X184049000Y-94813229D01*
X184049000Y-94986771D01*
X184082856Y-95156978D01*
X184149268Y-95317310D01*
X184245682Y-95461605D01*
X184368395Y-95584318D01*
X184512690Y-95680732D01*
X184673022Y-95747144D01*
X184843229Y-95781000D01*
X185016771Y-95781000D01*
X185167595Y-95750999D01*
X185169463Y-95754494D01*
X185248815Y-95851185D01*
X185345506Y-95930537D01*
X185455820Y-95989502D01*
X185575518Y-96025812D01*
X185700000Y-96038072D01*
X185914250Y-96035000D01*
X186073000Y-95876250D01*
X186073000Y-95027000D01*
X186327000Y-95027000D01*
X186327000Y-95876250D01*
X186485750Y-96035000D01*
X186700000Y-96038072D01*
X186824482Y-96025812D01*
X186944180Y-95989502D01*
X187054494Y-95930537D01*
X187151185Y-95851185D01*
X187230537Y-95754494D01*
X187289502Y-95644180D01*
X187325812Y-95524482D01*
X187338072Y-95400000D01*
X187335000Y-95185750D01*
X187176250Y-95027000D01*
X186327000Y-95027000D01*
X186073000Y-95027000D01*
X186053000Y-95027000D01*
X186053000Y-94773000D01*
X186073000Y-94773000D01*
X186073000Y-94753000D01*
X186327000Y-94753000D01*
X186327000Y-94773000D01*
X187176250Y-94773000D01*
X187335000Y-94614250D01*
X187338072Y-94400000D01*
X187325812Y-94275518D01*
X187289502Y-94155820D01*
X187230537Y-94045506D01*
X187151185Y-93948815D01*
X187054494Y-93869463D01*
X187050999Y-93867595D01*
X187081000Y-93716771D01*
X187081000Y-93543229D01*
X187047144Y-93373022D01*
X186980732Y-93212690D01*
X186884318Y-93068395D01*
X186810923Y-92995000D01*
X186884318Y-92921605D01*
X186980732Y-92777310D01*
X187047144Y-92616978D01*
X187081000Y-92446771D01*
X187081000Y-92273229D01*
X187047144Y-92103022D01*
X186980732Y-91942690D01*
X186884318Y-91798395D01*
X186810923Y-91725000D01*
X186884318Y-91651605D01*
X186980732Y-91507310D01*
X187047144Y-91346978D01*
X187081000Y-91176771D01*
X187081000Y-91003229D01*
X187047144Y-90833022D01*
X186980732Y-90672690D01*
X186884318Y-90528395D01*
X186810923Y-90455000D01*
X186884318Y-90381605D01*
X186980732Y-90237310D01*
X187047144Y-90076978D01*
X187081000Y-89906771D01*
X187081000Y-89733229D01*
X187047144Y-89563022D01*
X186980732Y-89402690D01*
X186884318Y-89258395D01*
X186761605Y-89135682D01*
X186617310Y-89039268D01*
X186456978Y-88972856D01*
X186286771Y-88939000D01*
X186113229Y-88939000D01*
X185943022Y-88972856D01*
X185782690Y-89039268D01*
X185638395Y-89135682D01*
X185565000Y-89209077D01*
X185491605Y-89135682D01*
X185347310Y-89039268D01*
X185186978Y-88972856D01*
X185016771Y-88939000D01*
X184843229Y-88939000D01*
X184673022Y-88972856D01*
X184512690Y-89039268D01*
X184368395Y-89135682D01*
X184245682Y-89258395D01*
X184149268Y-89402690D01*
X184082856Y-89563022D01*
X184049000Y-89733229D01*
X175098457Y-89733229D01*
X175026922Y-89719000D01*
X174873078Y-89719000D01*
X174722191Y-89749013D01*
X174580058Y-89807887D01*
X174452141Y-89893358D01*
X174343358Y-90002141D01*
X174257887Y-90130058D01*
X174199013Y-90272191D01*
X174169000Y-90423078D01*
X150586873Y-90423078D01*
X150606000Y-90326922D01*
X150606000Y-90173078D01*
X150575987Y-90022191D01*
X150517113Y-89880058D01*
X150431642Y-89752141D01*
X150322859Y-89643358D01*
X150194942Y-89557887D01*
X150052809Y-89499013D01*
X149901922Y-89469000D01*
X149748078Y-89469000D01*
X149597191Y-89499013D01*
X149455058Y-89557887D01*
X149327141Y-89643358D01*
X149218358Y-89752141D01*
X149132887Y-89880058D01*
X149074013Y-90022191D01*
X149044000Y-90173078D01*
X130931000Y-90173078D01*
X130931000Y-89048078D01*
X152569000Y-89048078D01*
X152569000Y-89201922D01*
X152599013Y-89352809D01*
X152657887Y-89494942D01*
X152743358Y-89622859D01*
X152852141Y-89731642D01*
X152980058Y-89817113D01*
X153122191Y-89875987D01*
X153273078Y-89906000D01*
X153426922Y-89906000D01*
X153577809Y-89875987D01*
X153719942Y-89817113D01*
X153847859Y-89731642D01*
X153956642Y-89622859D01*
X154042113Y-89494942D01*
X154071880Y-89423078D01*
X160844000Y-89423078D01*
X160844000Y-89576922D01*
X160874013Y-89727809D01*
X160932887Y-89869942D01*
X161018358Y-89997859D01*
X161127141Y-90106642D01*
X161255058Y-90192113D01*
X161397191Y-90250987D01*
X161548078Y-90281000D01*
X161701922Y-90281000D01*
X161852809Y-90250987D01*
X161994942Y-90192113D01*
X162122859Y-90106642D01*
X162231642Y-89997859D01*
X162317113Y-89869942D01*
X162375987Y-89727809D01*
X162406000Y-89576922D01*
X162406000Y-89423078D01*
X162375987Y-89272191D01*
X162317113Y-89130058D01*
X162231642Y-89002141D01*
X162122859Y-88893358D01*
X161994942Y-88807887D01*
X161852809Y-88749013D01*
X161701922Y-88719000D01*
X161548078Y-88719000D01*
X161397191Y-88749013D01*
X161255058Y-88807887D01*
X161127141Y-88893358D01*
X161018358Y-89002141D01*
X160932887Y-89130058D01*
X160874013Y-89272191D01*
X160844000Y-89423078D01*
X154071880Y-89423078D01*
X154100987Y-89352809D01*
X154131000Y-89201922D01*
X154131000Y-89048078D01*
X154100987Y-88897191D01*
X154042113Y-88755058D01*
X153956642Y-88627141D01*
X153847859Y-88518358D01*
X153719942Y-88432887D01*
X153577809Y-88374013D01*
X153426922Y-88344000D01*
X153273078Y-88344000D01*
X153122191Y-88374013D01*
X152980058Y-88432887D01*
X152852141Y-88518358D01*
X152743358Y-88627141D01*
X152657887Y-88755058D01*
X152599013Y-88897191D01*
X152569000Y-89048078D01*
X130931000Y-89048078D01*
X130931000Y-86136251D01*
X130976559Y-86246240D01*
X131368456Y-86832754D01*
X131867246Y-87331544D01*
X132453760Y-87723441D01*
X133105461Y-87993384D01*
X133797302Y-88131000D01*
X134502698Y-88131000D01*
X135194539Y-87993384D01*
X135846240Y-87723441D01*
X136071273Y-87573078D01*
X140894000Y-87573078D01*
X140894000Y-87726922D01*
X140924013Y-87877809D01*
X140982887Y-88019942D01*
X141068358Y-88147859D01*
X141177141Y-88256642D01*
X141305058Y-88342113D01*
X141447191Y-88400987D01*
X141598078Y-88431000D01*
X141751922Y-88431000D01*
X141902809Y-88400987D01*
X142044942Y-88342113D01*
X142172859Y-88256642D01*
X142281642Y-88147859D01*
X142367113Y-88019942D01*
X142425987Y-87877809D01*
X142456000Y-87726922D01*
X142456000Y-87573078D01*
X142425987Y-87422191D01*
X142367113Y-87280058D01*
X142281642Y-87152141D01*
X142172859Y-87043358D01*
X142044942Y-86957887D01*
X141902809Y-86899013D01*
X141751922Y-86869000D01*
X141598078Y-86869000D01*
X141447191Y-86899013D01*
X141305058Y-86957887D01*
X141177141Y-87043358D01*
X141068358Y-87152141D01*
X140982887Y-87280058D01*
X140924013Y-87422191D01*
X140894000Y-87573078D01*
X136071273Y-87573078D01*
X136432754Y-87331544D01*
X136931544Y-86832754D01*
X137323441Y-86246240D01*
X137346074Y-86191599D01*
X151701082Y-86191599D01*
X151729352Y-86395433D01*
X151796845Y-86589836D01*
X151900967Y-86767336D01*
X152037717Y-86921112D01*
X152201840Y-87045255D01*
X152387028Y-87134994D01*
X152463877Y-87144666D01*
X152623000Y-87016998D01*
X152623000Y-86027000D01*
X151866238Y-86027000D01*
X151701082Y-86191599D01*
X137346074Y-86191599D01*
X137587642Y-85608401D01*
X151701082Y-85608401D01*
X151866238Y-85773000D01*
X152623000Y-85773000D01*
X152623000Y-84783002D01*
X152877000Y-84783002D01*
X152877000Y-85773000D01*
X152897000Y-85773000D01*
X152897000Y-86027000D01*
X152877000Y-86027000D01*
X152877000Y-87016998D01*
X153036123Y-87144666D01*
X153112972Y-87134994D01*
X153298160Y-87045255D01*
X153462283Y-86921112D01*
X153566539Y-86803876D01*
X153699678Y-86875040D01*
X153846897Y-86919699D01*
X154000000Y-86934778D01*
X154153102Y-86919699D01*
X154300321Y-86875040D01*
X154435998Y-86802519D01*
X154554922Y-86704922D01*
X154625000Y-86619531D01*
X154695078Y-86704922D01*
X154814001Y-86802519D01*
X154949678Y-86875040D01*
X155096897Y-86919699D01*
X155250000Y-86934778D01*
X155403102Y-86919699D01*
X155550321Y-86875040D01*
X155685998Y-86802519D01*
X155804922Y-86704922D01*
X155822919Y-86682992D01*
X155887868Y-86762132D01*
X155976190Y-86834616D01*
X156076956Y-86888477D01*
X156186293Y-86921644D01*
X156300000Y-86932843D01*
X156700000Y-86932843D01*
X156813707Y-86921644D01*
X156923044Y-86888477D01*
X157023810Y-86834616D01*
X157112132Y-86762132D01*
X157184616Y-86673810D01*
X157238477Y-86573044D01*
X157271644Y-86463707D01*
X157282843Y-86350000D01*
X157282843Y-85450000D01*
X157271644Y-85336293D01*
X157261718Y-85303569D01*
X159944000Y-85303569D01*
X159944000Y-85521431D01*
X159986503Y-85735108D01*
X160069876Y-85936387D01*
X160190914Y-86117534D01*
X160344966Y-86271586D01*
X160526113Y-86392624D01*
X160727392Y-86475997D01*
X160941069Y-86518500D01*
X161158931Y-86518500D01*
X161372608Y-86475997D01*
X161573887Y-86392624D01*
X161661246Y-86334253D01*
X161643358Y-86352141D01*
X161557887Y-86480058D01*
X161499013Y-86622191D01*
X161469000Y-86773078D01*
X161469000Y-86926922D01*
X161499013Y-87077809D01*
X161557887Y-87219942D01*
X161643358Y-87347859D01*
X161752141Y-87456642D01*
X161880058Y-87542113D01*
X162022191Y-87600987D01*
X162173078Y-87631000D01*
X162326922Y-87631000D01*
X162477809Y-87600987D01*
X162619942Y-87542113D01*
X162747859Y-87456642D01*
X162856642Y-87347859D01*
X162942113Y-87219942D01*
X163000987Y-87077809D01*
X163031000Y-86926922D01*
X163031000Y-86773078D01*
X163000987Y-86622191D01*
X162942113Y-86480058D01*
X162856642Y-86352141D01*
X162747859Y-86243358D01*
X162619942Y-86157887D01*
X162477809Y-86099013D01*
X162326922Y-86069000D01*
X162173078Y-86069000D01*
X162022191Y-86099013D01*
X161880058Y-86157887D01*
X161845929Y-86180691D01*
X161909086Y-86117534D01*
X162030124Y-85936387D01*
X162113497Y-85735108D01*
X162156000Y-85521431D01*
X162156000Y-85303569D01*
X164944000Y-85303569D01*
X164944000Y-85521431D01*
X164986503Y-85735108D01*
X165069876Y-85936387D01*
X165190914Y-86117534D01*
X165344966Y-86271586D01*
X165526113Y-86392624D01*
X165727392Y-86475997D01*
X165941069Y-86518500D01*
X166158931Y-86518500D01*
X166372608Y-86475997D01*
X166573887Y-86392624D01*
X166755034Y-86271586D01*
X166909086Y-86117534D01*
X167030124Y-85936387D01*
X167113497Y-85735108D01*
X167156000Y-85521431D01*
X167156000Y-85303569D01*
X167113497Y-85089892D01*
X167030124Y-84888613D01*
X166909086Y-84707466D01*
X166755034Y-84553414D01*
X166573887Y-84432376D01*
X166372608Y-84349003D01*
X166158931Y-84306500D01*
X165941069Y-84306500D01*
X165727392Y-84349003D01*
X165526113Y-84432376D01*
X165344966Y-84553414D01*
X165190914Y-84707466D01*
X165069876Y-84888613D01*
X164986503Y-85089892D01*
X164944000Y-85303569D01*
X162156000Y-85303569D01*
X162113497Y-85089892D01*
X162030124Y-84888613D01*
X161909086Y-84707466D01*
X161755034Y-84553414D01*
X161573887Y-84432376D01*
X161372608Y-84349003D01*
X161158931Y-84306500D01*
X160941069Y-84306500D01*
X160727392Y-84349003D01*
X160526113Y-84432376D01*
X160344966Y-84553414D01*
X160190914Y-84707466D01*
X160069876Y-84888613D01*
X159986503Y-85089892D01*
X159944000Y-85303569D01*
X157261718Y-85303569D01*
X157238477Y-85226956D01*
X157184616Y-85126190D01*
X157112132Y-85037868D01*
X157023810Y-84965384D01*
X156923044Y-84911523D01*
X156813707Y-84878356D01*
X156700000Y-84867157D01*
X156300000Y-84867157D01*
X156186293Y-84878356D01*
X156076956Y-84911523D01*
X155976190Y-84965384D01*
X155887868Y-85037868D01*
X155822919Y-85117008D01*
X155804922Y-85095078D01*
X155685999Y-84997481D01*
X155550322Y-84924960D01*
X155403103Y-84880301D01*
X155250000Y-84865222D01*
X155096898Y-84880301D01*
X154949679Y-84924960D01*
X154814002Y-84997481D01*
X154695079Y-85095078D01*
X154625000Y-85180469D01*
X154554922Y-85095078D01*
X154435999Y-84997481D01*
X154300322Y-84924960D01*
X154153103Y-84880301D01*
X154000000Y-84865222D01*
X153846898Y-84880301D01*
X153699679Y-84924960D01*
X153566539Y-84996125D01*
X153462283Y-84878888D01*
X153298160Y-84754745D01*
X153112972Y-84665006D01*
X153036123Y-84655334D01*
X152877000Y-84783002D01*
X152623000Y-84783002D01*
X152463877Y-84655334D01*
X152387028Y-84665006D01*
X152201840Y-84754745D01*
X152037717Y-84878888D01*
X151900967Y-85032664D01*
X151796845Y-85210164D01*
X151729352Y-85404567D01*
X151701082Y-85608401D01*
X137587642Y-85608401D01*
X137593384Y-85594539D01*
X137731000Y-84902698D01*
X137731000Y-84197302D01*
X137593384Y-83505461D01*
X137323441Y-82853760D01*
X136962994Y-82314313D01*
X159069000Y-82314313D01*
X159069000Y-83110686D01*
X159083195Y-83254809D01*
X159139289Y-83439728D01*
X159230382Y-83610151D01*
X159352972Y-83759528D01*
X159502349Y-83882118D01*
X159672771Y-83973211D01*
X159857690Y-84029305D01*
X160050000Y-84048246D01*
X160242309Y-84029305D01*
X160427228Y-83973211D01*
X160597651Y-83882118D01*
X160747028Y-83759528D01*
X160869618Y-83610151D01*
X160960711Y-83439729D01*
X161016805Y-83254810D01*
X161031000Y-83110687D01*
X161031000Y-82314314D01*
X166069000Y-82314314D01*
X166069000Y-83110687D01*
X166083195Y-83254810D01*
X166139290Y-83439729D01*
X166230383Y-83610151D01*
X166352973Y-83759528D01*
X166502350Y-83882118D01*
X166672772Y-83973211D01*
X166857691Y-84029305D01*
X167050000Y-84048246D01*
X167242310Y-84029305D01*
X167427229Y-83973211D01*
X167597651Y-83882118D01*
X167747028Y-83759528D01*
X167869618Y-83610151D01*
X167960711Y-83439729D01*
X168016805Y-83254809D01*
X168031000Y-83110686D01*
X168031000Y-82314313D01*
X168016805Y-82170190D01*
X167960711Y-81985271D01*
X167869618Y-81814849D01*
X167747028Y-81665472D01*
X167597651Y-81542882D01*
X167427228Y-81451789D01*
X167242309Y-81395695D01*
X167050000Y-81376754D01*
X166857690Y-81395695D01*
X166672771Y-81451789D01*
X166502349Y-81542882D01*
X166352972Y-81665472D01*
X166230382Y-81814849D01*
X166139289Y-81985272D01*
X166083195Y-82170191D01*
X166069000Y-82314314D01*
X161031000Y-82314314D01*
X161016805Y-82170191D01*
X160960711Y-81985271D01*
X160869618Y-81814849D01*
X160747028Y-81665472D01*
X160597651Y-81542882D01*
X160427229Y-81451789D01*
X160242310Y-81395695D01*
X160050000Y-81376754D01*
X159857691Y-81395695D01*
X159672772Y-81451789D01*
X159502350Y-81542882D01*
X159352973Y-81665472D01*
X159230383Y-81814849D01*
X159139290Y-81985271D01*
X159083195Y-82170190D01*
X159069000Y-82314313D01*
X136962994Y-82314313D01*
X136931544Y-82267246D01*
X136432754Y-81768456D01*
X135846240Y-81376559D01*
X135736251Y-81331000D01*
X183963749Y-81331000D01*
X183853760Y-81376559D01*
%TA.AperFunction,Conductor*%
D20*
G36*
X183853760Y-81376559D02*
G01*
X183267246Y-81768456D01*
X182768456Y-82267246D01*
X182376559Y-82853760D01*
X182106616Y-83505461D01*
X181969000Y-84197302D01*
X181969000Y-84902698D01*
X182106616Y-85594539D01*
X182376559Y-86246240D01*
X182768456Y-86832754D01*
X183267246Y-87331544D01*
X183853760Y-87723441D01*
X184505461Y-87993384D01*
X185197302Y-88131000D01*
X185902698Y-88131000D01*
X186594539Y-87993384D01*
X187246240Y-87723441D01*
X187832754Y-87331544D01*
X188331544Y-86832754D01*
X188723441Y-86246240D01*
X188769000Y-86136251D01*
X188769001Y-98569000D01*
X179221168Y-98569000D01*
X179200000Y-98566915D01*
X179178832Y-98569000D01*
X179115509Y-98575237D01*
X179034266Y-98599882D01*
X178959391Y-98639903D01*
X178893763Y-98693763D01*
X178839903Y-98759391D01*
X178799882Y-98834266D01*
X178775237Y-98915509D01*
X178766915Y-99000000D01*
X178769000Y-99021168D01*
X178769001Y-107378821D01*
X178766915Y-107400000D01*
X178775237Y-107484491D01*
X178799882Y-107565734D01*
X178839903Y-107640609D01*
X178893763Y-107706237D01*
X178959391Y-107760097D01*
X179034266Y-107800118D01*
X179115509Y-107824763D01*
X179178832Y-107831000D01*
X179200000Y-107833085D01*
X179221168Y-107831000D01*
X188769000Y-107831000D01*
X188769001Y-118963751D01*
X188723441Y-118853760D01*
X188331544Y-118267246D01*
X187832754Y-117768456D01*
X187246240Y-117376559D01*
X186594539Y-117106616D01*
X185902698Y-116969000D01*
X185197302Y-116969000D01*
X184505461Y-117106616D01*
X183853760Y-117376559D01*
X183267246Y-117768456D01*
X182768456Y-118267246D01*
X182376559Y-118853760D01*
X182106616Y-119505461D01*
X181969000Y-120197302D01*
X181969000Y-120902698D01*
X182106616Y-121594539D01*
X182376559Y-122246240D01*
X182768456Y-122832754D01*
X183267246Y-123331544D01*
X183853760Y-123723441D01*
X183963749Y-123769000D01*
X135736251Y-123769000D01*
X135846240Y-123723441D01*
X136432754Y-123331544D01*
X136931544Y-122832754D01*
X137323441Y-122246240D01*
X137529786Y-121748078D01*
X162794000Y-121748078D01*
X162794000Y-121901922D01*
X162824013Y-122052809D01*
X162882887Y-122194942D01*
X162968358Y-122322859D01*
X163077141Y-122431642D01*
X163205058Y-122517113D01*
X163347191Y-122575987D01*
X163498078Y-122606000D01*
X163651922Y-122606000D01*
X163802809Y-122575987D01*
X163944942Y-122517113D01*
X164072859Y-122431642D01*
X164181642Y-122322859D01*
X164225000Y-122257969D01*
X164268358Y-122322859D01*
X164377141Y-122431642D01*
X164505058Y-122517113D01*
X164647191Y-122575987D01*
X164798078Y-122606000D01*
X164951922Y-122606000D01*
X165102809Y-122575987D01*
X165244942Y-122517113D01*
X165372859Y-122431642D01*
X165481642Y-122322859D01*
X165500000Y-122295384D01*
X165518358Y-122322859D01*
X165627141Y-122431642D01*
X165755058Y-122517113D01*
X165897191Y-122575987D01*
X166048078Y-122606000D01*
X166201922Y-122606000D01*
X166352809Y-122575987D01*
X166494942Y-122517113D01*
X166622859Y-122431642D01*
X166731642Y-122322859D01*
X166775000Y-122257969D01*
X166818358Y-122322859D01*
X166927141Y-122431642D01*
X167055058Y-122517113D01*
X167197191Y-122575987D01*
X167348078Y-122606000D01*
X167501922Y-122606000D01*
X167652809Y-122575987D01*
X167794942Y-122517113D01*
X167922859Y-122431642D01*
X168031642Y-122322859D01*
X168117113Y-122194942D01*
X168175987Y-122052809D01*
X168206000Y-121901922D01*
X168206000Y-121748078D01*
X168175987Y-121597191D01*
X168117113Y-121455058D01*
X168031642Y-121327141D01*
X167922859Y-121218358D01*
X167794942Y-121132887D01*
X167652809Y-121074013D01*
X167501922Y-121044000D01*
X167348078Y-121044000D01*
X167197191Y-121074013D01*
X167055058Y-121132887D01*
X166927141Y-121218358D01*
X166818358Y-121327141D01*
X166775000Y-121392031D01*
X166731642Y-121327141D01*
X166622859Y-121218358D01*
X166494942Y-121132887D01*
X166352809Y-121074013D01*
X166201922Y-121044000D01*
X166048078Y-121044000D01*
X165897191Y-121074013D01*
X165755058Y-121132887D01*
X165627141Y-121218358D01*
X165518358Y-121327141D01*
X165500000Y-121354616D01*
X165481642Y-121327141D01*
X165372859Y-121218358D01*
X165244942Y-121132887D01*
X165102809Y-121074013D01*
X164951922Y-121044000D01*
X164798078Y-121044000D01*
X164647191Y-121074013D01*
X164505058Y-121132887D01*
X164377141Y-121218358D01*
X164268358Y-121327141D01*
X164225000Y-121392031D01*
X164181642Y-121327141D01*
X164072859Y-121218358D01*
X163944942Y-121132887D01*
X163802809Y-121074013D01*
X163651922Y-121044000D01*
X163498078Y-121044000D01*
X163347191Y-121074013D01*
X163205058Y-121132887D01*
X163077141Y-121218358D01*
X162968358Y-121327141D01*
X162882887Y-121455058D01*
X162824013Y-121597191D01*
X162794000Y-121748078D01*
X137529786Y-121748078D01*
X137593384Y-121594539D01*
X137731000Y-120902698D01*
X137731000Y-120197302D01*
X137593384Y-119505461D01*
X137323441Y-118853760D01*
X137220702Y-118700000D01*
X141292157Y-118700000D01*
X141292157Y-119600000D01*
X141303356Y-119713707D01*
X141336523Y-119823044D01*
X141390384Y-119923810D01*
X141462868Y-120012132D01*
X141551190Y-120084616D01*
X141651956Y-120138477D01*
X141761293Y-120171644D01*
X141875000Y-120182843D01*
X142275000Y-120182843D01*
X142388707Y-120171644D01*
X142498044Y-120138477D01*
X142598810Y-120084616D01*
X142687132Y-120012132D01*
X142752081Y-119932991D01*
X142770079Y-119954922D01*
X142889002Y-120052519D01*
X143024679Y-120125040D01*
X143171898Y-120169699D01*
X143325000Y-120184778D01*
X143478103Y-120169699D01*
X143625322Y-120125040D01*
X143760999Y-120052519D01*
X143879922Y-119954922D01*
X143950000Y-119869531D01*
X144020079Y-119954922D01*
X144139002Y-120052519D01*
X144274679Y-120125040D01*
X144421898Y-120169699D01*
X144575000Y-120184778D01*
X144728103Y-120169699D01*
X144875322Y-120125040D01*
X145008461Y-120053876D01*
X145112717Y-120171112D01*
X145276840Y-120295255D01*
X145462028Y-120384994D01*
X145538877Y-120394666D01*
X145698000Y-120266998D01*
X145698000Y-119277000D01*
X145952000Y-119277000D01*
X145952000Y-120266998D01*
X146111123Y-120394666D01*
X146187972Y-120384994D01*
X146373160Y-120295255D01*
X146537283Y-120171112D01*
X146674033Y-120017336D01*
X146778155Y-119839836D01*
X146845648Y-119645433D01*
X146873918Y-119441599D01*
X146708762Y-119277000D01*
X145952000Y-119277000D01*
X145698000Y-119277000D01*
X145678000Y-119277000D01*
X145678000Y-119023000D01*
X145698000Y-119023000D01*
X145698000Y-118033002D01*
X145952000Y-118033002D01*
X145952000Y-119023000D01*
X146708762Y-119023000D01*
X146873918Y-118858401D01*
X146855417Y-118725000D01*
X154217157Y-118725000D01*
X154217157Y-119625000D01*
X154228356Y-119738707D01*
X154261523Y-119848044D01*
X154315384Y-119948810D01*
X154387868Y-120037132D01*
X154476190Y-120109616D01*
X154576956Y-120163477D01*
X154686293Y-120196644D01*
X154800000Y-120207843D01*
X155200000Y-120207843D01*
X155313707Y-120196644D01*
X155423044Y-120163477D01*
X155523810Y-120109616D01*
X155612132Y-120037132D01*
X155677081Y-119957991D01*
X155695079Y-119979922D01*
X155814002Y-120077519D01*
X155949679Y-120150040D01*
X156096898Y-120194699D01*
X156250000Y-120209778D01*
X156403103Y-120194699D01*
X156550322Y-120150040D01*
X156685999Y-120077519D01*
X156804922Y-119979922D01*
X156875000Y-119894531D01*
X156945079Y-119979922D01*
X157064002Y-120077519D01*
X157199679Y-120150040D01*
X157346898Y-120194699D01*
X157500000Y-120209778D01*
X157653103Y-120194699D01*
X157800322Y-120150040D01*
X157933461Y-120078876D01*
X158037717Y-120196112D01*
X158201840Y-120320255D01*
X158387028Y-120409994D01*
X158463877Y-120419666D01*
X158623000Y-120291998D01*
X158623000Y-119302000D01*
X158877000Y-119302000D01*
X158877000Y-120291998D01*
X159036123Y-120419666D01*
X159112972Y-120409994D01*
X159298160Y-120320255D01*
X159462283Y-120196112D01*
X159599033Y-120042336D01*
X159703155Y-119864836D01*
X159770648Y-119670433D01*
X159798918Y-119466599D01*
X159633762Y-119302000D01*
X158877000Y-119302000D01*
X158623000Y-119302000D01*
X158603000Y-119302000D01*
X158603000Y-119048000D01*
X158623000Y-119048000D01*
X158623000Y-118058002D01*
X158877000Y-118058002D01*
X158877000Y-119048000D01*
X159633762Y-119048000D01*
X159798918Y-118883401D01*
X159770648Y-118679567D01*
X159703155Y-118485164D01*
X159599033Y-118307664D01*
X159462283Y-118153888D01*
X159298160Y-118029745D01*
X159112972Y-117940006D01*
X159036123Y-117930334D01*
X158877000Y-118058002D01*
X158623000Y-118058002D01*
X158463877Y-117930334D01*
X158387028Y-117940006D01*
X158201840Y-118029745D01*
X158037717Y-118153888D01*
X157933461Y-118271125D01*
X157800321Y-118199960D01*
X157653102Y-118155301D01*
X157500000Y-118140222D01*
X157346897Y-118155301D01*
X157199678Y-118199960D01*
X157064001Y-118272481D01*
X156945078Y-118370078D01*
X156875000Y-118455469D01*
X156804922Y-118370078D01*
X156685998Y-118272481D01*
X156550321Y-118199960D01*
X156403102Y-118155301D01*
X156250000Y-118140222D01*
X156096897Y-118155301D01*
X155949678Y-118199960D01*
X155814001Y-118272481D01*
X155695078Y-118370078D01*
X155677081Y-118392008D01*
X155612132Y-118312868D01*
X155523810Y-118240384D01*
X155423044Y-118186523D01*
X155313707Y-118153356D01*
X155200000Y-118142157D01*
X154800000Y-118142157D01*
X154686293Y-118153356D01*
X154576956Y-118186523D01*
X154476190Y-118240384D01*
X154387868Y-118312868D01*
X154315384Y-118401190D01*
X154261523Y-118501956D01*
X154228356Y-118611293D01*
X154217157Y-118725000D01*
X146855417Y-118725000D01*
X146845648Y-118654567D01*
X146778155Y-118460164D01*
X146674033Y-118282664D01*
X146537283Y-118128888D01*
X146373160Y-118004745D01*
X146187972Y-117915006D01*
X146111123Y-117905334D01*
X145952000Y-118033002D01*
X145698000Y-118033002D01*
X145538877Y-117905334D01*
X145462028Y-117915006D01*
X145276840Y-118004745D01*
X145112717Y-118128888D01*
X145008461Y-118246125D01*
X144875321Y-118174960D01*
X144728102Y-118130301D01*
X144575000Y-118115222D01*
X144421897Y-118130301D01*
X144274678Y-118174960D01*
X144139001Y-118247481D01*
X144020078Y-118345078D01*
X143950000Y-118430469D01*
X143879922Y-118345078D01*
X143760998Y-118247481D01*
X143625321Y-118174960D01*
X143478102Y-118130301D01*
X143325000Y-118115222D01*
X143171897Y-118130301D01*
X143024678Y-118174960D01*
X142889001Y-118247481D01*
X142770078Y-118345078D01*
X142752081Y-118367008D01*
X142687132Y-118287868D01*
X142598810Y-118215384D01*
X142498044Y-118161523D01*
X142388707Y-118128356D01*
X142275000Y-118117157D01*
X141875000Y-118117157D01*
X141761293Y-118128356D01*
X141651956Y-118161523D01*
X141551190Y-118215384D01*
X141462868Y-118287868D01*
X141390384Y-118376190D01*
X141336523Y-118476956D01*
X141303356Y-118586293D01*
X141292157Y-118700000D01*
X137220702Y-118700000D01*
X136931544Y-118267246D01*
X136432754Y-117768456D01*
X135846240Y-117376559D01*
X135194539Y-117106616D01*
X134502698Y-116969000D01*
X133797302Y-116969000D01*
X133105461Y-117106616D01*
X132453760Y-117376559D01*
X131867246Y-117768456D01*
X131368456Y-118267246D01*
X130976559Y-118853760D01*
X130931000Y-118963749D01*
X130931000Y-115623078D01*
X168594000Y-115623078D01*
X168594000Y-115776922D01*
X168624013Y-115927809D01*
X168682887Y-116069942D01*
X168768358Y-116197859D01*
X168877141Y-116306642D01*
X169005058Y-116392113D01*
X169147191Y-116450987D01*
X169298078Y-116481000D01*
X169451922Y-116481000D01*
X169602809Y-116450987D01*
X169744942Y-116392113D01*
X169872859Y-116306642D01*
X169981642Y-116197859D01*
X170067113Y-116069942D01*
X170125987Y-115927809D01*
X170156000Y-115776922D01*
X170156000Y-115623078D01*
X172144000Y-115623078D01*
X172144000Y-115776922D01*
X172174013Y-115927809D01*
X172232887Y-116069942D01*
X172318358Y-116197859D01*
X172427141Y-116306642D01*
X172555058Y-116392113D01*
X172697191Y-116450987D01*
X172848078Y-116481000D01*
X173001922Y-116481000D01*
X173152809Y-116450987D01*
X173294942Y-116392113D01*
X173422859Y-116306642D01*
X173531642Y-116197859D01*
X173617113Y-116069942D01*
X173675987Y-115927809D01*
X173706000Y-115776922D01*
X173706000Y-115623078D01*
X173675987Y-115472191D01*
X173617113Y-115330058D01*
X173531642Y-115202141D01*
X173422859Y-115093358D01*
X173294942Y-115007887D01*
X173152809Y-114949013D01*
X173001922Y-114919000D01*
X172848078Y-114919000D01*
X172697191Y-114949013D01*
X172555058Y-115007887D01*
X172427141Y-115093358D01*
X172318358Y-115202141D01*
X172232887Y-115330058D01*
X172174013Y-115472191D01*
X172144000Y-115623078D01*
X170156000Y-115623078D01*
X170125987Y-115472191D01*
X170067113Y-115330058D01*
X169981642Y-115202141D01*
X169872859Y-115093358D01*
X169744942Y-115007887D01*
X169602809Y-114949013D01*
X169451922Y-114919000D01*
X169298078Y-114919000D01*
X169147191Y-114949013D01*
X169005058Y-115007887D01*
X168877141Y-115093358D01*
X168768358Y-115202141D01*
X168682887Y-115330058D01*
X168624013Y-115472191D01*
X168594000Y-115623078D01*
X130931000Y-115623078D01*
X130931000Y-114836123D01*
X134255334Y-114836123D01*
X134265006Y-114912972D01*
X134354745Y-115098160D01*
X134478888Y-115262283D01*
X134632664Y-115399033D01*
X134810164Y-115503155D01*
X135004567Y-115570648D01*
X135208401Y-115598918D01*
X135373000Y-115433762D01*
X135373000Y-114677000D01*
X135627000Y-114677000D01*
X135627000Y-115433762D01*
X135791599Y-115598918D01*
X135995433Y-115570648D01*
X136189836Y-115503155D01*
X136367336Y-115399033D01*
X136521112Y-115262283D01*
X136645255Y-115098160D01*
X136734994Y-114912972D01*
X136744666Y-114836123D01*
X136714142Y-114798078D01*
X173769000Y-114798078D01*
X173769000Y-114951922D01*
X173799013Y-115102809D01*
X173857887Y-115244942D01*
X173943358Y-115372859D01*
X174052141Y-115481642D01*
X174180058Y-115567113D01*
X174322191Y-115625987D01*
X174473078Y-115656000D01*
X174626922Y-115656000D01*
X174777809Y-115625987D01*
X174919942Y-115567113D01*
X175047859Y-115481642D01*
X175156642Y-115372859D01*
X175242113Y-115244942D01*
X175300987Y-115102809D01*
X175331000Y-114951922D01*
X175331000Y-114798078D01*
X175327603Y-114781000D01*
X175451922Y-114781000D01*
X175602809Y-114750987D01*
X175744942Y-114692113D01*
X175872859Y-114606642D01*
X175981642Y-114497859D01*
X176067113Y-114369942D01*
X176125987Y-114227809D01*
X176156000Y-114076922D01*
X176156000Y-113923078D01*
X176125987Y-113772191D01*
X176067113Y-113630058D01*
X175981642Y-113502141D01*
X175872859Y-113393358D01*
X175744942Y-113307887D01*
X175602809Y-113249013D01*
X175451922Y-113219000D01*
X175298078Y-113219000D01*
X175147191Y-113249013D01*
X175005058Y-113307887D01*
X174877141Y-113393358D01*
X174768358Y-113502141D01*
X174682887Y-113630058D01*
X174624013Y-113772191D01*
X174594000Y-113923078D01*
X174594000Y-114076922D01*
X174597397Y-114094000D01*
X174473078Y-114094000D01*
X174322191Y-114124013D01*
X174180058Y-114182887D01*
X174052141Y-114268358D01*
X173943358Y-114377141D01*
X173857887Y-114505058D01*
X173799013Y-114647191D01*
X173769000Y-114798078D01*
X136714142Y-114798078D01*
X136616998Y-114677000D01*
X135627000Y-114677000D01*
X135373000Y-114677000D01*
X134383002Y-114677000D01*
X134255334Y-114836123D01*
X130931000Y-114836123D01*
X130931000Y-114263877D01*
X134255334Y-114263877D01*
X134383002Y-114423000D01*
X135373000Y-114423000D01*
X135373000Y-114403000D01*
X135627000Y-114403000D01*
X135627000Y-114423000D01*
X136616998Y-114423000D01*
X136744666Y-114263877D01*
X136734994Y-114187028D01*
X136645255Y-114001840D01*
X136521112Y-113837717D01*
X136448426Y-113773078D01*
X164919000Y-113773078D01*
X164919000Y-113926922D01*
X164949013Y-114077809D01*
X165007887Y-114219942D01*
X165093358Y-114347859D01*
X165202141Y-114456642D01*
X165330058Y-114542113D01*
X165472191Y-114600987D01*
X165623078Y-114631000D01*
X165776922Y-114631000D01*
X165927809Y-114600987D01*
X166069942Y-114542113D01*
X166197859Y-114456642D01*
X166306642Y-114347859D01*
X166308296Y-114345384D01*
X166343358Y-114397859D01*
X166452141Y-114506642D01*
X166580058Y-114592113D01*
X166722191Y-114650987D01*
X166873078Y-114681000D01*
X167026922Y-114681000D01*
X167177809Y-114650987D01*
X167319942Y-114592113D01*
X167447859Y-114506642D01*
X167556642Y-114397859D01*
X167642113Y-114269942D01*
X167700987Y-114127809D01*
X167731000Y-113976922D01*
X167731000Y-113823078D01*
X167700987Y-113672191D01*
X167642113Y-113530058D01*
X167556642Y-113402141D01*
X167447859Y-113293358D01*
X167319942Y-113207887D01*
X167177809Y-113149013D01*
X167026922Y-113119000D01*
X166873078Y-113119000D01*
X166722191Y-113149013D01*
X166580058Y-113207887D01*
X166452141Y-113293358D01*
X166343358Y-113402141D01*
X166341704Y-113404616D01*
X166306642Y-113352141D01*
X166197859Y-113243358D01*
X166069942Y-113157887D01*
X165927809Y-113099013D01*
X165776922Y-113069000D01*
X165623078Y-113069000D01*
X165472191Y-113099013D01*
X165330058Y-113157887D01*
X165202141Y-113243358D01*
X165093358Y-113352141D01*
X165007887Y-113480058D01*
X164949013Y-113622191D01*
X164919000Y-113773078D01*
X136448426Y-113773078D01*
X136403876Y-113733461D01*
X136475040Y-113600322D01*
X136519699Y-113453103D01*
X136534778Y-113300000D01*
X136519699Y-113146897D01*
X136475040Y-112999678D01*
X136402519Y-112864001D01*
X136304922Y-112745078D01*
X136219531Y-112675000D01*
X136304922Y-112604922D01*
X136402519Y-112485999D01*
X136475040Y-112350322D01*
X136519699Y-112203103D01*
X136534778Y-112050000D01*
X136519699Y-111896897D01*
X136475040Y-111749678D01*
X136434097Y-111673078D01*
X145569000Y-111673078D01*
X145569000Y-111826922D01*
X145599013Y-111977809D01*
X145657887Y-112119942D01*
X145743358Y-112247859D01*
X145852141Y-112356642D01*
X145980058Y-112442113D01*
X146122191Y-112500987D01*
X146273078Y-112531000D01*
X146426922Y-112531000D01*
X146577809Y-112500987D01*
X146719942Y-112442113D01*
X146847859Y-112356642D01*
X146956642Y-112247859D01*
X147042113Y-112119942D01*
X147100987Y-111977809D01*
X147131000Y-111826922D01*
X147131000Y-111673078D01*
X147769000Y-111673078D01*
X147769000Y-111826922D01*
X147799013Y-111977809D01*
X147857887Y-112119942D01*
X147943358Y-112247859D01*
X148052141Y-112356642D01*
X148180058Y-112442113D01*
X148322191Y-112500987D01*
X148473078Y-112531000D01*
X148626922Y-112531000D01*
X148777809Y-112500987D01*
X148919942Y-112442113D01*
X149047859Y-112356642D01*
X149156642Y-112247859D01*
X149242113Y-112119942D01*
X149300987Y-111977809D01*
X149331000Y-111826922D01*
X149331000Y-111673078D01*
X149321055Y-111623078D01*
X168019000Y-111623078D01*
X168019000Y-111776922D01*
X168049013Y-111927809D01*
X168107887Y-112069942D01*
X168193358Y-112197859D01*
X168302141Y-112306642D01*
X168430058Y-112392113D01*
X168572191Y-112450987D01*
X168723078Y-112481000D01*
X168876922Y-112481000D01*
X169027809Y-112450987D01*
X169169942Y-112392113D01*
X169297859Y-112306642D01*
X169406642Y-112197859D01*
X169492113Y-112069942D01*
X169550987Y-111927809D01*
X169581000Y-111776922D01*
X169581000Y-111623078D01*
X169550987Y-111472191D01*
X169492113Y-111330058D01*
X169406642Y-111202141D01*
X169297859Y-111093358D01*
X169169942Y-111007887D01*
X169027809Y-110949013D01*
X168876922Y-110919000D01*
X168723078Y-110919000D01*
X168572191Y-110949013D01*
X168430058Y-111007887D01*
X168302141Y-111093358D01*
X168193358Y-111202141D01*
X168107887Y-111330058D01*
X168049013Y-111472191D01*
X168019000Y-111623078D01*
X149321055Y-111623078D01*
X149300987Y-111522191D01*
X149242113Y-111380058D01*
X149170176Y-111272396D01*
X149277809Y-111250987D01*
X149419942Y-111192113D01*
X149547859Y-111106642D01*
X149656642Y-110997859D01*
X149742113Y-110869942D01*
X149800987Y-110727809D01*
X149809228Y-110686377D01*
X149930058Y-110767113D01*
X150072191Y-110825987D01*
X150223078Y-110856000D01*
X150376922Y-110856000D01*
X150527809Y-110825987D01*
X150669942Y-110767113D01*
X150797859Y-110681642D01*
X150800000Y-110679501D01*
X150802141Y-110681642D01*
X150930058Y-110767113D01*
X151072191Y-110825987D01*
X151223078Y-110856000D01*
X151376922Y-110856000D01*
X151527809Y-110825987D01*
X151669942Y-110767113D01*
X151797859Y-110681642D01*
X151906642Y-110572859D01*
X151992113Y-110444942D01*
X152050987Y-110302809D01*
X152081000Y-110151922D01*
X152081000Y-109998078D01*
X152050987Y-109847191D01*
X151992113Y-109705058D01*
X151906642Y-109577141D01*
X151797859Y-109468358D01*
X151669942Y-109382887D01*
X151527809Y-109324013D01*
X151376922Y-109294000D01*
X151223078Y-109294000D01*
X151072191Y-109324013D01*
X150930058Y-109382887D01*
X150802141Y-109468358D01*
X150800000Y-109470499D01*
X150797859Y-109468358D01*
X150669942Y-109382887D01*
X150527809Y-109324013D01*
X150376922Y-109294000D01*
X150223078Y-109294000D01*
X150072191Y-109324013D01*
X149930058Y-109382887D01*
X149802141Y-109468358D01*
X149693358Y-109577141D01*
X149607887Y-109705058D01*
X149549013Y-109847191D01*
X149540772Y-109888623D01*
X149419942Y-109807887D01*
X149277809Y-109749013D01*
X149126922Y-109719000D01*
X148973078Y-109719000D01*
X148822191Y-109749013D01*
X148680058Y-109807887D01*
X148552141Y-109893358D01*
X148443358Y-110002141D01*
X148357887Y-110130058D01*
X148299013Y-110272191D01*
X148269000Y-110423078D01*
X148269000Y-110576922D01*
X148299013Y-110727809D01*
X148357887Y-110869942D01*
X148429824Y-110977604D01*
X148322191Y-110999013D01*
X148180058Y-111057887D01*
X148052141Y-111143358D01*
X147943358Y-111252141D01*
X147857887Y-111380058D01*
X147799013Y-111522191D01*
X147769000Y-111673078D01*
X147131000Y-111673078D01*
X147100987Y-111522191D01*
X147042113Y-111380058D01*
X146956642Y-111252141D01*
X146847859Y-111143358D01*
X146719942Y-111057887D01*
X146577809Y-110999013D01*
X146426922Y-110969000D01*
X146273078Y-110969000D01*
X146122191Y-110999013D01*
X145980058Y-111057887D01*
X145852141Y-111143358D01*
X145743358Y-111252141D01*
X145657887Y-111380058D01*
X145599013Y-111522191D01*
X145569000Y-111673078D01*
X136434097Y-111673078D01*
X136402519Y-111614001D01*
X136304922Y-111495078D01*
X136219531Y-111425000D01*
X136304922Y-111354922D01*
X136402519Y-111235999D01*
X136475040Y-111100322D01*
X136519699Y-110953103D01*
X136534778Y-110800000D01*
X136519699Y-110646897D01*
X136475040Y-110499678D01*
X136434097Y-110423078D01*
X140969000Y-110423078D01*
X140969000Y-110576922D01*
X140999013Y-110727809D01*
X141057887Y-110869942D01*
X141143358Y-110997859D01*
X141252141Y-111106642D01*
X141380058Y-111192113D01*
X141522191Y-111250987D01*
X141673078Y-111281000D01*
X141826922Y-111281000D01*
X141977809Y-111250987D01*
X142119942Y-111192113D01*
X142247859Y-111106642D01*
X142356642Y-110997859D01*
X142442113Y-110869942D01*
X142500987Y-110727809D01*
X142531000Y-110576922D01*
X142531000Y-110423078D01*
X146519000Y-110423078D01*
X146519000Y-110576922D01*
X146549013Y-110727809D01*
X146607887Y-110869942D01*
X146693358Y-110997859D01*
X146802141Y-111106642D01*
X146930058Y-111192113D01*
X147072191Y-111250987D01*
X147223078Y-111281000D01*
X147376922Y-111281000D01*
X147527809Y-111250987D01*
X147669942Y-111192113D01*
X147797859Y-111106642D01*
X147906642Y-110997859D01*
X147992113Y-110869942D01*
X148050987Y-110727809D01*
X148081000Y-110576922D01*
X148081000Y-110423078D01*
X148050987Y-110272191D01*
X147992113Y-110130058D01*
X147906642Y-110002141D01*
X147797859Y-109893358D01*
X147669942Y-109807887D01*
X147527809Y-109749013D01*
X147376922Y-109719000D01*
X147223078Y-109719000D01*
X147072191Y-109749013D01*
X146930058Y-109807887D01*
X146802141Y-109893358D01*
X146693358Y-110002141D01*
X146607887Y-110130058D01*
X146549013Y-110272191D01*
X146519000Y-110423078D01*
X142531000Y-110423078D01*
X142500987Y-110272191D01*
X142442113Y-110130058D01*
X142356642Y-110002141D01*
X142247859Y-109893358D01*
X142119942Y-109807887D01*
X141977809Y-109749013D01*
X141826922Y-109719000D01*
X141673078Y-109719000D01*
X141522191Y-109749013D01*
X141380058Y-109807887D01*
X141252141Y-109893358D01*
X141143358Y-110002141D01*
X141057887Y-110130058D01*
X140999013Y-110272191D01*
X140969000Y-110423078D01*
X136434097Y-110423078D01*
X136402519Y-110364001D01*
X136304922Y-110245078D01*
X136219531Y-110175000D01*
X136304922Y-110104922D01*
X136402519Y-109985999D01*
X136475040Y-109850322D01*
X136519699Y-109703103D01*
X136534778Y-109550000D01*
X136519699Y-109396897D01*
X136482139Y-109273078D01*
X153369000Y-109273078D01*
X153369000Y-109426922D01*
X153399013Y-109577809D01*
X153457887Y-109719942D01*
X153543358Y-109847859D01*
X153652141Y-109956642D01*
X153780058Y-110042113D01*
X153831909Y-110063590D01*
X153743358Y-110152141D01*
X153657887Y-110280058D01*
X153599013Y-110422191D01*
X153569000Y-110573078D01*
X153569000Y-110726922D01*
X153599013Y-110877809D01*
X153657887Y-111019942D01*
X153743358Y-111147859D01*
X153852141Y-111256642D01*
X153980058Y-111342113D01*
X154122191Y-111400987D01*
X154273078Y-111431000D01*
X154426922Y-111431000D01*
X154577809Y-111400987D01*
X154719942Y-111342113D01*
X154847859Y-111256642D01*
X154956642Y-111147859D01*
X155042113Y-111019942D01*
X155100987Y-110877809D01*
X155111873Y-110823078D01*
X171469000Y-110823078D01*
X171469000Y-110976922D01*
X171499013Y-111127809D01*
X171557887Y-111269942D01*
X171643358Y-111397859D01*
X171670499Y-111425000D01*
X171643358Y-111452141D01*
X171557887Y-111580058D01*
X171499013Y-111722191D01*
X171469000Y-111873078D01*
X171469000Y-112026922D01*
X171499013Y-112177809D01*
X171557887Y-112319942D01*
X171643358Y-112447859D01*
X171752141Y-112556642D01*
X171880058Y-112642113D01*
X172022191Y-112700987D01*
X172173078Y-112731000D01*
X172326922Y-112731000D01*
X172477809Y-112700987D01*
X172619942Y-112642113D01*
X172747859Y-112556642D01*
X172856642Y-112447859D01*
X172942113Y-112319942D01*
X173000987Y-112177809D01*
X173031000Y-112026922D01*
X173031000Y-111873078D01*
X173000987Y-111722191D01*
X172942113Y-111580058D01*
X172856642Y-111452141D01*
X172829501Y-111425000D01*
X172856642Y-111397859D01*
X172942113Y-111269942D01*
X173000987Y-111127809D01*
X173026791Y-110998078D01*
X175369000Y-110998078D01*
X175369000Y-111151922D01*
X175399013Y-111302809D01*
X175457887Y-111444942D01*
X175543358Y-111572859D01*
X175652141Y-111681642D01*
X175780058Y-111767113D01*
X175922191Y-111825987D01*
X176073078Y-111856000D01*
X176226922Y-111856000D01*
X176377809Y-111825987D01*
X176519942Y-111767113D01*
X176647859Y-111681642D01*
X176756642Y-111572859D01*
X176842113Y-111444942D01*
X176900987Y-111302809D01*
X176931000Y-111151922D01*
X176931000Y-110998078D01*
X176900987Y-110847191D01*
X176842113Y-110705058D01*
X176756642Y-110577141D01*
X176647859Y-110468358D01*
X176519942Y-110382887D01*
X176377809Y-110324013D01*
X176226922Y-110294000D01*
X176073078Y-110294000D01*
X175922191Y-110324013D01*
X175780058Y-110382887D01*
X175652141Y-110468358D01*
X175543358Y-110577141D01*
X175457887Y-110705058D01*
X175399013Y-110847191D01*
X175369000Y-110998078D01*
X173026791Y-110998078D01*
X173031000Y-110976922D01*
X173031000Y-110823078D01*
X173000987Y-110672191D01*
X172942113Y-110530058D01*
X172856642Y-110402141D01*
X172747859Y-110293358D01*
X172619942Y-110207887D01*
X172477809Y-110149013D01*
X172326922Y-110119000D01*
X172173078Y-110119000D01*
X172022191Y-110149013D01*
X171880058Y-110207887D01*
X171752141Y-110293358D01*
X171643358Y-110402141D01*
X171557887Y-110530058D01*
X171499013Y-110672191D01*
X171469000Y-110823078D01*
X155111873Y-110823078D01*
X155131000Y-110726922D01*
X155131000Y-110573078D01*
X155100987Y-110422191D01*
X155042113Y-110280058D01*
X154956642Y-110152141D01*
X154847859Y-110043358D01*
X154719942Y-109957887D01*
X154668091Y-109936410D01*
X154756642Y-109847859D01*
X154842113Y-109719942D01*
X154900987Y-109577809D01*
X154931000Y-109426922D01*
X154931000Y-109373078D01*
X167869000Y-109373078D01*
X167869000Y-109526922D01*
X167899013Y-109677809D01*
X167957887Y-109819942D01*
X168043358Y-109947859D01*
X168152141Y-110056642D01*
X168280058Y-110142113D01*
X168422191Y-110200987D01*
X168573078Y-110231000D01*
X168726922Y-110231000D01*
X168877809Y-110200987D01*
X169019942Y-110142113D01*
X169147859Y-110056642D01*
X169256642Y-109947859D01*
X169342113Y-109819942D01*
X169400987Y-109677809D01*
X169431000Y-109526922D01*
X169431000Y-109373078D01*
X169421055Y-109323078D01*
X173769000Y-109323078D01*
X173769000Y-109476922D01*
X173799013Y-109627809D01*
X173857887Y-109769942D01*
X173943358Y-109897859D01*
X174052141Y-110006642D01*
X174180058Y-110092113D01*
X174322191Y-110150987D01*
X174473078Y-110181000D01*
X174626922Y-110181000D01*
X174777809Y-110150987D01*
X174919942Y-110092113D01*
X175047859Y-110006642D01*
X175156642Y-109897859D01*
X175242113Y-109769942D01*
X175300987Y-109627809D01*
X175331000Y-109476922D01*
X175331000Y-109323078D01*
X175300987Y-109172191D01*
X175242113Y-109030058D01*
X175156642Y-108902141D01*
X175047859Y-108793358D01*
X174919942Y-108707887D01*
X174777809Y-108649013D01*
X174626922Y-108619000D01*
X174473078Y-108619000D01*
X174322191Y-108649013D01*
X174180058Y-108707887D01*
X174052141Y-108793358D01*
X173943358Y-108902141D01*
X173857887Y-109030058D01*
X173799013Y-109172191D01*
X173769000Y-109323078D01*
X169421055Y-109323078D01*
X169400987Y-109222191D01*
X169342113Y-109080058D01*
X169256642Y-108952141D01*
X169147859Y-108843358D01*
X169019942Y-108757887D01*
X168877809Y-108699013D01*
X168726922Y-108669000D01*
X168573078Y-108669000D01*
X168422191Y-108699013D01*
X168280058Y-108757887D01*
X168152141Y-108843358D01*
X168043358Y-108952141D01*
X167957887Y-109080058D01*
X167899013Y-109222191D01*
X167869000Y-109373078D01*
X154931000Y-109373078D01*
X154931000Y-109273078D01*
X154900987Y-109122191D01*
X154842113Y-108980058D01*
X154756642Y-108852141D01*
X154647859Y-108743358D01*
X154519942Y-108657887D01*
X154377809Y-108599013D01*
X154226922Y-108569000D01*
X154073078Y-108569000D01*
X153922191Y-108599013D01*
X153780058Y-108657887D01*
X153652141Y-108743358D01*
X153543358Y-108852141D01*
X153457887Y-108980058D01*
X153399013Y-109122191D01*
X153369000Y-109273078D01*
X136482139Y-109273078D01*
X136475040Y-109249678D01*
X136402519Y-109114001D01*
X136304922Y-108995078D01*
X136282992Y-108977081D01*
X136362132Y-108912132D01*
X136434616Y-108823810D01*
X136488477Y-108723044D01*
X136521644Y-108613707D01*
X136532843Y-108500000D01*
X136532843Y-108100000D01*
X136521644Y-107986293D01*
X136488477Y-107876956D01*
X136434616Y-107776190D01*
X136362132Y-107687868D01*
X136273810Y-107615384D01*
X136173044Y-107561523D01*
X136063707Y-107528356D01*
X136010118Y-107523078D01*
X157719000Y-107523078D01*
X157719000Y-107676922D01*
X157749013Y-107827809D01*
X157807887Y-107969942D01*
X157893358Y-108097859D01*
X158002141Y-108206642D01*
X158130058Y-108292113D01*
X158272191Y-108350987D01*
X158423078Y-108381000D01*
X158576922Y-108381000D01*
X158727809Y-108350987D01*
X158795186Y-108323078D01*
X169069000Y-108323078D01*
X169069000Y-108476922D01*
X169099013Y-108627809D01*
X169157887Y-108769942D01*
X169243358Y-108897859D01*
X169352141Y-109006642D01*
X169480058Y-109092113D01*
X169622191Y-109150987D01*
X169773078Y-109181000D01*
X169926922Y-109181000D01*
X170077809Y-109150987D01*
X170219942Y-109092113D01*
X170347859Y-109006642D01*
X170375000Y-108979501D01*
X170402141Y-109006642D01*
X170530058Y-109092113D01*
X170672191Y-109150987D01*
X170823078Y-109181000D01*
X170976922Y-109181000D01*
X171127809Y-109150987D01*
X171269942Y-109092113D01*
X171397859Y-109006642D01*
X171400000Y-109004501D01*
X171402141Y-109006642D01*
X171530058Y-109092113D01*
X171672191Y-109150987D01*
X171823078Y-109181000D01*
X171976922Y-109181000D01*
X172127809Y-109150987D01*
X172269942Y-109092113D01*
X172397859Y-109006642D01*
X172400000Y-109004501D01*
X172402141Y-109006642D01*
X172530058Y-109092113D01*
X172672191Y-109150987D01*
X172823078Y-109181000D01*
X172976922Y-109181000D01*
X173127809Y-109150987D01*
X173269942Y-109092113D01*
X173397859Y-109006642D01*
X173506642Y-108897859D01*
X173592113Y-108769942D01*
X173650987Y-108627809D01*
X173681000Y-108476922D01*
X173681000Y-108323078D01*
X173650987Y-108172191D01*
X173592113Y-108030058D01*
X173506642Y-107902141D01*
X173397859Y-107793358D01*
X173269942Y-107707887D01*
X173127809Y-107649013D01*
X172976922Y-107619000D01*
X172823078Y-107619000D01*
X172672191Y-107649013D01*
X172530058Y-107707887D01*
X172402141Y-107793358D01*
X172400000Y-107795499D01*
X172397859Y-107793358D01*
X172269942Y-107707887D01*
X172127809Y-107649013D01*
X171976922Y-107619000D01*
X171823078Y-107619000D01*
X171672191Y-107649013D01*
X171530058Y-107707887D01*
X171402141Y-107793358D01*
X171400000Y-107795499D01*
X171397859Y-107793358D01*
X171269942Y-107707887D01*
X171127809Y-107649013D01*
X170976922Y-107619000D01*
X170823078Y-107619000D01*
X170672191Y-107649013D01*
X170530058Y-107707887D01*
X170402141Y-107793358D01*
X170375000Y-107820499D01*
X170347859Y-107793358D01*
X170219942Y-107707887D01*
X170077809Y-107649013D01*
X169926922Y-107619000D01*
X169773078Y-107619000D01*
X169622191Y-107649013D01*
X169480058Y-107707887D01*
X169352141Y-107793358D01*
X169243358Y-107902141D01*
X169157887Y-108030058D01*
X169099013Y-108172191D01*
X169069000Y-108323078D01*
X158795186Y-108323078D01*
X158869942Y-108292113D01*
X158997859Y-108206642D01*
X159106642Y-108097859D01*
X159192113Y-107969942D01*
X159250987Y-107827809D01*
X159281000Y-107676922D01*
X159281000Y-107523078D01*
X159250987Y-107372191D01*
X159192113Y-107230058D01*
X159106642Y-107102141D01*
X158997859Y-106993358D01*
X158869942Y-106907887D01*
X158727809Y-106849013D01*
X158576922Y-106819000D01*
X158423078Y-106819000D01*
X158272191Y-106849013D01*
X158130058Y-106907887D01*
X158002141Y-106993358D01*
X157893358Y-107102141D01*
X157807887Y-107230058D01*
X157749013Y-107372191D01*
X157719000Y-107523078D01*
X136010118Y-107523078D01*
X135950000Y-107517157D01*
X135050000Y-107517157D01*
X134936293Y-107528356D01*
X134826956Y-107561523D01*
X134726190Y-107615384D01*
X134637868Y-107687868D01*
X134565384Y-107776190D01*
X134511523Y-107876956D01*
X134478356Y-107986293D01*
X134467157Y-108100000D01*
X134467157Y-108500000D01*
X134478356Y-108613707D01*
X134511523Y-108723044D01*
X134565384Y-108823810D01*
X134637868Y-108912132D01*
X134717008Y-108977081D01*
X134695078Y-108995078D01*
X134597481Y-109114001D01*
X134524960Y-109249678D01*
X134480301Y-109396897D01*
X134465222Y-109550000D01*
X134480301Y-109703103D01*
X134524960Y-109850322D01*
X134597481Y-109985999D01*
X134695078Y-110104922D01*
X134780469Y-110175000D01*
X134695078Y-110245078D01*
X134597481Y-110364001D01*
X134524960Y-110499678D01*
X134480301Y-110646897D01*
X134465222Y-110800000D01*
X134480301Y-110953103D01*
X134524960Y-111100322D01*
X134597481Y-111235999D01*
X134695078Y-111354922D01*
X134780469Y-111425000D01*
X134695078Y-111495078D01*
X134597481Y-111614001D01*
X134524960Y-111749678D01*
X134480301Y-111896897D01*
X134465222Y-112050000D01*
X134480301Y-112203103D01*
X134524960Y-112350322D01*
X134597481Y-112485999D01*
X134695078Y-112604922D01*
X134780469Y-112675000D01*
X134695078Y-112745078D01*
X134597481Y-112864001D01*
X134524960Y-112999678D01*
X134480301Y-113146897D01*
X134465222Y-113300000D01*
X134480301Y-113453103D01*
X134524960Y-113600322D01*
X134596124Y-113733461D01*
X134478888Y-113837717D01*
X134354745Y-114001840D01*
X134265006Y-114187028D01*
X134255334Y-114263877D01*
X130931000Y-114263877D01*
X130931000Y-105923078D01*
X148469000Y-105923078D01*
X148469000Y-106076922D01*
X148499013Y-106227809D01*
X148557887Y-106369942D01*
X148643358Y-106497859D01*
X148752141Y-106606642D01*
X148880058Y-106692113D01*
X149022191Y-106750987D01*
X149173078Y-106781000D01*
X149326922Y-106781000D01*
X149477809Y-106750987D01*
X149619942Y-106692113D01*
X149747859Y-106606642D01*
X149856642Y-106497859D01*
X149942113Y-106369942D01*
X150000987Y-106227809D01*
X150031000Y-106076922D01*
X150031000Y-105923078D01*
X150000987Y-105772191D01*
X149942113Y-105630058D01*
X149904041Y-105573078D01*
X157519000Y-105573078D01*
X157519000Y-105726922D01*
X157549013Y-105877809D01*
X157607887Y-106019942D01*
X157693358Y-106147859D01*
X157802141Y-106256642D01*
X157930058Y-106342113D01*
X158072191Y-106400987D01*
X158223078Y-106431000D01*
X158376922Y-106431000D01*
X158527809Y-106400987D01*
X158669942Y-106342113D01*
X158797859Y-106256642D01*
X158906642Y-106147859D01*
X158992113Y-106019942D01*
X159050987Y-105877809D01*
X159081000Y-105726922D01*
X159081000Y-105573078D01*
X159050987Y-105422191D01*
X158992113Y-105280058D01*
X158906642Y-105152141D01*
X158797859Y-105043358D01*
X158669942Y-104957887D01*
X158527809Y-104899013D01*
X158376922Y-104869000D01*
X158223078Y-104869000D01*
X158072191Y-104899013D01*
X157930058Y-104957887D01*
X157802141Y-105043358D01*
X157693358Y-105152141D01*
X157607887Y-105280058D01*
X157549013Y-105422191D01*
X157519000Y-105573078D01*
X149904041Y-105573078D01*
X149856642Y-105502141D01*
X149747859Y-105393358D01*
X149619942Y-105307887D01*
X149477809Y-105249013D01*
X149326922Y-105219000D01*
X149173078Y-105219000D01*
X149022191Y-105249013D01*
X148880058Y-105307887D01*
X148752141Y-105393358D01*
X148643358Y-105502141D01*
X148557887Y-105630058D01*
X148499013Y-105772191D01*
X148469000Y-105923078D01*
X130931000Y-105923078D01*
X130931000Y-103473078D01*
X134794000Y-103473078D01*
X134794000Y-103626922D01*
X134824013Y-103777809D01*
X134882887Y-103919942D01*
X134968358Y-104047859D01*
X135077141Y-104156642D01*
X135205058Y-104242113D01*
X135347191Y-104300987D01*
X135498078Y-104331000D01*
X135651922Y-104331000D01*
X135802809Y-104300987D01*
X135944942Y-104242113D01*
X136072859Y-104156642D01*
X136181642Y-104047859D01*
X136267113Y-103919942D01*
X136325987Y-103777809D01*
X136356000Y-103626922D01*
X136356000Y-103473078D01*
X136325987Y-103322191D01*
X136267113Y-103180058D01*
X136181642Y-103052141D01*
X136072859Y-102943358D01*
X136042508Y-102923078D01*
X136469000Y-102923078D01*
X136469000Y-103076922D01*
X136499013Y-103227809D01*
X136557887Y-103369942D01*
X136643358Y-103497859D01*
X136752141Y-103606642D01*
X136880058Y-103692113D01*
X137022191Y-103750987D01*
X137173078Y-103781000D01*
X137326922Y-103781000D01*
X137477809Y-103750987D01*
X137619942Y-103692113D01*
X137747859Y-103606642D01*
X137800000Y-103554501D01*
X137852141Y-103606642D01*
X137980058Y-103692113D01*
X138122191Y-103750987D01*
X138273078Y-103781000D01*
X138426922Y-103781000D01*
X138577809Y-103750987D01*
X138719942Y-103692113D01*
X138847859Y-103606642D01*
X138956642Y-103497859D01*
X139042113Y-103369942D01*
X139100987Y-103227809D01*
X139116846Y-103148079D01*
X152436638Y-103148079D01*
X152436638Y-103301923D01*
X152466651Y-103452810D01*
X152525525Y-103594943D01*
X152610996Y-103722860D01*
X152719779Y-103831643D01*
X152847696Y-103917114D01*
X152989829Y-103975988D01*
X153140716Y-104006001D01*
X153194675Y-104006001D01*
X153199013Y-104027809D01*
X153257887Y-104169942D01*
X153343358Y-104297859D01*
X153452141Y-104406642D01*
X153580058Y-104492113D01*
X153722191Y-104550987D01*
X153873078Y-104581000D01*
X154026922Y-104581000D01*
X154177809Y-104550987D01*
X154319942Y-104492113D01*
X154447859Y-104406642D01*
X154556642Y-104297859D01*
X154642113Y-104169942D01*
X154700987Y-104027809D01*
X154701928Y-104023078D01*
X154819000Y-104023078D01*
X154819000Y-104176922D01*
X154849013Y-104327809D01*
X154907887Y-104469942D01*
X154993358Y-104597859D01*
X155102141Y-104706642D01*
X155230058Y-104792113D01*
X155372191Y-104850987D01*
X155523078Y-104881000D01*
X155676922Y-104881000D01*
X155827809Y-104850987D01*
X155969942Y-104792113D01*
X156097859Y-104706642D01*
X156206642Y-104597859D01*
X156292113Y-104469942D01*
X156350987Y-104327809D01*
X156371819Y-104223078D01*
X169619000Y-104223078D01*
X169619000Y-104376922D01*
X169649013Y-104527809D01*
X169707887Y-104669942D01*
X169793358Y-104797859D01*
X169902141Y-104906642D01*
X170030058Y-104992113D01*
X170172191Y-105050987D01*
X170323078Y-105081000D01*
X170476922Y-105081000D01*
X170627809Y-105050987D01*
X170769942Y-104992113D01*
X170897859Y-104906642D01*
X171006642Y-104797859D01*
X171050000Y-104732969D01*
X171093358Y-104797859D01*
X171202141Y-104906642D01*
X171330058Y-104992113D01*
X171472191Y-105050987D01*
X171623078Y-105081000D01*
X171776922Y-105081000D01*
X171927809Y-105050987D01*
X172069942Y-104992113D01*
X172197859Y-104906642D01*
X172306642Y-104797859D01*
X172392113Y-104669942D01*
X172400000Y-104650901D01*
X172407887Y-104669942D01*
X172493358Y-104797859D01*
X172602141Y-104906642D01*
X172730058Y-104992113D01*
X172872191Y-105050987D01*
X173023078Y-105081000D01*
X173176922Y-105081000D01*
X173291863Y-105058137D01*
X173269000Y-105173078D01*
X173269000Y-105326922D01*
X173299013Y-105477809D01*
X173357887Y-105619942D01*
X173443358Y-105747859D01*
X173552141Y-105856642D01*
X173680058Y-105942113D01*
X173822191Y-106000987D01*
X173973078Y-106031000D01*
X174126922Y-106031000D01*
X174277809Y-106000987D01*
X174419942Y-105942113D01*
X174547859Y-105856642D01*
X174656642Y-105747859D01*
X174742113Y-105619942D01*
X174800987Y-105477809D01*
X174831000Y-105326922D01*
X174831000Y-105173078D01*
X174800987Y-105022191D01*
X174742113Y-104880058D01*
X174656642Y-104752141D01*
X174547859Y-104643358D01*
X174419942Y-104557887D01*
X174277809Y-104499013D01*
X174126922Y-104469000D01*
X173973078Y-104469000D01*
X173858137Y-104491863D01*
X173881000Y-104376922D01*
X173881000Y-104223078D01*
X173850987Y-104072191D01*
X173792113Y-103930058D01*
X173706642Y-103802141D01*
X173597859Y-103693358D01*
X173469942Y-103607887D01*
X173327809Y-103549013D01*
X173176922Y-103519000D01*
X173023078Y-103519000D01*
X172872191Y-103549013D01*
X172730058Y-103607887D01*
X172602141Y-103693358D01*
X172493358Y-103802141D01*
X172407887Y-103930058D01*
X172400000Y-103949099D01*
X172392113Y-103930058D01*
X172306642Y-103802141D01*
X172197859Y-103693358D01*
X172069942Y-103607887D01*
X171927809Y-103549013D01*
X171776922Y-103519000D01*
X171623078Y-103519000D01*
X171472191Y-103549013D01*
X171330058Y-103607887D01*
X171202141Y-103693358D01*
X171093358Y-103802141D01*
X171050000Y-103867031D01*
X171006642Y-103802141D01*
X170897859Y-103693358D01*
X170769942Y-103607887D01*
X170627809Y-103549013D01*
X170476922Y-103519000D01*
X170323078Y-103519000D01*
X170172191Y-103549013D01*
X170030058Y-103607887D01*
X169902141Y-103693358D01*
X169793358Y-103802141D01*
X169707887Y-103930058D01*
X169649013Y-104072191D01*
X169619000Y-104223078D01*
X156371819Y-104223078D01*
X156381000Y-104176922D01*
X156381000Y-104023078D01*
X156350987Y-103872191D01*
X156292113Y-103730058D01*
X156206642Y-103602141D01*
X156097859Y-103493358D01*
X155969942Y-103407887D01*
X155827809Y-103349013D01*
X155676922Y-103319000D01*
X155523078Y-103319000D01*
X155372191Y-103349013D01*
X155230058Y-103407887D01*
X155102141Y-103493358D01*
X154993358Y-103602141D01*
X154907887Y-103730058D01*
X154849013Y-103872191D01*
X154819000Y-104023078D01*
X154701928Y-104023078D01*
X154731000Y-103876922D01*
X154731000Y-103723078D01*
X154700987Y-103572191D01*
X154642113Y-103430058D01*
X154556642Y-103302141D01*
X154447859Y-103193358D01*
X154319942Y-103107887D01*
X154177809Y-103049013D01*
X154026922Y-103019000D01*
X153972963Y-103019000D01*
X153968625Y-102997192D01*
X153909751Y-102855059D01*
X153824280Y-102727142D01*
X153715497Y-102618359D01*
X153587580Y-102532888D01*
X153445447Y-102474014D01*
X153294560Y-102444001D01*
X153140716Y-102444001D01*
X152989829Y-102474014D01*
X152847696Y-102532888D01*
X152719779Y-102618359D01*
X152610996Y-102727142D01*
X152525525Y-102855059D01*
X152466651Y-102997192D01*
X152436638Y-103148079D01*
X139116846Y-103148079D01*
X139131000Y-103076922D01*
X139131000Y-102923078D01*
X139100987Y-102772191D01*
X139042113Y-102630058D01*
X138956642Y-102502141D01*
X138847859Y-102393358D01*
X138719942Y-102307887D01*
X138577809Y-102249013D01*
X138426922Y-102219000D01*
X138273078Y-102219000D01*
X138122191Y-102249013D01*
X137980058Y-102307887D01*
X137852141Y-102393358D01*
X137800000Y-102445499D01*
X137747859Y-102393358D01*
X137619942Y-102307887D01*
X137477809Y-102249013D01*
X137326922Y-102219000D01*
X137173078Y-102219000D01*
X137022191Y-102249013D01*
X136880058Y-102307887D01*
X136752141Y-102393358D01*
X136643358Y-102502141D01*
X136557887Y-102630058D01*
X136499013Y-102772191D01*
X136469000Y-102923078D01*
X136042508Y-102923078D01*
X135944942Y-102857887D01*
X135802809Y-102799013D01*
X135651922Y-102769000D01*
X135498078Y-102769000D01*
X135347191Y-102799013D01*
X135205058Y-102857887D01*
X135077141Y-102943358D01*
X134968358Y-103052141D01*
X134882887Y-103180058D01*
X134824013Y-103322191D01*
X134794000Y-103473078D01*
X130931000Y-103473078D01*
X130931000Y-102023078D01*
X169619000Y-102023078D01*
X169619000Y-102176922D01*
X169649013Y-102327809D01*
X169707887Y-102469942D01*
X169793358Y-102597859D01*
X169902141Y-102706642D01*
X170030058Y-102792113D01*
X170172191Y-102850987D01*
X170323078Y-102881000D01*
X170476922Y-102881000D01*
X170627809Y-102850987D01*
X170769942Y-102792113D01*
X170897859Y-102706642D01*
X171006642Y-102597859D01*
X171050000Y-102532969D01*
X171093358Y-102597859D01*
X171202141Y-102706642D01*
X171330058Y-102792113D01*
X171472191Y-102850987D01*
X171623078Y-102881000D01*
X171776922Y-102881000D01*
X171927809Y-102850987D01*
X172069942Y-102792113D01*
X172197859Y-102706642D01*
X172306642Y-102597859D01*
X172350000Y-102532969D01*
X172393358Y-102597859D01*
X172502141Y-102706642D01*
X172630058Y-102792113D01*
X172772191Y-102850987D01*
X172923078Y-102881000D01*
X173076922Y-102881000D01*
X173227809Y-102850987D01*
X173369942Y-102792113D01*
X173497859Y-102706642D01*
X173606642Y-102597859D01*
X173692113Y-102469942D01*
X173750987Y-102327809D01*
X173781000Y-102176922D01*
X173781000Y-102023078D01*
X173750987Y-101872191D01*
X173735993Y-101835993D01*
X173772191Y-101850987D01*
X173923078Y-101881000D01*
X174076922Y-101881000D01*
X174227809Y-101850987D01*
X174369942Y-101792113D01*
X174497859Y-101706642D01*
X174606642Y-101597859D01*
X174692113Y-101469942D01*
X174750987Y-101327809D01*
X174781000Y-101176922D01*
X174781000Y-101023078D01*
X174750987Y-100872191D01*
X174692113Y-100730058D01*
X174606642Y-100602141D01*
X174497859Y-100493358D01*
X174369942Y-100407887D01*
X174227809Y-100349013D01*
X174076922Y-100319000D01*
X173923078Y-100319000D01*
X173772191Y-100349013D01*
X173630058Y-100407887D01*
X173502141Y-100493358D01*
X173393358Y-100602141D01*
X173307887Y-100730058D01*
X173249013Y-100872191D01*
X173219000Y-101023078D01*
X173219000Y-101176922D01*
X173249013Y-101327809D01*
X173264007Y-101364007D01*
X173227809Y-101349013D01*
X173076922Y-101319000D01*
X172923078Y-101319000D01*
X172772191Y-101349013D01*
X172630058Y-101407887D01*
X172502141Y-101493358D01*
X172393358Y-101602141D01*
X172350000Y-101667031D01*
X172306642Y-101602141D01*
X172197859Y-101493358D01*
X172069942Y-101407887D01*
X171927809Y-101349013D01*
X171776922Y-101319000D01*
X171623078Y-101319000D01*
X171472191Y-101349013D01*
X171330058Y-101407887D01*
X171202141Y-101493358D01*
X171093358Y-101602141D01*
X171050000Y-101667031D01*
X171006642Y-101602141D01*
X170897859Y-101493358D01*
X170769942Y-101407887D01*
X170627809Y-101349013D01*
X170476922Y-101319000D01*
X170323078Y-101319000D01*
X170172191Y-101349013D01*
X170030058Y-101407887D01*
X169902141Y-101493358D01*
X169793358Y-101602141D01*
X169707887Y-101730058D01*
X169649013Y-101872191D01*
X169619000Y-102023078D01*
X130931000Y-102023078D01*
X130931000Y-100273078D01*
X143069000Y-100273078D01*
X143069000Y-100426922D01*
X143099013Y-100577809D01*
X143157887Y-100719942D01*
X143243358Y-100847859D01*
X143352141Y-100956642D01*
X143480058Y-101042113D01*
X143622191Y-101100987D01*
X143773078Y-101131000D01*
X143926922Y-101131000D01*
X144077809Y-101100987D01*
X144219942Y-101042113D01*
X144347859Y-100956642D01*
X144456642Y-100847859D01*
X144542113Y-100719942D01*
X144600987Y-100577809D01*
X144608503Y-100540020D01*
X155385942Y-100540020D01*
X155385942Y-100693864D01*
X155415955Y-100844751D01*
X155474829Y-100986884D01*
X155560300Y-101114801D01*
X155669083Y-101223584D01*
X155797000Y-101309055D01*
X155939133Y-101367929D01*
X156090020Y-101397942D01*
X156243864Y-101397942D01*
X156394751Y-101367929D01*
X156536884Y-101309055D01*
X156664801Y-101223584D01*
X156699859Y-101188526D01*
X156780058Y-101242113D01*
X156922191Y-101300987D01*
X157073078Y-101331000D01*
X157226922Y-101331000D01*
X157377809Y-101300987D01*
X157519942Y-101242113D01*
X157647859Y-101156642D01*
X157756642Y-101047859D01*
X157842113Y-100919942D01*
X157900987Y-100777809D01*
X157931000Y-100626922D01*
X157931000Y-100473078D01*
X157900987Y-100322191D01*
X157842113Y-100180058D01*
X157756642Y-100052141D01*
X157647859Y-99943358D01*
X157519942Y-99857887D01*
X157377809Y-99799013D01*
X157226922Y-99769000D01*
X157073078Y-99769000D01*
X156922191Y-99799013D01*
X156780058Y-99857887D01*
X156652141Y-99943358D01*
X156617083Y-99978416D01*
X156536884Y-99924829D01*
X156394751Y-99865955D01*
X156243864Y-99835942D01*
X156090020Y-99835942D01*
X155939133Y-99865955D01*
X155797000Y-99924829D01*
X155669083Y-100010300D01*
X155560300Y-100119083D01*
X155474829Y-100247000D01*
X155415955Y-100389133D01*
X155385942Y-100540020D01*
X144608503Y-100540020D01*
X144631000Y-100426922D01*
X144631000Y-100273078D01*
X144601901Y-100126788D01*
X144623078Y-100131000D01*
X144776922Y-100131000D01*
X144927809Y-100100987D01*
X145069942Y-100042113D01*
X145197859Y-99956642D01*
X145306642Y-99847859D01*
X145392113Y-99719942D01*
X145450987Y-99577809D01*
X145481000Y-99426922D01*
X145481000Y-99273078D01*
X145450987Y-99122191D01*
X145425451Y-99060542D01*
X145469942Y-99042113D01*
X145597859Y-98956642D01*
X145706642Y-98847859D01*
X145792113Y-98719942D01*
X145850987Y-98577809D01*
X145851928Y-98573078D01*
X156469000Y-98573078D01*
X156469000Y-98726922D01*
X156499013Y-98877809D01*
X156557887Y-99019942D01*
X156643358Y-99147859D01*
X156752141Y-99256642D01*
X156880058Y-99342113D01*
X157022191Y-99400987D01*
X157173078Y-99431000D01*
X157326922Y-99431000D01*
X157477809Y-99400987D01*
X157619942Y-99342113D01*
X157747859Y-99256642D01*
X157856642Y-99147859D01*
X157942113Y-99019942D01*
X158000987Y-98877809D01*
X158011873Y-98823078D01*
X171844000Y-98823078D01*
X171844000Y-98976922D01*
X171874013Y-99127809D01*
X171932887Y-99269942D01*
X172018358Y-99397859D01*
X172127141Y-99506642D01*
X172255058Y-99592113D01*
X172397191Y-99650987D01*
X172548078Y-99681000D01*
X172701922Y-99681000D01*
X172852809Y-99650987D01*
X172994942Y-99592113D01*
X173122859Y-99506642D01*
X173231642Y-99397859D01*
X173317113Y-99269942D01*
X173375987Y-99127809D01*
X173406000Y-98976922D01*
X173406000Y-98823078D01*
X173375987Y-98672191D01*
X173317113Y-98530058D01*
X173231642Y-98402141D01*
X173122859Y-98293358D01*
X172994942Y-98207887D01*
X172852809Y-98149013D01*
X172701922Y-98119000D01*
X172548078Y-98119000D01*
X172397191Y-98149013D01*
X172255058Y-98207887D01*
X172127141Y-98293358D01*
X172018358Y-98402141D01*
X171932887Y-98530058D01*
X171874013Y-98672191D01*
X171844000Y-98823078D01*
X158011873Y-98823078D01*
X158031000Y-98726922D01*
X158031000Y-98573078D01*
X158000987Y-98422191D01*
X157942113Y-98280058D01*
X157856642Y-98152141D01*
X157747859Y-98043358D01*
X157619942Y-97957887D01*
X157477809Y-97899013D01*
X157326922Y-97869000D01*
X157173078Y-97869000D01*
X157022191Y-97899013D01*
X156880058Y-97957887D01*
X156752141Y-98043358D01*
X156643358Y-98152141D01*
X156557887Y-98280058D01*
X156499013Y-98422191D01*
X156469000Y-98573078D01*
X145851928Y-98573078D01*
X145881000Y-98426922D01*
X145881000Y-98273078D01*
X145850987Y-98122191D01*
X145792113Y-97980058D01*
X145706642Y-97852141D01*
X145597859Y-97743358D01*
X145469942Y-97657887D01*
X145327809Y-97599013D01*
X145176922Y-97569000D01*
X145023078Y-97569000D01*
X144872191Y-97599013D01*
X144730058Y-97657887D01*
X144602141Y-97743358D01*
X144493358Y-97852141D01*
X144407887Y-97980058D01*
X144349013Y-98122191D01*
X144319000Y-98273078D01*
X144319000Y-98426922D01*
X144349013Y-98577809D01*
X144374549Y-98639458D01*
X144330058Y-98657887D01*
X144202141Y-98743358D01*
X144093358Y-98852141D01*
X144007887Y-98980058D01*
X143949013Y-99122191D01*
X143919000Y-99273078D01*
X143919000Y-99426922D01*
X143948099Y-99573212D01*
X143926922Y-99569000D01*
X143773078Y-99569000D01*
X143622191Y-99599013D01*
X143480058Y-99657887D01*
X143352141Y-99743358D01*
X143243358Y-99852141D01*
X143157887Y-99980058D01*
X143099013Y-100122191D01*
X143069000Y-100273078D01*
X130931000Y-100273078D01*
X130931000Y-98873078D01*
X132069000Y-98873078D01*
X132069000Y-99026922D01*
X132099013Y-99177809D01*
X132157887Y-99319942D01*
X132243358Y-99447859D01*
X132352141Y-99556642D01*
X132480058Y-99642113D01*
X132622191Y-99700987D01*
X132773078Y-99731000D01*
X132926922Y-99731000D01*
X133077809Y-99700987D01*
X133219942Y-99642113D01*
X133347859Y-99556642D01*
X133456642Y-99447859D01*
X133542113Y-99319942D01*
X133600987Y-99177809D01*
X133631000Y-99026922D01*
X133631000Y-98873078D01*
X133600987Y-98722191D01*
X133542113Y-98580058D01*
X133456642Y-98452141D01*
X133347859Y-98343358D01*
X133219942Y-98257887D01*
X133077809Y-98199013D01*
X132926922Y-98169000D01*
X132773078Y-98169000D01*
X132622191Y-98199013D01*
X132480058Y-98257887D01*
X132352141Y-98343358D01*
X132243358Y-98452141D01*
X132157887Y-98580058D01*
X132099013Y-98722191D01*
X132069000Y-98873078D01*
X130931000Y-98873078D01*
X130931000Y-96648078D01*
X138044000Y-96648078D01*
X138044000Y-96801922D01*
X138074013Y-96952809D01*
X138132887Y-97094942D01*
X138218358Y-97222859D01*
X138327141Y-97331642D01*
X138455058Y-97417113D01*
X138597191Y-97475987D01*
X138748078Y-97506000D01*
X138901922Y-97506000D01*
X139052809Y-97475987D01*
X139194942Y-97417113D01*
X139322859Y-97331642D01*
X139431642Y-97222859D01*
X139517113Y-97094942D01*
X139575987Y-96952809D01*
X139606000Y-96801922D01*
X139606000Y-96648078D01*
X151519000Y-96648078D01*
X151519000Y-96801922D01*
X151549013Y-96952809D01*
X151607887Y-97094942D01*
X151693358Y-97222859D01*
X151802141Y-97331642D01*
X151930058Y-97417113D01*
X152072191Y-97475987D01*
X152223078Y-97506000D01*
X152376922Y-97506000D01*
X152527809Y-97475987D01*
X152669942Y-97417113D01*
X152797859Y-97331642D01*
X152906642Y-97222859D01*
X152992113Y-97094942D01*
X153042591Y-96973078D01*
X156469000Y-96973078D01*
X156469000Y-97126922D01*
X156499013Y-97277809D01*
X156557887Y-97419942D01*
X156643358Y-97547859D01*
X156752141Y-97656642D01*
X156880058Y-97742113D01*
X157022191Y-97800987D01*
X157173078Y-97831000D01*
X157326922Y-97831000D01*
X157477809Y-97800987D01*
X157619942Y-97742113D01*
X157747859Y-97656642D01*
X157856642Y-97547859D01*
X157942113Y-97419942D01*
X158000987Y-97277809D01*
X158031000Y-97126922D01*
X158031000Y-96973078D01*
X158000987Y-96822191D01*
X157942113Y-96680058D01*
X157870632Y-96573078D01*
X160369000Y-96573078D01*
X160369000Y-96726922D01*
X160399013Y-96877809D01*
X160457887Y-97019942D01*
X160543358Y-97147859D01*
X160652141Y-97256642D01*
X160780058Y-97342113D01*
X160922191Y-97400987D01*
X161073078Y-97431000D01*
X161226922Y-97431000D01*
X161377809Y-97400987D01*
X161519942Y-97342113D01*
X161623260Y-97273078D01*
X165569000Y-97273078D01*
X165569000Y-97426922D01*
X165599013Y-97577809D01*
X165657887Y-97719942D01*
X165743358Y-97847859D01*
X165852141Y-97956642D01*
X165980058Y-98042113D01*
X166122191Y-98100987D01*
X166273078Y-98131000D01*
X166426922Y-98131000D01*
X166577809Y-98100987D01*
X166719942Y-98042113D01*
X166847859Y-97956642D01*
X166956642Y-97847859D01*
X167042113Y-97719942D01*
X167100987Y-97577809D01*
X167131000Y-97426922D01*
X167131000Y-97362685D01*
X167223078Y-97381000D01*
X167376922Y-97381000D01*
X167527809Y-97350987D01*
X167669942Y-97292113D01*
X167797859Y-97206642D01*
X167906642Y-97097859D01*
X167992113Y-96969942D01*
X168050987Y-96827809D01*
X168081000Y-96676922D01*
X168081000Y-96523078D01*
X168050987Y-96372191D01*
X167992113Y-96230058D01*
X167906642Y-96102141D01*
X167797859Y-95993358D01*
X167669942Y-95907887D01*
X167527809Y-95849013D01*
X167376922Y-95819000D01*
X167223078Y-95819000D01*
X167072191Y-95849013D01*
X166930058Y-95907887D01*
X166802141Y-95993358D01*
X166693358Y-96102141D01*
X166607887Y-96230058D01*
X166549013Y-96372191D01*
X166519000Y-96523078D01*
X166519000Y-96587315D01*
X166426922Y-96569000D01*
X166273078Y-96569000D01*
X166122191Y-96599013D01*
X165980058Y-96657887D01*
X165852141Y-96743358D01*
X165743358Y-96852141D01*
X165657887Y-96980058D01*
X165599013Y-97122191D01*
X165569000Y-97273078D01*
X161623260Y-97273078D01*
X161647859Y-97256642D01*
X161756642Y-97147859D01*
X161842113Y-97019942D01*
X161900987Y-96877809D01*
X161931000Y-96726922D01*
X161931000Y-96573078D01*
X161900987Y-96422191D01*
X161842113Y-96280058D01*
X161756642Y-96152141D01*
X161647859Y-96043358D01*
X161519942Y-95957887D01*
X161377809Y-95899013D01*
X161226922Y-95869000D01*
X161073078Y-95869000D01*
X160922191Y-95899013D01*
X160780058Y-95957887D01*
X160652141Y-96043358D01*
X160543358Y-96152141D01*
X160457887Y-96280058D01*
X160399013Y-96422191D01*
X160369000Y-96573078D01*
X157870632Y-96573078D01*
X157856642Y-96552141D01*
X157747859Y-96443358D01*
X157619942Y-96357887D01*
X157477809Y-96299013D01*
X157326922Y-96269000D01*
X157173078Y-96269000D01*
X157022191Y-96299013D01*
X156880058Y-96357887D01*
X156752141Y-96443358D01*
X156643358Y-96552141D01*
X156557887Y-96680058D01*
X156499013Y-96822191D01*
X156469000Y-96973078D01*
X153042591Y-96973078D01*
X153050987Y-96952809D01*
X153081000Y-96801922D01*
X153081000Y-96648078D01*
X153050987Y-96497191D01*
X152992113Y-96355058D01*
X152906642Y-96227141D01*
X152797859Y-96118358D01*
X152669942Y-96032887D01*
X152527809Y-95974013D01*
X152376922Y-95944000D01*
X152223078Y-95944000D01*
X152072191Y-95974013D01*
X151930058Y-96032887D01*
X151802141Y-96118358D01*
X151693358Y-96227141D01*
X151607887Y-96355058D01*
X151549013Y-96497191D01*
X151519000Y-96648078D01*
X139606000Y-96648078D01*
X139575987Y-96497191D01*
X139517113Y-96355058D01*
X139431642Y-96227141D01*
X139322859Y-96118358D01*
X139194942Y-96032887D01*
X139052809Y-95974013D01*
X138901922Y-95944000D01*
X138748078Y-95944000D01*
X138597191Y-95974013D01*
X138455058Y-96032887D01*
X138327141Y-96118358D01*
X138218358Y-96227141D01*
X138132887Y-96355058D01*
X138074013Y-96497191D01*
X138044000Y-96648078D01*
X130931000Y-96648078D01*
X130931000Y-95523078D01*
X139169000Y-95523078D01*
X139169000Y-95676922D01*
X139199013Y-95827809D01*
X139257887Y-95969942D01*
X139343358Y-96097859D01*
X139452141Y-96206642D01*
X139580058Y-96292113D01*
X139722191Y-96350987D01*
X139873078Y-96381000D01*
X140026922Y-96381000D01*
X140177809Y-96350987D01*
X140319942Y-96292113D01*
X140447859Y-96206642D01*
X140556642Y-96097859D01*
X140642113Y-95969942D01*
X140700987Y-95827809D01*
X140731000Y-95676922D01*
X140731000Y-95523078D01*
X140700987Y-95372191D01*
X140642113Y-95230058D01*
X140556642Y-95102141D01*
X140502579Y-95048078D01*
X146469000Y-95048078D01*
X146469000Y-95201922D01*
X146499013Y-95352809D01*
X146557887Y-95494942D01*
X146643358Y-95622859D01*
X146752141Y-95731642D01*
X146880058Y-95817113D01*
X147022191Y-95875987D01*
X147173078Y-95906000D01*
X147326922Y-95906000D01*
X147477809Y-95875987D01*
X147619942Y-95817113D01*
X147747859Y-95731642D01*
X147856642Y-95622859D01*
X147942113Y-95494942D01*
X148000987Y-95352809D01*
X148031000Y-95201922D01*
X148031000Y-95048078D01*
X148119000Y-95048078D01*
X148119000Y-95201922D01*
X148149013Y-95352809D01*
X148207887Y-95494942D01*
X148293358Y-95622859D01*
X148402141Y-95731642D01*
X148530058Y-95817113D01*
X148672191Y-95875987D01*
X148823078Y-95906000D01*
X148976922Y-95906000D01*
X149127809Y-95875987D01*
X149269942Y-95817113D01*
X149397859Y-95731642D01*
X149506642Y-95622859D01*
X149590017Y-95498078D01*
X150319000Y-95498078D01*
X150319000Y-95651922D01*
X150349013Y-95802809D01*
X150407887Y-95944942D01*
X150493358Y-96072859D01*
X150602141Y-96181642D01*
X150730058Y-96267113D01*
X150872191Y-96325987D01*
X151023078Y-96356000D01*
X151176922Y-96356000D01*
X151327809Y-96325987D01*
X151469942Y-96267113D01*
X151597859Y-96181642D01*
X151706642Y-96072859D01*
X151792113Y-95944942D01*
X151850987Y-95802809D01*
X151881000Y-95651922D01*
X151881000Y-95498078D01*
X151850987Y-95347191D01*
X151792113Y-95205058D01*
X151706642Y-95077141D01*
X151597859Y-94968358D01*
X151469942Y-94882887D01*
X151327809Y-94824013D01*
X151176922Y-94794000D01*
X151023078Y-94794000D01*
X150872191Y-94824013D01*
X150730058Y-94882887D01*
X150602141Y-94968358D01*
X150493358Y-95077141D01*
X150407887Y-95205058D01*
X150349013Y-95347191D01*
X150319000Y-95498078D01*
X149590017Y-95498078D01*
X149592113Y-95494942D01*
X149650987Y-95352809D01*
X149681000Y-95201922D01*
X149681000Y-95048078D01*
X149650987Y-94897191D01*
X149592113Y-94755058D01*
X149506642Y-94627141D01*
X149397859Y-94518358D01*
X149269942Y-94432887D01*
X149127809Y-94374013D01*
X148976922Y-94344000D01*
X148823078Y-94344000D01*
X148672191Y-94374013D01*
X148530058Y-94432887D01*
X148402141Y-94518358D01*
X148293358Y-94627141D01*
X148207887Y-94755058D01*
X148149013Y-94897191D01*
X148119000Y-95048078D01*
X148031000Y-95048078D01*
X148000987Y-94897191D01*
X147942113Y-94755058D01*
X147856642Y-94627141D01*
X147747859Y-94518358D01*
X147619942Y-94432887D01*
X147477809Y-94374013D01*
X147326922Y-94344000D01*
X147173078Y-94344000D01*
X147022191Y-94374013D01*
X146880058Y-94432887D01*
X146752141Y-94518358D01*
X146643358Y-94627141D01*
X146557887Y-94755058D01*
X146499013Y-94897191D01*
X146469000Y-95048078D01*
X140502579Y-95048078D01*
X140447859Y-94993358D01*
X140319942Y-94907887D01*
X140177809Y-94849013D01*
X140026922Y-94819000D01*
X139873078Y-94819000D01*
X139722191Y-94849013D01*
X139580058Y-94907887D01*
X139452141Y-94993358D01*
X139343358Y-95102141D01*
X139257887Y-95230058D01*
X139199013Y-95372191D01*
X139169000Y-95523078D01*
X130931000Y-95523078D01*
X130931000Y-93898078D01*
X157669000Y-93898078D01*
X157669000Y-94051922D01*
X157699013Y-94202809D01*
X157757887Y-94344942D01*
X157843358Y-94472859D01*
X157952141Y-94581642D01*
X158080058Y-94667113D01*
X158222191Y-94725987D01*
X158373078Y-94756000D01*
X158526922Y-94756000D01*
X158677809Y-94725987D01*
X158819942Y-94667113D01*
X158947859Y-94581642D01*
X159056642Y-94472859D01*
X159142113Y-94344942D01*
X159200987Y-94202809D01*
X159231000Y-94051922D01*
X159231000Y-93898078D01*
X174169000Y-93898078D01*
X174169000Y-94051922D01*
X174199013Y-94202809D01*
X174257887Y-94344942D01*
X174343358Y-94472859D01*
X174452141Y-94581642D01*
X174580058Y-94667113D01*
X174722191Y-94725987D01*
X174873078Y-94756000D01*
X175026922Y-94756000D01*
X175177809Y-94725987D01*
X175319942Y-94667113D01*
X175447859Y-94581642D01*
X175556642Y-94472859D01*
X175642113Y-94344942D01*
X175700987Y-94202809D01*
X175731000Y-94051922D01*
X175731000Y-93898078D01*
X175700987Y-93747191D01*
X175642113Y-93605058D01*
X175556642Y-93477141D01*
X175447859Y-93368358D01*
X175319942Y-93282887D01*
X175177809Y-93224013D01*
X175026922Y-93194000D01*
X174873078Y-93194000D01*
X174722191Y-93224013D01*
X174580058Y-93282887D01*
X174452141Y-93368358D01*
X174343358Y-93477141D01*
X174257887Y-93605058D01*
X174199013Y-93747191D01*
X174169000Y-93898078D01*
X159231000Y-93898078D01*
X159200987Y-93747191D01*
X159142113Y-93605058D01*
X159056642Y-93477141D01*
X158947859Y-93368358D01*
X158819942Y-93282887D01*
X158677809Y-93224013D01*
X158526922Y-93194000D01*
X158373078Y-93194000D01*
X158222191Y-93224013D01*
X158080058Y-93282887D01*
X157952141Y-93368358D01*
X157843358Y-93477141D01*
X157757887Y-93605058D01*
X157699013Y-93747191D01*
X157669000Y-93898078D01*
X130931000Y-93898078D01*
X130931000Y-92225000D01*
X134490222Y-92225000D01*
X134505301Y-92378103D01*
X134549960Y-92525322D01*
X134622481Y-92660999D01*
X134720078Y-92779922D01*
X134839001Y-92877519D01*
X134974678Y-92950040D01*
X135121897Y-92994699D01*
X135236640Y-93006000D01*
X135813360Y-93006000D01*
X135928103Y-92994699D01*
X136075322Y-92950040D01*
X136210999Y-92877519D01*
X136329922Y-92779922D01*
X136376572Y-92723078D01*
X153544000Y-92723078D01*
X153544000Y-92876922D01*
X153574013Y-93027809D01*
X153632887Y-93169942D01*
X153718358Y-93297859D01*
X153827141Y-93406642D01*
X153955058Y-93492113D01*
X154097191Y-93550987D01*
X154248078Y-93581000D01*
X154401922Y-93581000D01*
X154552809Y-93550987D01*
X154694942Y-93492113D01*
X154822859Y-93406642D01*
X154931642Y-93297859D01*
X155017113Y-93169942D01*
X155075987Y-93027809D01*
X155106000Y-92876922D01*
X155106000Y-92723078D01*
X155075987Y-92572191D01*
X155017113Y-92430058D01*
X154931642Y-92302141D01*
X154822859Y-92193358D01*
X154792508Y-92173078D01*
X161919000Y-92173078D01*
X161919000Y-92326922D01*
X161949013Y-92477809D01*
X162007887Y-92619942D01*
X162093358Y-92747859D01*
X162202141Y-92856642D01*
X162330058Y-92942113D01*
X162472191Y-93000987D01*
X162623078Y-93031000D01*
X162776922Y-93031000D01*
X162927809Y-93000987D01*
X163069942Y-92942113D01*
X163197859Y-92856642D01*
X163306642Y-92747859D01*
X163392113Y-92619942D01*
X163450987Y-92477809D01*
X163481000Y-92326922D01*
X163481000Y-92173078D01*
X164544000Y-92173078D01*
X164544000Y-92326922D01*
X164574013Y-92477809D01*
X164632887Y-92619942D01*
X164718358Y-92747859D01*
X164827141Y-92856642D01*
X164955058Y-92942113D01*
X165097191Y-93000987D01*
X165248078Y-93031000D01*
X165401922Y-93031000D01*
X165552809Y-93000987D01*
X165694942Y-92942113D01*
X165822859Y-92856642D01*
X165931642Y-92747859D01*
X166017113Y-92619942D01*
X166075987Y-92477809D01*
X166106000Y-92326922D01*
X166106000Y-92173078D01*
X166075987Y-92022191D01*
X166017113Y-91880058D01*
X165931642Y-91752141D01*
X165822859Y-91643358D01*
X165694942Y-91557887D01*
X165552809Y-91499013D01*
X165401922Y-91469000D01*
X165248078Y-91469000D01*
X165097191Y-91499013D01*
X164955058Y-91557887D01*
X164827141Y-91643358D01*
X164718358Y-91752141D01*
X164632887Y-91880058D01*
X164574013Y-92022191D01*
X164544000Y-92173078D01*
X163481000Y-92173078D01*
X163450987Y-92022191D01*
X163392113Y-91880058D01*
X163306642Y-91752141D01*
X163197859Y-91643358D01*
X163069942Y-91557887D01*
X162927809Y-91499013D01*
X162776922Y-91469000D01*
X162623078Y-91469000D01*
X162472191Y-91499013D01*
X162330058Y-91557887D01*
X162202141Y-91643358D01*
X162093358Y-91752141D01*
X162007887Y-91880058D01*
X161949013Y-92022191D01*
X161919000Y-92173078D01*
X154792508Y-92173078D01*
X154694942Y-92107887D01*
X154552809Y-92049013D01*
X154401922Y-92019000D01*
X154248078Y-92019000D01*
X154097191Y-92049013D01*
X153955058Y-92107887D01*
X153827141Y-92193358D01*
X153718358Y-92302141D01*
X153632887Y-92430058D01*
X153574013Y-92572191D01*
X153544000Y-92723078D01*
X136376572Y-92723078D01*
X136427519Y-92660999D01*
X136500040Y-92525322D01*
X136544699Y-92378103D01*
X136559778Y-92225000D01*
X136544699Y-92071897D01*
X136500040Y-91924678D01*
X136427519Y-91789001D01*
X136329922Y-91670078D01*
X136307992Y-91652081D01*
X136387132Y-91587132D01*
X136459616Y-91498810D01*
X136513477Y-91398044D01*
X136546644Y-91288707D01*
X136557843Y-91175000D01*
X136557843Y-90877938D01*
X141740940Y-90877938D01*
X141740940Y-91031782D01*
X141770953Y-91182669D01*
X141829827Y-91324802D01*
X141915298Y-91452719D01*
X142024081Y-91561502D01*
X142151998Y-91646973D01*
X142294131Y-91705847D01*
X142445018Y-91735860D01*
X142598862Y-91735860D01*
X142749749Y-91705847D01*
X142891882Y-91646973D01*
X143019799Y-91561502D01*
X143128582Y-91452719D01*
X143214053Y-91324802D01*
X143272927Y-91182669D01*
X143302940Y-91031782D01*
X143302940Y-90877938D01*
X143272927Y-90727051D01*
X143214053Y-90584918D01*
X143128582Y-90457001D01*
X143019799Y-90348218D01*
X142891882Y-90262747D01*
X142749749Y-90203873D01*
X142598862Y-90173860D01*
X142445018Y-90173860D01*
X142294131Y-90203873D01*
X142151998Y-90262747D01*
X142024081Y-90348218D01*
X141915298Y-90457001D01*
X141829827Y-90584918D01*
X141770953Y-90727051D01*
X141740940Y-90877938D01*
X136557843Y-90877938D01*
X136557843Y-90775000D01*
X136546644Y-90661293D01*
X136513477Y-90551956D01*
X136459616Y-90451190D01*
X136387132Y-90362868D01*
X136298810Y-90290384D01*
X136198044Y-90236523D01*
X136088707Y-90203356D01*
X135975000Y-90192157D01*
X135075000Y-90192157D01*
X134961293Y-90203356D01*
X134851956Y-90236523D01*
X134751190Y-90290384D01*
X134662868Y-90362868D01*
X134590384Y-90451190D01*
X134536523Y-90551956D01*
X134503356Y-90661293D01*
X134492157Y-90775000D01*
X134492157Y-91175000D01*
X134503356Y-91288707D01*
X134536523Y-91398044D01*
X134590384Y-91498810D01*
X134662868Y-91587132D01*
X134742008Y-91652081D01*
X134720078Y-91670078D01*
X134622481Y-91789001D01*
X134549960Y-91924678D01*
X134505301Y-92071897D01*
X134490222Y-92225000D01*
X130931000Y-92225000D01*
X130931000Y-90173078D01*
X149044000Y-90173078D01*
X149044000Y-90326922D01*
X149074013Y-90477809D01*
X149132887Y-90619942D01*
X149218358Y-90747859D01*
X149327141Y-90856642D01*
X149455058Y-90942113D01*
X149597191Y-91000987D01*
X149748078Y-91031000D01*
X149901922Y-91031000D01*
X150052809Y-91000987D01*
X150194942Y-90942113D01*
X150322859Y-90856642D01*
X150431642Y-90747859D01*
X150517113Y-90619942D01*
X150575987Y-90477809D01*
X150586873Y-90423078D01*
X174169000Y-90423078D01*
X174169000Y-90576922D01*
X174199013Y-90727809D01*
X174257887Y-90869942D01*
X174343358Y-90997859D01*
X174452141Y-91106642D01*
X174580058Y-91192113D01*
X174722191Y-91250987D01*
X174873078Y-91281000D01*
X175026922Y-91281000D01*
X175177809Y-91250987D01*
X175319942Y-91192113D01*
X175447859Y-91106642D01*
X175556642Y-90997859D01*
X175642113Y-90869942D01*
X175700987Y-90727809D01*
X175731000Y-90576922D01*
X175731000Y-90423078D01*
X175700987Y-90272191D01*
X175642113Y-90130058D01*
X175556642Y-90002141D01*
X175447859Y-89893358D01*
X175319942Y-89807887D01*
X175177809Y-89749013D01*
X175098457Y-89733229D01*
X184049000Y-89733229D01*
X184049000Y-89906771D01*
X184082856Y-90076978D01*
X184149268Y-90237310D01*
X184245682Y-90381605D01*
X184319077Y-90455000D01*
X184245682Y-90528395D01*
X184149268Y-90672690D01*
X184082856Y-90833022D01*
X184049000Y-91003229D01*
X184049000Y-91176771D01*
X184082856Y-91346978D01*
X184149268Y-91507310D01*
X184245682Y-91651605D01*
X184319077Y-91725000D01*
X184245682Y-91798395D01*
X184149268Y-91942690D01*
X184082856Y-92103022D01*
X184049000Y-92273229D01*
X184049000Y-92446771D01*
X184082856Y-92616978D01*
X184149268Y-92777310D01*
X184245682Y-92921605D01*
X184319077Y-92995000D01*
X184245682Y-93068395D01*
X184149268Y-93212690D01*
X184082856Y-93373022D01*
X184049000Y-93543229D01*
X184049000Y-93716771D01*
X184082856Y-93886978D01*
X184149268Y-94047310D01*
X184245682Y-94191605D01*
X184319077Y-94265000D01*
X184245682Y-94338395D01*
X184149268Y-94482690D01*
X184082856Y-94643022D01*
X184049000Y-94813229D01*
X184049000Y-94986771D01*
X184082856Y-95156978D01*
X184149268Y-95317310D01*
X184245682Y-95461605D01*
X184368395Y-95584318D01*
X184512690Y-95680732D01*
X184673022Y-95747144D01*
X184843229Y-95781000D01*
X185016771Y-95781000D01*
X185167595Y-95750999D01*
X185169463Y-95754494D01*
X185248815Y-95851185D01*
X185345506Y-95930537D01*
X185455820Y-95989502D01*
X185575518Y-96025812D01*
X185700000Y-96038072D01*
X185914250Y-96035000D01*
X186073000Y-95876250D01*
X186073000Y-95027000D01*
X186327000Y-95027000D01*
X186327000Y-95876250D01*
X186485750Y-96035000D01*
X186700000Y-96038072D01*
X186824482Y-96025812D01*
X186944180Y-95989502D01*
X187054494Y-95930537D01*
X187151185Y-95851185D01*
X187230537Y-95754494D01*
X187289502Y-95644180D01*
X187325812Y-95524482D01*
X187338072Y-95400000D01*
X187335000Y-95185750D01*
X187176250Y-95027000D01*
X186327000Y-95027000D01*
X186073000Y-95027000D01*
X186053000Y-95027000D01*
X186053000Y-94773000D01*
X186073000Y-94773000D01*
X186073000Y-94753000D01*
X186327000Y-94753000D01*
X186327000Y-94773000D01*
X187176250Y-94773000D01*
X187335000Y-94614250D01*
X187338072Y-94400000D01*
X187325812Y-94275518D01*
X187289502Y-94155820D01*
X187230537Y-94045506D01*
X187151185Y-93948815D01*
X187054494Y-93869463D01*
X187050999Y-93867595D01*
X187081000Y-93716771D01*
X187081000Y-93543229D01*
X187047144Y-93373022D01*
X186980732Y-93212690D01*
X186884318Y-93068395D01*
X186810923Y-92995000D01*
X186884318Y-92921605D01*
X186980732Y-92777310D01*
X187047144Y-92616978D01*
X187081000Y-92446771D01*
X187081000Y-92273229D01*
X187047144Y-92103022D01*
X186980732Y-91942690D01*
X186884318Y-91798395D01*
X186810923Y-91725000D01*
X186884318Y-91651605D01*
X186980732Y-91507310D01*
X187047144Y-91346978D01*
X187081000Y-91176771D01*
X187081000Y-91003229D01*
X187047144Y-90833022D01*
X186980732Y-90672690D01*
X186884318Y-90528395D01*
X186810923Y-90455000D01*
X186884318Y-90381605D01*
X186980732Y-90237310D01*
X187047144Y-90076978D01*
X187081000Y-89906771D01*
X187081000Y-89733229D01*
X187047144Y-89563022D01*
X186980732Y-89402690D01*
X186884318Y-89258395D01*
X186761605Y-89135682D01*
X186617310Y-89039268D01*
X186456978Y-88972856D01*
X186286771Y-88939000D01*
X186113229Y-88939000D01*
X185943022Y-88972856D01*
X185782690Y-89039268D01*
X185638395Y-89135682D01*
X185565000Y-89209077D01*
X185491605Y-89135682D01*
X185347310Y-89039268D01*
X185186978Y-88972856D01*
X185016771Y-88939000D01*
X184843229Y-88939000D01*
X184673022Y-88972856D01*
X184512690Y-89039268D01*
X184368395Y-89135682D01*
X184245682Y-89258395D01*
X184149268Y-89402690D01*
X184082856Y-89563022D01*
X184049000Y-89733229D01*
X175098457Y-89733229D01*
X175026922Y-89719000D01*
X174873078Y-89719000D01*
X174722191Y-89749013D01*
X174580058Y-89807887D01*
X174452141Y-89893358D01*
X174343358Y-90002141D01*
X174257887Y-90130058D01*
X174199013Y-90272191D01*
X174169000Y-90423078D01*
X150586873Y-90423078D01*
X150606000Y-90326922D01*
X150606000Y-90173078D01*
X150575987Y-90022191D01*
X150517113Y-89880058D01*
X150431642Y-89752141D01*
X150322859Y-89643358D01*
X150194942Y-89557887D01*
X150052809Y-89499013D01*
X149901922Y-89469000D01*
X149748078Y-89469000D01*
X149597191Y-89499013D01*
X149455058Y-89557887D01*
X149327141Y-89643358D01*
X149218358Y-89752141D01*
X149132887Y-89880058D01*
X149074013Y-90022191D01*
X149044000Y-90173078D01*
X130931000Y-90173078D01*
X130931000Y-89048078D01*
X152569000Y-89048078D01*
X152569000Y-89201922D01*
X152599013Y-89352809D01*
X152657887Y-89494942D01*
X152743358Y-89622859D01*
X152852141Y-89731642D01*
X152980058Y-89817113D01*
X153122191Y-89875987D01*
X153273078Y-89906000D01*
X153426922Y-89906000D01*
X153577809Y-89875987D01*
X153719942Y-89817113D01*
X153847859Y-89731642D01*
X153956642Y-89622859D01*
X154042113Y-89494942D01*
X154071880Y-89423078D01*
X160844000Y-89423078D01*
X160844000Y-89576922D01*
X160874013Y-89727809D01*
X160932887Y-89869942D01*
X161018358Y-89997859D01*
X161127141Y-90106642D01*
X161255058Y-90192113D01*
X161397191Y-90250987D01*
X161548078Y-90281000D01*
X161701922Y-90281000D01*
X161852809Y-90250987D01*
X161994942Y-90192113D01*
X162122859Y-90106642D01*
X162231642Y-89997859D01*
X162317113Y-89869942D01*
X162375987Y-89727809D01*
X162406000Y-89576922D01*
X162406000Y-89423078D01*
X162375987Y-89272191D01*
X162317113Y-89130058D01*
X162231642Y-89002141D01*
X162122859Y-88893358D01*
X161994942Y-88807887D01*
X161852809Y-88749013D01*
X161701922Y-88719000D01*
X161548078Y-88719000D01*
X161397191Y-88749013D01*
X161255058Y-88807887D01*
X161127141Y-88893358D01*
X161018358Y-89002141D01*
X160932887Y-89130058D01*
X160874013Y-89272191D01*
X160844000Y-89423078D01*
X154071880Y-89423078D01*
X154100987Y-89352809D01*
X154131000Y-89201922D01*
X154131000Y-89048078D01*
X154100987Y-88897191D01*
X154042113Y-88755058D01*
X153956642Y-88627141D01*
X153847859Y-88518358D01*
X153719942Y-88432887D01*
X153577809Y-88374013D01*
X153426922Y-88344000D01*
X153273078Y-88344000D01*
X153122191Y-88374013D01*
X152980058Y-88432887D01*
X152852141Y-88518358D01*
X152743358Y-88627141D01*
X152657887Y-88755058D01*
X152599013Y-88897191D01*
X152569000Y-89048078D01*
X130931000Y-89048078D01*
X130931000Y-86136251D01*
X130976559Y-86246240D01*
X131368456Y-86832754D01*
X131867246Y-87331544D01*
X132453760Y-87723441D01*
X133105461Y-87993384D01*
X133797302Y-88131000D01*
X134502698Y-88131000D01*
X135194539Y-87993384D01*
X135846240Y-87723441D01*
X136071273Y-87573078D01*
X140894000Y-87573078D01*
X140894000Y-87726922D01*
X140924013Y-87877809D01*
X140982887Y-88019942D01*
X141068358Y-88147859D01*
X141177141Y-88256642D01*
X141305058Y-88342113D01*
X141447191Y-88400987D01*
X141598078Y-88431000D01*
X141751922Y-88431000D01*
X141902809Y-88400987D01*
X142044942Y-88342113D01*
X142172859Y-88256642D01*
X142281642Y-88147859D01*
X142367113Y-88019942D01*
X142425987Y-87877809D01*
X142456000Y-87726922D01*
X142456000Y-87573078D01*
X142425987Y-87422191D01*
X142367113Y-87280058D01*
X142281642Y-87152141D01*
X142172859Y-87043358D01*
X142044942Y-86957887D01*
X141902809Y-86899013D01*
X141751922Y-86869000D01*
X141598078Y-86869000D01*
X141447191Y-86899013D01*
X141305058Y-86957887D01*
X141177141Y-87043358D01*
X141068358Y-87152141D01*
X140982887Y-87280058D01*
X140924013Y-87422191D01*
X140894000Y-87573078D01*
X136071273Y-87573078D01*
X136432754Y-87331544D01*
X136931544Y-86832754D01*
X137323441Y-86246240D01*
X137346074Y-86191599D01*
X151701082Y-86191599D01*
X151729352Y-86395433D01*
X151796845Y-86589836D01*
X151900967Y-86767336D01*
X152037717Y-86921112D01*
X152201840Y-87045255D01*
X152387028Y-87134994D01*
X152463877Y-87144666D01*
X152623000Y-87016998D01*
X152623000Y-86027000D01*
X151866238Y-86027000D01*
X151701082Y-86191599D01*
X137346074Y-86191599D01*
X137587642Y-85608401D01*
X151701082Y-85608401D01*
X151866238Y-85773000D01*
X152623000Y-85773000D01*
X152623000Y-84783002D01*
X152877000Y-84783002D01*
X152877000Y-85773000D01*
X152897000Y-85773000D01*
X152897000Y-86027000D01*
X152877000Y-86027000D01*
X152877000Y-87016998D01*
X153036123Y-87144666D01*
X153112972Y-87134994D01*
X153298160Y-87045255D01*
X153462283Y-86921112D01*
X153566539Y-86803876D01*
X153699678Y-86875040D01*
X153846897Y-86919699D01*
X154000000Y-86934778D01*
X154153102Y-86919699D01*
X154300321Y-86875040D01*
X154435998Y-86802519D01*
X154554922Y-86704922D01*
X154625000Y-86619531D01*
X154695078Y-86704922D01*
X154814001Y-86802519D01*
X154949678Y-86875040D01*
X155096897Y-86919699D01*
X155250000Y-86934778D01*
X155403102Y-86919699D01*
X155550321Y-86875040D01*
X155685998Y-86802519D01*
X155804922Y-86704922D01*
X155822919Y-86682992D01*
X155887868Y-86762132D01*
X155976190Y-86834616D01*
X156076956Y-86888477D01*
X156186293Y-86921644D01*
X156300000Y-86932843D01*
X156700000Y-86932843D01*
X156813707Y-86921644D01*
X156923044Y-86888477D01*
X157023810Y-86834616D01*
X157112132Y-86762132D01*
X157184616Y-86673810D01*
X157238477Y-86573044D01*
X157271644Y-86463707D01*
X157282843Y-86350000D01*
X157282843Y-85450000D01*
X157271644Y-85336293D01*
X157261718Y-85303569D01*
X159944000Y-85303569D01*
X159944000Y-85521431D01*
X159986503Y-85735108D01*
X160069876Y-85936387D01*
X160190914Y-86117534D01*
X160344966Y-86271586D01*
X160526113Y-86392624D01*
X160727392Y-86475997D01*
X160941069Y-86518500D01*
X161158931Y-86518500D01*
X161372608Y-86475997D01*
X161573887Y-86392624D01*
X161661246Y-86334253D01*
X161643358Y-86352141D01*
X161557887Y-86480058D01*
X161499013Y-86622191D01*
X161469000Y-86773078D01*
X161469000Y-86926922D01*
X161499013Y-87077809D01*
X161557887Y-87219942D01*
X161643358Y-87347859D01*
X161752141Y-87456642D01*
X161880058Y-87542113D01*
X162022191Y-87600987D01*
X162173078Y-87631000D01*
X162326922Y-87631000D01*
X162477809Y-87600987D01*
X162619942Y-87542113D01*
X162747859Y-87456642D01*
X162856642Y-87347859D01*
X162942113Y-87219942D01*
X163000987Y-87077809D01*
X163031000Y-86926922D01*
X163031000Y-86773078D01*
X163000987Y-86622191D01*
X162942113Y-86480058D01*
X162856642Y-86352141D01*
X162747859Y-86243358D01*
X162619942Y-86157887D01*
X162477809Y-86099013D01*
X162326922Y-86069000D01*
X162173078Y-86069000D01*
X162022191Y-86099013D01*
X161880058Y-86157887D01*
X161845929Y-86180691D01*
X161909086Y-86117534D01*
X162030124Y-85936387D01*
X162113497Y-85735108D01*
X162156000Y-85521431D01*
X162156000Y-85303569D01*
X164944000Y-85303569D01*
X164944000Y-85521431D01*
X164986503Y-85735108D01*
X165069876Y-85936387D01*
X165190914Y-86117534D01*
X165344966Y-86271586D01*
X165526113Y-86392624D01*
X165727392Y-86475997D01*
X165941069Y-86518500D01*
X166158931Y-86518500D01*
X166372608Y-86475997D01*
X166573887Y-86392624D01*
X166755034Y-86271586D01*
X166909086Y-86117534D01*
X167030124Y-85936387D01*
X167113497Y-85735108D01*
X167156000Y-85521431D01*
X167156000Y-85303569D01*
X167113497Y-85089892D01*
X167030124Y-84888613D01*
X166909086Y-84707466D01*
X166755034Y-84553414D01*
X166573887Y-84432376D01*
X166372608Y-84349003D01*
X166158931Y-84306500D01*
X165941069Y-84306500D01*
X165727392Y-84349003D01*
X165526113Y-84432376D01*
X165344966Y-84553414D01*
X165190914Y-84707466D01*
X165069876Y-84888613D01*
X164986503Y-85089892D01*
X164944000Y-85303569D01*
X162156000Y-85303569D01*
X162113497Y-85089892D01*
X162030124Y-84888613D01*
X161909086Y-84707466D01*
X161755034Y-84553414D01*
X161573887Y-84432376D01*
X161372608Y-84349003D01*
X161158931Y-84306500D01*
X160941069Y-84306500D01*
X160727392Y-84349003D01*
X160526113Y-84432376D01*
X160344966Y-84553414D01*
X160190914Y-84707466D01*
X160069876Y-84888613D01*
X159986503Y-85089892D01*
X159944000Y-85303569D01*
X157261718Y-85303569D01*
X157238477Y-85226956D01*
X157184616Y-85126190D01*
X157112132Y-85037868D01*
X157023810Y-84965384D01*
X156923044Y-84911523D01*
X156813707Y-84878356D01*
X156700000Y-84867157D01*
X156300000Y-84867157D01*
X156186293Y-84878356D01*
X156076956Y-84911523D01*
X155976190Y-84965384D01*
X155887868Y-85037868D01*
X155822919Y-85117008D01*
X155804922Y-85095078D01*
X155685999Y-84997481D01*
X155550322Y-84924960D01*
X155403103Y-84880301D01*
X155250000Y-84865222D01*
X155096898Y-84880301D01*
X154949679Y-84924960D01*
X154814002Y-84997481D01*
X154695079Y-85095078D01*
X154625000Y-85180469D01*
X154554922Y-85095078D01*
X154435999Y-84997481D01*
X154300322Y-84924960D01*
X154153103Y-84880301D01*
X154000000Y-84865222D01*
X153846898Y-84880301D01*
X153699679Y-84924960D01*
X153566539Y-84996125D01*
X153462283Y-84878888D01*
X153298160Y-84754745D01*
X153112972Y-84665006D01*
X153036123Y-84655334D01*
X152877000Y-84783002D01*
X152623000Y-84783002D01*
X152463877Y-84655334D01*
X152387028Y-84665006D01*
X152201840Y-84754745D01*
X152037717Y-84878888D01*
X151900967Y-85032664D01*
X151796845Y-85210164D01*
X151729352Y-85404567D01*
X151701082Y-85608401D01*
X137587642Y-85608401D01*
X137593384Y-85594539D01*
X137731000Y-84902698D01*
X137731000Y-84197302D01*
X137593384Y-83505461D01*
X137323441Y-82853760D01*
X136962994Y-82314313D01*
X159069000Y-82314313D01*
X159069000Y-83110686D01*
X159083195Y-83254809D01*
X159139289Y-83439728D01*
X159230382Y-83610151D01*
X159352972Y-83759528D01*
X159502349Y-83882118D01*
X159672771Y-83973211D01*
X159857690Y-84029305D01*
X160050000Y-84048246D01*
X160242309Y-84029305D01*
X160427228Y-83973211D01*
X160597651Y-83882118D01*
X160747028Y-83759528D01*
X160869618Y-83610151D01*
X160960711Y-83439729D01*
X161016805Y-83254810D01*
X161031000Y-83110687D01*
X161031000Y-82314314D01*
X166069000Y-82314314D01*
X166069000Y-83110687D01*
X166083195Y-83254810D01*
X166139290Y-83439729D01*
X166230383Y-83610151D01*
X166352973Y-83759528D01*
X166502350Y-83882118D01*
X166672772Y-83973211D01*
X166857691Y-84029305D01*
X167050000Y-84048246D01*
X167242310Y-84029305D01*
X167427229Y-83973211D01*
X167597651Y-83882118D01*
X167747028Y-83759528D01*
X167869618Y-83610151D01*
X167960711Y-83439729D01*
X168016805Y-83254809D01*
X168031000Y-83110686D01*
X168031000Y-82314313D01*
X168016805Y-82170190D01*
X167960711Y-81985271D01*
X167869618Y-81814849D01*
X167747028Y-81665472D01*
X167597651Y-81542882D01*
X167427228Y-81451789D01*
X167242309Y-81395695D01*
X167050000Y-81376754D01*
X166857690Y-81395695D01*
X166672771Y-81451789D01*
X166502349Y-81542882D01*
X166352972Y-81665472D01*
X166230382Y-81814849D01*
X166139289Y-81985272D01*
X166083195Y-82170191D01*
X166069000Y-82314314D01*
X161031000Y-82314314D01*
X161016805Y-82170191D01*
X160960711Y-81985271D01*
X160869618Y-81814849D01*
X160747028Y-81665472D01*
X160597651Y-81542882D01*
X160427229Y-81451789D01*
X160242310Y-81395695D01*
X160050000Y-81376754D01*
X159857691Y-81395695D01*
X159672772Y-81451789D01*
X159502350Y-81542882D01*
X159352973Y-81665472D01*
X159230383Y-81814849D01*
X159139290Y-81985271D01*
X159083195Y-82170190D01*
X159069000Y-82314313D01*
X136962994Y-82314313D01*
X136931544Y-82267246D01*
X136432754Y-81768456D01*
X135846240Y-81376559D01*
X135736251Y-81331000D01*
X183963749Y-81331000D01*
X183853760Y-81376559D01*
G37*
%TD.AperFunction*%
%TD*%
M02*
