%TF.GenerationSoftware,KiCad,Pcbnew,(5.1.10)-1*%
%TF.CreationDate,2021-11-27T13:57:11+01:00*%
%TF.ProjectId,SplashQuad,53706c61-7368-4517-9561-642e6b696361,rev?*%
%TF.SameCoordinates,Original*%
%TF.FileFunction,Copper,L1,Top*%
%TF.FilePolarity,Positive*%
%FSLAX46Y46*%
G04 Gerber Fmt 4.6, Leading zero omitted, Abs format (unit mm)*
G04 Created by KiCad (PCBNEW (5.1.10)-1) date 2021-11-27 13:57:11*
%MOMM*%
%LPD*%
G01*
G04 APERTURE LIST*
%TA.AperFunction,ComponentPad*%
%ADD10C,0.800000*%
%TD*%
%TA.AperFunction,ComponentPad*%
%ADD11C,6.400000*%
%TD*%
%TA.AperFunction,SMDPad,CuDef*%
%ADD12R,1.400000X1.200000*%
%TD*%
%TA.AperFunction,SMDPad,CuDef*%
%ADD13R,0.254000X0.675000*%
%TD*%
%TA.AperFunction,SMDPad,CuDef*%
%ADD14R,0.675000X0.254000*%
%TD*%
%TA.AperFunction,SMDPad,CuDef*%
%ADD15R,0.650000X1.060000*%
%TD*%
%TA.AperFunction,SMDPad,CuDef*%
%ADD16R,0.760000X1.250000*%
%TD*%
%TA.AperFunction,SMDPad,CuDef*%
%ADD17R,3.600000X1.270000*%
%TD*%
%TA.AperFunction,SMDPad,CuDef*%
%ADD18R,4.200000X1.350000*%
%TD*%
%TA.AperFunction,ComponentPad*%
%ADD19O,0.800000X1.300000*%
%TD*%
%TA.AperFunction,ComponentPad*%
%ADD20O,1.300000X0.800000*%
%TD*%
%TA.AperFunction,ComponentPad*%
%ADD21O,1.000000X1.000000*%
%TD*%
%TA.AperFunction,ComponentPad*%
%ADD22R,1.000000X1.000000*%
%TD*%
%TA.AperFunction,SMDPad,CuDef*%
%ADD23R,1.200000X1.900000*%
%TD*%
%TA.AperFunction,ComponentPad*%
%ADD24O,1.200000X1.900000*%
%TD*%
%TA.AperFunction,SMDPad,CuDef*%
%ADD25R,1.500000X1.900000*%
%TD*%
%TA.AperFunction,ComponentPad*%
%ADD26C,1.450000*%
%TD*%
%TA.AperFunction,SMDPad,CuDef*%
%ADD27R,0.400000X1.350000*%
%TD*%
%TA.AperFunction,SMDPad,CuDef*%
%ADD28R,0.900000X1.200000*%
%TD*%
%TA.AperFunction,ViaPad*%
%ADD29C,0.800000*%
%TD*%
%TA.AperFunction,Conductor*%
%ADD30C,0.250000*%
%TD*%
%TA.AperFunction,Conductor*%
%ADD31C,0.500000*%
%TD*%
%TA.AperFunction,Conductor*%
%ADD32C,0.750000*%
%TD*%
%TA.AperFunction,Conductor*%
%ADD33C,1.000000*%
%TD*%
%TA.AperFunction,Conductor*%
%ADD34C,0.200000*%
%TD*%
%TA.AperFunction,Conductor*%
%ADD35C,0.293370*%
%TD*%
%TA.AperFunction,Conductor*%
%ADD36C,0.100000*%
%TD*%
G04 APERTURE END LIST*
%TO.P,U6,18*%
%TO.N,GPS_nBOOT*%
%TA.AperFunction,SMDPad,CuDef*%
G36*
G01*
X167950000Y-95675000D02*
X167950000Y-95325000D01*
G75*
G02*
X168125000Y-95150000I175000J0D01*
G01*
X169575000Y-95150000D01*
G75*
G02*
X169750000Y-95325000I0J-175000D01*
G01*
X169750000Y-95675000D01*
G75*
G02*
X169575000Y-95850000I-175000J0D01*
G01*
X168125000Y-95850000D01*
G75*
G02*
X167950000Y-95675000I0J175000D01*
G01*
G37*
%TD.AperFunction*%
%TO.P,U6,17*%
%TO.N,I2C1_SCL*%
%TA.AperFunction,SMDPad,CuDef*%
G36*
G01*
X167950000Y-96800000D02*
X167950000Y-96400000D01*
G75*
G02*
X168150000Y-96200000I200000J0D01*
G01*
X169550000Y-96200000D01*
G75*
G02*
X169750000Y-96400000I0J-200000D01*
G01*
X169750000Y-96800000D01*
G75*
G02*
X169550000Y-97000000I-200000J0D01*
G01*
X168150000Y-97000000D01*
G75*
G02*
X167950000Y-96800000I0J200000D01*
G01*
G37*
%TD.AperFunction*%
%TO.P,U6,16*%
%TO.N,I2C1_SDA*%
%TA.AperFunction,SMDPad,CuDef*%
G36*
G01*
X167950000Y-97900000D02*
X167950000Y-97500000D01*
G75*
G02*
X168150000Y-97300000I200000J0D01*
G01*
X169550000Y-97300000D01*
G75*
G02*
X169750000Y-97500000I0J-200000D01*
G01*
X169750000Y-97900000D01*
G75*
G02*
X169550000Y-98100000I-200000J0D01*
G01*
X168150000Y-98100000D01*
G75*
G02*
X167950000Y-97900000I0J200000D01*
G01*
G37*
%TD.AperFunction*%
%TO.P,U6,15*%
%TO.N,V_ANT*%
%TA.AperFunction,SMDPad,CuDef*%
G36*
G01*
X167950000Y-99000000D02*
X167950000Y-98600000D01*
G75*
G02*
X168150000Y-98400000I200000J0D01*
G01*
X169550000Y-98400000D01*
G75*
G02*
X169750000Y-98600000I0J-200000D01*
G01*
X169750000Y-99000000D01*
G75*
G02*
X169550000Y-99200000I-200000J0D01*
G01*
X168150000Y-99200000D01*
G75*
G02*
X167950000Y-99000000I0J200000D01*
G01*
G37*
%TD.AperFunction*%
%TO.P,U6,14*%
%TO.N,VCC_RF*%
%TA.AperFunction,SMDPad,CuDef*%
G36*
G01*
X167950000Y-100100000D02*
X167950000Y-99700000D01*
G75*
G02*
X168150000Y-99500000I200000J0D01*
G01*
X169550000Y-99500000D01*
G75*
G02*
X169750000Y-99700000I0J-200000D01*
G01*
X169750000Y-100100000D01*
G75*
G02*
X169550000Y-100300000I-200000J0D01*
G01*
X168150000Y-100300000D01*
G75*
G02*
X167950000Y-100100000I0J200000D01*
G01*
G37*
%TD.AperFunction*%
%TO.P,U6,13*%
%TO.N,Net-(U6-Pad13)*%
%TA.AperFunction,SMDPad,CuDef*%
G36*
G01*
X167950000Y-101200000D02*
X167950000Y-100800000D01*
G75*
G02*
X168150000Y-100600000I200000J0D01*
G01*
X169550000Y-100600000D01*
G75*
G02*
X169750000Y-100800000I0J-200000D01*
G01*
X169750000Y-101200000D01*
G75*
G02*
X169550000Y-101400000I-200000J0D01*
G01*
X168150000Y-101400000D01*
G75*
G02*
X167950000Y-101200000I0J200000D01*
G01*
G37*
%TD.AperFunction*%
%TO.P,U6,12*%
%TO.N,GND*%
%TA.AperFunction,SMDPad,CuDef*%
G36*
G01*
X167950000Y-102300000D02*
X167950000Y-101900000D01*
G75*
G02*
X168150000Y-101700000I200000J0D01*
G01*
X169550000Y-101700000D01*
G75*
G02*
X169750000Y-101900000I0J-200000D01*
G01*
X169750000Y-102300000D01*
G75*
G02*
X169550000Y-102500000I-200000J0D01*
G01*
X168150000Y-102500000D01*
G75*
G02*
X167950000Y-102300000I0J200000D01*
G01*
G37*
%TD.AperFunction*%
%TO.P,U6,11*%
%TO.N,RF_IN*%
%TA.AperFunction,SMDPad,CuDef*%
G36*
G01*
X167950000Y-103400000D02*
X167950000Y-103000000D01*
G75*
G02*
X168150000Y-102800000I200000J0D01*
G01*
X169550000Y-102800000D01*
G75*
G02*
X169750000Y-103000000I0J-200000D01*
G01*
X169750000Y-103400000D01*
G75*
G02*
X169550000Y-103600000I-200000J0D01*
G01*
X168150000Y-103600000D01*
G75*
G02*
X167950000Y-103400000I0J200000D01*
G01*
G37*
%TD.AperFunction*%
%TO.P,U6,10*%
%TO.N,GND*%
%TA.AperFunction,SMDPad,CuDef*%
G36*
G01*
X167950000Y-104475000D02*
X167950000Y-104125000D01*
G75*
G02*
X168125000Y-103950000I175000J0D01*
G01*
X169575000Y-103950000D01*
G75*
G02*
X169750000Y-104125000I0J-175000D01*
G01*
X169750000Y-104475000D01*
G75*
G02*
X169575000Y-104650000I-175000J0D01*
G01*
X168125000Y-104650000D01*
G75*
G02*
X167950000Y-104475000I0J175000D01*
G01*
G37*
%TD.AperFunction*%
%TO.P,U6,9*%
%TO.N,GPS_nRST*%
%TA.AperFunction,SMDPad,CuDef*%
G36*
G01*
X158450000Y-104475000D02*
X158450000Y-104125000D01*
G75*
G02*
X158625000Y-103950000I175000J0D01*
G01*
X160075000Y-103950000D01*
G75*
G02*
X160250000Y-104125000I0J-175000D01*
G01*
X160250000Y-104475000D01*
G75*
G02*
X160075000Y-104650000I-175000J0D01*
G01*
X158625000Y-104650000D01*
G75*
G02*
X158450000Y-104475000I0J175000D01*
G01*
G37*
%TD.AperFunction*%
%TO.P,U6,8*%
%TO.N,+3V3*%
%TA.AperFunction,SMDPad,CuDef*%
G36*
G01*
X158450000Y-103400000D02*
X158450000Y-103000000D01*
G75*
G02*
X158650000Y-102800000I200000J0D01*
G01*
X160050000Y-102800000D01*
G75*
G02*
X160250000Y-103000000I0J-200000D01*
G01*
X160250000Y-103400000D01*
G75*
G02*
X160050000Y-103600000I-200000J0D01*
G01*
X158650000Y-103600000D01*
G75*
G02*
X158450000Y-103400000I0J200000D01*
G01*
G37*
%TD.AperFunction*%
%TO.P,U6,7*%
%TA.AperFunction,SMDPad,CuDef*%
G36*
G01*
X158450000Y-102300000D02*
X158450000Y-101900000D01*
G75*
G02*
X158650000Y-101700000I200000J0D01*
G01*
X160050000Y-101700000D01*
G75*
G02*
X160250000Y-101900000I0J-200000D01*
G01*
X160250000Y-102300000D01*
G75*
G02*
X160050000Y-102500000I-200000J0D01*
G01*
X158650000Y-102500000D01*
G75*
G02*
X158450000Y-102300000I0J200000D01*
G01*
G37*
%TD.AperFunction*%
%TO.P,U6,6*%
%TA.AperFunction,SMDPad,CuDef*%
G36*
G01*
X158450000Y-101200000D02*
X158450000Y-100800000D01*
G75*
G02*
X158650000Y-100600000I200000J0D01*
G01*
X160050000Y-100600000D01*
G75*
G02*
X160250000Y-100800000I0J-200000D01*
G01*
X160250000Y-101200000D01*
G75*
G02*
X160050000Y-101400000I-200000J0D01*
G01*
X158650000Y-101400000D01*
G75*
G02*
X158450000Y-101200000I0J200000D01*
G01*
G37*
%TD.AperFunction*%
%TO.P,U6,5*%
%TO.N,GPS_INT*%
%TA.AperFunction,SMDPad,CuDef*%
G36*
G01*
X158450000Y-100100000D02*
X158450000Y-99700000D01*
G75*
G02*
X158650000Y-99500000I200000J0D01*
G01*
X160050000Y-99500000D01*
G75*
G02*
X160250000Y-99700000I0J-200000D01*
G01*
X160250000Y-100100000D01*
G75*
G02*
X160050000Y-100300000I-200000J0D01*
G01*
X158650000Y-100300000D01*
G75*
G02*
X158450000Y-100100000I0J200000D01*
G01*
G37*
%TD.AperFunction*%
%TO.P,U6,4*%
%TO.N,GPS_PPS*%
%TA.AperFunction,SMDPad,CuDef*%
G36*
G01*
X158450000Y-99000000D02*
X158450000Y-98600000D01*
G75*
G02*
X158650000Y-98400000I200000J0D01*
G01*
X160050000Y-98400000D01*
G75*
G02*
X160250000Y-98600000I0J-200000D01*
G01*
X160250000Y-99000000D01*
G75*
G02*
X160050000Y-99200000I-200000J0D01*
G01*
X158650000Y-99200000D01*
G75*
G02*
X158450000Y-99000000I0J200000D01*
G01*
G37*
%TD.AperFunction*%
%TO.P,U6,3*%
%TO.N,UART1_RX*%
%TA.AperFunction,SMDPad,CuDef*%
G36*
G01*
X158450000Y-97900000D02*
X158450000Y-97500000D01*
G75*
G02*
X158650000Y-97300000I200000J0D01*
G01*
X160050000Y-97300000D01*
G75*
G02*
X160250000Y-97500000I0J-200000D01*
G01*
X160250000Y-97900000D01*
G75*
G02*
X160050000Y-98100000I-200000J0D01*
G01*
X158650000Y-98100000D01*
G75*
G02*
X158450000Y-97900000I0J200000D01*
G01*
G37*
%TD.AperFunction*%
%TO.P,U6,2*%
%TO.N,UART1_TX*%
%TA.AperFunction,SMDPad,CuDef*%
G36*
G01*
X158450000Y-96800000D02*
X158450000Y-96400000D01*
G75*
G02*
X158650000Y-96200000I200000J0D01*
G01*
X160050000Y-96200000D01*
G75*
G02*
X160250000Y-96400000I0J-200000D01*
G01*
X160250000Y-96800000D01*
G75*
G02*
X160050000Y-97000000I-200000J0D01*
G01*
X158650000Y-97000000D01*
G75*
G02*
X158450000Y-96800000I0J200000D01*
G01*
G37*
%TD.AperFunction*%
%TO.P,U6,1*%
%TO.N,GND*%
%TA.AperFunction,SMDPad,CuDef*%
G36*
G01*
X158450000Y-95675000D02*
X158450000Y-95325000D01*
G75*
G02*
X158625000Y-95150000I175000J0D01*
G01*
X160075000Y-95150000D01*
G75*
G02*
X160250000Y-95325000I0J-175000D01*
G01*
X160250000Y-95675000D01*
G75*
G02*
X160075000Y-95850000I-175000J0D01*
G01*
X158625000Y-95850000D01*
G75*
G02*
X158450000Y-95675000I0J175000D01*
G01*
G37*
%TD.AperFunction*%
%TD*%
D10*
%TO.P,H4,1*%
%TO.N,GND*%
X187247056Y-82852944D03*
X185550000Y-82150000D03*
X183852944Y-82852944D03*
X183150000Y-84550000D03*
X183852944Y-86247056D03*
X185550000Y-86950000D03*
X187247056Y-86247056D03*
X187950000Y-84550000D03*
D11*
X185550000Y-84550000D03*
%TD*%
D10*
%TO.P,H3,1*%
%TO.N,GND*%
X187247056Y-118852944D03*
X185550000Y-118150000D03*
X183852944Y-118852944D03*
X183150000Y-120550000D03*
X183852944Y-122247056D03*
X185550000Y-122950000D03*
X187247056Y-122247056D03*
X187950000Y-120550000D03*
D11*
X185550000Y-120550000D03*
%TD*%
D10*
%TO.P,H2,1*%
%TO.N,GND*%
X135847056Y-118852944D03*
X134150000Y-118150000D03*
X132452944Y-118852944D03*
X131750000Y-120550000D03*
X132452944Y-122247056D03*
X134150000Y-122950000D03*
X135847056Y-122247056D03*
X136550000Y-120550000D03*
D11*
X134150000Y-120550000D03*
%TD*%
D10*
%TO.P,H1,1*%
%TO.N,GND*%
X135847056Y-82852944D03*
X134150000Y-82150000D03*
X132452944Y-82852944D03*
X131750000Y-84550000D03*
X132452944Y-86247056D03*
X134150000Y-86950000D03*
X135847056Y-86247056D03*
X136550000Y-84550000D03*
D11*
X134150000Y-84550000D03*
%TD*%
%TO.P,C19,2*%
%TO.N,GND*%
%TA.AperFunction,SMDPad,CuDef*%
G36*
G01*
X154155000Y-91625000D02*
X154495000Y-91625000D01*
G75*
G02*
X154635000Y-91765000I0J-140000D01*
G01*
X154635000Y-92045000D01*
G75*
G02*
X154495000Y-92185000I-140000J0D01*
G01*
X154155000Y-92185000D01*
G75*
G02*
X154015000Y-92045000I0J140000D01*
G01*
X154015000Y-91765000D01*
G75*
G02*
X154155000Y-91625000I140000J0D01*
G01*
G37*
%TD.AperFunction*%
%TO.P,C19,1*%
%TO.N,+3V3*%
%TA.AperFunction,SMDPad,CuDef*%
G36*
G01*
X154155000Y-90665000D02*
X154495000Y-90665000D01*
G75*
G02*
X154635000Y-90805000I0J-140000D01*
G01*
X154635000Y-91085000D01*
G75*
G02*
X154495000Y-91225000I-140000J0D01*
G01*
X154155000Y-91225000D01*
G75*
G02*
X154015000Y-91085000I0J140000D01*
G01*
X154015000Y-90805000D01*
G75*
G02*
X154155000Y-90665000I140000J0D01*
G01*
G37*
%TD.AperFunction*%
%TD*%
D12*
%TO.P,Y1,4*%
%TO.N,GND*%
X133125000Y-100400000D03*
%TO.P,Y1,3*%
%TO.N,HSE_IN*%
X135325000Y-100400000D03*
%TO.P,Y1,2*%
%TO.N,GND*%
X135325000Y-102100000D03*
%TO.P,Y1,1*%
%TO.N,Net-(C6-Pad1)*%
X133125000Y-102100000D03*
%TD*%
D13*
%TO.P,U5,16*%
%TO.N,GND*%
X172400000Y-109737500D03*
%TO.P,U5,17*%
X171900000Y-109737500D03*
%TO.P,U5,18*%
X171400000Y-109737500D03*
D14*
%TO.P,U5,15*%
X173312500Y-109875000D03*
%TO.P,U5,14*%
%TO.N,BNO_INT*%
X173312500Y-110375000D03*
%TO.P,U5,13*%
%TO.N,Net-(U5-Pad13)*%
X173312500Y-110875000D03*
%TO.P,U5,12*%
%TO.N,Net-(U5-Pad12)*%
X173312500Y-111375000D03*
%TO.P,U5,11*%
%TO.N,BNO_nRST*%
X173312500Y-111875000D03*
%TO.P,U5,10*%
%TO.N,BNO_LED*%
X173312500Y-112375000D03*
%TO.P,U5,9*%
%TO.N,Net-(C11-Pad1)*%
X173312500Y-112875000D03*
%TO.P,U5,8*%
%TO.N,Net-(U5-Pad8)*%
X173312500Y-113375000D03*
%TO.P,U5,7*%
%TO.N,Net-(U5-Pad7)*%
X173312500Y-113875000D03*
%TO.P,U5,20*%
%TO.N,I2C1_SDA*%
X169987500Y-109875000D03*
%TO.P,U5,21*%
%TO.N,Net-(U5-Pad21)*%
X169987500Y-110375000D03*
%TO.P,U5,22*%
%TO.N,Net-(U5-Pad22)*%
X169987500Y-110875000D03*
%TO.P,U5,23*%
%TO.N,Net-(U5-Pad23)*%
X169987500Y-111375000D03*
%TO.P,U5,24*%
%TO.N,Net-(U5-Pad24)*%
X169987500Y-111875000D03*
%TO.P,U5,25*%
%TO.N,GND*%
X169987500Y-112375000D03*
%TO.P,U5,26*%
%TO.N,Net-(U5-Pad26)*%
X169987500Y-112875000D03*
%TO.P,U5,27*%
%TO.N,Net-(U5-Pad27)*%
X169987500Y-113375000D03*
%TO.P,U5,28*%
%TO.N,+3V3*%
X169987500Y-113875000D03*
D13*
%TO.P,U5,5*%
%TO.N,GND*%
X172400000Y-114512500D03*
%TO.P,U5,4*%
%TO.N,BNO_nBOOT*%
X171900000Y-114512500D03*
%TO.P,U5,3*%
%TO.N,+3V3*%
X171400000Y-114512500D03*
D14*
%TO.P,U5,1*%
%TO.N,Net-(U5-Pad1)*%
X169987500Y-114375000D03*
D13*
%TO.P,U5,2*%
%TO.N,GND*%
X170900000Y-114512500D03*
D14*
%TO.P,U5,6*%
X173312500Y-114375000D03*
D13*
%TO.P,U5,19*%
%TO.N,I2C1_SCL*%
X170900000Y-109737500D03*
%TD*%
%TO.P,U4,8*%
%TO.N,+3V3*%
%TA.AperFunction,SMDPad,CuDef*%
G36*
G01*
X153450000Y-90100000D02*
X153450000Y-90375000D01*
G75*
G02*
X153325000Y-90500000I-125000J0D01*
G01*
X153075000Y-90500000D01*
G75*
G02*
X152950000Y-90375000I0J125000D01*
G01*
X152950000Y-90100000D01*
G75*
G02*
X153075000Y-89975000I125000J0D01*
G01*
X153325000Y-89975000D01*
G75*
G02*
X153450000Y-90100000I0J-125000D01*
G01*
G37*
%TD.AperFunction*%
%TO.P,U4,7*%
%TO.N,GND*%
%TA.AperFunction,SMDPad,CuDef*%
G36*
G01*
X152650000Y-90100000D02*
X152650000Y-90375000D01*
G75*
G02*
X152525000Y-90500000I-125000J0D01*
G01*
X152275000Y-90500000D01*
G75*
G02*
X152150000Y-90375000I0J125000D01*
G01*
X152150000Y-90100000D01*
G75*
G02*
X152275000Y-89975000I125000J0D01*
G01*
X152525000Y-89975000D01*
G75*
G02*
X152650000Y-90100000I0J-125000D01*
G01*
G37*
%TD.AperFunction*%
%TO.P,U4,6*%
%TO.N,+3V3*%
%TA.AperFunction,SMDPad,CuDef*%
G36*
G01*
X151850000Y-90100000D02*
X151850000Y-90375000D01*
G75*
G02*
X151725000Y-90500000I-125000J0D01*
G01*
X151475000Y-90500000D01*
G75*
G02*
X151350000Y-90375000I0J125000D01*
G01*
X151350000Y-90100000D01*
G75*
G02*
X151475000Y-89975000I125000J0D01*
G01*
X151725000Y-89975000D01*
G75*
G02*
X151850000Y-90100000I0J-125000D01*
G01*
G37*
%TD.AperFunction*%
%TO.P,U4,5*%
%TO.N,GND*%
%TA.AperFunction,SMDPad,CuDef*%
G36*
G01*
X151050000Y-90100000D02*
X151050000Y-90375000D01*
G75*
G02*
X150925000Y-90500000I-125000J0D01*
G01*
X150675000Y-90500000D01*
G75*
G02*
X150550000Y-90375000I0J125000D01*
G01*
X150550000Y-90100000D01*
G75*
G02*
X150675000Y-89975000I125000J0D01*
G01*
X150925000Y-89975000D01*
G75*
G02*
X151050000Y-90100000I0J-125000D01*
G01*
G37*
%TD.AperFunction*%
%TO.P,U4,4*%
%TO.N,I2C1_SCL*%
%TA.AperFunction,SMDPad,CuDef*%
G36*
G01*
X151050000Y-92475000D02*
X151050000Y-92750000D01*
G75*
G02*
X150925000Y-92875000I-125000J0D01*
G01*
X150675000Y-92875000D01*
G75*
G02*
X150550000Y-92750000I0J125000D01*
G01*
X150550000Y-92475000D01*
G75*
G02*
X150675000Y-92350000I125000J0D01*
G01*
X150925000Y-92350000D01*
G75*
G02*
X151050000Y-92475000I0J-125000D01*
G01*
G37*
%TD.AperFunction*%
%TO.P,U4,3*%
%TO.N,I2C1_SDA*%
%TA.AperFunction,SMDPad,CuDef*%
G36*
G01*
X151850000Y-92475000D02*
X151850000Y-92750000D01*
G75*
G02*
X151725000Y-92875000I-125000J0D01*
G01*
X151475000Y-92875000D01*
G75*
G02*
X151350000Y-92750000I0J125000D01*
G01*
X151350000Y-92475000D01*
G75*
G02*
X151475000Y-92350000I125000J0D01*
G01*
X151725000Y-92350000D01*
G75*
G02*
X151850000Y-92475000I0J-125000D01*
G01*
G37*
%TD.AperFunction*%
%TO.P,U4,2*%
%TO.N,+3V3*%
%TA.AperFunction,SMDPad,CuDef*%
G36*
G01*
X152650000Y-92475000D02*
X152650000Y-92750000D01*
G75*
G02*
X152525000Y-92875000I-125000J0D01*
G01*
X152275000Y-92875000D01*
G75*
G02*
X152150000Y-92750000I0J125000D01*
G01*
X152150000Y-92475000D01*
G75*
G02*
X152275000Y-92350000I125000J0D01*
G01*
X152525000Y-92350000D01*
G75*
G02*
X152650000Y-92475000I0J-125000D01*
G01*
G37*
%TD.AperFunction*%
%TO.P,U4,1*%
%TO.N,GND*%
%TA.AperFunction,SMDPad,CuDef*%
G36*
G01*
X153450000Y-92475000D02*
X153450000Y-92750000D01*
G75*
G02*
X153325000Y-92875000I-125000J0D01*
G01*
X153075000Y-92875000D01*
G75*
G02*
X152950000Y-92750000I0J125000D01*
G01*
X152950000Y-92475000D01*
G75*
G02*
X153075000Y-92350000I125000J0D01*
G01*
X153325000Y-92350000D01*
G75*
G02*
X153450000Y-92475000I0J-125000D01*
G01*
G37*
%TD.AperFunction*%
%TD*%
%TO.P,U3,64*%
%TO.N,+3V3*%
%TA.AperFunction,SMDPad,CuDef*%
G36*
G01*
X141675000Y-97375000D02*
X141675000Y-95975000D01*
G75*
G02*
X141750000Y-95900000I75000J0D01*
G01*
X141900000Y-95900000D01*
G75*
G02*
X141975000Y-95975000I0J-75000D01*
G01*
X141975000Y-97375000D01*
G75*
G02*
X141900000Y-97450000I-75000J0D01*
G01*
X141750000Y-97450000D01*
G75*
G02*
X141675000Y-97375000I0J75000D01*
G01*
G37*
%TD.AperFunction*%
%TO.P,U3,63*%
%TO.N,GND*%
%TA.AperFunction,SMDPad,CuDef*%
G36*
G01*
X142175000Y-97375000D02*
X142175000Y-95975000D01*
G75*
G02*
X142250000Y-95900000I75000J0D01*
G01*
X142400000Y-95900000D01*
G75*
G02*
X142475000Y-95975000I0J-75000D01*
G01*
X142475000Y-97375000D01*
G75*
G02*
X142400000Y-97450000I-75000J0D01*
G01*
X142250000Y-97450000D01*
G75*
G02*
X142175000Y-97375000I0J75000D01*
G01*
G37*
%TD.AperFunction*%
%TO.P,U3,62*%
%TO.N,Net-(U3-Pad62)*%
%TA.AperFunction,SMDPad,CuDef*%
G36*
G01*
X142675000Y-97375000D02*
X142675000Y-95975000D01*
G75*
G02*
X142750000Y-95900000I75000J0D01*
G01*
X142900000Y-95900000D01*
G75*
G02*
X142975000Y-95975000I0J-75000D01*
G01*
X142975000Y-97375000D01*
G75*
G02*
X142900000Y-97450000I-75000J0D01*
G01*
X142750000Y-97450000D01*
G75*
G02*
X142675000Y-97375000I0J75000D01*
G01*
G37*
%TD.AperFunction*%
%TO.P,U3,61*%
%TO.N,Net-(U3-Pad61)*%
%TA.AperFunction,SMDPad,CuDef*%
G36*
G01*
X143175000Y-97375000D02*
X143175000Y-95975000D01*
G75*
G02*
X143250000Y-95900000I75000J0D01*
G01*
X143400000Y-95900000D01*
G75*
G02*
X143475000Y-95975000I0J-75000D01*
G01*
X143475000Y-97375000D01*
G75*
G02*
X143400000Y-97450000I-75000J0D01*
G01*
X143250000Y-97450000D01*
G75*
G02*
X143175000Y-97375000I0J75000D01*
G01*
G37*
%TD.AperFunction*%
%TO.P,U3,60*%
%TO.N,BOOT0*%
%TA.AperFunction,SMDPad,CuDef*%
G36*
G01*
X143675000Y-97375000D02*
X143675000Y-95975000D01*
G75*
G02*
X143750000Y-95900000I75000J0D01*
G01*
X143900000Y-95900000D01*
G75*
G02*
X143975000Y-95975000I0J-75000D01*
G01*
X143975000Y-97375000D01*
G75*
G02*
X143900000Y-97450000I-75000J0D01*
G01*
X143750000Y-97450000D01*
G75*
G02*
X143675000Y-97375000I0J75000D01*
G01*
G37*
%TD.AperFunction*%
%TO.P,U3,59*%
%TO.N,I2C1_SDA*%
%TA.AperFunction,SMDPad,CuDef*%
G36*
G01*
X144175000Y-97375000D02*
X144175000Y-95975000D01*
G75*
G02*
X144250000Y-95900000I75000J0D01*
G01*
X144400000Y-95900000D01*
G75*
G02*
X144475000Y-95975000I0J-75000D01*
G01*
X144475000Y-97375000D01*
G75*
G02*
X144400000Y-97450000I-75000J0D01*
G01*
X144250000Y-97450000D01*
G75*
G02*
X144175000Y-97375000I0J75000D01*
G01*
G37*
%TD.AperFunction*%
%TO.P,U3,58*%
%TO.N,I2C1_SCL*%
%TA.AperFunction,SMDPad,CuDef*%
G36*
G01*
X144675000Y-97375000D02*
X144675000Y-95975000D01*
G75*
G02*
X144750000Y-95900000I75000J0D01*
G01*
X144900000Y-95900000D01*
G75*
G02*
X144975000Y-95975000I0J-75000D01*
G01*
X144975000Y-97375000D01*
G75*
G02*
X144900000Y-97450000I-75000J0D01*
G01*
X144750000Y-97450000D01*
G75*
G02*
X144675000Y-97375000I0J75000D01*
G01*
G37*
%TD.AperFunction*%
%TO.P,U3,57*%
%TO.N,Net-(U3-Pad57)*%
%TA.AperFunction,SMDPad,CuDef*%
G36*
G01*
X145175000Y-97375000D02*
X145175000Y-95975000D01*
G75*
G02*
X145250000Y-95900000I75000J0D01*
G01*
X145400000Y-95900000D01*
G75*
G02*
X145475000Y-95975000I0J-75000D01*
G01*
X145475000Y-97375000D01*
G75*
G02*
X145400000Y-97450000I-75000J0D01*
G01*
X145250000Y-97450000D01*
G75*
G02*
X145175000Y-97375000I0J75000D01*
G01*
G37*
%TD.AperFunction*%
%TO.P,U3,56*%
%TO.N,Net-(U3-Pad56)*%
%TA.AperFunction,SMDPad,CuDef*%
G36*
G01*
X145675000Y-97375000D02*
X145675000Y-95975000D01*
G75*
G02*
X145750000Y-95900000I75000J0D01*
G01*
X145900000Y-95900000D01*
G75*
G02*
X145975000Y-95975000I0J-75000D01*
G01*
X145975000Y-97375000D01*
G75*
G02*
X145900000Y-97450000I-75000J0D01*
G01*
X145750000Y-97450000D01*
G75*
G02*
X145675000Y-97375000I0J75000D01*
G01*
G37*
%TD.AperFunction*%
%TO.P,U3,55*%
%TO.N,Net-(U3-Pad55)*%
%TA.AperFunction,SMDPad,CuDef*%
G36*
G01*
X146175000Y-97375000D02*
X146175000Y-95975000D01*
G75*
G02*
X146250000Y-95900000I75000J0D01*
G01*
X146400000Y-95900000D01*
G75*
G02*
X146475000Y-95975000I0J-75000D01*
G01*
X146475000Y-97375000D01*
G75*
G02*
X146400000Y-97450000I-75000J0D01*
G01*
X146250000Y-97450000D01*
G75*
G02*
X146175000Y-97375000I0J75000D01*
G01*
G37*
%TD.AperFunction*%
%TO.P,U3,54*%
%TO.N,Net-(U3-Pad54)*%
%TA.AperFunction,SMDPad,CuDef*%
G36*
G01*
X146675000Y-97375000D02*
X146675000Y-95975000D01*
G75*
G02*
X146750000Y-95900000I75000J0D01*
G01*
X146900000Y-95900000D01*
G75*
G02*
X146975000Y-95975000I0J-75000D01*
G01*
X146975000Y-97375000D01*
G75*
G02*
X146900000Y-97450000I-75000J0D01*
G01*
X146750000Y-97450000D01*
G75*
G02*
X146675000Y-97375000I0J75000D01*
G01*
G37*
%TD.AperFunction*%
%TO.P,U3,53*%
%TO.N,Net-(U3-Pad53)*%
%TA.AperFunction,SMDPad,CuDef*%
G36*
G01*
X147175000Y-97375000D02*
X147175000Y-95975000D01*
G75*
G02*
X147250000Y-95900000I75000J0D01*
G01*
X147400000Y-95900000D01*
G75*
G02*
X147475000Y-95975000I0J-75000D01*
G01*
X147475000Y-97375000D01*
G75*
G02*
X147400000Y-97450000I-75000J0D01*
G01*
X147250000Y-97450000D01*
G75*
G02*
X147175000Y-97375000I0J75000D01*
G01*
G37*
%TD.AperFunction*%
%TO.P,U3,52*%
%TO.N,UART3_RX*%
%TA.AperFunction,SMDPad,CuDef*%
G36*
G01*
X147675000Y-97375000D02*
X147675000Y-95975000D01*
G75*
G02*
X147750000Y-95900000I75000J0D01*
G01*
X147900000Y-95900000D01*
G75*
G02*
X147975000Y-95975000I0J-75000D01*
G01*
X147975000Y-97375000D01*
G75*
G02*
X147900000Y-97450000I-75000J0D01*
G01*
X147750000Y-97450000D01*
G75*
G02*
X147675000Y-97375000I0J75000D01*
G01*
G37*
%TD.AperFunction*%
%TO.P,U3,51*%
%TO.N,UART3_TX*%
%TA.AperFunction,SMDPad,CuDef*%
G36*
G01*
X148175000Y-97375000D02*
X148175000Y-95975000D01*
G75*
G02*
X148250000Y-95900000I75000J0D01*
G01*
X148400000Y-95900000D01*
G75*
G02*
X148475000Y-95975000I0J-75000D01*
G01*
X148475000Y-97375000D01*
G75*
G02*
X148400000Y-97450000I-75000J0D01*
G01*
X148250000Y-97450000D01*
G75*
G02*
X148175000Y-97375000I0J75000D01*
G01*
G37*
%TD.AperFunction*%
%TO.P,U3,50*%
%TO.N,Net-(U3-Pad50)*%
%TA.AperFunction,SMDPad,CuDef*%
G36*
G01*
X148675000Y-97375000D02*
X148675000Y-95975000D01*
G75*
G02*
X148750000Y-95900000I75000J0D01*
G01*
X148900000Y-95900000D01*
G75*
G02*
X148975000Y-95975000I0J-75000D01*
G01*
X148975000Y-97375000D01*
G75*
G02*
X148900000Y-97450000I-75000J0D01*
G01*
X148750000Y-97450000D01*
G75*
G02*
X148675000Y-97375000I0J75000D01*
G01*
G37*
%TD.AperFunction*%
%TO.P,U3,49*%
%TO.N,SWCLK*%
%TA.AperFunction,SMDPad,CuDef*%
G36*
G01*
X149175000Y-97375000D02*
X149175000Y-95975000D01*
G75*
G02*
X149250000Y-95900000I75000J0D01*
G01*
X149400000Y-95900000D01*
G75*
G02*
X149475000Y-95975000I0J-75000D01*
G01*
X149475000Y-97375000D01*
G75*
G02*
X149400000Y-97450000I-75000J0D01*
G01*
X149250000Y-97450000D01*
G75*
G02*
X149175000Y-97375000I0J75000D01*
G01*
G37*
%TD.AperFunction*%
%TO.P,U3,48*%
%TO.N,+3V3*%
%TA.AperFunction,SMDPad,CuDef*%
G36*
G01*
X150475000Y-98675000D02*
X150475000Y-98525000D01*
G75*
G02*
X150550000Y-98450000I75000J0D01*
G01*
X151950000Y-98450000D01*
G75*
G02*
X152025000Y-98525000I0J-75000D01*
G01*
X152025000Y-98675000D01*
G75*
G02*
X151950000Y-98750000I-75000J0D01*
G01*
X150550000Y-98750000D01*
G75*
G02*
X150475000Y-98675000I0J75000D01*
G01*
G37*
%TD.AperFunction*%
%TO.P,U3,47*%
%TO.N,GND*%
%TA.AperFunction,SMDPad,CuDef*%
G36*
G01*
X150475000Y-99175000D02*
X150475000Y-99025000D01*
G75*
G02*
X150550000Y-98950000I75000J0D01*
G01*
X151950000Y-98950000D01*
G75*
G02*
X152025000Y-99025000I0J-75000D01*
G01*
X152025000Y-99175000D01*
G75*
G02*
X151950000Y-99250000I-75000J0D01*
G01*
X150550000Y-99250000D01*
G75*
G02*
X150475000Y-99175000I0J75000D01*
G01*
G37*
%TD.AperFunction*%
%TO.P,U3,46*%
%TO.N,SWDIO*%
%TA.AperFunction,SMDPad,CuDef*%
G36*
G01*
X150475000Y-99675000D02*
X150475000Y-99525000D01*
G75*
G02*
X150550000Y-99450000I75000J0D01*
G01*
X151950000Y-99450000D01*
G75*
G02*
X152025000Y-99525000I0J-75000D01*
G01*
X152025000Y-99675000D01*
G75*
G02*
X151950000Y-99750000I-75000J0D01*
G01*
X150550000Y-99750000D01*
G75*
G02*
X150475000Y-99675000I0J75000D01*
G01*
G37*
%TD.AperFunction*%
%TO.P,U3,45*%
%TO.N,USB_D+*%
%TA.AperFunction,SMDPad,CuDef*%
G36*
G01*
X150475000Y-100175000D02*
X150475000Y-100025000D01*
G75*
G02*
X150550000Y-99950000I75000J0D01*
G01*
X151950000Y-99950000D01*
G75*
G02*
X152025000Y-100025000I0J-75000D01*
G01*
X152025000Y-100175000D01*
G75*
G02*
X151950000Y-100250000I-75000J0D01*
G01*
X150550000Y-100250000D01*
G75*
G02*
X150475000Y-100175000I0J75000D01*
G01*
G37*
%TD.AperFunction*%
%TO.P,U3,44*%
%TO.N,USB_D-*%
%TA.AperFunction,SMDPad,CuDef*%
G36*
G01*
X150475000Y-100675000D02*
X150475000Y-100525000D01*
G75*
G02*
X150550000Y-100450000I75000J0D01*
G01*
X151950000Y-100450000D01*
G75*
G02*
X152025000Y-100525000I0J-75000D01*
G01*
X152025000Y-100675000D01*
G75*
G02*
X151950000Y-100750000I-75000J0D01*
G01*
X150550000Y-100750000D01*
G75*
G02*
X150475000Y-100675000I0J75000D01*
G01*
G37*
%TD.AperFunction*%
%TO.P,U3,43*%
%TO.N,UART1_RX*%
%TA.AperFunction,SMDPad,CuDef*%
G36*
G01*
X150475000Y-101175000D02*
X150475000Y-101025000D01*
G75*
G02*
X150550000Y-100950000I75000J0D01*
G01*
X151950000Y-100950000D01*
G75*
G02*
X152025000Y-101025000I0J-75000D01*
G01*
X152025000Y-101175000D01*
G75*
G02*
X151950000Y-101250000I-75000J0D01*
G01*
X150550000Y-101250000D01*
G75*
G02*
X150475000Y-101175000I0J75000D01*
G01*
G37*
%TD.AperFunction*%
%TO.P,U3,42*%
%TO.N,UART1_TX*%
%TA.AperFunction,SMDPad,CuDef*%
G36*
G01*
X150475000Y-101675000D02*
X150475000Y-101525000D01*
G75*
G02*
X150550000Y-101450000I75000J0D01*
G01*
X151950000Y-101450000D01*
G75*
G02*
X152025000Y-101525000I0J-75000D01*
G01*
X152025000Y-101675000D01*
G75*
G02*
X151950000Y-101750000I-75000J0D01*
G01*
X150550000Y-101750000D01*
G75*
G02*
X150475000Y-101675000I0J75000D01*
G01*
G37*
%TD.AperFunction*%
%TO.P,U3,41*%
%TO.N,I2C3_SCL*%
%TA.AperFunction,SMDPad,CuDef*%
G36*
G01*
X150475000Y-102175000D02*
X150475000Y-102025000D01*
G75*
G02*
X150550000Y-101950000I75000J0D01*
G01*
X151950000Y-101950000D01*
G75*
G02*
X152025000Y-102025000I0J-75000D01*
G01*
X152025000Y-102175000D01*
G75*
G02*
X151950000Y-102250000I-75000J0D01*
G01*
X150550000Y-102250000D01*
G75*
G02*
X150475000Y-102175000I0J75000D01*
G01*
G37*
%TD.AperFunction*%
%TO.P,U3,40*%
%TO.N,I2C3_SDA*%
%TA.AperFunction,SMDPad,CuDef*%
G36*
G01*
X150475000Y-102675000D02*
X150475000Y-102525000D01*
G75*
G02*
X150550000Y-102450000I75000J0D01*
G01*
X151950000Y-102450000D01*
G75*
G02*
X152025000Y-102525000I0J-75000D01*
G01*
X152025000Y-102675000D01*
G75*
G02*
X151950000Y-102750000I-75000J0D01*
G01*
X150550000Y-102750000D01*
G75*
G02*
X150475000Y-102675000I0J75000D01*
G01*
G37*
%TD.AperFunction*%
%TO.P,U3,39*%
%TO.N,GPS_PPS*%
%TA.AperFunction,SMDPad,CuDef*%
G36*
G01*
X150475000Y-103175000D02*
X150475000Y-103025000D01*
G75*
G02*
X150550000Y-102950000I75000J0D01*
G01*
X151950000Y-102950000D01*
G75*
G02*
X152025000Y-103025000I0J-75000D01*
G01*
X152025000Y-103175000D01*
G75*
G02*
X151950000Y-103250000I-75000J0D01*
G01*
X150550000Y-103250000D01*
G75*
G02*
X150475000Y-103175000I0J75000D01*
G01*
G37*
%TD.AperFunction*%
%TO.P,U3,38*%
%TO.N,GPS_INT*%
%TA.AperFunction,SMDPad,CuDef*%
G36*
G01*
X150475000Y-103675000D02*
X150475000Y-103525000D01*
G75*
G02*
X150550000Y-103450000I75000J0D01*
G01*
X151950000Y-103450000D01*
G75*
G02*
X152025000Y-103525000I0J-75000D01*
G01*
X152025000Y-103675000D01*
G75*
G02*
X151950000Y-103750000I-75000J0D01*
G01*
X150550000Y-103750000D01*
G75*
G02*
X150475000Y-103675000I0J75000D01*
G01*
G37*
%TD.AperFunction*%
%TO.P,U3,37*%
%TO.N,GPS_nRST*%
%TA.AperFunction,SMDPad,CuDef*%
G36*
G01*
X150475000Y-104175000D02*
X150475000Y-104025000D01*
G75*
G02*
X150550000Y-103950000I75000J0D01*
G01*
X151950000Y-103950000D01*
G75*
G02*
X152025000Y-104025000I0J-75000D01*
G01*
X152025000Y-104175000D01*
G75*
G02*
X151950000Y-104250000I-75000J0D01*
G01*
X150550000Y-104250000D01*
G75*
G02*
X150475000Y-104175000I0J75000D01*
G01*
G37*
%TD.AperFunction*%
%TO.P,U3,36*%
%TO.N,BNO_INT*%
%TA.AperFunction,SMDPad,CuDef*%
G36*
G01*
X150475000Y-104675000D02*
X150475000Y-104525000D01*
G75*
G02*
X150550000Y-104450000I75000J0D01*
G01*
X151950000Y-104450000D01*
G75*
G02*
X152025000Y-104525000I0J-75000D01*
G01*
X152025000Y-104675000D01*
G75*
G02*
X151950000Y-104750000I-75000J0D01*
G01*
X150550000Y-104750000D01*
G75*
G02*
X150475000Y-104675000I0J75000D01*
G01*
G37*
%TD.AperFunction*%
%TO.P,U3,35*%
%TO.N,BNO_nRST*%
%TA.AperFunction,SMDPad,CuDef*%
G36*
G01*
X150475000Y-105175000D02*
X150475000Y-105025000D01*
G75*
G02*
X150550000Y-104950000I75000J0D01*
G01*
X151950000Y-104950000D01*
G75*
G02*
X152025000Y-105025000I0J-75000D01*
G01*
X152025000Y-105175000D01*
G75*
G02*
X151950000Y-105250000I-75000J0D01*
G01*
X150550000Y-105250000D01*
G75*
G02*
X150475000Y-105175000I0J75000D01*
G01*
G37*
%TD.AperFunction*%
%TO.P,U3,34*%
%TO.N,Net-(U3-Pad34)*%
%TA.AperFunction,SMDPad,CuDef*%
G36*
G01*
X150475000Y-105675000D02*
X150475000Y-105525000D01*
G75*
G02*
X150550000Y-105450000I75000J0D01*
G01*
X151950000Y-105450000D01*
G75*
G02*
X152025000Y-105525000I0J-75000D01*
G01*
X152025000Y-105675000D01*
G75*
G02*
X151950000Y-105750000I-75000J0D01*
G01*
X150550000Y-105750000D01*
G75*
G02*
X150475000Y-105675000I0J75000D01*
G01*
G37*
%TD.AperFunction*%
%TO.P,U3,33*%
%TO.N,Net-(U3-Pad33)*%
%TA.AperFunction,SMDPad,CuDef*%
G36*
G01*
X150475000Y-106175000D02*
X150475000Y-106025000D01*
G75*
G02*
X150550000Y-105950000I75000J0D01*
G01*
X151950000Y-105950000D01*
G75*
G02*
X152025000Y-106025000I0J-75000D01*
G01*
X152025000Y-106175000D01*
G75*
G02*
X151950000Y-106250000I-75000J0D01*
G01*
X150550000Y-106250000D01*
G75*
G02*
X150475000Y-106175000I0J75000D01*
G01*
G37*
%TD.AperFunction*%
%TO.P,U3,32*%
%TO.N,+3V3*%
%TA.AperFunction,SMDPad,CuDef*%
G36*
G01*
X149175000Y-108725000D02*
X149175000Y-107325000D01*
G75*
G02*
X149250000Y-107250000I75000J0D01*
G01*
X149400000Y-107250000D01*
G75*
G02*
X149475000Y-107325000I0J-75000D01*
G01*
X149475000Y-108725000D01*
G75*
G02*
X149400000Y-108800000I-75000J0D01*
G01*
X149250000Y-108800000D01*
G75*
G02*
X149175000Y-108725000I0J75000D01*
G01*
G37*
%TD.AperFunction*%
%TO.P,U3,31*%
%TO.N,GND*%
%TA.AperFunction,SMDPad,CuDef*%
G36*
G01*
X148675000Y-108725000D02*
X148675000Y-107325000D01*
G75*
G02*
X148750000Y-107250000I75000J0D01*
G01*
X148900000Y-107250000D01*
G75*
G02*
X148975000Y-107325000I0J-75000D01*
G01*
X148975000Y-108725000D01*
G75*
G02*
X148900000Y-108800000I-75000J0D01*
G01*
X148750000Y-108800000D01*
G75*
G02*
X148675000Y-108725000I0J75000D01*
G01*
G37*
%TD.AperFunction*%
%TO.P,U3,30*%
%TO.N,Net-(C5-Pad1)*%
%TA.AperFunction,SMDPad,CuDef*%
G36*
G01*
X148175000Y-108725000D02*
X148175000Y-107325000D01*
G75*
G02*
X148250000Y-107250000I75000J0D01*
G01*
X148400000Y-107250000D01*
G75*
G02*
X148475000Y-107325000I0J-75000D01*
G01*
X148475000Y-108725000D01*
G75*
G02*
X148400000Y-108800000I-75000J0D01*
G01*
X148250000Y-108800000D01*
G75*
G02*
X148175000Y-108725000I0J75000D01*
G01*
G37*
%TD.AperFunction*%
%TO.P,U3,29*%
%TO.N,Net-(U3-Pad29)*%
%TA.AperFunction,SMDPad,CuDef*%
G36*
G01*
X147675000Y-108725000D02*
X147675000Y-107325000D01*
G75*
G02*
X147750000Y-107250000I75000J0D01*
G01*
X147900000Y-107250000D01*
G75*
G02*
X147975000Y-107325000I0J-75000D01*
G01*
X147975000Y-108725000D01*
G75*
G02*
X147900000Y-108800000I-75000J0D01*
G01*
X147750000Y-108800000D01*
G75*
G02*
X147675000Y-108725000I0J75000D01*
G01*
G37*
%TD.AperFunction*%
%TO.P,U3,28*%
%TO.N,BOOT1*%
%TA.AperFunction,SMDPad,CuDef*%
G36*
G01*
X147175000Y-108725000D02*
X147175000Y-107325000D01*
G75*
G02*
X147250000Y-107250000I75000J0D01*
G01*
X147400000Y-107250000D01*
G75*
G02*
X147475000Y-107325000I0J-75000D01*
G01*
X147475000Y-108725000D01*
G75*
G02*
X147400000Y-108800000I-75000J0D01*
G01*
X147250000Y-108800000D01*
G75*
G02*
X147175000Y-108725000I0J75000D01*
G01*
G37*
%TD.AperFunction*%
%TO.P,U3,27*%
%TO.N,Net-(U3-Pad27)*%
%TA.AperFunction,SMDPad,CuDef*%
G36*
G01*
X146675000Y-108725000D02*
X146675000Y-107325000D01*
G75*
G02*
X146750000Y-107250000I75000J0D01*
G01*
X146900000Y-107250000D01*
G75*
G02*
X146975000Y-107325000I0J-75000D01*
G01*
X146975000Y-108725000D01*
G75*
G02*
X146900000Y-108800000I-75000J0D01*
G01*
X146750000Y-108800000D01*
G75*
G02*
X146675000Y-108725000I0J75000D01*
G01*
G37*
%TD.AperFunction*%
%TO.P,U3,26*%
%TO.N,Net-(U3-Pad26)*%
%TA.AperFunction,SMDPad,CuDef*%
G36*
G01*
X146175000Y-108725000D02*
X146175000Y-107325000D01*
G75*
G02*
X146250000Y-107250000I75000J0D01*
G01*
X146400000Y-107250000D01*
G75*
G02*
X146475000Y-107325000I0J-75000D01*
G01*
X146475000Y-108725000D01*
G75*
G02*
X146400000Y-108800000I-75000J0D01*
G01*
X146250000Y-108800000D01*
G75*
G02*
X146175000Y-108725000I0J75000D01*
G01*
G37*
%TD.AperFunction*%
%TO.P,U3,25*%
%TO.N,Net-(U3-Pad25)*%
%TA.AperFunction,SMDPad,CuDef*%
G36*
G01*
X145675000Y-108725000D02*
X145675000Y-107325000D01*
G75*
G02*
X145750000Y-107250000I75000J0D01*
G01*
X145900000Y-107250000D01*
G75*
G02*
X145975000Y-107325000I0J-75000D01*
G01*
X145975000Y-108725000D01*
G75*
G02*
X145900000Y-108800000I-75000J0D01*
G01*
X145750000Y-108800000D01*
G75*
G02*
X145675000Y-108725000I0J75000D01*
G01*
G37*
%TD.AperFunction*%
%TO.P,U3,24*%
%TO.N,Net-(U3-Pad24)*%
%TA.AperFunction,SMDPad,CuDef*%
G36*
G01*
X145175000Y-108725000D02*
X145175000Y-107325000D01*
G75*
G02*
X145250000Y-107250000I75000J0D01*
G01*
X145400000Y-107250000D01*
G75*
G02*
X145475000Y-107325000I0J-75000D01*
G01*
X145475000Y-108725000D01*
G75*
G02*
X145400000Y-108800000I-75000J0D01*
G01*
X145250000Y-108800000D01*
G75*
G02*
X145175000Y-108725000I0J75000D01*
G01*
G37*
%TD.AperFunction*%
%TO.P,U3,23*%
%TO.N,Net-(U3-Pad23)*%
%TA.AperFunction,SMDPad,CuDef*%
G36*
G01*
X144675000Y-108725000D02*
X144675000Y-107325000D01*
G75*
G02*
X144750000Y-107250000I75000J0D01*
G01*
X144900000Y-107250000D01*
G75*
G02*
X144975000Y-107325000I0J-75000D01*
G01*
X144975000Y-108725000D01*
G75*
G02*
X144900000Y-108800000I-75000J0D01*
G01*
X144750000Y-108800000D01*
G75*
G02*
X144675000Y-108725000I0J75000D01*
G01*
G37*
%TD.AperFunction*%
%TO.P,U3,22*%
%TO.N,Net-(U3-Pad22)*%
%TA.AperFunction,SMDPad,CuDef*%
G36*
G01*
X144175000Y-108725000D02*
X144175000Y-107325000D01*
G75*
G02*
X144250000Y-107250000I75000J0D01*
G01*
X144400000Y-107250000D01*
G75*
G02*
X144475000Y-107325000I0J-75000D01*
G01*
X144475000Y-108725000D01*
G75*
G02*
X144400000Y-108800000I-75000J0D01*
G01*
X144250000Y-108800000D01*
G75*
G02*
X144175000Y-108725000I0J75000D01*
G01*
G37*
%TD.AperFunction*%
%TO.P,U3,21*%
%TO.N,GPIO2*%
%TA.AperFunction,SMDPad,CuDef*%
G36*
G01*
X143675000Y-108725000D02*
X143675000Y-107325000D01*
G75*
G02*
X143750000Y-107250000I75000J0D01*
G01*
X143900000Y-107250000D01*
G75*
G02*
X143975000Y-107325000I0J-75000D01*
G01*
X143975000Y-108725000D01*
G75*
G02*
X143900000Y-108800000I-75000J0D01*
G01*
X143750000Y-108800000D01*
G75*
G02*
X143675000Y-108725000I0J75000D01*
G01*
G37*
%TD.AperFunction*%
%TO.P,U3,20*%
%TO.N,GPIO1*%
%TA.AperFunction,SMDPad,CuDef*%
G36*
G01*
X143175000Y-108725000D02*
X143175000Y-107325000D01*
G75*
G02*
X143250000Y-107250000I75000J0D01*
G01*
X143400000Y-107250000D01*
G75*
G02*
X143475000Y-107325000I0J-75000D01*
G01*
X143475000Y-108725000D01*
G75*
G02*
X143400000Y-108800000I-75000J0D01*
G01*
X143250000Y-108800000D01*
G75*
G02*
X143175000Y-108725000I0J75000D01*
G01*
G37*
%TD.AperFunction*%
%TO.P,U3,19*%
%TO.N,+3V3*%
%TA.AperFunction,SMDPad,CuDef*%
G36*
G01*
X142675000Y-108725000D02*
X142675000Y-107325000D01*
G75*
G02*
X142750000Y-107250000I75000J0D01*
G01*
X142900000Y-107250000D01*
G75*
G02*
X142975000Y-107325000I0J-75000D01*
G01*
X142975000Y-108725000D01*
G75*
G02*
X142900000Y-108800000I-75000J0D01*
G01*
X142750000Y-108800000D01*
G75*
G02*
X142675000Y-108725000I0J75000D01*
G01*
G37*
%TD.AperFunction*%
%TO.P,U3,18*%
%TO.N,GND*%
%TA.AperFunction,SMDPad,CuDef*%
G36*
G01*
X142175000Y-108725000D02*
X142175000Y-107325000D01*
G75*
G02*
X142250000Y-107250000I75000J0D01*
G01*
X142400000Y-107250000D01*
G75*
G02*
X142475000Y-107325000I0J-75000D01*
G01*
X142475000Y-108725000D01*
G75*
G02*
X142400000Y-108800000I-75000J0D01*
G01*
X142250000Y-108800000D01*
G75*
G02*
X142175000Y-108725000I0J75000D01*
G01*
G37*
%TD.AperFunction*%
%TO.P,U3,17*%
%TO.N,TIM2_CH4*%
%TA.AperFunction,SMDPad,CuDef*%
G36*
G01*
X141675000Y-108725000D02*
X141675000Y-107325000D01*
G75*
G02*
X141750000Y-107250000I75000J0D01*
G01*
X141900000Y-107250000D01*
G75*
G02*
X141975000Y-107325000I0J-75000D01*
G01*
X141975000Y-108725000D01*
G75*
G02*
X141900000Y-108800000I-75000J0D01*
G01*
X141750000Y-108800000D01*
G75*
G02*
X141675000Y-108725000I0J75000D01*
G01*
G37*
%TD.AperFunction*%
%TO.P,U3,16*%
%TO.N,TIM2_CH3*%
%TA.AperFunction,SMDPad,CuDef*%
G36*
G01*
X139125000Y-106175000D02*
X139125000Y-106025000D01*
G75*
G02*
X139200000Y-105950000I75000J0D01*
G01*
X140600000Y-105950000D01*
G75*
G02*
X140675000Y-106025000I0J-75000D01*
G01*
X140675000Y-106175000D01*
G75*
G02*
X140600000Y-106250000I-75000J0D01*
G01*
X139200000Y-106250000D01*
G75*
G02*
X139125000Y-106175000I0J75000D01*
G01*
G37*
%TD.AperFunction*%
%TO.P,U3,15*%
%TO.N,TIM2_CH2*%
%TA.AperFunction,SMDPad,CuDef*%
G36*
G01*
X139125000Y-105675000D02*
X139125000Y-105525000D01*
G75*
G02*
X139200000Y-105450000I75000J0D01*
G01*
X140600000Y-105450000D01*
G75*
G02*
X140675000Y-105525000I0J-75000D01*
G01*
X140675000Y-105675000D01*
G75*
G02*
X140600000Y-105750000I-75000J0D01*
G01*
X139200000Y-105750000D01*
G75*
G02*
X139125000Y-105675000I0J75000D01*
G01*
G37*
%TD.AperFunction*%
%TO.P,U3,14*%
%TO.N,TIM2_CH1*%
%TA.AperFunction,SMDPad,CuDef*%
G36*
G01*
X139125000Y-105175000D02*
X139125000Y-105025000D01*
G75*
G02*
X139200000Y-104950000I75000J0D01*
G01*
X140600000Y-104950000D01*
G75*
G02*
X140675000Y-105025000I0J-75000D01*
G01*
X140675000Y-105175000D01*
G75*
G02*
X140600000Y-105250000I-75000J0D01*
G01*
X139200000Y-105250000D01*
G75*
G02*
X139125000Y-105175000I0J75000D01*
G01*
G37*
%TD.AperFunction*%
%TO.P,U3,13*%
%TO.N,+3.3VA*%
%TA.AperFunction,SMDPad,CuDef*%
G36*
G01*
X139125000Y-104675000D02*
X139125000Y-104525000D01*
G75*
G02*
X139200000Y-104450000I75000J0D01*
G01*
X140600000Y-104450000D01*
G75*
G02*
X140675000Y-104525000I0J-75000D01*
G01*
X140675000Y-104675000D01*
G75*
G02*
X140600000Y-104750000I-75000J0D01*
G01*
X139200000Y-104750000D01*
G75*
G02*
X139125000Y-104675000I0J75000D01*
G01*
G37*
%TD.AperFunction*%
%TO.P,U3,12*%
%TO.N,GND*%
%TA.AperFunction,SMDPad,CuDef*%
G36*
G01*
X139125000Y-104175000D02*
X139125000Y-104025000D01*
G75*
G02*
X139200000Y-103950000I75000J0D01*
G01*
X140600000Y-103950000D01*
G75*
G02*
X140675000Y-104025000I0J-75000D01*
G01*
X140675000Y-104175000D01*
G75*
G02*
X140600000Y-104250000I-75000J0D01*
G01*
X139200000Y-104250000D01*
G75*
G02*
X139125000Y-104175000I0J75000D01*
G01*
G37*
%TD.AperFunction*%
%TO.P,U3,11*%
%TO.N,Net-(U3-Pad11)*%
%TA.AperFunction,SMDPad,CuDef*%
G36*
G01*
X139125000Y-103675000D02*
X139125000Y-103525000D01*
G75*
G02*
X139200000Y-103450000I75000J0D01*
G01*
X140600000Y-103450000D01*
G75*
G02*
X140675000Y-103525000I0J-75000D01*
G01*
X140675000Y-103675000D01*
G75*
G02*
X140600000Y-103750000I-75000J0D01*
G01*
X139200000Y-103750000D01*
G75*
G02*
X139125000Y-103675000I0J75000D01*
G01*
G37*
%TD.AperFunction*%
%TO.P,U3,10*%
%TO.N,Net-(U3-Pad10)*%
%TA.AperFunction,SMDPad,CuDef*%
G36*
G01*
X139125000Y-103175000D02*
X139125000Y-103025000D01*
G75*
G02*
X139200000Y-102950000I75000J0D01*
G01*
X140600000Y-102950000D01*
G75*
G02*
X140675000Y-103025000I0J-75000D01*
G01*
X140675000Y-103175000D01*
G75*
G02*
X140600000Y-103250000I-75000J0D01*
G01*
X139200000Y-103250000D01*
G75*
G02*
X139125000Y-103175000I0J75000D01*
G01*
G37*
%TD.AperFunction*%
%TO.P,U3,9*%
%TO.N,Net-(U3-Pad9)*%
%TA.AperFunction,SMDPad,CuDef*%
G36*
G01*
X139125000Y-102675000D02*
X139125000Y-102525000D01*
G75*
G02*
X139200000Y-102450000I75000J0D01*
G01*
X140600000Y-102450000D01*
G75*
G02*
X140675000Y-102525000I0J-75000D01*
G01*
X140675000Y-102675000D01*
G75*
G02*
X140600000Y-102750000I-75000J0D01*
G01*
X139200000Y-102750000D01*
G75*
G02*
X139125000Y-102675000I0J75000D01*
G01*
G37*
%TD.AperFunction*%
%TO.P,U3,8*%
%TO.N,Net-(U3-Pad8)*%
%TA.AperFunction,SMDPad,CuDef*%
G36*
G01*
X139125000Y-102175000D02*
X139125000Y-102025000D01*
G75*
G02*
X139200000Y-101950000I75000J0D01*
G01*
X140600000Y-101950000D01*
G75*
G02*
X140675000Y-102025000I0J-75000D01*
G01*
X140675000Y-102175000D01*
G75*
G02*
X140600000Y-102250000I-75000J0D01*
G01*
X139200000Y-102250000D01*
G75*
G02*
X139125000Y-102175000I0J75000D01*
G01*
G37*
%TD.AperFunction*%
%TO.P,U3,7*%
%TO.N,NRST*%
%TA.AperFunction,SMDPad,CuDef*%
G36*
G01*
X139125000Y-101675000D02*
X139125000Y-101525000D01*
G75*
G02*
X139200000Y-101450000I75000J0D01*
G01*
X140600000Y-101450000D01*
G75*
G02*
X140675000Y-101525000I0J-75000D01*
G01*
X140675000Y-101675000D01*
G75*
G02*
X140600000Y-101750000I-75000J0D01*
G01*
X139200000Y-101750000D01*
G75*
G02*
X139125000Y-101675000I0J75000D01*
G01*
G37*
%TD.AperFunction*%
%TO.P,U3,6*%
%TO.N,HSE_OUT*%
%TA.AperFunction,SMDPad,CuDef*%
G36*
G01*
X139125000Y-101175000D02*
X139125000Y-101025000D01*
G75*
G02*
X139200000Y-100950000I75000J0D01*
G01*
X140600000Y-100950000D01*
G75*
G02*
X140675000Y-101025000I0J-75000D01*
G01*
X140675000Y-101175000D01*
G75*
G02*
X140600000Y-101250000I-75000J0D01*
G01*
X139200000Y-101250000D01*
G75*
G02*
X139125000Y-101175000I0J75000D01*
G01*
G37*
%TD.AperFunction*%
%TO.P,U3,5*%
%TO.N,HSE_IN*%
%TA.AperFunction,SMDPad,CuDef*%
G36*
G01*
X139125000Y-100675000D02*
X139125000Y-100525000D01*
G75*
G02*
X139200000Y-100450000I75000J0D01*
G01*
X140600000Y-100450000D01*
G75*
G02*
X140675000Y-100525000I0J-75000D01*
G01*
X140675000Y-100675000D01*
G75*
G02*
X140600000Y-100750000I-75000J0D01*
G01*
X139200000Y-100750000D01*
G75*
G02*
X139125000Y-100675000I0J75000D01*
G01*
G37*
%TD.AperFunction*%
%TO.P,U3,4*%
%TO.N,Net-(U3-Pad4)*%
%TA.AperFunction,SMDPad,CuDef*%
G36*
G01*
X139125000Y-100175000D02*
X139125000Y-100025000D01*
G75*
G02*
X139200000Y-99950000I75000J0D01*
G01*
X140600000Y-99950000D01*
G75*
G02*
X140675000Y-100025000I0J-75000D01*
G01*
X140675000Y-100175000D01*
G75*
G02*
X140600000Y-100250000I-75000J0D01*
G01*
X139200000Y-100250000D01*
G75*
G02*
X139125000Y-100175000I0J75000D01*
G01*
G37*
%TD.AperFunction*%
%TO.P,U3,3*%
%TO.N,Net-(U3-Pad3)*%
%TA.AperFunction,SMDPad,CuDef*%
G36*
G01*
X139125000Y-99675000D02*
X139125000Y-99525000D01*
G75*
G02*
X139200000Y-99450000I75000J0D01*
G01*
X140600000Y-99450000D01*
G75*
G02*
X140675000Y-99525000I0J-75000D01*
G01*
X140675000Y-99675000D01*
G75*
G02*
X140600000Y-99750000I-75000J0D01*
G01*
X139200000Y-99750000D01*
G75*
G02*
X139125000Y-99675000I0J75000D01*
G01*
G37*
%TD.AperFunction*%
%TO.P,U3,2*%
%TO.N,Net-(U3-Pad2)*%
%TA.AperFunction,SMDPad,CuDef*%
G36*
G01*
X139125000Y-99175000D02*
X139125000Y-99025000D01*
G75*
G02*
X139200000Y-98950000I75000J0D01*
G01*
X140600000Y-98950000D01*
G75*
G02*
X140675000Y-99025000I0J-75000D01*
G01*
X140675000Y-99175000D01*
G75*
G02*
X140600000Y-99250000I-75000J0D01*
G01*
X139200000Y-99250000D01*
G75*
G02*
X139125000Y-99175000I0J75000D01*
G01*
G37*
%TD.AperFunction*%
%TO.P,U3,1*%
%TO.N,+3V3*%
%TA.AperFunction,SMDPad,CuDef*%
G36*
G01*
X139125000Y-98675000D02*
X139125000Y-98525000D01*
G75*
G02*
X139200000Y-98450000I75000J0D01*
G01*
X140600000Y-98450000D01*
G75*
G02*
X140675000Y-98525000I0J-75000D01*
G01*
X140675000Y-98675000D01*
G75*
G02*
X140600000Y-98750000I-75000J0D01*
G01*
X139200000Y-98750000D01*
G75*
G02*
X139125000Y-98675000I0J75000D01*
G01*
G37*
%TD.AperFunction*%
%TD*%
D15*
%TO.P,U2,5*%
%TO.N,Vusb*%
X163875000Y-90925000D03*
%TO.P,U2,6*%
%TO.N,USB_D-*%
X164825000Y-90925000D03*
%TO.P,U2,4*%
%TO.N,USB_D+*%
X162925000Y-90925000D03*
%TO.P,U2,3*%
%TO.N,USB_CON_D+*%
X162925000Y-88725000D03*
%TO.P,U2,2*%
%TO.N,GND*%
X163875000Y-88725000D03*
%TO.P,U2,1*%
%TO.N,USB_CON_D-*%
X164825000Y-88725000D03*
%TD*%
%TO.P,U1,5*%
%TO.N,+3V3*%
X143950000Y-86700000D03*
%TO.P,U1,4*%
%TO.N,Net-(U1-Pad4)*%
X145850000Y-86700000D03*
%TO.P,U1,3*%
%TO.N,Net-(C3-Pad1)*%
X145850000Y-88900000D03*
%TO.P,U1,2*%
%TO.N,GND*%
X144900000Y-88900000D03*
%TO.P,U1,1*%
%TO.N,Net-(C3-Pad1)*%
X143950000Y-88900000D03*
%TD*%
D16*
%TO.P,SW1,8*%
%TO.N,GND*%
X167405000Y-122975000D03*
%TO.P,SW1,4*%
%TO.N,GPS_nBOOT*%
X163595000Y-116825000D03*
%TO.P,SW1,7*%
%TO.N,GND*%
X166135000Y-122975000D03*
%TO.P,SW1,3*%
%TO.N,BNO_nBOOT*%
X164865000Y-116825000D03*
%TO.P,SW1,6*%
%TO.N,GND*%
X164865000Y-122975000D03*
%TO.P,SW1,2*%
%TO.N,BOOT1*%
X166135000Y-116825000D03*
%TO.P,SW1,5*%
%TO.N,GND*%
X163595000Y-122975000D03*
%TO.P,SW1,1*%
%TO.N,BOOT0*%
X167405000Y-116825000D03*
%TD*%
%TO.P,R9,2*%
%TO.N,VCC_RF*%
%TA.AperFunction,SMDPad,CuDef*%
G36*
G01*
X170415000Y-99590000D02*
X170785000Y-99590000D01*
G75*
G02*
X170920000Y-99725000I0J-135000D01*
G01*
X170920000Y-99995000D01*
G75*
G02*
X170785000Y-100130000I-135000J0D01*
G01*
X170415000Y-100130000D01*
G75*
G02*
X170280000Y-99995000I0J135000D01*
G01*
X170280000Y-99725000D01*
G75*
G02*
X170415000Y-99590000I135000J0D01*
G01*
G37*
%TD.AperFunction*%
%TO.P,R9,1*%
%TO.N,V_ANT*%
%TA.AperFunction,SMDPad,CuDef*%
G36*
G01*
X170415000Y-98570000D02*
X170785000Y-98570000D01*
G75*
G02*
X170920000Y-98705000I0J-135000D01*
G01*
X170920000Y-98975000D01*
G75*
G02*
X170785000Y-99110000I-135000J0D01*
G01*
X170415000Y-99110000D01*
G75*
G02*
X170280000Y-98975000I0J135000D01*
G01*
X170280000Y-98705000D01*
G75*
G02*
X170415000Y-98570000I135000J0D01*
G01*
G37*
%TD.AperFunction*%
%TD*%
%TO.P,R8,2*%
%TO.N,I2C1_SDA*%
%TA.AperFunction,SMDPad,CuDef*%
G36*
G01*
X144055000Y-94235000D02*
X144055000Y-93865000D01*
G75*
G02*
X144190000Y-93730000I135000J0D01*
G01*
X144460000Y-93730000D01*
G75*
G02*
X144595000Y-93865000I0J-135000D01*
G01*
X144595000Y-94235000D01*
G75*
G02*
X144460000Y-94370000I-135000J0D01*
G01*
X144190000Y-94370000D01*
G75*
G02*
X144055000Y-94235000I0J135000D01*
G01*
G37*
%TD.AperFunction*%
%TO.P,R8,1*%
%TO.N,+3V3*%
%TA.AperFunction,SMDPad,CuDef*%
G36*
G01*
X143035000Y-94235000D02*
X143035000Y-93865000D01*
G75*
G02*
X143170000Y-93730000I135000J0D01*
G01*
X143440000Y-93730000D01*
G75*
G02*
X143575000Y-93865000I0J-135000D01*
G01*
X143575000Y-94235000D01*
G75*
G02*
X143440000Y-94370000I-135000J0D01*
G01*
X143170000Y-94370000D01*
G75*
G02*
X143035000Y-94235000I0J135000D01*
G01*
G37*
%TD.AperFunction*%
%TD*%
%TO.P,R7,2*%
%TO.N,I2C1_SCL*%
%TA.AperFunction,SMDPad,CuDef*%
G36*
G01*
X145770000Y-93865000D02*
X145770000Y-94235000D01*
G75*
G02*
X145635000Y-94370000I-135000J0D01*
G01*
X145365000Y-94370000D01*
G75*
G02*
X145230000Y-94235000I0J135000D01*
G01*
X145230000Y-93865000D01*
G75*
G02*
X145365000Y-93730000I135000J0D01*
G01*
X145635000Y-93730000D01*
G75*
G02*
X145770000Y-93865000I0J-135000D01*
G01*
G37*
%TD.AperFunction*%
%TO.P,R7,1*%
%TO.N,+3V3*%
%TA.AperFunction,SMDPad,CuDef*%
G36*
G01*
X146790000Y-93865000D02*
X146790000Y-94235000D01*
G75*
G02*
X146655000Y-94370000I-135000J0D01*
G01*
X146385000Y-94370000D01*
G75*
G02*
X146250000Y-94235000I0J135000D01*
G01*
X146250000Y-93865000D01*
G75*
G02*
X146385000Y-93730000I135000J0D01*
G01*
X146655000Y-93730000D01*
G75*
G02*
X146790000Y-93865000I0J-135000D01*
G01*
G37*
%TD.AperFunction*%
%TD*%
%TO.P,R6,2*%
%TO.N,GND*%
%TA.AperFunction,SMDPad,CuDef*%
G36*
G01*
X177310000Y-110890000D02*
X177310000Y-111260000D01*
G75*
G02*
X177175000Y-111395000I-135000J0D01*
G01*
X176905000Y-111395000D01*
G75*
G02*
X176770000Y-111260000I0J135000D01*
G01*
X176770000Y-110890000D01*
G75*
G02*
X176905000Y-110755000I135000J0D01*
G01*
X177175000Y-110755000D01*
G75*
G02*
X177310000Y-110890000I0J-135000D01*
G01*
G37*
%TD.AperFunction*%
%TO.P,R6,1*%
%TO.N,Net-(D2-Pad1)*%
%TA.AperFunction,SMDPad,CuDef*%
G36*
G01*
X178330000Y-110890000D02*
X178330000Y-111260000D01*
G75*
G02*
X178195000Y-111395000I-135000J0D01*
G01*
X177925000Y-111395000D01*
G75*
G02*
X177790000Y-111260000I0J135000D01*
G01*
X177790000Y-110890000D01*
G75*
G02*
X177925000Y-110755000I135000J0D01*
G01*
X178195000Y-110755000D01*
G75*
G02*
X178330000Y-110890000I0J-135000D01*
G01*
G37*
%TD.AperFunction*%
%TD*%
%TO.P,R5,2*%
%TO.N,Net-(C6-Pad1)*%
%TA.AperFunction,SMDPad,CuDef*%
G36*
G01*
X137385000Y-101065000D02*
X137385000Y-101435000D01*
G75*
G02*
X137250000Y-101570000I-135000J0D01*
G01*
X136980000Y-101570000D01*
G75*
G02*
X136845000Y-101435000I0J135000D01*
G01*
X136845000Y-101065000D01*
G75*
G02*
X136980000Y-100930000I135000J0D01*
G01*
X137250000Y-100930000D01*
G75*
G02*
X137385000Y-101065000I0J-135000D01*
G01*
G37*
%TD.AperFunction*%
%TO.P,R5,1*%
%TO.N,HSE_OUT*%
%TA.AperFunction,SMDPad,CuDef*%
G36*
G01*
X138405000Y-101065000D02*
X138405000Y-101435000D01*
G75*
G02*
X138270000Y-101570000I-135000J0D01*
G01*
X138000000Y-101570000D01*
G75*
G02*
X137865000Y-101435000I0J135000D01*
G01*
X137865000Y-101065000D01*
G75*
G02*
X138000000Y-100930000I135000J0D01*
G01*
X138270000Y-100930000D01*
G75*
G02*
X138405000Y-101065000I0J-135000D01*
G01*
G37*
%TD.AperFunction*%
%TD*%
%TO.P,R4,2*%
%TO.N,BOOT0*%
%TA.AperFunction,SMDPad,CuDef*%
G36*
G01*
X167245000Y-114990000D02*
X167245000Y-115360000D01*
G75*
G02*
X167110000Y-115495000I-135000J0D01*
G01*
X166840000Y-115495000D01*
G75*
G02*
X166705000Y-115360000I0J135000D01*
G01*
X166705000Y-114990000D01*
G75*
G02*
X166840000Y-114855000I135000J0D01*
G01*
X167110000Y-114855000D01*
G75*
G02*
X167245000Y-114990000I0J-135000D01*
G01*
G37*
%TD.AperFunction*%
%TO.P,R4,1*%
%TO.N,+3V3*%
%TA.AperFunction,SMDPad,CuDef*%
G36*
G01*
X168265000Y-114990000D02*
X168265000Y-115360000D01*
G75*
G02*
X168130000Y-115495000I-135000J0D01*
G01*
X167860000Y-115495000D01*
G75*
G02*
X167725000Y-115360000I0J135000D01*
G01*
X167725000Y-114990000D01*
G75*
G02*
X167860000Y-114855000I135000J0D01*
G01*
X168130000Y-114855000D01*
G75*
G02*
X168265000Y-114990000I0J-135000D01*
G01*
G37*
%TD.AperFunction*%
%TD*%
%TO.P,R3,2*%
%TO.N,BOOT1*%
%TA.AperFunction,SMDPad,CuDef*%
G36*
G01*
X165430000Y-115360000D02*
X165430000Y-114990000D01*
G75*
G02*
X165565000Y-114855000I135000J0D01*
G01*
X165835000Y-114855000D01*
G75*
G02*
X165970000Y-114990000I0J-135000D01*
G01*
X165970000Y-115360000D01*
G75*
G02*
X165835000Y-115495000I-135000J0D01*
G01*
X165565000Y-115495000D01*
G75*
G02*
X165430000Y-115360000I0J135000D01*
G01*
G37*
%TD.AperFunction*%
%TO.P,R3,1*%
%TO.N,+3V3*%
%TA.AperFunction,SMDPad,CuDef*%
G36*
G01*
X164410000Y-115360000D02*
X164410000Y-114990000D01*
G75*
G02*
X164545000Y-114855000I135000J0D01*
G01*
X164815000Y-114855000D01*
G75*
G02*
X164950000Y-114990000I0J-135000D01*
G01*
X164950000Y-115360000D01*
G75*
G02*
X164815000Y-115495000I-135000J0D01*
G01*
X164545000Y-115495000D01*
G75*
G02*
X164410000Y-115360000I0J135000D01*
G01*
G37*
%TD.AperFunction*%
%TD*%
%TO.P,R2,2*%
%TO.N,BNO_nBOOT*%
%TA.AperFunction,SMDPad,CuDef*%
G36*
G01*
X172170000Y-116615000D02*
X172170000Y-116985000D01*
G75*
G02*
X172035000Y-117120000I-135000J0D01*
G01*
X171765000Y-117120000D01*
G75*
G02*
X171630000Y-116985000I0J135000D01*
G01*
X171630000Y-116615000D01*
G75*
G02*
X171765000Y-116480000I135000J0D01*
G01*
X172035000Y-116480000D01*
G75*
G02*
X172170000Y-116615000I0J-135000D01*
G01*
G37*
%TD.AperFunction*%
%TO.P,R2,1*%
%TO.N,+3V3*%
%TA.AperFunction,SMDPad,CuDef*%
G36*
G01*
X173190000Y-116615000D02*
X173190000Y-116985000D01*
G75*
G02*
X173055000Y-117120000I-135000J0D01*
G01*
X172785000Y-117120000D01*
G75*
G02*
X172650000Y-116985000I0J135000D01*
G01*
X172650000Y-116615000D01*
G75*
G02*
X172785000Y-116480000I135000J0D01*
G01*
X173055000Y-116480000D01*
G75*
G02*
X173190000Y-116615000I0J-135000D01*
G01*
G37*
%TD.AperFunction*%
%TD*%
%TO.P,R1,2*%
%TO.N,GPS_nBOOT*%
%TA.AperFunction,SMDPad,CuDef*%
G36*
G01*
X163330000Y-115360000D02*
X163330000Y-114990000D01*
G75*
G02*
X163465000Y-114855000I135000J0D01*
G01*
X163735000Y-114855000D01*
G75*
G02*
X163870000Y-114990000I0J-135000D01*
G01*
X163870000Y-115360000D01*
G75*
G02*
X163735000Y-115495000I-135000J0D01*
G01*
X163465000Y-115495000D01*
G75*
G02*
X163330000Y-115360000I0J135000D01*
G01*
G37*
%TD.AperFunction*%
%TO.P,R1,1*%
%TO.N,+3V3*%
%TA.AperFunction,SMDPad,CuDef*%
G36*
G01*
X162310000Y-115360000D02*
X162310000Y-114990000D01*
G75*
G02*
X162445000Y-114855000I135000J0D01*
G01*
X162715000Y-114855000D01*
G75*
G02*
X162850000Y-114990000I0J-135000D01*
G01*
X162850000Y-115360000D01*
G75*
G02*
X162715000Y-115495000I-135000J0D01*
G01*
X162445000Y-115495000D01*
G75*
G02*
X162310000Y-115360000I0J135000D01*
G01*
G37*
%TD.AperFunction*%
%TD*%
D17*
%TO.P,J8,1*%
%TO.N,RF_IN*%
X177300000Y-103200000D03*
D18*
%TO.P,J8,2*%
%TO.N,GND*%
X177100000Y-100375000D03*
X177100000Y-106025000D03*
%TD*%
D19*
%TO.P,J7,4*%
%TO.N,+3V3*%
X152750000Y-85900000D03*
%TO.P,J7,3*%
%TO.N,UART3_RX*%
X154000000Y-85900000D03*
%TO.P,J7,2*%
%TO.N,UART3_TX*%
X155250000Y-85900000D03*
%TO.P,J7,1*%
%TO.N,GND*%
%TA.AperFunction,ComponentPad*%
G36*
G01*
X156900000Y-85450000D02*
X156900000Y-86350000D01*
G75*
G02*
X156700000Y-86550000I-200000J0D01*
G01*
X156300000Y-86550000D01*
G75*
G02*
X156100000Y-86350000I0J200000D01*
G01*
X156100000Y-85450000D01*
G75*
G02*
X156300000Y-85250000I200000J0D01*
G01*
X156700000Y-85250000D01*
G75*
G02*
X156900000Y-85450000I0J-200000D01*
G01*
G37*
%TD.AperFunction*%
%TD*%
%TO.P,J6,4*%
%TO.N,+3V3*%
X158750000Y-119175000D03*
%TO.P,J6,3*%
%TO.N,I2C3_SCL*%
X157500000Y-119175000D03*
%TO.P,J6,2*%
%TO.N,I2C3_SDA*%
X156250000Y-119175000D03*
%TO.P,J6,1*%
%TO.N,GND*%
%TA.AperFunction,ComponentPad*%
G36*
G01*
X154600000Y-119625000D02*
X154600000Y-118725000D01*
G75*
G02*
X154800000Y-118525000I200000J0D01*
G01*
X155200000Y-118525000D01*
G75*
G02*
X155400000Y-118725000I0J-200000D01*
G01*
X155400000Y-119625000D01*
G75*
G02*
X155200000Y-119825000I-200000J0D01*
G01*
X154800000Y-119825000D01*
G75*
G02*
X154600000Y-119625000I0J200000D01*
G01*
G37*
%TD.AperFunction*%
%TD*%
%TO.P,J5,4*%
%TO.N,+3V3*%
X145825000Y-119150000D03*
%TO.P,J5,3*%
%TO.N,GPIO2*%
X144575000Y-119150000D03*
%TO.P,J5,2*%
%TO.N,GPIO1*%
X143325000Y-119150000D03*
%TO.P,J5,1*%
%TO.N,GND*%
%TA.AperFunction,ComponentPad*%
G36*
G01*
X141675000Y-119600000D02*
X141675000Y-118700000D01*
G75*
G02*
X141875000Y-118500000I200000J0D01*
G01*
X142275000Y-118500000D01*
G75*
G02*
X142475000Y-118700000I0J-200000D01*
G01*
X142475000Y-119600000D01*
G75*
G02*
X142275000Y-119800000I-200000J0D01*
G01*
X141875000Y-119800000D01*
G75*
G02*
X141675000Y-119600000I0J200000D01*
G01*
G37*
%TD.AperFunction*%
%TD*%
D20*
%TO.P,J4,6*%
%TO.N,+3V3*%
X135500000Y-114550000D03*
%TO.P,J4,5*%
%TO.N,TIM2_CH4*%
X135500000Y-113300000D03*
%TO.P,J4,4*%
%TO.N,TIM2_CH3*%
X135500000Y-112050000D03*
%TO.P,J4,3*%
%TO.N,TIM2_CH2*%
X135500000Y-110800000D03*
%TO.P,J4,2*%
%TO.N,TIM2_CH1*%
X135500000Y-109550000D03*
%TO.P,J4,1*%
%TO.N,GND*%
%TA.AperFunction,ComponentPad*%
G36*
G01*
X135050000Y-107900000D02*
X135950000Y-107900000D01*
G75*
G02*
X136150000Y-108100000I0J-200000D01*
G01*
X136150000Y-108500000D01*
G75*
G02*
X135950000Y-108700000I-200000J0D01*
G01*
X135050000Y-108700000D01*
G75*
G02*
X134850000Y-108500000I0J200000D01*
G01*
X134850000Y-108100000D01*
G75*
G02*
X135050000Y-107900000I200000J0D01*
G01*
G37*
%TD.AperFunction*%
%TD*%
%TO.P,J3,2*%
%TO.N,VDD*%
X135525000Y-92225000D03*
%TO.P,J3,1*%
%TO.N,GND*%
%TA.AperFunction,ComponentPad*%
G36*
G01*
X135075000Y-90575000D02*
X135975000Y-90575000D01*
G75*
G02*
X136175000Y-90775000I0J-200000D01*
G01*
X136175000Y-91175000D01*
G75*
G02*
X135975000Y-91375000I-200000J0D01*
G01*
X135075000Y-91375000D01*
G75*
G02*
X134875000Y-91175000I0J200000D01*
G01*
X134875000Y-90775000D01*
G75*
G02*
X135075000Y-90575000I200000J0D01*
G01*
G37*
%TD.AperFunction*%
%TD*%
D21*
%TO.P,J2,10*%
%TO.N,NRST*%
X184930000Y-89820000D03*
%TO.P,J2,9*%
%TO.N,GND*%
X186200000Y-89820000D03*
%TO.P,J2,8*%
%TO.N,Net-(J2-Pad8)*%
X184930000Y-91090000D03*
%TO.P,J2,7*%
%TO.N,Net-(J2-Pad7)*%
X186200000Y-91090000D03*
%TO.P,J2,6*%
%TO.N,Net-(J2-Pad6)*%
X184930000Y-92360000D03*
%TO.P,J2,5*%
%TO.N,GND*%
X186200000Y-92360000D03*
%TO.P,J2,4*%
%TO.N,SWDIO*%
X184930000Y-93630000D03*
%TO.P,J2,3*%
%TO.N,GND*%
X186200000Y-93630000D03*
%TO.P,J2,2*%
%TO.N,SWCLK*%
X184930000Y-94900000D03*
D22*
%TO.P,J2,1*%
%TO.N,+3V3*%
X186200000Y-94900000D03*
%TD*%
D23*
%TO.P,J1,6*%
%TO.N,Net-(J1-Pad6)*%
X166450000Y-82712500D03*
X160650000Y-82712500D03*
D24*
X160050000Y-82712500D03*
X167050000Y-82712500D03*
D25*
X164550000Y-82712500D03*
D26*
X161050000Y-85412500D03*
D27*
%TO.P,J1,3*%
%TO.N,USB_CON_D+*%
X163550000Y-85412500D03*
%TO.P,J1,4*%
%TO.N,Net-(J1-Pad4)*%
X162900000Y-85412500D03*
%TO.P,J1,5*%
%TO.N,GND*%
X162250000Y-85412500D03*
%TO.P,J1,1*%
%TO.N,Vusb*%
X164850000Y-85412500D03*
%TO.P,J1,2*%
%TO.N,USB_CON_D-*%
X164200000Y-85412500D03*
D26*
%TO.P,J1,6*%
%TO.N,Net-(J1-Pad6)*%
X166050000Y-85412500D03*
D25*
X162550000Y-82712500D03*
%TD*%
%TO.P,FB2,2*%
%TO.N,VDD*%
%TA.AperFunction,SMDPad,CuDef*%
G36*
G01*
X139256250Y-87950000D02*
X138743750Y-87950000D01*
G75*
G02*
X138525000Y-87731250I0J218750D01*
G01*
X138525000Y-87293750D01*
G75*
G02*
X138743750Y-87075000I218750J0D01*
G01*
X139256250Y-87075000D01*
G75*
G02*
X139475000Y-87293750I0J-218750D01*
G01*
X139475000Y-87731250D01*
G75*
G02*
X139256250Y-87950000I-218750J0D01*
G01*
G37*
%TD.AperFunction*%
%TO.P,FB2,1*%
%TO.N,Net-(C3-Pad1)*%
%TA.AperFunction,SMDPad,CuDef*%
G36*
G01*
X139256250Y-89525000D02*
X138743750Y-89525000D01*
G75*
G02*
X138525000Y-89306250I0J218750D01*
G01*
X138525000Y-88868750D01*
G75*
G02*
X138743750Y-88650000I218750J0D01*
G01*
X139256250Y-88650000D01*
G75*
G02*
X139475000Y-88868750I0J-218750D01*
G01*
X139475000Y-89306250D01*
G75*
G02*
X139256250Y-89525000I-218750J0D01*
G01*
G37*
%TD.AperFunction*%
%TD*%
%TO.P,FB1,2*%
%TO.N,+3V3*%
%TA.AperFunction,SMDPad,CuDef*%
G36*
G01*
X134300000Y-104593750D02*
X134300000Y-105106250D01*
G75*
G02*
X134081250Y-105325000I-218750J0D01*
G01*
X133643750Y-105325000D01*
G75*
G02*
X133425000Y-105106250I0J218750D01*
G01*
X133425000Y-104593750D01*
G75*
G02*
X133643750Y-104375000I218750J0D01*
G01*
X134081250Y-104375000D01*
G75*
G02*
X134300000Y-104593750I0J-218750D01*
G01*
G37*
%TD.AperFunction*%
%TO.P,FB1,1*%
%TO.N,+3.3VA*%
%TA.AperFunction,SMDPad,CuDef*%
G36*
G01*
X135875000Y-104593750D02*
X135875000Y-105106250D01*
G75*
G02*
X135656250Y-105325000I-218750J0D01*
G01*
X135218750Y-105325000D01*
G75*
G02*
X135000000Y-105106250I0J218750D01*
G01*
X135000000Y-104593750D01*
G75*
G02*
X135218750Y-104375000I218750J0D01*
G01*
X135656250Y-104375000D01*
G75*
G02*
X135875000Y-104593750I0J-218750D01*
G01*
G37*
%TD.AperFunction*%
%TD*%
%TO.P,D2,2*%
%TO.N,BNO_LED*%
%TA.AperFunction,SMDPad,CuDef*%
G36*
G01*
X177200000Y-112118750D02*
X177200000Y-112631250D01*
G75*
G02*
X176981250Y-112850000I-218750J0D01*
G01*
X176543750Y-112850000D01*
G75*
G02*
X176325000Y-112631250I0J218750D01*
G01*
X176325000Y-112118750D01*
G75*
G02*
X176543750Y-111900000I218750J0D01*
G01*
X176981250Y-111900000D01*
G75*
G02*
X177200000Y-112118750I0J-218750D01*
G01*
G37*
%TD.AperFunction*%
%TO.P,D2,1*%
%TO.N,Net-(D2-Pad1)*%
%TA.AperFunction,SMDPad,CuDef*%
G36*
G01*
X178775000Y-112118750D02*
X178775000Y-112631250D01*
G75*
G02*
X178556250Y-112850000I-218750J0D01*
G01*
X178118750Y-112850000D01*
G75*
G02*
X177900000Y-112631250I0J218750D01*
G01*
X177900000Y-112118750D01*
G75*
G02*
X178118750Y-111900000I218750J0D01*
G01*
X178556250Y-111900000D01*
G75*
G02*
X178775000Y-112118750I0J-218750D01*
G01*
G37*
%TD.AperFunction*%
%TD*%
D28*
%TO.P,D1,2*%
%TO.N,Vusb*%
X147250000Y-84200000D03*
%TO.P,D1,1*%
%TO.N,VDD*%
X143950000Y-84200000D03*
%TD*%
%TO.P,C18,2*%
%TO.N,GND*%
%TA.AperFunction,SMDPad,CuDef*%
G36*
G01*
X171870000Y-99175000D02*
X171530000Y-99175000D01*
G75*
G02*
X171390000Y-99035000I0J140000D01*
G01*
X171390000Y-98755000D01*
G75*
G02*
X171530000Y-98615000I140000J0D01*
G01*
X171870000Y-98615000D01*
G75*
G02*
X172010000Y-98755000I0J-140000D01*
G01*
X172010000Y-99035000D01*
G75*
G02*
X171870000Y-99175000I-140000J0D01*
G01*
G37*
%TD.AperFunction*%
%TO.P,C18,1*%
%TO.N,VCC_RF*%
%TA.AperFunction,SMDPad,CuDef*%
G36*
G01*
X171870000Y-100135000D02*
X171530000Y-100135000D01*
G75*
G02*
X171390000Y-99995000I0J140000D01*
G01*
X171390000Y-99715000D01*
G75*
G02*
X171530000Y-99575000I140000J0D01*
G01*
X171870000Y-99575000D01*
G75*
G02*
X172010000Y-99715000I0J-140000D01*
G01*
X172010000Y-99995000D01*
G75*
G02*
X171870000Y-100135000I-140000J0D01*
G01*
G37*
%TD.AperFunction*%
%TD*%
%TO.P,C17,2*%
%TO.N,GND*%
%TA.AperFunction,SMDPad,CuDef*%
G36*
G01*
X142025000Y-109430000D02*
X142025000Y-109770000D01*
G75*
G02*
X141885000Y-109910000I-140000J0D01*
G01*
X141605000Y-109910000D01*
G75*
G02*
X141465000Y-109770000I0J140000D01*
G01*
X141465000Y-109430000D01*
G75*
G02*
X141605000Y-109290000I140000J0D01*
G01*
X141885000Y-109290000D01*
G75*
G02*
X142025000Y-109430000I0J-140000D01*
G01*
G37*
%TD.AperFunction*%
%TO.P,C17,1*%
%TO.N,+3V3*%
%TA.AperFunction,SMDPad,CuDef*%
G36*
G01*
X142985000Y-109430000D02*
X142985000Y-109770000D01*
G75*
G02*
X142845000Y-109910000I-140000J0D01*
G01*
X142565000Y-109910000D01*
G75*
G02*
X142425000Y-109770000I0J140000D01*
G01*
X142425000Y-109430000D01*
G75*
G02*
X142565000Y-109290000I140000J0D01*
G01*
X142845000Y-109290000D01*
G75*
G02*
X142985000Y-109430000I0J-140000D01*
G01*
G37*
%TD.AperFunction*%
%TD*%
%TO.P,C16,2*%
%TO.N,GND*%
%TA.AperFunction,SMDPad,CuDef*%
G36*
G01*
X139100000Y-97455000D02*
X139100000Y-97795000D01*
G75*
G02*
X138960000Y-97935000I-140000J0D01*
G01*
X138680000Y-97935000D01*
G75*
G02*
X138540000Y-97795000I0J140000D01*
G01*
X138540000Y-97455000D01*
G75*
G02*
X138680000Y-97315000I140000J0D01*
G01*
X138960000Y-97315000D01*
G75*
G02*
X139100000Y-97455000I0J-140000D01*
G01*
G37*
%TD.AperFunction*%
%TO.P,C16,1*%
%TO.N,+3V3*%
%TA.AperFunction,SMDPad,CuDef*%
G36*
G01*
X140060000Y-97455000D02*
X140060000Y-97795000D01*
G75*
G02*
X139920000Y-97935000I-140000J0D01*
G01*
X139640000Y-97935000D01*
G75*
G02*
X139500000Y-97795000I0J140000D01*
G01*
X139500000Y-97455000D01*
G75*
G02*
X139640000Y-97315000I140000J0D01*
G01*
X139920000Y-97315000D01*
G75*
G02*
X140060000Y-97455000I0J-140000D01*
G01*
G37*
%TD.AperFunction*%
%TD*%
%TO.P,C15,2*%
%TO.N,GND*%
%TA.AperFunction,SMDPad,CuDef*%
G36*
G01*
X141020000Y-95870000D02*
X140680000Y-95870000D01*
G75*
G02*
X140540000Y-95730000I0J140000D01*
G01*
X140540000Y-95450000D01*
G75*
G02*
X140680000Y-95310000I140000J0D01*
G01*
X141020000Y-95310000D01*
G75*
G02*
X141160000Y-95450000I0J-140000D01*
G01*
X141160000Y-95730000D01*
G75*
G02*
X141020000Y-95870000I-140000J0D01*
G01*
G37*
%TD.AperFunction*%
%TO.P,C15,1*%
%TO.N,+3V3*%
%TA.AperFunction,SMDPad,CuDef*%
G36*
G01*
X141020000Y-96830000D02*
X140680000Y-96830000D01*
G75*
G02*
X140540000Y-96690000I0J140000D01*
G01*
X140540000Y-96410000D01*
G75*
G02*
X140680000Y-96270000I140000J0D01*
G01*
X141020000Y-96270000D01*
G75*
G02*
X141160000Y-96410000I0J-140000D01*
G01*
X141160000Y-96690000D01*
G75*
G02*
X141020000Y-96830000I-140000J0D01*
G01*
G37*
%TD.AperFunction*%
%TD*%
%TO.P,C14,2*%
%TO.N,GND*%
%TA.AperFunction,SMDPad,CuDef*%
G36*
G01*
X152025000Y-97795000D02*
X152025000Y-97455000D01*
G75*
G02*
X152165000Y-97315000I140000J0D01*
G01*
X152445000Y-97315000D01*
G75*
G02*
X152585000Y-97455000I0J-140000D01*
G01*
X152585000Y-97795000D01*
G75*
G02*
X152445000Y-97935000I-140000J0D01*
G01*
X152165000Y-97935000D01*
G75*
G02*
X152025000Y-97795000I0J140000D01*
G01*
G37*
%TD.AperFunction*%
%TO.P,C14,1*%
%TO.N,+3V3*%
%TA.AperFunction,SMDPad,CuDef*%
G36*
G01*
X151065000Y-97795000D02*
X151065000Y-97455000D01*
G75*
G02*
X151205000Y-97315000I140000J0D01*
G01*
X151485000Y-97315000D01*
G75*
G02*
X151625000Y-97455000I0J-140000D01*
G01*
X151625000Y-97795000D01*
G75*
G02*
X151485000Y-97935000I-140000J0D01*
G01*
X151205000Y-97935000D01*
G75*
G02*
X151065000Y-97795000I0J140000D01*
G01*
G37*
%TD.AperFunction*%
%TD*%
%TO.P,C13,2*%
%TO.N,GND*%
%TA.AperFunction,SMDPad,CuDef*%
G36*
G01*
X150130000Y-108825000D02*
X150470000Y-108825000D01*
G75*
G02*
X150610000Y-108965000I0J-140000D01*
G01*
X150610000Y-109245000D01*
G75*
G02*
X150470000Y-109385000I-140000J0D01*
G01*
X150130000Y-109385000D01*
G75*
G02*
X149990000Y-109245000I0J140000D01*
G01*
X149990000Y-108965000D01*
G75*
G02*
X150130000Y-108825000I140000J0D01*
G01*
G37*
%TD.AperFunction*%
%TO.P,C13,1*%
%TO.N,+3V3*%
%TA.AperFunction,SMDPad,CuDef*%
G36*
G01*
X150130000Y-107865000D02*
X150470000Y-107865000D01*
G75*
G02*
X150610000Y-108005000I0J-140000D01*
G01*
X150610000Y-108285000D01*
G75*
G02*
X150470000Y-108425000I-140000J0D01*
G01*
X150130000Y-108425000D01*
G75*
G02*
X149990000Y-108285000I0J140000D01*
G01*
X149990000Y-108005000D01*
G75*
G02*
X150130000Y-107865000I140000J0D01*
G01*
G37*
%TD.AperFunction*%
%TD*%
%TO.P,C12,2*%
%TO.N,GND*%
%TA.AperFunction,SMDPad,CuDef*%
G36*
G01*
X151130000Y-108825000D02*
X151470000Y-108825000D01*
G75*
G02*
X151610000Y-108965000I0J-140000D01*
G01*
X151610000Y-109245000D01*
G75*
G02*
X151470000Y-109385000I-140000J0D01*
G01*
X151130000Y-109385000D01*
G75*
G02*
X150990000Y-109245000I0J140000D01*
G01*
X150990000Y-108965000D01*
G75*
G02*
X151130000Y-108825000I140000J0D01*
G01*
G37*
%TD.AperFunction*%
%TO.P,C12,1*%
%TO.N,+3V3*%
%TA.AperFunction,SMDPad,CuDef*%
G36*
G01*
X151130000Y-107865000D02*
X151470000Y-107865000D01*
G75*
G02*
X151610000Y-108005000I0J-140000D01*
G01*
X151610000Y-108285000D01*
G75*
G02*
X151470000Y-108425000I-140000J0D01*
G01*
X151130000Y-108425000D01*
G75*
G02*
X150990000Y-108285000I0J140000D01*
G01*
X150990000Y-108005000D01*
G75*
G02*
X151130000Y-107865000I140000J0D01*
G01*
G37*
%TD.AperFunction*%
%TD*%
%TO.P,C11,2*%
%TO.N,GND*%
%TA.AperFunction,SMDPad,CuDef*%
G36*
G01*
X175100000Y-113295000D02*
X175100000Y-112955000D01*
G75*
G02*
X175240000Y-112815000I140000J0D01*
G01*
X175520000Y-112815000D01*
G75*
G02*
X175660000Y-112955000I0J-140000D01*
G01*
X175660000Y-113295000D01*
G75*
G02*
X175520000Y-113435000I-140000J0D01*
G01*
X175240000Y-113435000D01*
G75*
G02*
X175100000Y-113295000I0J140000D01*
G01*
G37*
%TD.AperFunction*%
%TO.P,C11,1*%
%TO.N,Net-(C11-Pad1)*%
%TA.AperFunction,SMDPad,CuDef*%
G36*
G01*
X174140000Y-113295000D02*
X174140000Y-112955000D01*
G75*
G02*
X174280000Y-112815000I140000J0D01*
G01*
X174560000Y-112815000D01*
G75*
G02*
X174700000Y-112955000I0J-140000D01*
G01*
X174700000Y-113295000D01*
G75*
G02*
X174560000Y-113435000I-140000J0D01*
G01*
X174280000Y-113435000D01*
G75*
G02*
X174140000Y-113295000I0J140000D01*
G01*
G37*
%TD.AperFunction*%
%TD*%
%TO.P,C10,2*%
%TO.N,GND*%
%TA.AperFunction,SMDPad,CuDef*%
G36*
G01*
X152200000Y-89295000D02*
X152200000Y-88955000D01*
G75*
G02*
X152340000Y-88815000I140000J0D01*
G01*
X152620000Y-88815000D01*
G75*
G02*
X152760000Y-88955000I0J-140000D01*
G01*
X152760000Y-89295000D01*
G75*
G02*
X152620000Y-89435000I-140000J0D01*
G01*
X152340000Y-89435000D01*
G75*
G02*
X152200000Y-89295000I0J140000D01*
G01*
G37*
%TD.AperFunction*%
%TO.P,C10,1*%
%TO.N,+3V3*%
%TA.AperFunction,SMDPad,CuDef*%
G36*
G01*
X151240000Y-89295000D02*
X151240000Y-88955000D01*
G75*
G02*
X151380000Y-88815000I140000J0D01*
G01*
X151660000Y-88815000D01*
G75*
G02*
X151800000Y-88955000I0J-140000D01*
G01*
X151800000Y-89295000D01*
G75*
G02*
X151660000Y-89435000I-140000J0D01*
G01*
X151380000Y-89435000D01*
G75*
G02*
X151240000Y-89295000I0J140000D01*
G01*
G37*
%TD.AperFunction*%
%TD*%
%TO.P,C9,2*%
%TO.N,GND*%
%TA.AperFunction,SMDPad,CuDef*%
G36*
G01*
X170550000Y-115530000D02*
X170550000Y-115870000D01*
G75*
G02*
X170410000Y-116010000I-140000J0D01*
G01*
X170130000Y-116010000D01*
G75*
G02*
X169990000Y-115870000I0J140000D01*
G01*
X169990000Y-115530000D01*
G75*
G02*
X170130000Y-115390000I140000J0D01*
G01*
X170410000Y-115390000D01*
G75*
G02*
X170550000Y-115530000I0J-140000D01*
G01*
G37*
%TD.AperFunction*%
%TO.P,C9,1*%
%TO.N,+3V3*%
%TA.AperFunction,SMDPad,CuDef*%
G36*
G01*
X171510000Y-115530000D02*
X171510000Y-115870000D01*
G75*
G02*
X171370000Y-116010000I-140000J0D01*
G01*
X171090000Y-116010000D01*
G75*
G02*
X170950000Y-115870000I0J140000D01*
G01*
X170950000Y-115530000D01*
G75*
G02*
X171090000Y-115390000I140000J0D01*
G01*
X171370000Y-115390000D01*
G75*
G02*
X171510000Y-115530000I0J-140000D01*
G01*
G37*
%TD.AperFunction*%
%TD*%
%TO.P,C8,2*%
%TO.N,GND*%
%TA.AperFunction,SMDPad,CuDef*%
G36*
G01*
X168970000Y-112925000D02*
X168630000Y-112925000D01*
G75*
G02*
X168490000Y-112785000I0J140000D01*
G01*
X168490000Y-112505000D01*
G75*
G02*
X168630000Y-112365000I140000J0D01*
G01*
X168970000Y-112365000D01*
G75*
G02*
X169110000Y-112505000I0J-140000D01*
G01*
X169110000Y-112785000D01*
G75*
G02*
X168970000Y-112925000I-140000J0D01*
G01*
G37*
%TD.AperFunction*%
%TO.P,C8,1*%
%TO.N,+3V3*%
%TA.AperFunction,SMDPad,CuDef*%
G36*
G01*
X168970000Y-113885000D02*
X168630000Y-113885000D01*
G75*
G02*
X168490000Y-113745000I0J140000D01*
G01*
X168490000Y-113465000D01*
G75*
G02*
X168630000Y-113325000I140000J0D01*
G01*
X168970000Y-113325000D01*
G75*
G02*
X169110000Y-113465000I0J-140000D01*
G01*
X169110000Y-113745000D01*
G75*
G02*
X168970000Y-113885000I-140000J0D01*
G01*
G37*
%TD.AperFunction*%
%TD*%
%TO.P,C7,2*%
%TO.N,GND*%
%TA.AperFunction,SMDPad,CuDef*%
G36*
G01*
X134025000Y-98780000D02*
X134025000Y-99120000D01*
G75*
G02*
X133885000Y-99260000I-140000J0D01*
G01*
X133605000Y-99260000D01*
G75*
G02*
X133465000Y-99120000I0J140000D01*
G01*
X133465000Y-98780000D01*
G75*
G02*
X133605000Y-98640000I140000J0D01*
G01*
X133885000Y-98640000D01*
G75*
G02*
X134025000Y-98780000I0J-140000D01*
G01*
G37*
%TD.AperFunction*%
%TO.P,C7,1*%
%TO.N,HSE_IN*%
%TA.AperFunction,SMDPad,CuDef*%
G36*
G01*
X134985000Y-98780000D02*
X134985000Y-99120000D01*
G75*
G02*
X134845000Y-99260000I-140000J0D01*
G01*
X134565000Y-99260000D01*
G75*
G02*
X134425000Y-99120000I0J140000D01*
G01*
X134425000Y-98780000D01*
G75*
G02*
X134565000Y-98640000I140000J0D01*
G01*
X134845000Y-98640000D01*
G75*
G02*
X134985000Y-98780000I0J-140000D01*
G01*
G37*
%TD.AperFunction*%
%TD*%
%TO.P,C6,2*%
%TO.N,GND*%
%TA.AperFunction,SMDPad,CuDef*%
G36*
G01*
X134425000Y-103720000D02*
X134425000Y-103380000D01*
G75*
G02*
X134565000Y-103240000I140000J0D01*
G01*
X134845000Y-103240000D01*
G75*
G02*
X134985000Y-103380000I0J-140000D01*
G01*
X134985000Y-103720000D01*
G75*
G02*
X134845000Y-103860000I-140000J0D01*
G01*
X134565000Y-103860000D01*
G75*
G02*
X134425000Y-103720000I0J140000D01*
G01*
G37*
%TD.AperFunction*%
%TO.P,C6,1*%
%TO.N,Net-(C6-Pad1)*%
%TA.AperFunction,SMDPad,CuDef*%
G36*
G01*
X133465000Y-103720000D02*
X133465000Y-103380000D01*
G75*
G02*
X133605000Y-103240000I140000J0D01*
G01*
X133885000Y-103240000D01*
G75*
G02*
X134025000Y-103380000I0J-140000D01*
G01*
X134025000Y-103720000D01*
G75*
G02*
X133885000Y-103860000I-140000J0D01*
G01*
X133605000Y-103860000D01*
G75*
G02*
X133465000Y-103720000I0J140000D01*
G01*
G37*
%TD.AperFunction*%
%TD*%
%TO.P,C5,2*%
%TO.N,GND*%
%TA.AperFunction,SMDPad,CuDef*%
G36*
G01*
X148775000Y-109770000D02*
X148775000Y-109430000D01*
G75*
G02*
X148915000Y-109290000I140000J0D01*
G01*
X149195000Y-109290000D01*
G75*
G02*
X149335000Y-109430000I0J-140000D01*
G01*
X149335000Y-109770000D01*
G75*
G02*
X149195000Y-109910000I-140000J0D01*
G01*
X148915000Y-109910000D01*
G75*
G02*
X148775000Y-109770000I0J140000D01*
G01*
G37*
%TD.AperFunction*%
%TO.P,C5,1*%
%TO.N,Net-(C5-Pad1)*%
%TA.AperFunction,SMDPad,CuDef*%
G36*
G01*
X147815000Y-109770000D02*
X147815000Y-109430000D01*
G75*
G02*
X147955000Y-109290000I140000J0D01*
G01*
X148235000Y-109290000D01*
G75*
G02*
X148375000Y-109430000I0J-140000D01*
G01*
X148375000Y-109770000D01*
G75*
G02*
X148235000Y-109910000I-140000J0D01*
G01*
X147955000Y-109910000D01*
G75*
G02*
X147815000Y-109770000I0J140000D01*
G01*
G37*
%TD.AperFunction*%
%TD*%
%TO.P,C4,2*%
%TO.N,GND*%
%TA.AperFunction,SMDPad,CuDef*%
G36*
G01*
X142405000Y-87375000D02*
X142745000Y-87375000D01*
G75*
G02*
X142885000Y-87515000I0J-140000D01*
G01*
X142885000Y-87795000D01*
G75*
G02*
X142745000Y-87935000I-140000J0D01*
G01*
X142405000Y-87935000D01*
G75*
G02*
X142265000Y-87795000I0J140000D01*
G01*
X142265000Y-87515000D01*
G75*
G02*
X142405000Y-87375000I140000J0D01*
G01*
G37*
%TD.AperFunction*%
%TO.P,C4,1*%
%TO.N,+3V3*%
%TA.AperFunction,SMDPad,CuDef*%
G36*
G01*
X142405000Y-86415000D02*
X142745000Y-86415000D01*
G75*
G02*
X142885000Y-86555000I0J-140000D01*
G01*
X142885000Y-86835000D01*
G75*
G02*
X142745000Y-86975000I-140000J0D01*
G01*
X142405000Y-86975000D01*
G75*
G02*
X142265000Y-86835000I0J140000D01*
G01*
X142265000Y-86555000D01*
G75*
G02*
X142405000Y-86415000I140000J0D01*
G01*
G37*
%TD.AperFunction*%
%TD*%
%TO.P,C3,2*%
%TO.N,GND*%
%TA.AperFunction,SMDPad,CuDef*%
G36*
G01*
X142357020Y-89770000D02*
X142697020Y-89770000D01*
G75*
G02*
X142837020Y-89910000I0J-140000D01*
G01*
X142837020Y-90190000D01*
G75*
G02*
X142697020Y-90330000I-140000J0D01*
G01*
X142357020Y-90330000D01*
G75*
G02*
X142217020Y-90190000I0J140000D01*
G01*
X142217020Y-89910000D01*
G75*
G02*
X142357020Y-89770000I140000J0D01*
G01*
G37*
%TD.AperFunction*%
%TO.P,C3,1*%
%TO.N,Net-(C3-Pad1)*%
%TA.AperFunction,SMDPad,CuDef*%
G36*
G01*
X142357020Y-88810000D02*
X142697020Y-88810000D01*
G75*
G02*
X142837020Y-88950000I0J-140000D01*
G01*
X142837020Y-89230000D01*
G75*
G02*
X142697020Y-89370000I-140000J0D01*
G01*
X142357020Y-89370000D01*
G75*
G02*
X142217020Y-89230000I0J140000D01*
G01*
X142217020Y-88950000D01*
G75*
G02*
X142357020Y-88810000I140000J0D01*
G01*
G37*
%TD.AperFunction*%
%TD*%
%TO.P,C2,2*%
%TO.N,GND*%
%TA.AperFunction,SMDPad,CuDef*%
G36*
G01*
X137445000Y-104150000D02*
X137105000Y-104150000D01*
G75*
G02*
X136965000Y-104010000I0J140000D01*
G01*
X136965000Y-103730000D01*
G75*
G02*
X137105000Y-103590000I140000J0D01*
G01*
X137445000Y-103590000D01*
G75*
G02*
X137585000Y-103730000I0J-140000D01*
G01*
X137585000Y-104010000D01*
G75*
G02*
X137445000Y-104150000I-140000J0D01*
G01*
G37*
%TD.AperFunction*%
%TO.P,C2,1*%
%TO.N,+3.3VA*%
%TA.AperFunction,SMDPad,CuDef*%
G36*
G01*
X137445000Y-105110000D02*
X137105000Y-105110000D01*
G75*
G02*
X136965000Y-104970000I0J140000D01*
G01*
X136965000Y-104690000D01*
G75*
G02*
X137105000Y-104550000I140000J0D01*
G01*
X137445000Y-104550000D01*
G75*
G02*
X137585000Y-104690000I0J-140000D01*
G01*
X137585000Y-104970000D01*
G75*
G02*
X137445000Y-105110000I-140000J0D01*
G01*
G37*
%TD.AperFunction*%
%TD*%
%TO.P,C1,2*%
%TO.N,GND*%
%TA.AperFunction,SMDPad,CuDef*%
G36*
G01*
X138495000Y-104150000D02*
X138155000Y-104150000D01*
G75*
G02*
X138015000Y-104010000I0J140000D01*
G01*
X138015000Y-103730000D01*
G75*
G02*
X138155000Y-103590000I140000J0D01*
G01*
X138495000Y-103590000D01*
G75*
G02*
X138635000Y-103730000I0J-140000D01*
G01*
X138635000Y-104010000D01*
G75*
G02*
X138495000Y-104150000I-140000J0D01*
G01*
G37*
%TD.AperFunction*%
%TO.P,C1,1*%
%TO.N,+3.3VA*%
%TA.AperFunction,SMDPad,CuDef*%
G36*
G01*
X138495000Y-105110000D02*
X138155000Y-105110000D01*
G75*
G02*
X138015000Y-104970000I0J140000D01*
G01*
X138015000Y-104690000D01*
G75*
G02*
X138155000Y-104550000I140000J0D01*
G01*
X138495000Y-104550000D01*
G75*
G02*
X138635000Y-104690000I0J-140000D01*
G01*
X138635000Y-104970000D01*
G75*
G02*
X138495000Y-105110000I-140000J0D01*
G01*
G37*
%TD.AperFunction*%
%TD*%
D29*
%TO.N,GND*%
X172625000Y-98900000D03*
X176150000Y-111075000D03*
X142521940Y-90954860D03*
X154325000Y-92800000D03*
X153350000Y-89125000D03*
X149825000Y-90250000D03*
X168800000Y-111700000D03*
X175375000Y-114000000D03*
X172925000Y-115700000D03*
X174550000Y-114875000D03*
X169375000Y-115700000D03*
X171900000Y-108400000D03*
X172900000Y-108400000D03*
X170900000Y-108400000D03*
X174550000Y-109400000D03*
X150300000Y-110075000D03*
X151300000Y-110075000D03*
X149050000Y-110500000D03*
X152300000Y-96725000D03*
X139950000Y-95600000D03*
X135575000Y-103550000D03*
X138825000Y-96725000D03*
X141675000Y-87650000D03*
X161625000Y-89500000D03*
X162250000Y-86850000D03*
X163575000Y-121825000D03*
X164875000Y-121825000D03*
X166125000Y-121825000D03*
X167425000Y-121825000D03*
X132850000Y-98950000D03*
X137250000Y-103000000D03*
X138350000Y-103000000D03*
X141750000Y-110500000D03*
X161150000Y-96650000D03*
X170400000Y-104300000D03*
X170400000Y-102100000D03*
X173100000Y-104300000D03*
X173000000Y-102100000D03*
X171700000Y-104300000D03*
X171700000Y-102100000D03*
X174050000Y-105250000D03*
X174000000Y-101100000D03*
%TO.N,+3V3*%
X143300000Y-93100000D03*
X147400000Y-94050000D03*
X152400000Y-93625000D03*
X154325000Y-90075000D03*
X150650000Y-89125000D03*
X168800000Y-114475000D03*
X167975000Y-114275000D03*
X164675000Y-114275000D03*
X162575000Y-114275000D03*
X173800000Y-116800000D03*
X170900000Y-116700000D03*
X151350000Y-96725000D03*
X139950000Y-96550000D03*
X150300000Y-107150000D03*
X151300000Y-107150000D03*
X140775000Y-97625000D03*
X141675000Y-86700000D03*
X142575000Y-85825000D03*
X141675000Y-85825000D03*
X132700000Y-104850000D03*
X142700000Y-110500000D03*
X160800000Y-103200000D03*
X160800000Y-102100000D03*
X160800000Y-101000000D03*
%TO.N,NRST*%
X149250000Y-106000000D03*
X158500000Y-107600000D03*
X174950000Y-93975000D03*
X174950000Y-90500000D03*
%TO.N,SWDIO*%
X162700000Y-92250000D03*
X165325000Y-92250000D03*
%TO.N,SWCLK*%
X158450000Y-93975000D03*
X151100000Y-95575000D03*
%TO.N,UART3_TX*%
X148900000Y-95125000D03*
%TO.N,UART3_RX*%
X147250000Y-95125000D03*
%TO.N,BOOT1*%
X165700000Y-113850000D03*
X147300000Y-110500000D03*
%TO.N,BOOT0*%
X166950000Y-113900000D03*
X148550000Y-111750000D03*
X146350000Y-111750000D03*
X143850000Y-100350000D03*
%TO.N,I2C1_SCL*%
X167300000Y-96600000D03*
X145100000Y-98350000D03*
X169850000Y-108400000D03*
%TO.N,I2C1_SDA*%
X144700000Y-99350000D03*
X166350000Y-97350000D03*
X168650000Y-109450000D03*
%TO.N,UART1_TX*%
X157250000Y-97050000D03*
X157250000Y-98650000D03*
%TO.N,GPS_nRST*%
X155600000Y-104100000D03*
X158300000Y-105650000D03*
%TO.N,GPS_INT*%
X153950000Y-103800000D03*
X157150000Y-100550000D03*
%TO.N,GPS_PPS*%
X153217638Y-103225001D03*
X156166942Y-100616942D03*
%TO.N,BNO_INT*%
X172250000Y-110900000D03*
X154150000Y-109350000D03*
%TO.N,BNO_nRST*%
X154350000Y-110650000D03*
X172250000Y-111950000D03*
%TD*%
D30*
%TO.N,GND*%
X172620000Y-98895000D02*
X172625000Y-98900000D01*
X171700000Y-98895000D02*
X172620000Y-98895000D01*
X137275000Y-103870000D02*
X138325000Y-103870000D01*
X177040000Y-111075000D02*
X176150000Y-111075000D01*
X142527020Y-90949780D02*
X142521940Y-90954860D01*
X142527020Y-90050000D02*
X142527020Y-90949780D01*
X152480000Y-90157500D02*
X152400000Y-90237500D01*
X152480000Y-89125000D02*
X152480000Y-90157500D01*
X153907500Y-91905000D02*
X153200000Y-92612500D01*
X154325000Y-91905000D02*
X153907500Y-91905000D01*
X154325000Y-91905000D02*
X154325000Y-92800000D01*
X152480000Y-89125000D02*
X153350000Y-89125000D01*
X149837500Y-90237500D02*
X149825000Y-90250000D01*
X150800000Y-90237500D02*
X149837500Y-90237500D01*
X170270000Y-115142500D02*
X170270000Y-115700000D01*
X170900000Y-114512500D02*
X170270000Y-115142500D01*
X169070000Y-112375000D02*
X169987500Y-112375000D01*
X168800000Y-112645000D02*
X169070000Y-112375000D01*
X168800000Y-112645000D02*
X168800000Y-111700000D01*
X175380000Y-113995000D02*
X175375000Y-114000000D01*
X175380000Y-113125000D02*
X175380000Y-113995000D01*
X172400000Y-115175000D02*
X172925000Y-115700000D01*
X172400000Y-114512500D02*
X172400000Y-115175000D01*
X174050000Y-114375000D02*
X174550000Y-114875000D01*
X173312500Y-114375000D02*
X174050000Y-114375000D01*
X170270000Y-115700000D02*
X169375000Y-115700000D01*
X171900000Y-109737500D02*
X171900000Y-108400000D01*
X172400000Y-108900000D02*
X172900000Y-108400000D01*
X172400000Y-109737500D02*
X172400000Y-108900000D01*
X171400000Y-108900000D02*
X170900000Y-108400000D01*
X171400000Y-109737500D02*
X171400000Y-108900000D01*
X174075000Y-109875000D02*
X174550000Y-109400000D01*
X173312500Y-109875000D02*
X174075000Y-109875000D01*
X134705000Y-102720000D02*
X135325000Y-102100000D01*
X134705000Y-103550000D02*
X134705000Y-102720000D01*
X133745000Y-99780000D02*
X133125000Y-100400000D01*
X133745000Y-98950000D02*
X133745000Y-99780000D01*
X151300000Y-109105000D02*
X150300000Y-109105000D01*
X148825000Y-109370000D02*
X148825000Y-108025000D01*
X149055000Y-109600000D02*
X148825000Y-109370000D01*
X149805000Y-109600000D02*
X150300000Y-109105000D01*
X149055000Y-109600000D02*
X149805000Y-109600000D01*
X150300000Y-109105000D02*
X150300000Y-110075000D01*
X151300000Y-109105000D02*
X151300000Y-110075000D01*
X149055000Y-110495000D02*
X149050000Y-110500000D01*
X149055000Y-109600000D02*
X149055000Y-110495000D01*
X152305000Y-98820000D02*
X152305000Y-97625000D01*
X152025000Y-99100000D02*
X152305000Y-98820000D01*
X151250000Y-99100000D02*
X152025000Y-99100000D01*
X152305000Y-96730000D02*
X152300000Y-96725000D01*
X152305000Y-97625000D02*
X152305000Y-96730000D01*
X141939280Y-95590000D02*
X140850000Y-95590000D01*
X142325000Y-95975720D02*
X141939280Y-95590000D01*
X142325000Y-96675000D02*
X142325000Y-95975720D01*
X139960000Y-95590000D02*
X139950000Y-95600000D01*
X140850000Y-95590000D02*
X139960000Y-95590000D01*
X134705000Y-103550000D02*
X135575000Y-103550000D01*
X138820000Y-96730000D02*
X138825000Y-96725000D01*
X138820000Y-97625000D02*
X138820000Y-96730000D01*
X142325000Y-109020000D02*
X141745000Y-109600000D01*
X142325000Y-108025000D02*
X142325000Y-109020000D01*
D31*
X141680000Y-87655000D02*
X141675000Y-87650000D01*
X142575000Y-87655000D02*
X141680000Y-87655000D01*
X142527020Y-90050000D02*
X144530000Y-90050000D01*
X144530000Y-90050000D02*
X144900000Y-89680000D01*
X144900000Y-89680000D02*
X144900000Y-88900000D01*
D30*
X163410002Y-89500000D02*
X161625000Y-89500000D01*
X163875000Y-89035002D02*
X163410002Y-89500000D01*
X163875000Y-88725000D02*
X163875000Y-89035002D01*
X162250000Y-85412500D02*
X162250000Y-86850000D01*
X163595000Y-121845000D02*
X163575000Y-121825000D01*
X163595000Y-122975000D02*
X163595000Y-121845000D01*
X164865000Y-121835000D02*
X164875000Y-121825000D01*
X164865000Y-122975000D02*
X164865000Y-121835000D01*
X166135000Y-121835000D02*
X166125000Y-121825000D01*
X166135000Y-122975000D02*
X166135000Y-121835000D01*
X167405000Y-121845000D02*
X167425000Y-121825000D01*
X167405000Y-122975000D02*
X167405000Y-121845000D01*
X133745000Y-98950000D02*
X132850000Y-98950000D01*
X137275000Y-103025000D02*
X137250000Y-103000000D01*
X137275000Y-103870000D02*
X137275000Y-103025000D01*
X138325000Y-103025000D02*
X138350000Y-103000000D01*
X138325000Y-103870000D02*
X138325000Y-103025000D01*
X138555000Y-104100000D02*
X139900000Y-104100000D01*
X138325000Y-103870000D02*
X138555000Y-104100000D01*
X141745000Y-110495000D02*
X141750000Y-110500000D01*
X141745000Y-109600000D02*
X141745000Y-110495000D01*
X159350000Y-95500000D02*
X160500000Y-95500000D01*
X160500000Y-95500000D02*
X160750000Y-95500000D01*
X160750000Y-95500000D02*
X161150000Y-95900000D01*
X161150000Y-95900000D02*
X161150000Y-96650000D01*
D32*
X177100000Y-100375000D02*
X174725000Y-100375000D01*
X174725000Y-100375000D02*
X174000000Y-101100000D01*
X177100000Y-106025000D02*
X174825000Y-106025000D01*
X174825000Y-106025000D02*
X174050000Y-105250000D01*
X170400000Y-104300000D02*
X168850000Y-104300000D01*
X170400000Y-102100000D02*
X168850000Y-102100000D01*
X173100000Y-104300000D02*
X171700000Y-104300000D01*
X171700000Y-104300000D02*
X170400000Y-104300000D01*
X173000000Y-102100000D02*
X171700000Y-102100000D01*
X171700000Y-102100000D02*
X170400000Y-102100000D01*
X174050000Y-105250000D02*
X173100000Y-104300000D01*
X174000000Y-101100000D02*
X173000000Y-102100000D01*
D30*
%TO.N,+3.3VA*%
X137275000Y-104830000D02*
X138325000Y-104830000D01*
X135457500Y-104830000D02*
X135437500Y-104850000D01*
X137275000Y-104830000D02*
X135457500Y-104830000D01*
X138555000Y-104600000D02*
X139900000Y-104600000D01*
X138325000Y-104830000D02*
X138555000Y-104600000D01*
%TO.N,Net-(C3-Pad1)*%
X143760000Y-89090000D02*
X143950000Y-88900000D01*
X142527020Y-89090000D02*
X143760000Y-89090000D01*
D31*
X143950000Y-88409998D02*
X144559998Y-87800000D01*
X143950000Y-88900000D02*
X143950000Y-88409998D01*
X144559998Y-87800000D02*
X145240002Y-87800000D01*
X145850000Y-88409998D02*
X145850000Y-88900000D01*
X145240002Y-87800000D02*
X145850000Y-88409998D01*
X142524520Y-89087500D02*
X142527020Y-89090000D01*
X139000000Y-89087500D02*
X142524520Y-89087500D01*
D30*
%TO.N,+3V3*%
X143305000Y-93105000D02*
X143300000Y-93100000D01*
X143305000Y-94050000D02*
X143305000Y-93105000D01*
X146520000Y-94050000D02*
X147400000Y-94050000D01*
X151520000Y-90157500D02*
X151600000Y-90237500D01*
X151520000Y-89125000D02*
X151520000Y-90157500D01*
X153907500Y-90945000D02*
X153200000Y-90237500D01*
X154325000Y-90945000D02*
X153907500Y-90945000D01*
X152400000Y-92612500D02*
X152400000Y-93625000D01*
X154325000Y-90945000D02*
X154325000Y-90075000D01*
X151520000Y-89125000D02*
X150650000Y-89125000D01*
X171400000Y-115530000D02*
X171400000Y-114512500D01*
X171230000Y-115700000D02*
X171400000Y-115530000D01*
X169070000Y-113875000D02*
X169987500Y-113875000D01*
X168800000Y-113605000D02*
X169070000Y-113875000D01*
X168800000Y-113605000D02*
X168800000Y-114475000D01*
X167995000Y-114295000D02*
X167975000Y-114275000D01*
X167995000Y-115175000D02*
X167995000Y-114295000D01*
X164680000Y-114280000D02*
X164675000Y-114275000D01*
X164680000Y-115175000D02*
X164680000Y-114280000D01*
X162580000Y-114280000D02*
X162575000Y-114275000D01*
X162580000Y-115175000D02*
X162580000Y-114280000D01*
X172920000Y-116800000D02*
X173800000Y-116800000D01*
X171230000Y-116370000D02*
X170900000Y-116700000D01*
X171230000Y-115700000D02*
X171230000Y-116370000D01*
X150300000Y-108145000D02*
X151300000Y-108145000D01*
X150180000Y-108025000D02*
X150300000Y-108145000D01*
X149325000Y-108025000D02*
X150180000Y-108025000D01*
X151345000Y-98505000D02*
X151250000Y-98600000D01*
X151345000Y-97625000D02*
X151345000Y-98505000D01*
X151345000Y-96730000D02*
X151350000Y-96725000D01*
X151345000Y-97625000D02*
X151345000Y-96730000D01*
X141700000Y-96550000D02*
X141825000Y-96675000D01*
X140850000Y-96550000D02*
X141700000Y-96550000D01*
X140850000Y-96550000D02*
X139950000Y-96550000D01*
X150300000Y-108145000D02*
X150300000Y-107150000D01*
X151300000Y-108145000D02*
X151300000Y-107150000D01*
X139900000Y-97745000D02*
X139780000Y-97625000D01*
X139900000Y-98600000D02*
X139900000Y-97745000D01*
X139780000Y-97625000D02*
X140775000Y-97625000D01*
X142825000Y-109480000D02*
X142705000Y-109600000D01*
X142825000Y-108025000D02*
X142825000Y-109480000D01*
D31*
X143945000Y-86695000D02*
X143950000Y-86700000D01*
X142575000Y-86695000D02*
X143945000Y-86695000D01*
X141680000Y-86695000D02*
X141675000Y-86700000D01*
X142575000Y-86695000D02*
X142545000Y-86695000D01*
D30*
X133862500Y-104850000D02*
X132700000Y-104850000D01*
X142705000Y-110495000D02*
X142700000Y-110500000D01*
X142705000Y-109600000D02*
X142705000Y-110495000D01*
X159350000Y-103200000D02*
X160800000Y-103200000D01*
X159350000Y-102100000D02*
X160800000Y-102100000D01*
X159350000Y-101000000D02*
X160800000Y-101000000D01*
%TO.N,Net-(C5-Pad1)*%
X148325000Y-109370000D02*
X148325000Y-108025000D01*
X148095000Y-109600000D02*
X148325000Y-109370000D01*
%TO.N,Net-(C6-Pad1)*%
X133745000Y-102720000D02*
X133125000Y-102100000D01*
X133745000Y-103550000D02*
X133745000Y-102720000D01*
X133975000Y-101250000D02*
X133125000Y-102100000D01*
X137115000Y-101250000D02*
X133975000Y-101250000D01*
%TO.N,HSE_IN*%
X134705000Y-99780000D02*
X135325000Y-100400000D01*
X134705000Y-98950000D02*
X134705000Y-99780000D01*
X135525000Y-100600000D02*
X135325000Y-100400000D01*
X139900000Y-100600000D02*
X135525000Y-100600000D01*
%TO.N,Net-(C11-Pad1)*%
X174170000Y-112875000D02*
X174420000Y-113125000D01*
X173312500Y-112875000D02*
X174170000Y-112875000D01*
%TO.N,VCC_RF*%
X171695000Y-99860000D02*
X171700000Y-99855000D01*
X170600000Y-99860000D02*
X171695000Y-99860000D01*
X170560000Y-99900000D02*
X170600000Y-99860000D01*
X168850000Y-99900000D02*
X170560000Y-99900000D01*
%TO.N,Vusb*%
X164850000Y-85412500D02*
X164850000Y-84550000D01*
X164850000Y-84550000D02*
X164500000Y-84200000D01*
X161400000Y-84200000D02*
X147250000Y-84200000D01*
X164500000Y-84200000D02*
X161400000Y-84200000D01*
X163875000Y-90925000D02*
X163875000Y-90550000D01*
X163875000Y-90550000D02*
X164275000Y-90150000D01*
X164275000Y-90150000D02*
X165400000Y-90150000D01*
X165400000Y-90150000D02*
X165675000Y-89875000D01*
X165675000Y-89875000D02*
X165675000Y-88050000D01*
X164850000Y-87225000D02*
X164850000Y-85412500D01*
X165675000Y-88050000D02*
X164850000Y-87225000D01*
D31*
%TO.N,VDD*%
X138962500Y-87475000D02*
X139000000Y-87512500D01*
X143950000Y-84200000D02*
X141400000Y-84200000D01*
X141400000Y-84200000D02*
X139000000Y-86600000D01*
X139000000Y-86600000D02*
X139000000Y-87512500D01*
X135525000Y-92225000D02*
X137025000Y-92225000D01*
X137025000Y-92225000D02*
X137675000Y-91575000D01*
X137675000Y-91575000D02*
X137675000Y-87925000D01*
X138087500Y-87512500D02*
X139000000Y-87512500D01*
X137675000Y-87925000D02*
X138087500Y-87512500D01*
D30*
%TO.N,BNO_LED*%
X176762500Y-112375000D02*
X173312500Y-112375000D01*
%TO.N,Net-(D2-Pad1)*%
X178060000Y-112097500D02*
X178337500Y-112375000D01*
X178060000Y-111075000D02*
X178060000Y-112097500D01*
D33*
%TO.N,Net-(J1-Pad6)*%
X160650000Y-82712500D02*
X166450000Y-82712500D01*
X166450000Y-82712500D02*
X167050000Y-82712500D01*
X160650000Y-82712500D02*
X160050000Y-82712500D01*
D34*
%TO.N,USB_CON_D+*%
X163550000Y-86425001D02*
X163550000Y-85412500D01*
X163650000Y-86525001D02*
X163550000Y-86425001D01*
X163650000Y-87204999D02*
X163650000Y-86525001D01*
X162925000Y-87929999D02*
X163650000Y-87204999D01*
X162925000Y-88725000D02*
X162925000Y-87929999D01*
%TO.N,USB_CON_D-*%
X164200000Y-86425001D02*
X164200000Y-85412500D01*
X164100000Y-87204999D02*
X164100000Y-86525001D01*
X164825000Y-87929999D02*
X164100000Y-87204999D01*
X164100000Y-86525001D02*
X164200000Y-86425001D01*
X164825000Y-88725000D02*
X164825000Y-87929999D01*
D30*
%TO.N,NRST*%
X139900000Y-101600000D02*
X144850000Y-101600000D01*
X144850000Y-101600000D02*
X147800000Y-104550000D01*
X147800000Y-104550000D02*
X147800000Y-105300000D01*
X148500000Y-106000000D02*
X149250000Y-106000000D01*
X147800000Y-105300000D02*
X148500000Y-106000000D01*
X158500000Y-107600000D02*
X160350000Y-107600000D01*
X160350000Y-107600000D02*
X162350000Y-105600000D01*
X162350000Y-105600000D02*
X162350000Y-98505012D01*
X162350000Y-98505012D02*
X162350000Y-96150000D01*
X162350000Y-96150000D02*
X164100000Y-94400000D01*
X174525000Y-94400000D02*
X174950000Y-93975000D01*
X164100000Y-94400000D02*
X174525000Y-94400000D01*
X175630000Y-89820000D02*
X184930000Y-89820000D01*
X174950000Y-90500000D02*
X175630000Y-89820000D01*
%TO.N,SWDIO*%
X152025000Y-99600000D02*
X154175000Y-97450000D01*
X151250000Y-99600000D02*
X152025000Y-99600000D01*
X154175000Y-97450000D02*
X154175000Y-95300000D01*
X157300000Y-92175000D02*
X158450000Y-92175000D01*
X154175000Y-95300000D02*
X157300000Y-92175000D01*
X162625000Y-92175000D02*
X162700000Y-92250000D01*
X158450000Y-92175000D02*
X162625000Y-92175000D01*
X165995000Y-91580000D02*
X165325000Y-92250000D01*
X184930000Y-93630000D02*
X181430000Y-93630000D01*
X179380000Y-91580000D02*
X165995000Y-91580000D01*
X181430000Y-93630000D02*
X179380000Y-91580000D01*
%TO.N,SWCLK*%
X151100000Y-95575000D02*
X149450000Y-95575000D01*
X149325000Y-95700000D02*
X149325000Y-96675000D01*
X149450000Y-95575000D02*
X149325000Y-95700000D01*
X158450000Y-93975000D02*
X165275000Y-93975000D01*
X165275000Y-93975000D02*
X165900000Y-93350000D01*
X165900000Y-93350000D02*
X178700000Y-93350000D01*
X180250000Y-94900000D02*
X184930000Y-94900000D01*
X178700000Y-93350000D02*
X180250000Y-94900000D01*
%TO.N,TIM2_CH1*%
X139200720Y-105100000D02*
X139900000Y-105100000D01*
X138965710Y-105335010D02*
X139200720Y-105100000D01*
X138014990Y-105335010D02*
X138965710Y-105335010D01*
X137450000Y-105900000D02*
X138014990Y-105335010D01*
X137450000Y-108600000D02*
X137450000Y-105900000D01*
X136500000Y-109550000D02*
X137450000Y-108600000D01*
X135500000Y-109550000D02*
X136500000Y-109550000D01*
%TO.N,TIM2_CH2*%
X139195708Y-105600000D02*
X139110688Y-105685020D01*
X139900000Y-105600000D02*
X139195708Y-105600000D01*
X137950000Y-105900000D02*
X137944988Y-105900000D01*
X138164980Y-105685020D02*
X137950000Y-105900000D01*
X139110688Y-105685020D02*
X138164980Y-105685020D01*
X136400000Y-110800000D02*
X135500000Y-110800000D01*
X137944988Y-109255012D02*
X136400000Y-110800000D01*
X137944988Y-105900000D02*
X137944988Y-109255012D01*
%TO.N,TIM2_CH3*%
X138800000Y-106100000D02*
X139900000Y-106100000D01*
X138550000Y-106350000D02*
X138800000Y-106100000D01*
X138550000Y-110400000D02*
X138550000Y-106350000D01*
X136900000Y-112050000D02*
X138550000Y-110400000D01*
X135500000Y-112050000D02*
X136900000Y-112050000D01*
%TO.N,TIM2_CH4*%
X141825000Y-108025000D02*
X141825000Y-108875000D01*
X141825000Y-108875000D02*
X141700000Y-109000000D01*
X141700000Y-109000000D02*
X140000000Y-109000000D01*
X140000000Y-109000000D02*
X139300000Y-109700000D01*
X139300000Y-109700000D02*
X139300000Y-110900000D01*
X136900000Y-113300000D02*
X135500000Y-113300000D01*
X139300000Y-110900000D02*
X136900000Y-113300000D01*
%TO.N,GPIO1*%
X143325000Y-108025000D02*
X143325000Y-119150000D01*
%TO.N,GPIO2*%
X144575000Y-119150000D02*
X144575000Y-110350000D01*
X143825000Y-109600000D02*
X143825000Y-108025000D01*
X144575000Y-110350000D02*
X143825000Y-109600000D01*
%TO.N,I2C3_SDA*%
X155450000Y-102600000D02*
X151250000Y-102600000D01*
X156250000Y-103400000D02*
X155450000Y-102600000D01*
X156250000Y-119175000D02*
X156250000Y-103400000D01*
%TO.N,I2C3_SCL*%
X157500000Y-119175000D02*
X157500000Y-102900000D01*
X156700000Y-102100000D02*
X151250000Y-102100000D01*
X157500000Y-102900000D02*
X156700000Y-102100000D01*
%TO.N,UART3_TX*%
X148325000Y-95700000D02*
X148900000Y-95125000D01*
X148325000Y-96675000D02*
X148325000Y-95700000D01*
%TO.N,UART3_RX*%
X147825000Y-95700000D02*
X147250000Y-95125000D01*
X147825000Y-96675000D02*
X147825000Y-95700000D01*
D35*
%TO.N,RF_IN*%
X168850000Y-103200000D02*
X177300000Y-103200000D01*
D30*
%TO.N,GPS_nBOOT*%
X163600000Y-116820000D02*
X163595000Y-116825000D01*
X163600000Y-115175000D02*
X163600000Y-116820000D01*
X163600000Y-97750000D02*
X163600000Y-115175000D01*
X165850000Y-95500000D02*
X163600000Y-97750000D01*
X168850000Y-95500000D02*
X165850000Y-95500000D01*
%TO.N,BNO_nBOOT*%
X164865000Y-117700000D02*
X165515000Y-118350000D01*
X164865000Y-116825000D02*
X164865000Y-117700000D01*
X165515000Y-118350000D02*
X171175000Y-118350000D01*
X171900000Y-117625000D02*
X171900000Y-114512500D01*
X171175000Y-118350000D02*
X171900000Y-117625000D01*
%TO.N,BOOT1*%
X165700000Y-116390000D02*
X166135000Y-116825000D01*
X165700000Y-115175000D02*
X165700000Y-116390000D01*
X165700000Y-115175000D02*
X165700000Y-113850000D01*
X147325000Y-110475000D02*
X147300000Y-110500000D01*
X147325000Y-108025000D02*
X147325000Y-110475000D01*
%TO.N,BOOT0*%
X166975000Y-116395000D02*
X167405000Y-116825000D01*
X166975000Y-115175000D02*
X166975000Y-116395000D01*
X166975000Y-113925000D02*
X166950000Y-113900000D01*
X166975000Y-115175000D02*
X166975000Y-113925000D01*
X148550000Y-111750000D02*
X146350000Y-111750000D01*
X143850000Y-96700000D02*
X143825000Y-96675000D01*
X143850000Y-100350000D02*
X143850000Y-96700000D01*
%TO.N,HSE_OUT*%
X138285000Y-101100000D02*
X138135000Y-101250000D01*
X139900000Y-101100000D02*
X138285000Y-101100000D01*
%TO.N,I2C1_SCL*%
X147112500Y-92612500D02*
X150800000Y-92612500D01*
X146187500Y-92612500D02*
X147112500Y-92612500D01*
X145500000Y-94800000D02*
X145500000Y-93300000D01*
X145500000Y-93300000D02*
X146187500Y-92612500D01*
X144825000Y-95475000D02*
X145500000Y-94800000D01*
X144825000Y-96675000D02*
X144825000Y-95475000D01*
X168850000Y-96600000D02*
X167300000Y-96600000D01*
X144825000Y-98075000D02*
X144825000Y-96675000D01*
X145100000Y-98350000D02*
X144825000Y-98075000D01*
X170900000Y-109450000D02*
X169850000Y-108400000D01*
X170900000Y-109737500D02*
X170900000Y-109450000D01*
%TO.N,I2C1_SDA*%
X151600000Y-92350000D02*
X150825000Y-91575000D01*
X151600000Y-92612500D02*
X151600000Y-92350000D01*
X150825000Y-91575000D02*
X146000000Y-91575000D01*
X146000000Y-91575000D02*
X144325000Y-93250000D01*
X144325000Y-94700000D02*
X144325000Y-96675000D01*
X144325000Y-93250000D02*
X144325000Y-94700000D01*
X144325000Y-98975000D02*
X144700000Y-99350000D01*
X144325000Y-96675000D02*
X144325000Y-98975000D01*
X166700000Y-97700000D02*
X166350000Y-97350000D01*
X168850000Y-97700000D02*
X166700000Y-97700000D01*
X169075000Y-109875000D02*
X168650000Y-109450000D01*
X169987500Y-109875000D02*
X169075000Y-109875000D01*
%TO.N,V_ANT*%
X170560000Y-98800000D02*
X170600000Y-98840000D01*
X168850000Y-98800000D02*
X170560000Y-98800000D01*
D34*
%TO.N,USB_D-*%
X151250000Y-100600000D02*
X151275000Y-100575000D01*
X151275000Y-100575000D02*
X153018200Y-100575000D01*
X153018200Y-100575000D02*
X156075000Y-97518200D01*
X156075000Y-97518200D02*
X156075000Y-95118200D01*
X156075000Y-95118200D02*
X157893200Y-93300000D01*
X164825000Y-91130000D02*
X164100000Y-91855000D01*
X164825000Y-90925000D02*
X164825000Y-91130000D01*
X164100000Y-91855000D02*
X164100000Y-92593200D01*
X164100000Y-92593200D02*
X163393200Y-93300000D01*
X163393200Y-93300000D02*
X157893200Y-93300000D01*
%TO.N,USB_D+*%
X152831800Y-100125000D02*
X151275000Y-100125000D01*
X154504871Y-98451928D02*
X152831800Y-100125000D01*
X154546755Y-98399405D02*
X154504871Y-98451928D01*
X154575902Y-98338879D02*
X154546755Y-98399405D01*
X154590851Y-98273385D02*
X154575902Y-98338879D01*
X154590851Y-98206206D02*
X154590851Y-98273385D01*
X154575902Y-98140712D02*
X154590851Y-98206206D01*
X155174857Y-97689381D02*
X155107678Y-97689381D01*
X155107678Y-97689381D02*
X155042184Y-97674432D01*
X155240351Y-97674432D02*
X155174857Y-97689381D01*
X162925000Y-90925000D02*
X162925000Y-91130000D01*
X155625000Y-97331800D02*
X155353400Y-97603400D01*
X154617919Y-97532367D02*
X154557393Y-97561514D01*
X155625000Y-94931800D02*
X155625000Y-97331800D01*
X157706800Y-92850000D02*
X155625000Y-94931800D01*
X154981658Y-97645285D02*
X154876612Y-97561514D01*
X163206800Y-92850000D02*
X157706800Y-92850000D01*
X162925000Y-91130000D02*
X163650000Y-91855000D01*
X163650000Y-92406800D02*
X163206800Y-92850000D01*
X155300877Y-97645285D02*
X155240351Y-97674432D01*
X154504870Y-97603400D02*
X154462984Y-97655922D01*
X155353400Y-97603400D02*
X155300877Y-97645285D01*
X163650000Y-91855000D02*
X163650000Y-92406800D01*
X155042184Y-97674432D02*
X154981658Y-97645285D01*
X154876612Y-97561514D02*
X154816086Y-97532367D01*
X154462984Y-97975141D02*
X154546755Y-98080186D01*
X154816086Y-97532367D02*
X154750592Y-97517418D01*
X154750592Y-97517418D02*
X154683413Y-97517418D01*
X154683413Y-97517418D02*
X154617919Y-97532367D01*
X154557393Y-97561514D02*
X154504870Y-97603400D01*
X154462984Y-97655922D02*
X154433837Y-97716448D01*
X154433837Y-97716448D02*
X154418888Y-97781942D01*
X151275000Y-100125000D02*
X151250000Y-100100000D01*
X154418888Y-97781942D02*
X154418888Y-97849121D01*
X154418888Y-97849121D02*
X154433837Y-97914615D01*
X154433837Y-97914615D02*
X154462984Y-97975141D01*
X154546755Y-98080186D02*
X154575902Y-98140712D01*
D30*
%TO.N,UART1_RX*%
X151250000Y-101100000D02*
X153850000Y-101100000D01*
X157250000Y-97700000D02*
X159350000Y-97700000D01*
X153850000Y-101100000D02*
X157250000Y-97700000D01*
%TO.N,UART1_TX*%
X157700000Y-96600000D02*
X157250000Y-97050000D01*
X159350000Y-96600000D02*
X157700000Y-96600000D01*
X154300000Y-101600000D02*
X151250000Y-101600000D01*
X157250000Y-98650000D02*
X154300000Y-101600000D01*
%TO.N,GPS_nRST*%
X158300000Y-105650000D02*
X159050000Y-105650000D01*
X159350000Y-105350000D02*
X159350000Y-104300000D01*
X159050000Y-105650000D02*
X159350000Y-105350000D01*
X151250000Y-104100000D02*
X152050000Y-104100000D01*
X152050000Y-104100000D02*
X152650000Y-104700000D01*
X155000000Y-104700000D02*
X155600000Y-104100000D01*
X152650000Y-104700000D02*
X155000000Y-104700000D01*
%TO.N,GPS_INT*%
X153899999Y-103850001D02*
X153950000Y-103800000D01*
X152799999Y-103850001D02*
X153899999Y-103850001D01*
X152549998Y-103600000D02*
X152799999Y-103850001D01*
X151250000Y-103600000D02*
X152549998Y-103600000D01*
X157800000Y-99900000D02*
X159350000Y-99900000D01*
X157150000Y-100550000D02*
X157800000Y-99900000D01*
%TO.N,GPS_PPS*%
X157983884Y-98800000D02*
X159350000Y-98800000D01*
X153092637Y-103100000D02*
X153217638Y-103225001D01*
X151250000Y-103100000D02*
X153092637Y-103100000D01*
X156166942Y-100616942D02*
X157983884Y-98800000D01*
%TO.N,BNO_INT*%
X172775000Y-110375000D02*
X172250000Y-110900000D01*
X173312500Y-110375000D02*
X172775000Y-110375000D01*
X152019988Y-104600000D02*
X151250000Y-104600000D01*
X154150000Y-106730012D02*
X152019988Y-104600000D01*
X154150000Y-109350000D02*
X154150000Y-106730012D01*
%TO.N,BNO_nRST*%
X152025000Y-105100000D02*
X153300000Y-106375000D01*
X151250000Y-105100000D02*
X152025000Y-105100000D01*
X153300000Y-109600000D02*
X154350000Y-110650000D01*
X153300000Y-106375000D02*
X153300000Y-109600000D01*
X172325000Y-111875000D02*
X172250000Y-111950000D01*
X173312500Y-111875000D02*
X172325000Y-111875000D01*
%TD*%
D31*
%TO.N,+3V3*%
X142750000Y-86875000D02*
X141500000Y-86875000D01*
X141500000Y-85650000D01*
X142750000Y-85650000D01*
X142750000Y-86875000D01*
%TA.AperFunction,Conductor*%
D36*
G36*
X142750000Y-86875000D02*
G01*
X141500000Y-86875000D01*
X141500000Y-85650000D01*
X142750000Y-85650000D01*
X142750000Y-86875000D01*
G37*
%TD.AperFunction*%
%TD*%
M02*
