%TF.GenerationSoftware,KiCad,Pcbnew,(5.1.10)-1*%
%TF.CreationDate,2021-11-27T13:57:11+01:00*%
%TF.ProjectId,SplashQuad,53706c61-7368-4517-9561-642e6b696361,rev?*%
%TF.SameCoordinates,Original*%
%TF.FileFunction,Soldermask,Bot*%
%TF.FilePolarity,Negative*%
%FSLAX46Y46*%
G04 Gerber Fmt 4.6, Leading zero omitted, Abs format (unit mm)*
G04 Created by KiCad (PCBNEW (5.1.10)-1) date 2021-11-27 13:57:11*
%MOMM*%
%LPD*%
G01*
G04 APERTURE LIST*
%ADD10C,0.800000*%
%ADD11C,6.400000*%
%ADD12R,4.200000X1.350000*%
%ADD13O,0.800000X1.300000*%
%ADD14O,1.300000X0.800000*%
%ADD15O,1.000000X1.000000*%
%ADD16R,1.000000X1.000000*%
%ADD17O,1.200000X1.900000*%
%ADD18C,1.450000*%
G04 APERTURE END LIST*
D10*
%TO.C,H4*%
X187247056Y-82852944D03*
X185550000Y-82150000D03*
X183852944Y-82852944D03*
X183150000Y-84550000D03*
X183852944Y-86247056D03*
X185550000Y-86950000D03*
X187247056Y-86247056D03*
X187950000Y-84550000D03*
D11*
X185550000Y-84550000D03*
%TD*%
D10*
%TO.C,H3*%
X187247056Y-118852944D03*
X185550000Y-118150000D03*
X183852944Y-118852944D03*
X183150000Y-120550000D03*
X183852944Y-122247056D03*
X185550000Y-122950000D03*
X187247056Y-122247056D03*
X187950000Y-120550000D03*
D11*
X185550000Y-120550000D03*
%TD*%
D10*
%TO.C,H2*%
X135847056Y-118852944D03*
X134150000Y-118150000D03*
X132452944Y-118852944D03*
X131750000Y-120550000D03*
X132452944Y-122247056D03*
X134150000Y-122950000D03*
X135847056Y-122247056D03*
X136550000Y-120550000D03*
D11*
X134150000Y-120550000D03*
%TD*%
D10*
%TO.C,H1*%
X135847056Y-82852944D03*
X134150000Y-82150000D03*
X132452944Y-82852944D03*
X131750000Y-84550000D03*
X132452944Y-86247056D03*
X134150000Y-86950000D03*
X135847056Y-86247056D03*
X136550000Y-84550000D03*
D11*
X134150000Y-84550000D03*
%TD*%
D12*
%TO.C,J8*%
X177100000Y-100375000D03*
X177100000Y-106025000D03*
%TD*%
D13*
%TO.C,J7*%
X152750000Y-85900000D03*
X154000000Y-85900000D03*
X155250000Y-85900000D03*
G36*
G01*
X156900000Y-85450000D02*
X156900000Y-86350000D01*
G75*
G02*
X156700000Y-86550000I-200000J0D01*
G01*
X156300000Y-86550000D01*
G75*
G02*
X156100000Y-86350000I0J200000D01*
G01*
X156100000Y-85450000D01*
G75*
G02*
X156300000Y-85250000I200000J0D01*
G01*
X156700000Y-85250000D01*
G75*
G02*
X156900000Y-85450000I0J-200000D01*
G01*
G37*
%TD*%
%TO.C,J6*%
X158750000Y-119175000D03*
X157500000Y-119175000D03*
X156250000Y-119175000D03*
G36*
G01*
X154600000Y-119625000D02*
X154600000Y-118725000D01*
G75*
G02*
X154800000Y-118525000I200000J0D01*
G01*
X155200000Y-118525000D01*
G75*
G02*
X155400000Y-118725000I0J-200000D01*
G01*
X155400000Y-119625000D01*
G75*
G02*
X155200000Y-119825000I-200000J0D01*
G01*
X154800000Y-119825000D01*
G75*
G02*
X154600000Y-119625000I0J200000D01*
G01*
G37*
%TD*%
%TO.C,J5*%
X145825000Y-119150000D03*
X144575000Y-119150000D03*
X143325000Y-119150000D03*
G36*
G01*
X141675000Y-119600000D02*
X141675000Y-118700000D01*
G75*
G02*
X141875000Y-118500000I200000J0D01*
G01*
X142275000Y-118500000D01*
G75*
G02*
X142475000Y-118700000I0J-200000D01*
G01*
X142475000Y-119600000D01*
G75*
G02*
X142275000Y-119800000I-200000J0D01*
G01*
X141875000Y-119800000D01*
G75*
G02*
X141675000Y-119600000I0J200000D01*
G01*
G37*
%TD*%
D14*
%TO.C,J4*%
X135500000Y-114550000D03*
X135500000Y-113300000D03*
X135500000Y-112050000D03*
X135500000Y-110800000D03*
X135500000Y-109550000D03*
G36*
G01*
X135050000Y-107900000D02*
X135950000Y-107900000D01*
G75*
G02*
X136150000Y-108100000I0J-200000D01*
G01*
X136150000Y-108500000D01*
G75*
G02*
X135950000Y-108700000I-200000J0D01*
G01*
X135050000Y-108700000D01*
G75*
G02*
X134850000Y-108500000I0J200000D01*
G01*
X134850000Y-108100000D01*
G75*
G02*
X135050000Y-107900000I200000J0D01*
G01*
G37*
%TD*%
%TO.C,J3*%
X135525000Y-92225000D03*
G36*
G01*
X135075000Y-90575000D02*
X135975000Y-90575000D01*
G75*
G02*
X136175000Y-90775000I0J-200000D01*
G01*
X136175000Y-91175000D01*
G75*
G02*
X135975000Y-91375000I-200000J0D01*
G01*
X135075000Y-91375000D01*
G75*
G02*
X134875000Y-91175000I0J200000D01*
G01*
X134875000Y-90775000D01*
G75*
G02*
X135075000Y-90575000I200000J0D01*
G01*
G37*
%TD*%
D15*
%TO.C,J2*%
X184930000Y-89820000D03*
X186200000Y-89820000D03*
X184930000Y-91090000D03*
X186200000Y-91090000D03*
X184930000Y-92360000D03*
X186200000Y-92360000D03*
X184930000Y-93630000D03*
X186200000Y-93630000D03*
X184930000Y-94900000D03*
D16*
X186200000Y-94900000D03*
%TD*%
D17*
%TO.C,J1*%
X160050000Y-82712500D03*
X167050000Y-82712500D03*
D18*
X161050000Y-85412500D03*
X166050000Y-85412500D03*
%TD*%
M02*
