M48
; DRILL file {KiCad (5.1.10)-1} date 11/27/21 13:59:48
; FORMAT={-:-/ absolute / inch / decimal}
; #@! TF.CreationDate,2021-11-27T13:59:48+01:00
; #@! TF.GenerationSoftware,Kicad,Pcbnew,(5.1.10)-1
; #@! TF.FileFunction,Plated,1,4,PTH
FMAT,2
INCH
T1C0.0157
T2C0.0197
T3C0.0236
T4C0.0256
T5C0.0335
T6C0.1260
%
G90
G05
T1
X5.2244Y-4.128
X5.2303Y-3.8957
X5.3376Y-4.0768
X5.4035Y-4.0551
X5.4469Y-4.0551
X5.4656Y-3.8081
X5.5098Y-3.7638
X5.5098Y-3.8012
X5.5423Y-3.8435
X5.5778Y-3.3789
X5.5778Y-3.4134
X5.5778Y-3.4508
X5.5807Y-4.3504
X5.6111Y-3.5809
X5.6132Y-3.3789
X5.6181Y-4.3504
X5.6417Y-3.6654
X5.6634Y-3.9508
X5.6969Y-3.9114
X5.7126Y-3.872
X5.7618Y-4.3996
X5.7972Y-3.7451
X5.7992Y-4.3504
X5.8031Y-3.7028
X5.8484Y-4.3996
X5.8622Y-3.7451
X5.8681Y-4.3504
X5.876Y-4.1732
X5.8986Y-3.5531
X5.9173Y-4.2185
X5.9173Y-4.3337
X5.9311Y-3.5089
X5.9488Y-3.7628
X5.9567Y-4.2185
X5.9567Y-4.3337
X5.9587Y-3.8081
X5.9961Y-3.8081
X6.0Y-3.686
X6.0322Y-4.064
X6.0374Y-3.5089
X6.061Y-4.0866
X6.0689Y-4.3051
X6.0758Y-3.5463
X6.0758Y-3.6535
X6.0768Y-4.3563
X6.126Y-4.0984
X6.1483Y-3.9613
X6.187Y-3.9587
X6.1909Y-3.8209
X6.1909Y-3.8839
X6.2323Y-4.1594
X6.2382Y-3.6998
X6.2402Y-4.2362
X6.3307Y-3.9764
X6.3307Y-4.0197
X6.3307Y-4.063
X6.3445Y-3.8051
X6.3632Y-3.5236
X6.3878Y-3.4193
X6.4006Y-4.499
X6.4055Y-3.6319
X6.44Y-4.7963
X6.4833Y-4.499
X6.4911Y-4.7963
X6.5089Y-3.6319
X6.5236Y-4.4823
X6.5404Y-4.7963
X6.5492Y-3.8327
X6.5728Y-4.4843
X6.5866Y-3.8031
X6.5915Y-4.7963
X6.6132Y-4.499
X6.6398Y-4.3091
X6.6457Y-4.3976
X6.6457Y-4.5069
X6.6683Y-4.5551
X6.687Y-4.2677
X6.7087Y-4.0197
X6.7087Y-4.1063
X6.7283Y-4.2677
X6.7283Y-4.5945
X6.7598Y-4.0197
X6.7598Y-4.1063
X6.7677Y-4.2677
X6.7815Y-4.3661
X6.7815Y-4.4075
X6.7963Y-3.8937
X6.8071Y-4.2677
X6.8081Y-4.5551
X6.811Y-4.0197
X6.815Y-4.1063
X6.8425Y-4.5984
X6.8504Y-3.9803
X6.8524Y-4.1437
X6.872Y-4.3071
X6.872Y-4.5226
X6.8878Y-3.563
X6.8878Y-3.6998
X6.9045Y-4.4882
X6.935Y-4.373
T2
X5.187Y-3.3287
X5.187Y-4.7461
X5.2147Y-3.2619
X5.2147Y-3.3956
X5.2147Y-4.6792
X5.2147Y-4.8129
X5.2815Y-3.2343
X5.2815Y-3.4232
X5.2815Y-4.6516
X5.2815Y-4.8406
X5.3346Y-4.2638
X5.3346Y-4.313
X5.3346Y-4.3622
X5.3346Y-4.4114
X5.3346Y-4.4606
X5.3346Y-4.5098
X5.3356Y-3.5817
X5.3356Y-3.6309
X5.3483Y-3.2619
X5.3483Y-3.3956
X5.3483Y-4.6792
X5.3483Y-4.8129
X5.376Y-3.3287
X5.376Y-4.7461
X5.5935Y-4.6909
X5.6427Y-4.6909
X5.6919Y-4.6909
X5.7411Y-4.6909
X6.0138Y-3.3819
X6.063Y-3.3819
X6.1024Y-4.6919
X6.1122Y-3.3819
X6.1516Y-4.6919
X6.1614Y-3.3819
X6.2008Y-4.6919
X6.25Y-4.6919
X7.2106Y-3.3287
X7.2106Y-4.7461
X7.2383Y-3.2619
X7.2383Y-3.3956
X7.2383Y-4.6792
X7.2383Y-4.8129
X7.3051Y-3.2343
X7.3051Y-3.4232
X7.3051Y-4.6516
X7.3051Y-4.8406
X7.3719Y-3.2619
X7.3719Y-3.3956
X7.3719Y-4.6792
X7.3719Y-4.8129
X7.3996Y-3.3287
X7.3996Y-4.7461
T4
X7.2807Y-3.5362
X7.2807Y-3.5862
X7.2807Y-3.6362
X7.2807Y-3.6862
X7.2807Y-3.7362
X7.3307Y-3.5362
X7.3307Y-3.5862
X7.3307Y-3.6362
X7.3307Y-3.6862
X7.3307Y-3.7362
T5
X6.3406Y-3.3627
X6.5374Y-3.3627
T6
X5.2815Y-3.3287
X5.2815Y-4.7461
X7.3051Y-3.3287
X7.3051Y-4.7461
T3
G00X6.3012Y-3.2702
M15
G01X6.3012Y-3.2426
M16
G05
G00X6.5768Y-3.2426
M15
G01X6.5768Y-3.2702
M16
G05
T0
M30
