%TF.GenerationSoftware,KiCad,Pcbnew,(5.1.10)-1*%
%TF.CreationDate,2021-11-27T13:57:11+01:00*%
%TF.ProjectId,SplashQuad,53706c61-7368-4517-9561-642e6b696361,rev?*%
%TF.SameCoordinates,Original*%
%TF.FileFunction,Legend,Bot*%
%TF.FilePolarity,Positive*%
%FSLAX46Y46*%
G04 Gerber Fmt 4.6, Leading zero omitted, Abs format (unit mm)*
G04 Created by KiCad (PCBNEW (5.1.10)-1) date 2021-11-27 13:57:11*
%MOMM*%
%LPD*%
G01*
G04 APERTURE LIST*
%ADD10C,0.150000*%
G04 APERTURE END LIST*
D10*
X155797619Y-84511904D02*
X155797619Y-83940476D01*
X154797619Y-84226190D02*
X155797619Y-84226190D01*
X155797619Y-83702380D02*
X154797619Y-83035714D01*
X155797619Y-83035714D02*
X154797619Y-83702380D01*
X153547619Y-83916666D02*
X154023809Y-84250000D01*
X153547619Y-84488095D02*
X154547619Y-84488095D01*
X154547619Y-84107142D01*
X154500000Y-84011904D01*
X154452380Y-83964285D01*
X154357142Y-83916666D01*
X154214285Y-83916666D01*
X154119047Y-83964285D01*
X154071428Y-84011904D01*
X154023809Y-84107142D01*
X154023809Y-84488095D01*
X154547619Y-83583333D02*
X153547619Y-82916666D01*
X154547619Y-82916666D02*
X153547619Y-83583333D01*
X132154761Y-92747619D02*
X132488095Y-91747619D01*
X132821428Y-92747619D01*
X133154761Y-91747619D02*
X133154761Y-92747619D01*
X133630952Y-91747619D02*
X133630952Y-92747619D01*
X134202380Y-91747619D01*
X134202380Y-92747619D01*
X132559523Y-109192857D02*
X132511904Y-109145238D01*
X132369047Y-109097619D01*
X132273809Y-109097619D01*
X132130952Y-109145238D01*
X132035714Y-109240476D01*
X131988095Y-109335714D01*
X131940476Y-109526190D01*
X131940476Y-109669047D01*
X131988095Y-109859523D01*
X132035714Y-109954761D01*
X132130952Y-110050000D01*
X132273809Y-110097619D01*
X132369047Y-110097619D01*
X132511904Y-110050000D01*
X132559523Y-110002380D01*
X132988095Y-109097619D02*
X132988095Y-110097619D01*
X132988095Y-109621428D02*
X133559523Y-109621428D01*
X133559523Y-109097619D02*
X133559523Y-110097619D01*
X134559523Y-109097619D02*
X133988095Y-109097619D01*
X134273809Y-109097619D02*
X134273809Y-110097619D01*
X134178571Y-109954761D01*
X134083333Y-109859523D01*
X133988095Y-109811904D01*
X132559523Y-110442857D02*
X132511904Y-110395238D01*
X132369047Y-110347619D01*
X132273809Y-110347619D01*
X132130952Y-110395238D01*
X132035714Y-110490476D01*
X131988095Y-110585714D01*
X131940476Y-110776190D01*
X131940476Y-110919047D01*
X131988095Y-111109523D01*
X132035714Y-111204761D01*
X132130952Y-111300000D01*
X132273809Y-111347619D01*
X132369047Y-111347619D01*
X132511904Y-111300000D01*
X132559523Y-111252380D01*
X132988095Y-110347619D02*
X132988095Y-111347619D01*
X132988095Y-110871428D02*
X133559523Y-110871428D01*
X133559523Y-110347619D02*
X133559523Y-111347619D01*
X133988095Y-111252380D02*
X134035714Y-111300000D01*
X134130952Y-111347619D01*
X134369047Y-111347619D01*
X134464285Y-111300000D01*
X134511904Y-111252380D01*
X134559523Y-111157142D01*
X134559523Y-111061904D01*
X134511904Y-110919047D01*
X133940476Y-110347619D01*
X134559523Y-110347619D01*
X132559523Y-111692857D02*
X132511904Y-111645238D01*
X132369047Y-111597619D01*
X132273809Y-111597619D01*
X132130952Y-111645238D01*
X132035714Y-111740476D01*
X131988095Y-111835714D01*
X131940476Y-112026190D01*
X131940476Y-112169047D01*
X131988095Y-112359523D01*
X132035714Y-112454761D01*
X132130952Y-112550000D01*
X132273809Y-112597619D01*
X132369047Y-112597619D01*
X132511904Y-112550000D01*
X132559523Y-112502380D01*
X132988095Y-111597619D02*
X132988095Y-112597619D01*
X132988095Y-112121428D02*
X133559523Y-112121428D01*
X133559523Y-111597619D02*
X133559523Y-112597619D01*
X133940476Y-112597619D02*
X134559523Y-112597619D01*
X134226190Y-112216666D01*
X134369047Y-112216666D01*
X134464285Y-112169047D01*
X134511904Y-112121428D01*
X134559523Y-112026190D01*
X134559523Y-111788095D01*
X134511904Y-111692857D01*
X134464285Y-111645238D01*
X134369047Y-111597619D01*
X134083333Y-111597619D01*
X133988095Y-111645238D01*
X133940476Y-111692857D01*
X132559523Y-112942857D02*
X132511904Y-112895238D01*
X132369047Y-112847619D01*
X132273809Y-112847619D01*
X132130952Y-112895238D01*
X132035714Y-112990476D01*
X131988095Y-113085714D01*
X131940476Y-113276190D01*
X131940476Y-113419047D01*
X131988095Y-113609523D01*
X132035714Y-113704761D01*
X132130952Y-113800000D01*
X132273809Y-113847619D01*
X132369047Y-113847619D01*
X132511904Y-113800000D01*
X132559523Y-113752380D01*
X132988095Y-112847619D02*
X132988095Y-113847619D01*
X132988095Y-113371428D02*
X133559523Y-113371428D01*
X133559523Y-112847619D02*
X133559523Y-113847619D01*
X134464285Y-113514285D02*
X134464285Y-112847619D01*
X134226190Y-113895238D02*
X133988095Y-113180952D01*
X134607142Y-113180952D01*
X145002380Y-120233333D02*
X144002380Y-120233333D01*
X144002380Y-120614285D01*
X144050000Y-120709523D01*
X144097619Y-120757142D01*
X144192857Y-120804761D01*
X144335714Y-120804761D01*
X144430952Y-120757142D01*
X144478571Y-120709523D01*
X144526190Y-120614285D01*
X144526190Y-120233333D01*
X144716666Y-121185714D02*
X144716666Y-121661904D01*
X145002380Y-121090476D02*
X144002380Y-121423809D01*
X145002380Y-121757142D01*
X144002380Y-122566666D02*
X144002380Y-122090476D01*
X144478571Y-122042857D01*
X144430952Y-122090476D01*
X144383333Y-122185714D01*
X144383333Y-122423809D01*
X144430952Y-122519047D01*
X144478571Y-122566666D01*
X144573809Y-122614285D01*
X144811904Y-122614285D01*
X144907142Y-122566666D01*
X144954761Y-122519047D01*
X145002380Y-122423809D01*
X145002380Y-122185714D01*
X144954761Y-122090476D01*
X144907142Y-122042857D01*
X143752380Y-120233333D02*
X142752380Y-120233333D01*
X142752380Y-120614285D01*
X142800000Y-120709523D01*
X142847619Y-120757142D01*
X142942857Y-120804761D01*
X143085714Y-120804761D01*
X143180952Y-120757142D01*
X143228571Y-120709523D01*
X143276190Y-120614285D01*
X143276190Y-120233333D01*
X143466666Y-121185714D02*
X143466666Y-121661904D01*
X143752380Y-121090476D02*
X142752380Y-121423809D01*
X143752380Y-121757142D01*
X143085714Y-122519047D02*
X143752380Y-122519047D01*
X142704761Y-122280952D02*
X143419047Y-122042857D01*
X143419047Y-122661904D01*
X157904761Y-120209523D02*
X157952380Y-120352380D01*
X157952380Y-120590476D01*
X157904761Y-120685714D01*
X157857142Y-120733333D01*
X157761904Y-120780952D01*
X157666666Y-120780952D01*
X157571428Y-120733333D01*
X157523809Y-120685714D01*
X157476190Y-120590476D01*
X157428571Y-120400000D01*
X157380952Y-120304761D01*
X157333333Y-120257142D01*
X157238095Y-120209523D01*
X157142857Y-120209523D01*
X157047619Y-120257142D01*
X157000000Y-120304761D01*
X156952380Y-120400000D01*
X156952380Y-120638095D01*
X157000000Y-120780952D01*
X157857142Y-121780952D02*
X157904761Y-121733333D01*
X157952380Y-121590476D01*
X157952380Y-121495238D01*
X157904761Y-121352380D01*
X157809523Y-121257142D01*
X157714285Y-121209523D01*
X157523809Y-121161904D01*
X157380952Y-121161904D01*
X157190476Y-121209523D01*
X157095238Y-121257142D01*
X157000000Y-121352380D01*
X156952380Y-121495238D01*
X156952380Y-121590476D01*
X157000000Y-121733333D01*
X157047619Y-121780952D01*
X157952380Y-122685714D02*
X157952380Y-122209523D01*
X156952380Y-122209523D01*
X156654761Y-120185714D02*
X156702380Y-120328571D01*
X156702380Y-120566666D01*
X156654761Y-120661904D01*
X156607142Y-120709523D01*
X156511904Y-120757142D01*
X156416666Y-120757142D01*
X156321428Y-120709523D01*
X156273809Y-120661904D01*
X156226190Y-120566666D01*
X156178571Y-120376190D01*
X156130952Y-120280952D01*
X156083333Y-120233333D01*
X155988095Y-120185714D01*
X155892857Y-120185714D01*
X155797619Y-120233333D01*
X155750000Y-120280952D01*
X155702380Y-120376190D01*
X155702380Y-120614285D01*
X155750000Y-120757142D01*
X156702380Y-121185714D02*
X155702380Y-121185714D01*
X155702380Y-121423809D01*
X155750000Y-121566666D01*
X155845238Y-121661904D01*
X155940476Y-121709523D01*
X156130952Y-121757142D01*
X156273809Y-121757142D01*
X156464285Y-121709523D01*
X156559523Y-121661904D01*
X156654761Y-121566666D01*
X156702380Y-121423809D01*
X156702380Y-121185714D01*
X156416666Y-122138095D02*
X156416666Y-122614285D01*
X156702380Y-122042857D02*
X155702380Y-122376190D01*
X156702380Y-122709523D01*
X167852380Y-117666666D02*
X166852380Y-117666666D01*
X167566666Y-118000000D01*
X166852380Y-118333333D01*
X167852380Y-118333333D01*
X167757142Y-119380952D02*
X167804761Y-119333333D01*
X167852380Y-119190476D01*
X167852380Y-119095238D01*
X167804761Y-118952380D01*
X167709523Y-118857142D01*
X167614285Y-118809523D01*
X167423809Y-118761904D01*
X167280952Y-118761904D01*
X167090476Y-118809523D01*
X166995238Y-118857142D01*
X166900000Y-118952380D01*
X166852380Y-119095238D01*
X166852380Y-119190476D01*
X166900000Y-119333333D01*
X166947619Y-119380952D01*
X166852380Y-119809523D02*
X167661904Y-119809523D01*
X167757142Y-119857142D01*
X167804761Y-119904761D01*
X167852380Y-120000000D01*
X167852380Y-120190476D01*
X167804761Y-120285714D01*
X167757142Y-120333333D01*
X167661904Y-120380952D01*
X166852380Y-120380952D01*
X166947619Y-120809523D02*
X166900000Y-120857142D01*
X166852380Y-120952380D01*
X166852380Y-121190476D01*
X166900000Y-121285714D01*
X166947619Y-121333333D01*
X167042857Y-121380952D01*
X167138095Y-121380952D01*
X167280952Y-121333333D01*
X167852380Y-120761904D01*
X167852380Y-121380952D01*
X166577380Y-117666666D02*
X165577380Y-117666666D01*
X166291666Y-118000000D01*
X165577380Y-118333333D01*
X166577380Y-118333333D01*
X166482142Y-119380952D02*
X166529761Y-119333333D01*
X166577380Y-119190476D01*
X166577380Y-119095238D01*
X166529761Y-118952380D01*
X166434523Y-118857142D01*
X166339285Y-118809523D01*
X166148809Y-118761904D01*
X166005952Y-118761904D01*
X165815476Y-118809523D01*
X165720238Y-118857142D01*
X165625000Y-118952380D01*
X165577380Y-119095238D01*
X165577380Y-119190476D01*
X165625000Y-119333333D01*
X165672619Y-119380952D01*
X165577380Y-119809523D02*
X166386904Y-119809523D01*
X166482142Y-119857142D01*
X166529761Y-119904761D01*
X166577380Y-120000000D01*
X166577380Y-120190476D01*
X166529761Y-120285714D01*
X166482142Y-120333333D01*
X166386904Y-120380952D01*
X165577380Y-120380952D01*
X166577380Y-121380952D02*
X166577380Y-120809523D01*
X166577380Y-121095238D02*
X165577380Y-121095238D01*
X165720238Y-121000000D01*
X165815476Y-120904761D01*
X165863095Y-120809523D01*
X165327380Y-118829761D02*
X164327380Y-118829761D01*
X165327380Y-119305952D02*
X164327380Y-119305952D01*
X165041666Y-119639285D01*
X164327380Y-119972619D01*
X165327380Y-119972619D01*
X164327380Y-120448809D02*
X165136904Y-120448809D01*
X165232142Y-120496428D01*
X165279761Y-120544047D01*
X165327380Y-120639285D01*
X165327380Y-120829761D01*
X165279761Y-120925000D01*
X165232142Y-120972619D01*
X165136904Y-121020238D01*
X164327380Y-121020238D01*
X163100000Y-119185714D02*
X163052380Y-119090476D01*
X163052380Y-118947619D01*
X163100000Y-118804761D01*
X163195238Y-118709523D01*
X163290476Y-118661904D01*
X163480952Y-118614285D01*
X163623809Y-118614285D01*
X163814285Y-118661904D01*
X163909523Y-118709523D01*
X164004761Y-118804761D01*
X164052380Y-118947619D01*
X164052380Y-119042857D01*
X164004761Y-119185714D01*
X163957142Y-119233333D01*
X163623809Y-119233333D01*
X163623809Y-119042857D01*
X164052380Y-119661904D02*
X163052380Y-119661904D01*
X163052380Y-120042857D01*
X163100000Y-120138095D01*
X163147619Y-120185714D01*
X163242857Y-120233333D01*
X163385714Y-120233333D01*
X163480952Y-120185714D01*
X163528571Y-120138095D01*
X163576190Y-120042857D01*
X163576190Y-119661904D01*
X164004761Y-120614285D02*
X164052380Y-120757142D01*
X164052380Y-120995238D01*
X164004761Y-121090476D01*
X163957142Y-121138095D01*
X163861904Y-121185714D01*
X163766666Y-121185714D01*
X163671428Y-121138095D01*
X163623809Y-121090476D01*
X163576190Y-120995238D01*
X163528571Y-120804761D01*
X163480952Y-120709523D01*
X163433333Y-120661904D01*
X163338095Y-120614285D01*
X163242857Y-120614285D01*
X163147619Y-120661904D01*
X163100000Y-120709523D01*
X163052380Y-120804761D01*
X163052380Y-121042857D01*
X163100000Y-121185714D01*
M02*
